<svg width="132" height="56" viewBox="0 0 132 56" fill="none" xmlns="http://www.w3.org/2000/svg">
<g clip-path="url(#clip0_272_74)">
<path d="M38.8868 22.946H26.3668V26.661H35.2468C34.8068 31.861 30.4738 34.093 26.3818 34.093C25.0855 34.0987 23.801 33.8461 22.6034 33.3499C21.4057 32.8538 20.3189 32.124 19.4064 31.2032C18.4939 30.2824 17.774 29.1891 17.2887 27.987C16.8034 26.7849 16.5624 25.4982 16.5798 24.202C16.5798 18.578 20.9338 14.248 26.3938 14.248C30.6058 14.248 33.0878 16.933 33.0878 16.933L35.6878 14.239C35.6878 14.239 32.3478 10.522 26.2578 10.522C18.5028 10.522 12.5038 17.067 12.5038 24.136C12.5038 31.063 18.1468 37.818 26.4538 37.818C33.7608 37.818 39.1098 32.812 39.1098 25.41C39.1098 23.848 38.8828 22.946 38.8828 22.946H38.8868Z" fill="#131313"/>
<path d="M49.1438 20.255C44.0058 20.255 40.3238 24.272 40.3238 28.955C40.3238 33.709 43.8938 37.8 49.2038 37.8C54.0098 37.8 57.9468 34.127 57.9468 29.057C57.9468 23.257 53.3668 20.254 49.1438 20.254V20.255ZM49.1938 23.701C51.7198 23.701 54.1138 25.744 54.1138 29.035C54.1138 32.255 51.7298 34.357 49.1818 34.357C46.3818 34.357 44.1818 32.115 44.1818 29.009C44.1818 25.969 46.3618 23.701 49.2018 23.701H49.1938Z" fill="#131313"/>
<path d="M68.3248 20.255C63.1868 20.255 59.5048 24.272 59.5048 28.955C59.5048 33.709 63.0748 37.8 68.3848 37.8C73.1908 37.8 77.1278 34.127 77.1278 29.057C77.1278 23.257 72.5478 20.254 68.3248 20.254V20.255ZM68.3748 23.701C70.9008 23.701 73.2948 25.744 73.2948 29.035C73.2948 32.255 70.9108 34.357 68.3628 34.357C65.5628 34.357 63.3628 32.115 63.3628 29.009C63.3628 25.969 65.5428 23.701 68.3828 23.701H68.3748Z" fill="#131313"/>
<path d="M87.1378 20.265C82.4218 20.265 78.7158 24.395 78.7158 29.031C78.7158 34.311 83.0128 37.813 87.0558 37.813C89.5558 37.813 90.8858 36.82 91.8558 35.681V37.411C91.8558 40.438 90.0178 42.251 87.2438 42.251C84.5638 42.251 83.2198 40.258 82.7438 39.128L79.3718 40.528C80.5678 43.058 82.9758 45.695 87.2718 45.695C91.9718 45.695 95.5338 42.742 95.5338 36.548V20.792H91.8698V22.278C90.7398 21.058 89.1918 20.265 87.1398 20.265H87.1378ZM87.4778 23.705C89.7898 23.705 92.1638 25.679 92.1638 29.05C92.1638 32.477 89.7938 34.365 87.4268 34.365C84.9128 34.365 82.5738 32.325 82.5738 29.082C82.5738 25.714 85.0038 23.705 87.4778 23.705Z" fill="#131313"/>
<path d="M111.91 20.244C107.462 20.244 103.727 23.784 103.727 29.004C103.727 34.53 107.89 37.807 112.327 37.807C116.039 37.807 118.327 35.777 119.677 33.957L116.644 31.939C115.857 33.159 114.541 34.354 112.346 34.354C109.88 34.354 108.746 33.004 108.043 31.694L119.806 26.814L119.206 25.384C118.07 22.584 115.418 20.244 111.91 20.244ZM112.063 23.618C113.666 23.618 114.819 24.47 115.309 25.492L107.453 28.775C107.113 26.233 109.523 23.618 112.053 23.618H112.063Z" fill="#131313"/>
<path d="M98.1098 37.287H101.974V11.43H98.1098V37.287Z" fill="#131313"/>
</g>
<defs>
<clipPath id="clip0_272_74">
<rect width="107" height="35" fill="white" transform="translate(12.5098 10.5)"/>
</clipPath>
</defs>
</svg>
