<svg width="61" height="56" viewBox="0 0 61 56" fill="none" xmlns="http://www.w3.org/2000/svg">
<path d="M48.7788 30.5005C48.7788 39.844 42.0331 47.5683 33.2706 48.8221C32.451 48.9393 31.6127 49 30.762 49C29.7795 49 28.8157 48.919 27.8758 48.7635C19.2979 47.3456 12.7452 39.7077 12.7452 30.4995C12.7452 20.2825 20.8116 12 30.762 12C40.7124 12 48.7788 20.2825 48.7788 30.4995V30.5005Z" fill="#131313"/>
<path d="M36.4037 19.3952H25.1191C22.0015 19.3952 19.4659 21.9987 19.4659 25.1998V35.8003C19.4659 39.0015 22.0015 41.605 25.1191 41.605H36.4037C39.5213 41.605 42.0569 39.0015 42.0569 35.8003V25.1998C42.0569 21.9987 39.5213 19.3952 36.4037 19.3952ZM21.46 25.1998C21.46 23.1279 23.1012 21.4426 25.1191 21.4426H36.4037C38.4216 21.4426 40.0629 23.1279 40.0629 25.1998V35.8003C40.0629 37.8723 38.4216 39.5575 36.4037 39.5575H25.1191C23.1012 39.5575 21.46 37.8723 21.46 35.8003V25.1998Z" fill="white"/>
<path d="M30.7615 35.901C33.6612 35.901 36.0204 33.4786 36.0204 30.5012C36.0204 27.5237 33.6612 25.1013 30.7615 25.1013C27.8617 25.1013 25.5025 27.5237 25.5025 30.5012C25.5025 33.4786 27.8617 35.901 30.7615 35.901ZM30.7615 27.1498C32.5615 27.1498 34.0254 28.6529 34.0254 30.5012C34.0254 32.3494 32.5615 33.8525 30.7615 33.8525C28.9615 33.8525 27.4976 32.3494 27.4976 30.5012C27.4976 28.6529 28.9615 27.1498 30.7615 27.1498Z" fill="white"/>
<path d="M36.5093 25.9719C37.2906 25.9719 37.9265 25.3189 37.9265 24.5168C37.9265 23.7146 37.2906 23.0616 36.5093 23.0616C35.7281 23.0616 35.0922 23.7146 35.0922 24.5168C35.0922 25.3189 35.7281 25.9719 36.5093 25.9719Z" fill="white"/>
</svg>
