<svg width="135" height="56" viewBox="0 0 135 56" fill="none" xmlns="http://www.w3.org/2000/svg">
<g clip-path="url(#clip0_272_80)">
<path d="M93.6844 15.7355C93.6844 14.5969 94.6308 13.6733 95.7983 13.6733H120.176C121.344 13.6733 122.29 14.5969 122.29 15.7355V40.3985C122.29 41.5375 121.344 42.4606 120.176 42.4606H95.7983C94.6308 42.4606 93.6844 41.5375 93.6844 40.3985V15.7355Z" fill="#131313"/>
<path fill-rule="evenodd" clip-rule="evenodd" d="M13.6072 37.7867H25.5453V33.8674H17.9275V18.9143H13.6072V37.7867Z" fill="#131313"/>
<path fill-rule="evenodd" clip-rule="evenodd" d="M31.5894 37.7867V24.788H27.2688V37.7867H31.5894ZM29.4291 23.0132C30.9358 23.0132 31.8736 22.015 31.8736 20.7668C31.8455 19.4916 30.9358 18.5215 29.4578 18.5215C27.9796 18.5215 27.0133 19.4916 27.0133 20.7668C27.0133 22.015 27.9509 23.0132 29.4009 23.0132H29.4291Z" fill="#131313"/>
<path fill-rule="evenodd" clip-rule="evenodd" d="M33.5955 37.7867H37.9162V30.5274C37.9162 30.1389 37.9443 29.7508 38.0585 29.4731C38.3707 28.6972 39.0816 27.8933 40.2752 27.8933C41.8388 27.8933 42.4642 29.0858 42.4642 30.8321V37.7867H46.7845V30.3332C46.7845 26.3405 44.6527 24.4826 41.8101 24.4826C39.4794 24.4826 38.456 25.7854 37.8874 26.6728H37.9163V24.788H33.5956C33.6523 26.0077 33.5955 37.7867 33.5955 37.7867Z" fill="#131313"/>
<path fill-rule="evenodd" clip-rule="evenodd" d="M52.8796 18.9143H48.5588V37.7867H52.8796V33.5724L53.9594 32.213L57.342 37.7867H62.6572L56.9726 29.7177L61.9468 24.2279H56.7453C56.7453 24.2279 53.1923 29.1396 52.8796 29.722V18.9143Z" fill="#131313"/>
<path fill-rule="evenodd" clip-rule="evenodd" d="M74.2117 32.3646C74.2684 32.0307 74.3539 31.3902 74.3539 30.6663C74.3539 27.3059 72.6481 23.8948 68.1573 23.8948C63.3534 23.8948 61.1364 27.6941 61.1364 31.1398C61.1364 35.4018 63.8367 38.0636 68.5551 38.0636C70.4313 38.0636 72.1649 37.7867 73.5863 37.2043L73.0176 34.3509C71.8523 34.7375 70.6585 34.9306 69.1806 34.9306C67.1624 34.9306 65.4003 34.1024 65.2579 32.3369L74.2117 32.3638V32.3646ZM65.2298 29.4416C65.3434 28.3322 66.0825 26.6959 67.9301 26.6959C69.8909 26.6959 70.346 28.4434 70.346 29.4416H65.2298Z" fill="#131313"/>
<path fill-rule="evenodd" clip-rule="evenodd" d="M85.0186 18.9143V25.4473H84.9619C84.3364 24.5329 83.0286 23.9229 81.2952 23.9229C77.9693 23.9229 75.0417 26.5847 75.0699 31.1317C75.0699 35.3468 77.7135 38.0917 81.0107 38.0917C82.8013 38.0917 84.5068 37.3151 85.3595 35.8176H85.4449L85.6155 37.7867H89.453C89.3961 36.8716 89.3388 35.291 89.3388 33.7386V18.9143H85.0186ZM85.0186 31.7699C85.0186 32.1022 84.9901 32.4353 84.9331 32.7123C84.6777 33.9047 83.6541 34.7364 82.4037 34.7364C80.6129 34.7364 79.4474 33.2947 79.4474 31.021C79.4474 28.8861 80.4425 27.1671 82.4319 27.1671C83.7677 27.1671 84.7059 28.0818 84.9619 29.2185C85.0186 29.4685 85.0186 29.7458 85.0186 29.9951V31.7699Z" fill="#131313"/>
<path fill-rule="evenodd" clip-rule="evenodd" d="M102.356 37.7713V24.7722H98.035V37.7713H102.356ZM100.195 22.9974C101.702 22.9974 102.64 21.9992 102.64 20.7518C102.612 19.4763 101.702 18.5058 100.224 18.5058C98.7459 18.5058 97.7796 19.4763 97.7796 20.7518C97.7796 21.9992 98.7172 22.9974 100.167 22.9974H100.195Z" fill="#E8E8E8"/>
<path fill-rule="evenodd" clip-rule="evenodd" d="M104.747 37.7713H109.067V30.5121C109.067 30.1236 109.095 29.7354 109.209 29.4577C109.522 28.6815 110.233 27.8775 111.426 27.8775C112.99 27.8775 113.615 29.0696 113.615 30.8171V37.7713H117.935V30.3178C117.935 26.3251 115.804 24.4672 112.961 24.4672C110.63 24.4672 109.607 25.77 109.038 26.6574H109.067V24.7722H104.747C104.803 25.992 104.747 37.7713 104.747 37.7713Z" fill="#E8E8E8"/>
</g>
<defs>
<clipPath id="clip0_272_80">
<rect width="109.867" height="30" fill="white" transform="translate(12.933 13)"/>
</clipPath>
</defs>
</svg>
