<svg width="155" height="56" viewBox="0 0 155 56" fill="none" xmlns="http://www.w3.org/2000/svg">
<g clip-path="url(#clip0_272_72)">
<path d="M16.9417 32.3247C16.9417 33.8174 17.2697 34.9649 17.6981 35.6583C18.2596 36.5665 19.0977 36.9519 19.9515 36.9519C21.0531 36.9519 22.0602 36.6782 24.0027 33.9922C25.5585 31.8391 27.3921 28.8178 28.6256 26.9226L30.7142 23.7122C32.1654 21.4832 33.8443 19.0049 35.7711 17.3259C37.3426 15.955 39.0388 15.1929 40.7464 15.1929C43.6115 15.1929 46.3419 16.8532 48.4305 19.9676C50.7169 23.3785 51.8271 27.6747 51.8271 32.1084C51.8271 34.7443 51.3071 36.6811 50.4232 38.2111C49.5694 39.6909 47.9048 41.1693 45.1042 41.1693V36.9504C47.5023 36.9504 48.0996 34.7472 48.0996 32.2259C48.0996 28.6331 47.2616 24.6448 45.4165 21.7955C44.1071 19.7742 42.4095 18.5393 40.5415 18.5393C38.5216 18.5393 36.8971 20.0621 35.0706 22.7782C34.0993 24.2208 33.1023 25.98 31.9835 27.964L30.7515 30.1473C28.276 34.5366 27.6486 35.5351 26.4123 37.1854C24.2434 40.0734 22.3911 41.1693 19.9529 41.1693C17.0606 41.1693 15.2312 39.9172 14.0981 38.0291C13.1712 36.492 12.7171 34.4735 12.7171 32.1729L16.9417 32.3247Z" fill="#131313"/>
<path d="M16.0478 20.267C17.9846 17.2815 20.7795 15.1943 23.9855 15.1943C25.8421 15.1943 27.6873 15.7444 29.614 17.3173C31.7227 19.0378 33.969 21.87 36.7725 26.5401L37.7781 28.2162C40.2049 32.2588 41.5844 34.3374 42.3924 35.3187C43.431 36.578 44.1587 36.9533 45.1042 36.9533C47.5023 36.9533 48.0996 34.75 48.0996 32.2287L51.8257 32.1113C51.8257 34.7472 51.3057 36.684 50.4218 38.2139C49.568 39.6937 47.9034 41.1721 45.1027 41.1721C43.3622 41.1721 41.8193 40.7939 40.1146 39.1852C38.8038 37.9503 37.271 35.7571 36.092 33.7845L32.5851 27.9254C30.826 24.9843 29.2115 22.7925 28.276 21.7998C27.2704 20.7325 25.9797 19.4432 23.9168 19.4432C22.2479 19.4432 20.8311 20.6136 19.6449 22.4057L16.0478 20.267Z" fill="#131313"/>
<path d="M23.9168 19.4404C22.2479 19.4404 20.8311 20.6108 19.6449 22.4029C17.9674 24.9342 16.9417 28.7032 16.9417 32.3247C16.9417 33.8174 17.2697 34.9649 17.6981 35.6583L14.0966 38.0306C13.1712 36.492 12.7171 34.4735 12.7171 32.1729C12.7171 27.9913 13.8646 23.632 16.0478 20.2655C17.9846 17.2801 20.7795 15.1929 23.9855 15.1929L23.9168 19.4404Z" fill="#131313"/>
<path d="M60.0371 16.0152H64.9235L73.2323 31.0455L81.5425 16.0152H86.3229V40.7137H82.3361V21.784L75.0487 34.8919H71.3084L64.0224 21.784V40.7123H60.0356V16.0152H60.0371ZM98.8133 25.2236C95.9539 25.2236 94.2334 27.3753 93.8209 30.0398H103.524C103.323 27.2951 101.74 25.2236 98.8133 25.2236ZM89.8685 31.5569C89.8685 25.9513 93.4914 21.8714 98.8821 21.8714C104.185 21.8714 107.351 25.8997 107.351 31.8563V32.9508H93.8209C94.3008 35.8488 96.2247 37.8014 99.3247 37.8014C101.799 37.8014 103.344 37.0464 104.811 35.6654L106.929 38.2583C104.933 40.0934 102.396 41.1507 99.1829 41.1507C93.3467 41.1535 89.8685 36.8974 89.8685 31.5569ZM112.185 25.5774H108.516V22.3141H112.185V16.9162H116.031V22.3141H121.605V25.5774H116.031V33.8504C116.031 36.6754 116.934 37.6782 119.154 37.6782C120.167 37.6782 120.748 37.5908 121.607 37.449V40.6779C120.538 40.9802 119.518 41.1191 118.413 41.1191C114.262 41.1191 112.186 38.85 112.186 34.3102L112.185 25.5774ZM137.8 28.752C137.028 26.8023 135.305 25.3654 132.772 25.3654C129.481 25.3654 127.374 27.7005 127.374 31.5039C127.374 35.2127 129.314 37.661 132.614 37.661C135.209 37.661 137.061 36.1511 137.8 34.273V28.752ZM141.647 40.7123H137.872V38.1366C136.816 39.6537 134.896 41.1535 131.786 41.1535C126.784 41.1535 123.442 36.9662 123.442 31.5039C123.442 25.99 126.865 21.8714 131.998 21.8714C134.537 21.8714 136.527 22.8857 137.872 24.6778V22.3141H141.647V40.7123Z" fill="#131313"/>
</g>
<defs>
<clipPath id="clip0_272_72">
<rect width="130.51" height="26" fill="white" transform="translate(12 15)"/>
</clipPath>
</defs>
</svg>
