<svg width="61" height="56" viewBox="0 0 61 56" fill="none" xmlns="http://www.w3.org/2000/svg">
<path d="M48.0335 28.0005C48.0335 37.344 41.2878 45.0683 32.5254 46.3221C31.7057 46.4393 30.8674 46.5 30.0167 46.5C29.0342 46.5 28.0704 46.419 27.1305 46.2635C18.5527 44.8456 12 37.2077 12 27.9995C12 17.7825 20.0663 9.5 30.0167 9.5C39.9671 9.5 48.0335 17.7825 48.0335 27.9995V28.0005Z" fill="#131313"/>
<path d="M35.7237 24.5722C35.7216 24.8236 35.6946 25.0729 35.6728 25.3233C35.6656 25.4064 35.6625 25.4894 35.6614 25.5725C35.6583 25.7163 35.7703 25.8452 35.9094 25.8367C35.9758 25.8325 36.0432 25.8144 36.1075 25.792C36.3213 25.7153 36.5319 25.6322 36.7435 25.5491C36.9354 25.4735 37.1305 25.4042 37.3297 25.3488C37.5455 25.2881 37.7613 25.2434 37.9822 25.2807C38.4294 25.3552 38.7199 25.8506 38.5581 26.2852C38.5124 26.4077 38.4418 26.5121 38.3578 26.609C38.2427 26.7411 38.1099 26.854 37.9667 26.9542C37.7986 27.0714 37.6275 27.1853 37.4573 27.3004C37.1741 27.4921 36.8898 27.6818 36.6076 27.8756C36.4903 27.9555 36.3762 28.0408 36.2652 28.1292C36.204 28.1782 36.1459 28.2336 36.0941 28.2932C35.9945 28.4072 35.9395 28.5532 35.9478 28.7055C35.9561 28.8663 35.9841 29.024 36.0266 29.1795C36.1615 29.6621 36.3659 30.1116 36.6159 30.5409C37.284 31.6861 38.2302 32.5809 39.358 33.3117C39.6671 33.512 39.9991 33.675 40.3238 33.8475C40.3695 33.872 40.4151 33.8976 40.4598 33.9242C40.5054 33.9519 40.5438 33.9882 40.5738 34.0329C40.6195 34.1 40.6258 34.1703 40.5874 34.2449C40.5542 34.3077 40.5064 34.3557 40.4535 34.4004C40.3944 34.4505 40.33 34.492 40.2647 34.5304C39.8839 34.752 39.4752 34.9171 39.0519 35.0332C38.8475 35.0886 38.6431 35.1493 38.4398 35.21C38.3142 35.2484 38.197 35.3048 38.0808 35.3666C37.8858 35.471 37.7747 35.6361 37.7333 35.8534C37.7104 35.9738 37.6959 36.0963 37.6751 36.2178C37.6222 36.5224 37.5144 36.6353 37.2218 36.6875C37.1191 36.7057 37.0143 36.7163 36.9106 36.7227C36.6502 36.7376 36.3887 36.7451 36.1283 36.76C36.121 36.76 36.1138 36.76 36.1065 36.7611C35.0649 36.8239 34.0575 37.1669 33.1642 37.7198C33.1165 37.7496 33.0688 37.7784 33.0221 37.8082C32.66 38.033 32.2927 38.246 31.8975 38.4037C31.4565 38.5795 31.0011 38.6839 30.5301 38.7275C30.1328 38.7648 29.7364 38.7595 29.3422 38.7137C28.7508 38.6455 28.1895 38.4687 27.6594 38.1896C27.4135 38.0596 27.1759 37.9147 26.9394 37.7667C26.9259 37.7581 26.9135 37.7507 26.9 37.7422C25.9611 37.1552 24.8945 36.8005 23.7969 36.7547C23.7896 36.7547 23.7813 36.7547 23.7741 36.7547C23.5448 36.7461 23.3145 36.7355 23.0852 36.7216C22.9503 36.7131 22.8165 36.6961 22.6857 36.6588C22.5187 36.6119 22.3973 36.4617 22.3652 36.287C22.3475 36.1911 22.333 36.0953 22.3164 35.9994C22.3133 35.9781 22.3123 35.9568 22.3091 35.9355C22.2708 35.6553 22.1359 35.4486 21.8786 35.3293C21.7209 35.2569 21.5601 35.1972 21.3941 35.1493C21.1078 35.0673 20.8193 34.9959 20.5392 34.8926C20.2933 34.802 20.0547 34.6944 19.8254 34.5666C19.757 34.5283 19.6906 34.4856 19.6252 34.4409C19.5827 34.4111 19.5412 34.377 19.5059 34.3386C19.3907 34.2161 19.4021 34.0542 19.5318 33.9487C19.6076 33.887 19.6958 33.8465 19.7819 33.8039C20.3784 33.5035 20.9438 33.1509 21.4709 32.7343C22.2656 32.1058 22.9389 31.3623 23.4483 30.4653C23.6299 30.1447 23.7803 29.8049 23.9038 29.4565C23.9857 29.2264 24.0521 28.9942 24.0677 28.7524C24.0791 28.5745 24.021 28.3966 23.9017 28.2666C23.8166 28.1739 23.7159 28.0983 23.6153 28.0237C23.4649 27.914 23.3134 27.8053 23.1588 27.7009C22.83 27.4783 22.498 27.2589 22.1681 27.0373C22.0239 26.9403 21.8848 26.8359 21.7593 26.7134C21.668 26.625 21.5871 26.5281 21.5217 26.4162C21.3858 26.1829 21.3754 25.9422 21.4771 25.6961C21.5373 25.5491 21.6493 25.4245 21.7904 25.3584C21.9917 25.2636 22.2002 25.2519 22.4119 25.2881C22.6391 25.3265 22.858 25.3989 23.0738 25.4788C23.2948 25.5608 23.5126 25.6492 23.7326 25.7345C23.8353 25.7739 23.938 25.8133 24.0469 25.8303C24.0729 25.8346 24.0988 25.842 24.1237 25.841C24.2503 25.8367 24.355 25.7952 24.354 25.6205C24.354 25.5363 24.3509 25.4511 24.3468 25.3669C24.3281 24.9472 24.3032 24.5275 24.2938 24.1078C24.271 23.1086 24.2752 22.104 24.5293 21.1325C24.685 20.5381 24.9558 19.9852 25.3189 19.4952C26.0742 18.4757 27.0712 17.8291 28.2632 17.484C28.9148 17.2954 29.5808 17.2325 30.2551 17.2539C30.8932 17.2741 31.5282 17.3849 32.1299 17.6011C32.8457 17.8579 33.4962 18.2307 34.0492 18.7591C34.6779 19.3599 35.1624 20.0619 35.4249 20.912C35.5431 21.2965 35.6189 21.6896 35.6645 22.0891C35.76 22.9147 35.734 23.7445 35.7257 24.5733L35.7237 24.5722Z" fill="#E8E8E8"/>
</svg>
