<svg width="145" height="56" viewBox="0 0 145 56" fill="none" xmlns="http://www.w3.org/2000/svg">
<g clip-path="url(#clip0_272_78)">
<path d="M22.6673 25.9938V24.9001C22.2876 24.8399 21.9041 24.8069 21.5197 24.8014C17.7984 24.7935 14.5038 27.205 13.3863 30.7546C12.2689 34.3042 13.5879 38.1681 16.6426 40.2935C14.3544 37.8446 13.719 34.2796 15.0203 31.191C16.3216 28.1024 19.3165 26.0669 22.6673 25.9938Z" fill="#131313"/>
<path d="M22.8734 38.3839C24.9541 38.3811 26.6643 36.7419 26.7554 34.6633V16.114H30.1443C30.0751 15.7264 30.0421 15.3333 30.0457 14.9396L25.4106 14.9396V33.4709C25.3336 35.5601 23.6193 37.215 21.5286 37.2184C20.9039 37.2131 20.2893 37.0594 19.7356 36.7701C20.0944 37.2673 20.5657 37.6727 21.1111 37.9531C21.6564 38.2336 22.2602 38.3812 22.8734 38.3839ZM36.4738 22.4077V21.3767C35.2266 21.3771 34.0071 21.009 32.9684 20.3187C33.879 21.3773 35.1095 22.1106 36.4738 22.4077Z" fill="#131313"/>
<path d="M32.9684 20.3188C31.9452 19.1536 31.3811 17.6557 31.3815 16.1051H30.1443C30.3041 16.9624 30.6369 17.7782 31.1225 18.5027C31.608 19.2272 32.2361 19.8451 32.9684 20.3188ZM21.5197 29.4365C19.7342 29.4456 18.1841 30.6688 17.7601 32.4033C17.336 34.1377 18.1468 35.9381 19.7266 36.7701C18.8706 35.5883 18.7497 34.0262 19.4136 32.7267C20.0776 31.4272 21.4142 30.6099 22.8735 30.6109C23.2626 30.6158 23.649 30.6762 24.021 30.7903V26.0745C23.6411 26.0175 23.2576 25.9876 22.8735 25.9848H22.6672V29.5709C22.2933 29.4706 21.9067 29.4254 21.5197 29.4365Z" fill="#131313"/>
<path d="M36.4738 22.4077V25.9938C34.165 25.9893 31.9161 25.2585 30.0457 23.9049V33.3274C30.0358 38.0292 26.2215 41.8355 21.5197 41.8355C19.7736 41.8386 18.0695 41.2998 16.6425 40.2935C19.0239 42.8547 22.7301 43.6978 25.9851 42.4188C29.24 41.1397 31.3808 37.9992 31.3815 34.5019V25.1062C33.2582 26.451 35.5099 27.1723 37.8186 27.1683V22.5511C37.3666 22.5497 36.916 22.5016 36.4738 22.4077Z" fill="#131313"/>
<path d="M30.0457 33.3274V23.9049C31.9218 25.2508 34.1739 25.9722 36.4828 25.9669V22.3808C35.1187 22.0927 33.8853 21.369 32.9684 20.3188C32.2361 19.8451 31.608 19.2272 31.1225 18.5027C30.637 17.7782 30.3041 16.9624 30.1443 16.1051H26.7555V34.6632C26.6877 36.3189 25.5787 37.75 23.9924 38.229C22.406 38.7079 20.6903 38.1296 19.7177 36.788C18.1379 35.9561 17.327 34.1556 17.7511 32.4212C18.1752 30.6868 19.7252 29.4636 21.5107 29.4544C21.8999 29.4579 22.2866 29.5183 22.6583 29.6337V26.0476C19.2887 26.1047 16.2712 28.1473 14.9662 31.2544C13.6612 34.3615 14.3154 37.9461 16.6336 40.3921C18.0746 41.3653 19.7812 41.8694 21.5197 41.8355C26.2215 41.8355 30.0358 38.0292 30.0457 33.3274Z" fill="#131313"/>
<path d="M52.5126 41.8467H47.6124V25.9186H42.7216L42.7122 21.5524H57.8158L56.4291 25.9186H52.5126V41.8467ZM92.3609 41.8467H87.4701V25.9186H82.5605L82.5511 21.5524H98.0014L96.6147 25.9186H92.3609V41.8467ZM58.734 28.008H63.578V41.8467H58.7714L58.734 28.008ZM71.7669 35.11L70.3333 36.4967V41.8467H65.4987V21.4962H70.3333V30.95L75.1305 26.2652H80.9021L74.8401 32.1493L81.6329 41.8467H76.3017L71.7669 35.11ZM123.018 35.11L121.631 36.4967V41.8467H116.787L116.74 21.4962H121.631V30.95L126.419 26.2652H132.19L126.128 32.1493L132.874 41.8467H127.543L123.018 35.11Z" fill="#131313"/>
<path d="M61.1607 26.4245C62.5061 26.4245 63.5967 25.3339 63.5967 23.9885C63.5967 22.6431 62.5061 21.5524 61.1607 21.5524C59.8153 21.5524 58.7246 22.6431 58.7246 23.9885C58.7246 25.3339 59.8153 26.4245 61.1607 26.4245Z" fill="#131313"/>
<path d="M97.383 33.5641C97.3845 29.2415 100.71 25.647 105.019 25.3096H104.298C99.9181 25.565 96.4974 29.1911 96.4974 33.5781C96.4974 37.9651 99.9181 41.5912 104.298 41.8467H105.019C100.699 41.5084 97.3698 37.8974 97.383 33.5641Z" fill="#131313"/>
<path d="M106.902 25.2815H106.172C110.467 25.6362 113.772 29.2259 113.772 33.5359C113.772 37.846 110.467 41.4356 106.172 41.7904H106.902C111.477 41.7904 115.185 38.0822 115.185 33.5078C115.185 28.9335 111.477 25.2252 106.902 25.2252V25.2815Z" fill="#131313"/>
<path d="M105.591 37.5929C103.366 37.5929 101.562 35.7891 101.562 33.5641C101.562 31.339 103.366 29.5352 105.591 29.5352C107.816 29.5352 109.619 31.339 109.619 33.5641C109.614 35.787 107.814 37.5878 105.591 37.5929ZM105.591 25.2815C101.016 25.2815 97.308 28.9897 97.308 33.5641C97.308 38.1384 101.016 41.8467 105.591 41.8467C110.165 41.8467 113.873 38.1384 113.873 33.5641C113.873 31.3674 113.001 29.2607 111.447 27.7074C109.894 26.1541 107.787 25.2815 105.591 25.2815Z" fill="#131313"/>
</g>
<defs>
<clipPath id="clip0_272_78">
<rect width="120" height="30" fill="white" transform="translate(12.933 13)"/>
</clipPath>
</defs>
</svg>
