<svg width="61" height="56" viewBox="0 0 61 56" fill="none" xmlns="http://www.w3.org/2000/svg">
<path d="M48.8122 30.5005C48.8122 39.844 42.0666 47.5683 33.3041 48.8221C32.4845 48.9393 31.6462 49 30.7955 49C29.813 49 28.8492 48.919 27.9092 48.7635C19.3314 47.3456 12.7787 39.7077 12.7787 30.4995C12.7787 20.2825 20.8451 12 30.7955 12C40.7459 12 48.8122 20.2825 48.8122 30.4995V30.5005Z" fill="#131313"/>
<path d="M36.1653 21.1612H39.2858L32.4685 28.953L40.4885 39.5557H34.2089L29.2905 33.1252L23.6627 39.5557H20.5403L27.8321 31.2216L20.1385 21.1612H26.5775L31.0233 27.039L36.1653 21.1612ZM35.0701 37.688H36.7992L25.638 22.9309H23.7825L35.0701 37.688Z" fill="white"/>
</svg>
