<svg width="150" height="56" viewBox="0 0 150 56" fill="none" xmlns="http://www.w3.org/2000/svg">
<g clip-path="url(#clip0_272_76)">
<path d="M51.6713 18.3728C51.2104 16.6507 49.857 15.2975 48.135 14.8365C45.0171 14.0002 32.5085 14.0002 32.5085 14.0002C32.5085 14.0002 20.0002 14.0002 16.8821 14.8365C15.1601 15.2975 13.8069 16.6507 13.3459 18.3728C12.5096 21.4908 12.5096 28.0002 12.5096 28.0002C12.5096 28.0002 12.5096 34.5096 13.3459 37.6277C13.8069 39.3497 15.1601 40.7029 16.8821 41.1638C20.0002 42.0002 32.5085 42.0002 32.5085 42.0002C32.5085 42.0002 45.0171 42.0002 48.135 41.1638C49.857 40.7029 51.2104 39.3497 51.6713 37.6277C52.5076 34.5096 52.5076 28.0002 52.5076 28.0002C52.5076 28.0002 52.5043 21.4908 51.6713 18.3728Z" fill="#131313"/>
<path d="M28.5052 33.9996L38.8965 28.0006L28.5052 22.0015V33.9996Z" fill="#E8E8E8"/>
<path d="M60.953 32.2051L56.462 15.9859H60.3801L61.954 23.3382C62.3557 25.1491 62.6487 26.6933 62.8397 27.9708H62.9549C63.0866 27.0555 63.383 25.5211 63.8407 23.3645L65.4704 15.9859H69.3886L64.8415 32.2051V39.9854H60.9498V32.2051H60.953Z" fill="#131313"/>
<path d="M70.5672 39.4712C69.7771 38.9378 69.214 38.108 68.8781 36.982C68.5456 35.856 68.3778 34.3612 68.3778 32.4909V29.9457C68.3778 28.0591 68.5687 26.5413 68.9506 25.3988C69.3326 24.2563 69.9285 23.4199 70.7384 22.8964C71.5485 22.3729 72.6119 22.1095 73.929 22.1095C75.2263 22.1095 76.2634 22.3762 77.047 22.9096C77.8273 23.443 78.4002 24.2793 78.7624 25.4119C79.1246 26.5479 79.3057 28.0591 79.3057 29.9457V32.4909C79.3057 34.3612 79.1279 35.8625 78.7757 36.9951C78.4233 38.1311 77.8504 38.9609 77.0601 39.4843C76.27 40.0079 75.1966 40.2713 73.8433 40.2713C72.4473 40.2745 71.3575 40.0046 70.5672 39.4712ZM74.999 36.7252C75.2163 36.1523 75.3283 35.2205 75.3283 33.9233V28.4609C75.3283 27.2031 75.2197 26.2812 74.999 25.7017C74.7784 25.1189 74.3933 24.8292 73.84 24.8292C73.3067 24.8292 72.928 25.1189 72.7108 25.7017C72.4901 26.2845 72.3815 27.2031 72.3815 28.4609V33.9233C72.3815 35.2205 72.4868 36.1556 72.6976 36.7252C72.9083 37.2981 73.2869 37.5845 73.84 37.5845C74.3933 37.5845 74.7784 37.2981 74.999 36.7252Z" fill="#131313"/>
<path d="M92.0512 39.9888H88.9628L88.6203 37.842H88.5348C87.6951 39.4619 86.4373 40.2718 84.7581 40.2718C83.5959 40.2718 82.7366 39.8899 82.1834 39.1294C81.6303 38.3655 81.3536 37.1736 81.3536 35.5537V22.4525H85.3015V35.3231C85.3015 36.1068 85.387 36.6632 85.5582 36.9958C85.7295 37.3283 86.0159 37.4962 86.4176 37.4962C86.76 37.4962 87.0893 37.3909 87.4054 37.1802C87.7215 36.9694 87.952 36.7027 88.1067 36.3801V22.4493H92.0512V39.9888Z" fill="#131313"/>
<path d="M102.775 19.1627H98.8571V39.9881H94.995V19.1627H91.0768V15.9886H102.775V19.1627Z" fill="#131313"/>
<path d="M112.297 39.9888H109.209L108.866 37.842H108.781C107.941 39.4619 106.683 40.2718 105.004 40.2718C103.842 40.2718 102.982 39.8899 102.429 39.1294C101.876 38.3655 101.6 37.1736 101.6 35.5537V22.4525H105.547V35.3231C105.547 36.1068 105.633 36.6632 105.804 36.9958C105.975 37.3283 106.262 37.4962 106.664 37.4962C107.006 37.4962 107.335 37.3909 107.651 37.1802C107.967 36.9694 108.198 36.7027 108.353 36.3801V22.4493H112.297V39.9888Z" fill="#131313"/>
<path d="M125.362 25.2542C125.122 24.1479 124.736 23.3478 124.203 22.8506C123.67 22.3535 122.936 22.1065 122 22.1065C121.276 22.1065 120.598 22.3107 119.969 22.7222C119.34 23.1338 118.853 23.6705 118.51 24.3389H118.481V15.1H114.678V39.9851H117.937L118.339 38.3257H118.425C118.731 38.9183 119.189 39.3826 119.798 39.7284C120.407 40.0708 121.085 40.242 121.829 40.242C123.163 40.242 124.147 39.6263 124.776 38.3981C125.405 37.1666 125.721 35.2471 125.721 32.6329V29.8573C125.721 27.8981 125.599 26.3605 125.362 25.2542ZM121.744 32.4089C121.744 33.6864 121.691 34.6874 121.585 35.4117C121.48 36.1361 121.306 36.6531 121.055 36.9559C120.808 37.2621 120.473 37.4136 120.054 37.4136C119.729 37.4136 119.429 37.3379 119.152 37.1832C118.876 37.0317 118.652 36.8012 118.481 36.4983V26.5449C118.612 26.0675 118.843 25.679 119.169 25.3727C119.492 25.0665 119.847 24.9151 120.226 24.9151C120.627 24.9151 120.937 25.0731 121.154 25.3859C121.375 25.702 121.526 26.2288 121.612 26.9729C121.697 27.717 121.74 28.7739 121.74 30.1469V32.4089H121.744Z" fill="#131313"/>
<path d="M131.321 33.4197C131.321 34.5457 131.354 35.3886 131.42 35.9517C131.486 36.5147 131.624 36.923 131.835 37.1832C132.046 37.4399 132.369 37.5683 132.806 37.5683C133.396 37.5683 133.804 37.3379 134.021 36.8802C134.242 36.4225 134.361 35.6587 134.38 34.5919L137.785 34.7927C137.805 34.9441 137.814 35.1548 137.814 35.4215C137.814 37.0415 137.37 38.2532 136.484 39.0533C135.599 39.8534 134.344 40.255 132.724 40.255C130.778 40.255 129.415 39.6459 128.635 38.4244C127.851 37.2029 127.463 35.3163 127.463 32.7611V29.6991C127.463 27.0684 127.868 25.1455 128.678 23.9338C129.488 22.7222 130.874 22.1163 132.839 22.1163C134.193 22.1163 135.233 22.3633 135.957 22.8605C136.682 23.3576 137.192 24.1281 137.488 25.1784C137.785 26.2287 137.933 27.6775 137.933 29.5278V32.5307H131.321V33.4197ZM131.822 25.1554C131.621 25.4023 131.489 25.8073 131.42 26.3703C131.354 26.9334 131.321 27.7861 131.321 28.932V30.1898H134.209V28.932C134.209 27.8059 134.17 26.9531 134.094 26.3703C134.018 25.7876 133.88 25.3793 133.679 25.1389C133.478 24.9019 133.169 24.78 132.75 24.78C132.329 24.7833 132.02 24.9084 131.822 25.1554Z" fill="#131313"/>
</g>
<defs>
<clipPath id="clip0_272_76">
<rect width="125.423" height="28" fill="white" transform="translate(12.5098 14)"/>
</clipPath>
</defs>
</svg>
