<svg width="205" height="73" viewBox="0 0 205 73" fill="none" xmlns="http://www.w3.org/2000/svg">
<g clip-path="url(#clip0_724_9052)">
<path d="M87.8433 26.6843V25.0792H90.4832C90.7575 25.0792 90.9818 25.0579 91.1538 25.0127C91.3258 24.9675 91.4579 24.9064 91.5477 24.8294C91.6374 24.747 91.6997 24.6486 91.7321 24.5397C91.7646 24.4254 91.782 24.3032 91.782 24.1703C91.782 23.9364 91.7172 23.6839 91.5851 23.4076C91.4505 23.1365 91.276 22.8601 91.0591 22.5784C90.8397 22.2967 90.5954 22.0177 90.3212 21.7413C90.0495 21.4702 89.7728 21.2098 89.4936 20.9679L90.7874 19.6206C91.6798 20.4072 92.3603 21.1752 92.829 21.9193C93.2952 22.6608 93.5295 23.3677 93.5295 24.0401C93.5295 24.2819 93.5046 24.5131 93.4547 24.7417C93.689 24.8612 93.9408 24.9489 94.2125 25.0021C94.4892 25.0552 94.7734 25.0818 95.0676 25.0818H95.1249C95.252 25.0818 95.3518 25.0898 95.4265 25.1137C95.5013 25.1323 95.5537 25.1669 95.5861 25.2094C95.6235 25.2519 95.6434 25.3051 95.6484 25.3715C95.6559 25.4379 95.6609 25.515 95.6609 25.608V26.1209C95.6609 26.2485 95.6534 26.3495 95.6409 26.4239C95.6285 26.4983 95.5986 26.5514 95.5587 26.5913C95.5163 26.6312 95.4639 26.6578 95.3941 26.671C95.3243 26.6843 95.2321 26.6896 95.1249 26.6896H95.0476C94.5316 26.6896 94.0929 26.6205 93.7339 26.4797C93.3749 26.3362 93.0758 26.1502 92.819 25.9216C92.5722 26.1581 92.2556 26.3468 91.8668 26.4824C91.4804 26.6179 91.0067 26.6896 90.4458 26.6896H87.8408L87.8433 26.6843Z" fill="#EFEAE6"/>
<path d="M95.1278 26.687C95.0206 26.687 94.9308 26.679 94.8585 26.6683C94.7937 26.6551 94.7364 26.6285 94.694 26.5886C94.6516 26.5488 94.6242 26.493 94.6117 26.4212C94.5993 26.3468 94.5918 26.2458 94.5918 26.1182V25.6053C94.5918 25.5123 94.5968 25.4352 94.6043 25.3688C94.6093 25.3024 94.6292 25.2466 94.6666 25.2014C94.699 25.1589 94.7538 25.127 94.8236 25.1084C94.8934 25.0871 94.9956 25.0791 95.1278 25.0791H110.102V20.6729H111.895V26.687H95.1278ZM108.818 28.7891C108.818 28.6589 108.843 28.534 108.888 28.425C108.933 28.3107 108.995 28.2097 109.078 28.1273C109.155 28.0396 109.25 27.9732 109.354 27.9254C109.462 27.8775 109.576 27.851 109.701 27.851C109.826 27.851 109.94 27.8775 110.042 27.9254C110.15 27.9732 110.239 28.0396 110.322 28.1273C110.399 28.2097 110.466 28.3107 110.511 28.425C110.556 28.534 110.581 28.6589 110.581 28.7891C110.581 28.9193 110.556 29.0442 110.511 29.1585C110.466 29.2674 110.399 29.3684 110.322 29.4535C110.239 29.5412 110.15 29.6076 110.042 29.6554C109.94 29.7033 109.823 29.7298 109.701 29.7298C109.579 29.7298 109.462 29.7033 109.354 29.6554C109.252 29.6076 109.157 29.5412 109.078 29.4535C108.995 29.3711 108.933 29.2701 108.888 29.1585C108.843 29.0442 108.818 28.922 108.818 28.7891ZM110.88 28.7891C110.88 28.6589 110.905 28.534 110.95 28.425C110.995 28.3107 111.057 28.2097 111.139 28.1273C111.217 28.0396 111.311 27.9732 111.416 27.9254C111.523 27.8775 111.638 27.851 111.763 27.851C111.887 27.851 112.002 27.8775 112.104 27.9254C112.211 27.9732 112.301 28.0396 112.383 28.1273C112.461 28.2097 112.528 28.3107 112.573 28.425C112.618 28.534 112.642 28.6589 112.642 28.7891C112.642 28.9193 112.618 29.0442 112.573 29.1585C112.528 29.2674 112.461 29.3684 112.383 29.4535C112.301 29.5412 112.211 29.6076 112.104 29.6554C112.002 29.7033 111.885 29.7298 111.763 29.7298C111.64 29.7298 111.523 29.7033 111.416 29.6554C111.314 29.6076 111.219 29.5412 111.139 29.4535C111.057 29.3711 110.995 29.2701 110.95 29.1585C110.905 29.0442 110.88 28.922 110.88 28.7891Z" fill="#EFEAE6"/>
<path d="M115.474 16.1577H113.687V26.6923H115.474V16.1577Z" fill="#EFEAE6"/>
<path d="M116.319 28.0875C116.718 28.0051 117.042 27.8988 117.291 27.7713C117.538 27.6437 117.733 27.4869 117.867 27.2982C118.007 27.1095 118.099 26.889 118.146 26.6312C118.196 26.376 118.216 26.0731 118.216 25.7303V20.6729H120.006V25.3529C120.006 26.0598 119.941 26.6657 119.812 27.1733C119.684 27.6783 119.478 28.1035 119.198 28.441C118.919 28.7838 118.56 29.0549 118.124 29.2568C117.688 29.4535 117.157 29.6076 116.539 29.7086L116.317 28.0849L116.319 28.0875ZM118.226 17.9171C118.226 17.7842 118.251 17.6619 118.296 17.5477C118.341 17.4387 118.403 17.3377 118.485 17.2527C118.563 17.165 118.657 17.0985 118.762 17.0507C118.869 17.0029 118.984 16.9763 119.109 16.9763C119.233 16.9763 119.348 17.0029 119.45 17.0507C119.557 17.0985 119.647 17.165 119.729 17.2527C119.807 17.3351 119.874 17.436 119.919 17.5477C119.964 17.6619 119.989 17.7842 119.989 17.9171C119.989 18.0499 119.964 18.1722 119.919 18.2811C119.874 18.3954 119.807 18.4964 119.729 18.5788C119.647 18.6665 119.557 18.7329 119.45 18.7808C119.348 18.8286 119.231 18.8552 119.109 18.8552C118.986 18.8552 118.869 18.8286 118.762 18.7808C118.66 18.7329 118.565 18.6665 118.485 18.5788C118.403 18.4964 118.341 18.3954 118.296 18.2811C118.251 18.1722 118.226 18.0473 118.226 17.9171Z" fill="#EFEAE6"/>
<path d="M129.964 22.9983C129.845 22.977 129.735 22.9505 129.628 22.9319C129.526 22.9133 129.421 22.8973 129.324 22.8787C129.224 22.8654 129.122 22.8521 129.02 22.8468C128.917 22.8388 128.805 22.8335 128.686 22.8335C128.559 22.8335 128.434 22.8548 128.312 22.8946C128.19 22.9345 128.077 22.9903 127.978 23.0754C127.883 23.1551 127.806 23.2561 127.748 23.3836C127.686 23.5059 127.659 23.6547 127.659 23.8274C127.659 24.064 127.711 24.2713 127.823 24.4387C127.935 24.6088 128.075 24.747 128.252 24.8506C128.429 24.9569 128.626 25.0313 128.84 25.0792C129.055 25.127 129.271 25.1536 129.486 25.1536H130.236V26.6843H125.415V25.1536H126.664C126.215 24.6912 125.988 24.1756 125.988 23.5989C125.988 23.2029 126.063 22.8628 126.208 22.5757C126.355 22.2914 126.549 22.0522 126.791 21.8688C127.03 21.6855 127.302 21.5446 127.606 21.4569C127.91 21.3692 128.224 21.324 128.546 21.324C128.666 21.324 128.78 21.3294 128.895 21.3294C129.007 21.3347 129.127 21.3373 129.249 21.3506C129.374 21.3639 129.501 21.3772 129.64 21.3958C129.775 21.4144 129.932 21.4357 130.102 21.4649L129.969 22.9956L129.964 22.9983Z" fill="#EFEAE6"/>
<path d="M131.697 16.1578H133.485V23.8487C133.485 24.0959 133.502 24.2952 133.537 24.4547C133.57 24.6141 133.619 24.739 133.689 24.832C133.757 24.925 133.836 24.9888 133.941 25.026C134.043 25.0606 134.168 25.0818 134.303 25.0818H134.642C134.769 25.0818 134.871 25.0898 134.941 25.1084C135.015 25.1297 135.068 25.1616 135.105 25.2041C135.138 25.2466 135.16 25.3051 135.168 25.3715C135.173 25.438 135.175 25.515 135.175 25.608V26.1209C135.175 26.2485 135.168 26.3495 135.155 26.4186C135.143 26.493 135.115 26.5488 135.073 26.5887C135.03 26.6285 134.978 26.6498 134.908 26.6631C134.838 26.6764 134.751 26.6817 134.642 26.6817H133.871C133.485 26.6817 133.153 26.6259 132.884 26.5063C132.612 26.392 132.386 26.2246 132.209 26.0146C132.037 25.7994 131.904 25.5443 131.822 25.2413C131.74 24.9436 131.7 24.6088 131.7 24.25V16.1551L131.697 16.1578Z" fill="#EFEAE6"/>
<path d="M141.716 25.0792C141.843 25.0792 141.945 25.0871 142.017 25.1111C142.092 25.1297 142.144 25.1589 142.182 25.2041C142.214 25.2492 142.237 25.3051 142.244 25.3715C142.249 25.4379 142.252 25.515 142.252 25.608V26.1209C142.252 26.2485 142.247 26.3495 142.232 26.4239C142.219 26.493 142.189 26.5514 142.149 26.5913C142.107 26.6312 142.055 26.6578 141.985 26.671C141.915 26.679 141.828 26.6896 141.718 26.6896H134.409C134.297 26.6896 134.207 26.6817 134.14 26.671C134.07 26.6578 134.015 26.6312 133.975 26.5913C133.93 26.5514 133.906 26.4956 133.888 26.4239C133.876 26.3495 133.868 26.2485 133.868 26.1209V25.608C133.868 25.515 133.873 25.4379 133.881 25.3715C133.888 25.3051 133.908 25.2492 133.943 25.2041C133.975 25.1589 134.03 25.1297 134.1 25.1111C134.175 25.0898 134.277 25.0792 134.409 25.0792H141.718H141.716Z" fill="#EFEAE6"/>
<path d="M145.059 24.2713C145.059 24.359 145.054 24.4467 145.047 24.5291C145.042 24.6168 145.035 24.7018 145.027 24.7842C145.249 24.8798 145.491 24.9569 145.752 25.0048C146.012 25.0526 146.278 25.0792 146.56 25.0792H146.615C146.747 25.0792 146.844 25.0871 146.919 25.1057C146.994 25.127 147.046 25.1589 147.079 25.2014C147.116 25.2466 147.136 25.3024 147.141 25.3688C147.151 25.4353 147.153 25.5123 147.153 25.6054V26.1183C147.153 26.2458 147.143 26.3468 147.133 26.4159C147.116 26.4903 147.094 26.5488 147.051 26.586C147.009 26.6259 146.952 26.6524 146.887 26.6604C146.817 26.6737 146.727 26.6817 146.615 26.6817H146.54C146.084 26.6817 145.693 26.6259 145.366 26.5142C145.044 26.4053 144.76 26.2591 144.514 26.0784C144.354 26.2618 144.155 26.4079 143.913 26.5169C143.673 26.6232 143.382 26.679 143.04 26.679H141.652C141.54 26.679 141.45 26.671 141.38 26.6578C141.313 26.6498 141.255 26.6232 141.215 26.5833C141.173 26.5435 141.148 26.4877 141.133 26.4133C141.121 26.3442 141.113 26.2405 141.113 26.1156V25.6027C141.113 25.5097 141.118 25.4326 141.126 25.3662C141.131 25.2997 141.151 25.2439 141.188 25.1988C141.22 25.1562 141.275 25.1243 141.345 25.1031C141.42 25.0845 141.517 25.0765 141.654 25.0765H142.427C142.579 25.0765 142.711 25.0579 142.818 25.0234C142.926 24.9888 143.013 24.9303 143.078 24.8533C143.142 24.7709 143.192 24.6646 143.225 24.5291C143.257 24.3882 143.275 24.2181 143.275 24.0161V20.6809H145.062V24.2713H145.059ZM143.242 17.9171C143.242 17.7842 143.267 17.6619 143.312 17.5477C143.357 17.4387 143.419 17.3377 143.501 17.2527C143.579 17.165 143.673 17.0985 143.778 17.0507C143.885 17.0029 144 16.9763 144.125 16.9763C144.249 16.9763 144.364 17.0029 144.466 17.0507C144.573 17.0985 144.663 17.165 144.745 17.2527C144.828 17.3351 144.89 17.436 144.935 17.5477C144.98 17.6619 145.005 17.7842 145.005 17.9171C145.005 18.0499 144.98 18.1722 144.935 18.2811C144.89 18.3954 144.828 18.4964 144.745 18.5788C144.663 18.6665 144.573 18.7329 144.466 18.7808C144.364 18.8286 144.247 18.8552 144.125 18.8552C144.002 18.8552 143.885 18.8286 143.778 18.7808C143.676 18.7329 143.581 18.6665 143.501 18.5788C143.419 18.4964 143.357 18.3954 143.312 18.2811C143.267 18.1722 143.242 18.0473 143.242 17.9171Z" fill="#EFEAE6"/>
<path d="M148.966 25.0792C149.093 25.0792 149.195 25.0871 149.27 25.1111C149.34 25.1297 149.392 25.1589 149.429 25.2041C149.462 25.2492 149.484 25.3051 149.492 25.3715C149.499 25.4379 149.499 25.515 149.499 25.608V26.1209C149.499 26.2485 149.494 26.3495 149.479 26.4239C149.467 26.493 149.437 26.5514 149.397 26.5913C149.355 26.6312 149.302 26.6578 149.232 26.671C149.163 26.679 149.075 26.6896 148.966 26.6896H146.358C146.246 26.6896 146.161 26.6817 146.089 26.671C146.019 26.6578 145.967 26.6312 145.924 26.5913C145.885 26.5514 145.855 26.4956 145.842 26.4239C145.825 26.3495 145.822 26.2485 145.822 26.1209V25.608C145.822 25.515 145.827 25.4379 145.83 25.3715C145.837 25.3051 145.86 25.2492 145.892 25.2041C145.929 25.1589 145.982 25.1297 146.054 25.1111C146.124 25.0898 146.226 25.0792 146.358 25.0792H148.966Z" fill="#EFEAE6"/>
<path d="M152.321 24.2713C152.321 24.359 152.316 24.4466 152.313 24.5343C152.306 24.6167 152.296 24.7018 152.288 24.7842C152.51 24.8798 152.752 24.9542 153.014 25.0047C153.273 25.0526 153.54 25.0791 153.821 25.0791H153.879C154.006 25.0791 154.106 25.0871 154.18 25.1084C154.255 25.127 154.307 25.1562 154.34 25.2014C154.377 25.2466 154.397 25.3024 154.402 25.3688C154.412 25.4353 154.415 25.5123 154.415 25.6053V26.1182C154.415 26.2458 154.405 26.3468 154.395 26.4212C154.382 26.4903 154.352 26.5488 154.312 26.5886C154.27 26.6285 154.213 26.6551 154.148 26.6684C154.078 26.6763 153.988 26.687 153.881 26.687H153.804C153.348 26.687 152.956 26.6285 152.63 26.5195C152.308 26.4106 152.024 26.2644 151.777 26.0864C151.618 26.2697 151.418 26.4159 151.176 26.5249C150.937 26.6312 150.645 26.687 150.304 26.687H148.915C148.803 26.687 148.713 26.679 148.644 26.6684C148.579 26.6551 148.519 26.6285 148.479 26.5886C148.437 26.5488 148.412 26.493 148.397 26.4212C148.384 26.3468 148.377 26.2458 148.377 26.1182V25.6053C148.377 25.5123 148.382 25.4353 148.389 25.3688C148.397 25.3024 148.417 25.2466 148.452 25.2014C148.484 25.1589 148.539 25.127 148.609 25.1084C148.684 25.0871 148.781 25.0791 148.918 25.0791H149.691C149.843 25.0791 149.975 25.0605 150.082 25.026C150.189 24.9914 150.277 24.933 150.341 24.8559C150.406 24.7762 150.456 24.6672 150.488 24.5317C150.521 24.3908 150.538 24.2234 150.538 24.0188V20.6836H152.326V24.2739L152.321 24.2713ZM149.404 28.7891C149.404 28.6589 149.429 28.534 149.474 28.425C149.519 28.3107 149.581 28.2097 149.663 28.1274C149.741 28.0397 149.835 27.9732 149.94 27.9254C150.047 27.8776 150.162 27.851 150.286 27.851C150.411 27.851 150.526 27.8776 150.628 27.9254C150.735 27.9732 150.825 28.0397 150.907 28.1274C150.984 28.2097 151.052 28.3107 151.097 28.425C151.142 28.534 151.166 28.6589 151.166 28.7891C151.166 28.9193 151.142 29.0442 151.097 29.1585C151.052 29.2675 150.984 29.3684 150.907 29.4535C150.825 29.5412 150.735 29.6076 150.628 29.6555C150.526 29.7033 150.409 29.7299 150.286 29.7299C150.164 29.7299 150.047 29.7033 149.94 29.6555C149.838 29.6076 149.743 29.5412 149.663 29.4535C149.581 29.3711 149.519 29.2701 149.474 29.1585C149.429 29.0442 149.404 28.922 149.404 28.7891ZM151.468 28.7891C151.468 28.6589 151.493 28.534 151.538 28.425C151.583 28.3107 151.645 28.2097 151.727 28.1274C151.805 28.0397 151.899 27.9732 152.004 27.9254C152.111 27.8776 152.226 27.851 152.351 27.851C152.475 27.851 152.59 27.8776 152.692 27.9254C152.799 27.9732 152.889 28.0397 152.971 28.1274C153.049 28.2097 153.116 28.3107 153.161 28.425C153.206 28.534 153.231 28.6589 153.231 28.7891C153.231 28.9193 153.206 29.0442 153.161 29.1585C153.116 29.2675 153.049 29.3684 152.971 29.4535C152.889 29.5412 152.799 29.6076 152.692 29.6555C152.59 29.7033 152.473 29.7299 152.351 29.7299C152.228 29.7299 152.111 29.7033 152.004 29.6555C151.902 29.6076 151.807 29.5412 151.727 29.4535C151.645 29.3711 151.583 29.2701 151.538 29.1585C151.493 29.0442 151.468 28.922 151.468 28.7891Z" fill="#EFEAE6"/>
<path d="M156.227 25.0792C156.355 25.0792 156.457 25.0871 156.529 25.1111C156.604 25.1297 156.656 25.1589 156.694 25.2041C156.726 25.2492 156.748 25.3051 156.756 25.3715C156.763 25.4379 156.763 25.515 156.763 25.608V26.1209C156.763 26.2485 156.758 26.3495 156.743 26.4239C156.731 26.493 156.701 26.5514 156.661 26.5913C156.619 26.6312 156.566 26.6578 156.497 26.671C156.427 26.679 156.34 26.6896 156.23 26.6896H153.622C153.51 26.6896 153.425 26.6817 153.356 26.671C153.286 26.6578 153.233 26.6312 153.191 26.5913C153.151 26.5514 153.121 26.4956 153.109 26.4239C153.091 26.3495 153.089 26.2485 153.089 26.1209V25.608C153.089 25.515 153.094 25.4379 153.096 25.3715C153.104 25.3051 153.126 25.2492 153.159 25.2041C153.196 25.1589 153.248 25.1297 153.321 25.1111C153.39 25.0898 153.493 25.0792 153.625 25.0792H156.232H156.227Z" fill="#EFEAE6"/>
<path d="M160.999 26.7667C160.672 26.7667 160.386 26.7348 160.129 26.679C159.875 26.6179 159.648 26.5434 159.441 26.4451C159.239 26.3494 159.057 26.2431 158.905 26.1235C158.753 26.0013 158.613 25.8817 158.489 25.7674C158.085 26.376 157.491 26.6816 156.714 26.6816H156.17C156.058 26.6816 155.973 26.6763 155.903 26.663C155.834 26.6497 155.779 26.6285 155.739 26.5886C155.697 26.5488 155.669 26.4929 155.657 26.4185C155.639 26.3494 155.637 26.2484 155.637 26.1209V25.608C155.637 25.515 155.637 25.4379 155.644 25.3715C155.652 25.3024 155.672 25.2492 155.707 25.204C155.744 25.1615 155.794 25.1296 155.866 25.1084C155.936 25.0898 156.038 25.0818 156.17 25.0818H156.499C156.726 25.0818 156.923 25.0153 157.093 24.8878C157.262 24.7602 157.384 24.5636 157.464 24.2951C157.691 23.4952 157.945 22.8548 158.234 22.3631C158.521 21.8715 158.823 21.4941 159.127 21.2257C159.436 20.9573 159.737 20.7819 160.034 20.6888C160.331 20.5958 160.595 20.5533 160.832 20.5533C161.173 20.5533 161.482 20.6012 161.762 20.6995C162.041 20.7925 162.293 20.9227 162.514 21.0822C162.736 21.2443 162.926 21.433 163.09 21.6482C163.255 21.8635 163.387 22.092 163.499 22.3339C163.606 22.5757 163.684 22.8255 163.738 23.0806C163.793 23.3384 163.818 23.5856 163.818 23.8274C163.818 24.2101 163.756 24.5742 163.634 24.9303C163.512 25.2811 163.33 25.592 163.09 25.8658C162.851 26.1421 162.559 26.3574 162.21 26.5248C161.856 26.6869 161.458 26.772 161.001 26.772M162.155 23.8035C162.155 23.6334 162.126 23.4474 162.066 23.2507C162.008 23.0541 161.916 22.868 161.799 22.698C161.679 22.5279 161.53 22.3817 161.355 22.2674C161.183 22.1532 160.976 22.0974 160.75 22.0974C160.523 22.0974 160.326 22.1664 160.139 22.3126C159.954 22.4561 159.79 22.6475 159.645 22.8787C159.498 23.1152 159.373 23.3836 159.266 23.6866C159.154 23.9895 159.072 24.3005 159.015 24.6167C159.072 24.6831 159.167 24.7469 159.291 24.8134C159.416 24.8825 159.555 24.9463 159.71 25.0021C159.862 25.0579 160.027 25.103 160.191 25.1429C160.361 25.1775 160.52 25.1961 160.67 25.1961C160.897 25.1961 161.099 25.1695 161.283 25.1216C161.467 25.0685 161.625 24.9914 161.752 24.8798C161.884 24.7709 161.981 24.6247 162.053 24.4493C162.123 24.2739 162.155 24.0586 162.155 23.8035Z" fill="#EFEAE6"/>
<path d="M176.142 26.5514C175.94 26.6179 175.738 26.6578 175.534 26.679C175.332 26.6976 175.15 26.7109 174.995 26.7109C174.42 26.7109 173.929 26.6179 173.525 26.4345C173.126 26.2511 172.799 26.012 172.55 25.7223C172.296 25.4326 172.114 25.1031 171.999 24.739C171.884 24.3749 171.827 24.0161 171.827 23.6494C171.827 23.2029 171.902 22.7804 172.054 22.3844C172.206 21.9884 172.425 21.6483 172.705 21.3586C172.989 21.0689 173.33 20.8404 173.729 20.6729C174.133 20.5055 174.582 20.4231 175.075 20.4231C175.277 20.4231 175.492 20.4444 175.708 20.4843C175.93 20.5188 176.145 20.5906 176.354 20.6915C176.568 20.7925 176.765 20.9281 176.96 21.1008C177.149 21.2709 177.319 21.4862 177.461 21.7493C177.605 22.007 177.72 22.3206 177.802 22.6847C177.89 23.0435 177.93 23.466 177.93 23.9444V26.0864C177.93 26.9235 177.802 27.6676 177.548 28.3081C177.289 28.9486 176.935 29.4854 176.481 29.9106C176.032 30.3411 175.497 30.6653 174.883 30.8859C174.265 31.1012 173.602 31.2101 172.887 31.2101C172.129 31.2101 171.463 31.1091 170.89 30.9125C170.314 30.7105 169.833 30.4288 169.444 30.07C169.06 29.7139 168.768 29.2834 168.574 28.7838C168.379 28.2868 168.282 27.7394 168.282 27.1414C168.282 26.8916 168.302 26.6312 168.352 26.3601C168.397 26.089 168.459 25.8206 168.541 25.5469C168.624 25.2758 168.723 25.0127 168.833 24.7523C168.948 24.4972 169.067 24.2606 169.205 24.0401L170.625 24.9038C170.551 25.0313 170.481 25.1748 170.419 25.3369C170.356 25.4991 170.304 25.6745 170.262 25.8605C170.222 26.0412 170.187 26.2299 170.167 26.4186C170.142 26.6019 170.129 26.7906 170.129 26.9713C170.129 27.3567 170.192 27.7128 170.311 28.037C170.431 28.3612 170.608 28.6429 170.847 28.8741C171.087 29.108 171.383 29.2914 171.737 29.4216C172.094 29.5545 172.508 29.6183 172.981 29.6183C173.425 29.6183 173.841 29.5571 174.228 29.4349C174.614 29.3073 174.948 29.1186 175.232 28.8635C175.511 28.6084 175.736 28.2921 175.9 27.9068C176.06 27.5241 176.142 27.0723 176.142 26.5461M172.909 17.9171C172.909 17.7842 172.934 17.6619 172.979 17.5477C173.024 17.4387 173.086 17.3377 173.168 17.2527C173.245 17.165 173.34 17.0985 173.445 17.0507C173.552 17.0029 173.667 16.9763 173.791 16.9763C173.916 16.9763 174.031 17.0029 174.133 17.0507C174.24 17.0985 174.33 17.165 174.412 17.2527C174.492 17.3351 174.557 17.436 174.602 17.5477C174.646 17.6619 174.671 17.7842 174.671 17.9171C174.671 18.0499 174.646 18.1722 174.602 18.2811C174.557 18.3954 174.489 18.4964 174.412 18.5788C174.33 18.6665 174.24 18.7329 174.133 18.7808C174.031 18.8286 173.914 18.8552 173.791 18.8552C173.669 18.8552 173.552 18.8286 173.445 18.7808C173.343 18.7329 173.248 18.6665 173.168 18.5788C173.086 18.4964 173.024 18.3954 172.979 18.2811C172.934 18.1722 172.909 18.0473 172.909 17.9171ZM175.19 25.1031C175.277 25.1031 175.359 25.0978 175.449 25.0845C175.539 25.0765 175.626 25.0632 175.713 25.0499C175.796 25.0366 175.878 25.018 175.953 24.9968C176.028 24.9782 176.092 24.9569 176.142 24.9303V24.3669C176.142 23.8673 176.105 23.4581 176.027 23.1418C175.953 22.8256 175.855 22.5811 175.736 22.403C175.611 22.2223 175.472 22.1054 175.32 22.0389C175.162 21.9778 175.003 21.9459 174.841 21.9459C174.669 21.9459 174.504 21.9805 174.352 22.0602C174.2 22.1399 174.063 22.2489 173.953 22.3897C173.841 22.5306 173.752 22.7007 173.684 22.9C173.619 23.0966 173.585 23.3172 173.585 23.5537C173.585 23.761 173.612 23.9577 173.672 24.141C173.734 24.3297 173.829 24.4972 173.958 24.638C174.086 24.7789 174.255 24.8931 174.462 24.9729C174.664 25.0552 174.906 25.1004 175.19 25.1004M174.973 17.9171C174.973 17.7842 174.998 17.6619 175.043 17.5477C175.088 17.4387 175.15 17.3377 175.232 17.2527C175.31 17.165 175.404 17.0985 175.509 17.0507C175.616 17.0029 175.731 16.9763 175.855 16.9763C175.98 16.9763 176.095 17.0029 176.197 17.0507C176.304 17.0985 176.394 17.165 176.476 17.2527C176.558 17.3351 176.621 17.436 176.666 17.5477C176.711 17.6619 176.735 17.7842 176.735 17.9171C176.735 18.0499 176.711 18.1722 176.666 18.2811C176.621 18.3954 176.558 18.4964 176.476 18.5788C176.394 18.6665 176.304 18.7329 176.197 18.7808C176.095 18.8286 175.978 18.8552 175.855 18.8552C175.733 18.8552 175.616 18.8286 175.509 18.7808C175.407 18.7329 175.312 18.6665 175.232 18.5788C175.15 18.4964 175.088 18.3954 175.043 18.2811C174.998 18.1722 174.973 18.0473 174.973 17.9171Z" fill="#EFEAE6"/>
<path d="M182.848 26.687C182.228 26.687 181.704 26.594 181.28 26.4186C180.852 26.2379 180.508 26.0093 180.243 25.725C179.979 25.4406 179.79 25.127 179.675 24.7815C179.555 24.4307 179.498 24.0932 179.498 23.7584C179.498 23.3146 179.578 22.8894 179.73 22.4907C179.882 22.0868 180.101 21.7307 180.383 21.425C180.662 21.1221 181.004 20.8749 181.405 20.6969C181.804 20.5162 182.25 20.4258 182.749 20.4258C182.946 20.4258 183.16 20.4471 183.379 20.4869C183.601 20.5268 183.816 20.5959 184.025 20.6942C184.234 20.7952 184.436 20.9307 184.621 21.1035C184.81 21.2736 184.975 21.4888 185.122 21.7519C185.266 22.0097 185.376 22.3233 185.463 22.6874C185.551 23.0462 185.591 23.4687 185.591 23.9471V25.0845H186.834C186.962 25.0845 187.066 25.0925 187.139 25.1164C187.208 25.135 187.266 25.1642 187.298 25.2094C187.331 25.2546 187.351 25.3104 187.36 25.3768C187.368 25.4433 187.373 25.5203 187.373 25.6133V26.1263C187.373 26.2538 187.365 26.3548 187.353 26.4292C187.336 26.4983 187.313 26.5568 187.266 26.5966C187.226 26.6365 187.171 26.6631 187.101 26.6764C187.036 26.6843 186.944 26.695 186.832 26.695H185.478C185.314 27.1654 185.07 27.5826 184.753 27.9467C184.436 28.3161 184.057 28.6323 183.626 28.9034C183.195 29.1718 182.711 29.3871 182.18 29.5518C181.654 29.7193 181.093 29.8335 180.51 29.9L180.346 28.3294C180.764 28.3001 181.156 28.2364 181.515 28.1407C181.869 28.045 182.19 27.9201 182.47 27.7713C182.754 27.6278 182.996 27.4603 183.202 27.2796C183.404 27.0963 183.564 26.8969 183.681 26.695H182.848V26.687ZM183.816 25.0792V24.3776C183.816 23.8727 183.778 23.4661 183.701 23.1498C183.626 22.8336 183.529 22.5891 183.409 22.4083C183.287 22.2329 183.145 22.1107 182.993 22.0496C182.836 21.9831 182.676 21.9539 182.514 21.9539C182.342 21.9539 182.173 21.9938 182.011 22.0735C181.846 22.1479 181.702 22.2569 181.58 22.403C181.455 22.5439 181.358 22.714 181.283 22.9133C181.206 23.1099 181.168 23.3305 181.168 23.567C181.168 24.0374 181.303 24.4042 181.572 24.6779C181.839 24.949 182.263 25.0872 182.841 25.0872H183.816V25.0792Z" fill="#EFEAE6"/>
<path d="M189.18 25.0792C189.308 25.0792 189.41 25.0871 189.482 25.1111C189.557 25.1297 189.609 25.1589 189.647 25.2041C189.679 25.2492 189.701 25.3051 189.709 25.3715C189.716 25.4379 189.716 25.515 189.716 25.608V26.1209C189.716 26.2485 189.711 26.3495 189.696 26.4239C189.684 26.493 189.654 26.5514 189.614 26.5913C189.572 26.6312 189.52 26.6578 189.45 26.671C189.38 26.679 189.293 26.6896 189.183 26.6896H186.575C186.463 26.6896 186.379 26.6817 186.309 26.671C186.239 26.6578 186.187 26.6312 186.144 26.5913C186.104 26.5514 186.074 26.4956 186.062 26.4239C186.044 26.3495 186.042 26.2485 186.042 26.1209V25.608C186.042 25.515 186.047 25.4379 186.049 25.3715C186.057 25.3051 186.079 25.2492 186.112 25.2041C186.149 25.1589 186.202 25.1297 186.274 25.1111C186.344 25.0898 186.446 25.0792 186.578 25.0792H189.185H189.18Z" fill="#EFEAE6"/>
<path d="M192.907 25.0791C193.034 25.0791 193.136 25.0871 193.208 25.111C193.283 25.1296 193.335 25.1589 193.373 25.2041C193.405 25.2492 193.428 25.305 193.435 25.3715C193.44 25.4379 193.443 25.515 193.443 25.608V26.1209C193.443 26.2485 193.438 26.3495 193.423 26.4239C193.41 26.493 193.38 26.5514 193.34 26.5913C193.298 26.6312 193.246 26.6577 193.176 26.671C193.106 26.679 193.019 26.6896 192.909 26.6896H188.918C188.811 26.6896 188.721 26.6817 188.651 26.671C188.587 26.6577 188.527 26.6312 188.487 26.5913C188.444 26.5514 188.422 26.4956 188.405 26.4239C188.392 26.3495 188.385 26.2485 188.385 26.1209V25.608C188.385 25.515 188.39 25.4379 188.397 25.3715C188.402 25.305 188.422 25.2492 188.459 25.2041C188.492 25.1589 188.547 25.1296 188.617 25.111C188.686 25.0898 188.789 25.0791 188.921 25.0791H192.912H192.907Z" fill="#EFEAE6"/>
<path d="M198.371 25.0792C198.523 25.0792 198.65 25.0606 198.762 25.026C198.87 24.9915 198.957 24.933 199.022 24.8559C199.086 24.7762 199.136 24.6672 199.169 24.5317C199.201 24.3962 199.219 24.2234 199.219 24.0188V21.4729H201.006V24.4626C201.001 24.5237 200.998 24.5822 200.993 24.6433C201.233 24.7842 201.495 24.8931 201.784 24.9675C202.07 25.042 202.402 25.0818 202.771 25.0818H203.282V20.6756H205.084V26.6896H202.891C202.384 26.6896 201.941 26.6205 201.557 26.4823C201.17 26.3468 200.841 26.1661 200.565 25.9482C200.413 26.1714 200.206 26.3521 199.951 26.4877C199.697 26.6205 199.376 26.6896 198.984 26.6896H198.683C198.221 26.6896 197.81 26.6205 197.439 26.4797C197.072 26.3388 196.751 26.1581 196.479 25.9349C196.319 26.1634 196.112 26.3468 195.853 26.485C195.599 26.6205 195.272 26.6923 194.886 26.6923H192.847C192.74 26.6923 192.65 26.6843 192.58 26.6737C192.513 26.6604 192.455 26.6338 192.416 26.594C192.373 26.5541 192.346 26.4983 192.333 26.4265C192.321 26.3521 192.313 26.2511 192.313 26.1236V25.6107C192.313 25.5177 192.318 25.4406 192.326 25.3741C192.331 25.3077 192.351 25.2519 192.388 25.2067C192.421 25.1615 192.475 25.1323 192.545 25.1137C192.615 25.0924 192.717 25.0818 192.849 25.0818H194.273C194.425 25.0818 194.552 25.0632 194.659 25.0287C194.771 24.9941 194.856 24.9357 194.923 24.8586C194.988 24.7789 195.038 24.6699 195.073 24.5344C195.105 24.3988 195.123 24.2261 195.123 24.0215V22.1373H196.91V24.4467C196.91 24.5051 196.905 24.5609 196.893 24.6221C197.147 24.7709 197.399 24.8852 197.646 24.9649C197.892 25.0446 198.134 25.0845 198.371 25.0845" fill="#EFEAE6"/>
<path d="M87.8438 42.2044L88.9805 40.7507C89.7707 41.4444 90.5959 41.8829 91.5955 41.8829C92.3857 41.8829 92.8594 41.548 92.8594 41.0059V40.9793C92.8594 40.4557 92.5602 40.19 91.0969 39.7887C89.3345 39.3103 88.1952 38.7868 88.1952 36.9345V36.9079C88.1952 35.2124 89.4716 34.0936 91.259 34.0936C92.5353 34.0936 93.6272 34.5188 94.5171 35.2788L93.5125 36.8282C92.7372 36.2542 91.9769 35.906 91.2365 35.906C90.4961 35.906 90.1122 36.2648 90.1122 36.7192V36.7458C90.1122 37.3597 90.4862 37.5617 92.0018 37.9736C93.7767 38.4652 94.7764 39.1456 94.7764 40.7747V40.8012C94.7764 42.6535 93.4502 43.6926 91.5606 43.6926C90.2344 43.6926 88.8957 43.201 87.8462 42.1991" fill="#EFEAE6"/>
<path d="M95.5611 38.9223V38.8958C95.5611 36.2409 97.5255 34.067 100.225 34.067C102.925 34.067 104.864 36.2143 104.864 38.8692V38.8958C104.864 41.5507 102.9 43.7245 100.2 43.7245C97.5005 43.7245 95.5586 41.5772 95.5586 38.9223M102.853 38.9223V38.8958C102.853 37.2933 101.753 35.9645 100.2 35.9645C98.6473 35.9645 97.5728 37.2667 97.5728 38.8692V38.8958C97.5728 40.4983 98.6722 41.8271 100.225 41.8271C101.778 41.8271 102.853 40.5248 102.853 38.9223Z" fill="#EFEAE6"/>
<path d="M105.941 39.5629V34.2292H107.868V39.5097C107.868 41.0272 108.581 41.8138 109.758 41.8138C110.935 41.8138 111.645 41.0537 111.645 39.5761V34.2292H113.572V39.4964C113.572 42.3241 112.086 43.7113 109.735 43.7113C107.385 43.7113 105.944 42.3108 105.944 39.5629" fill="#EFEAE6"/>
<path d="M122.85 43.8415L121.888 42.9246C121.15 43.4296 120.263 43.7245 119.286 43.7245C116.583 43.7245 114.646 41.5772 114.646 38.9223V38.8958C114.646 36.2435 116.611 34.067 119.31 34.067C122.01 34.067 123.955 36.217 123.955 38.8692V38.8958C123.955 39.8844 123.665 40.8039 123.177 41.5772L124.079 42.3905L122.853 43.8441L122.85 43.8415ZM120.462 41.5772L119.036 40.283L120.26 38.816L121.701 40.2033C121.851 39.8312 121.94 39.3901 121.94 38.9223V38.8958C121.94 37.2986 120.836 35.9645 119.286 35.9645C117.735 35.9645 116.658 37.272 116.658 38.8692V38.8958C116.658 40.4983 117.762 41.8324 119.31 41.8324C119.739 41.8324 120.126 41.75 120.462 41.5772Z" fill="#EFEAE6"/>
<path d="M128.417 34.2292H130.491L132.794 38.1756L135.095 34.2292H137.174V43.5651H135.26V37.4687L132.794 41.4577H132.744L130.306 37.5086V43.5651H128.417V34.2292Z" fill="#EFEAE6"/>
<path d="M140.786 34.2292H138.859V43.5651H140.786V34.2292Z" fill="#EFEAE6"/>
<path d="M142.477 34.2292H144.249L148.355 39.9774V34.2292H150.257V43.5651H148.619L144.379 37.6308V43.5651H142.477V34.2292Z" fill="#EFEAE6"/>
<path d="M154.859 34.16H156.634L160.388 43.5624H158.371L157.573 41.4682H153.872L153.069 43.5624H151.104L154.859 34.16ZM156.885 39.6558L155.721 36.6262L154.56 39.6558H156.885Z" fill="#EFEAE6"/>
<path d="M164.227 42.0051L169.043 36.0309H164.374V34.2318H171.518V35.7891L166.705 41.7633H171.518V43.5624H164.227V42.0051Z" fill="#EFEAE6"/>
<path d="M176.207 34.16H177.982L181.736 43.5624H179.72L178.922 41.4682H175.22L174.417 43.5624H172.453L176.207 34.16ZM178.234 39.6558L177.07 36.6262L175.908 39.6558H178.234Z" fill="#EFEAE6"/>
<path d="M183.314 39.8844L179.949 34.2292H182.198L184.289 37.979L186.413 34.2292H188.604L185.241 39.8446V43.5651H183.314V39.8844Z" fill="#EFEAE6"/>
<path d="M189.305 34.2292H195.908V36.0549H191.219V37.9497H195.347V39.7755H191.219V41.7394H195.975V43.5651H189.305V34.2292Z" fill="#EFEAE6"/>
<path d="M197.185 34.2292H200.597C203.352 34.2292 205.254 36.2409 205.254 38.8692V38.8958C205.254 41.5241 203.352 43.5651 200.597 43.5651H197.185V34.2292ZM199.111 36.0815V41.7075H200.597C202.175 41.7075 203.24 40.5754 203.24 38.9197V38.8932C203.24 37.2375 202.173 36.0788 200.597 36.0788H199.111V36.0815Z" fill="#EFEAE6"/>
<path d="M119.809 51.1577H120.536L122.077 55.0218H121.254L120.925 54.1608H119.402L119.073 55.0218H118.271L119.811 51.1577H119.809ZM120.639 53.414L120.16 52.1729L119.681 53.414H120.636H120.639Z" fill="#EFEAE6"/>
<path d="M122.429 51.1843H124.096C124.508 51.1843 124.829 51.3039 125.034 51.5218C125.198 51.6972 125.281 51.9125 125.281 52.1756V52.1835C125.281 52.6194 125.066 52.8586 124.807 53.0127C125.226 53.1801 125.482 53.4379 125.482 53.9535V53.9668C125.482 54.6683 124.946 55.0165 124.136 55.0165H122.429V51.1843ZM123.927 52.7337C124.276 52.7337 124.495 52.6141 124.495 52.3297V52.3164C124.495 52.0666 124.311 51.9204 123.977 51.9204H123.199V52.7337H123.927ZM124.139 54.2803C124.488 54.2803 124.7 54.1501 124.7 53.8631V53.8551C124.7 53.5974 124.518 53.4379 124.114 53.4379H123.201V54.2803H124.141H124.139Z" fill="#EFEAE6"/>
<path d="M125.875 53.3768V51.1869H126.665V53.3555C126.665 53.98 126.956 54.3042 127.443 54.3042C127.929 54.3042 128.215 53.9933 128.215 53.3821V51.1869H129.006V53.3502C129.006 54.5089 128.395 55.0802 127.428 55.0802C126.46 55.0802 125.872 54.5062 125.872 53.3768" fill="#EFEAE6"/>
<path d="M130.942 51.1843H132.346C133.478 51.1843 134.255 52.0108 134.255 53.0898V53.103C134.255 54.1794 133.478 55.0165 132.346 55.0165H130.942V51.1843ZM132.346 54.2564C132.991 54.2564 133.428 53.7914 133.428 53.111V53.103C133.428 52.4227 132.991 51.9444 132.346 51.9444H131.735V54.2564H132.346Z" fill="#EFEAE6"/>
<path d="M134.754 51.1843H135.544V52.7044H137.007V51.1843H137.798V55.0165H137.007V53.4804H135.544V55.0165H134.754V51.1843Z" fill="#EFEAE6"/>
<path d="M139.685 51.1577H140.413L141.953 55.0218H141.125L140.801 54.1608H139.278L138.949 55.0218H138.147L139.687 51.1577H139.685ZM140.517 53.414L140.039 52.1729L139.56 53.414H140.515H140.517Z" fill="#EFEAE6"/>
<path d="M142.307 51.1843H143.974C144.386 51.1843 144.707 51.3039 144.917 51.5218C145.076 51.6972 145.158 51.9125 145.158 52.1756V52.1835C145.158 52.6194 144.944 52.8586 144.685 53.0127C145.104 53.1801 145.36 53.4379 145.36 53.9535V53.9668C145.36 54.6683 144.824 55.0165 144.014 55.0165H142.307V51.1843ZM143.805 52.7337C144.154 52.7337 144.373 52.6141 144.373 52.3297V52.3164C144.373 52.0666 144.189 51.9204 143.855 51.9204H143.077V52.7337H143.805ZM144.014 54.2803C144.363 54.2803 144.575 54.1501 144.575 53.8631V53.8551C144.575 53.5974 144.393 53.4379 143.989 53.4379H143.077V54.2803H144.017H144.014Z" fill="#EFEAE6"/>
<path d="M146.632 51.1869H145.842V55.0191H146.632V51.1869Z" fill="#EFEAE6"/>
<path d="M153.109 53.7382C153.109 53.2864 153.224 52.9436 153.445 52.715C153.672 52.4865 154.021 52.3722 154.492 52.3722H155.422V53.7727C155.422 53.8923 155.43 53.988 155.44 54.0571C155.447 54.1262 155.465 54.1847 155.49 54.2192C155.51 54.2591 155.539 54.2803 155.577 54.2936C155.614 54.3069 155.664 54.3122 155.716 54.3122H156.05C156.108 54.3122 156.153 54.3176 156.183 54.3255C156.215 54.3335 156.24 54.3468 156.257 54.368C156.27 54.3866 156.282 54.4132 156.282 54.4371C156.287 54.469 156.287 54.5036 156.287 54.5434V54.7667C156.287 54.8225 156.287 54.8677 156.28 54.8969C156.275 54.9314 156.262 54.9527 156.242 54.9713C156.225 54.9899 156.2 55.0032 156.173 55.0059C156.14 55.0112 156.103 55.0138 156.053 55.0138H155.547C155.435 55.0138 155.325 54.9952 155.213 54.958C155.101 54.9235 155.003 54.865 154.921 54.7826C154.834 54.7029 154.764 54.5993 154.712 54.4743C154.662 54.3468 154.632 54.19 154.632 54.0093V53.0472C154.52 53.0472 154.418 53.0552 154.323 53.0738C154.233 53.0924 154.153 53.127 154.094 53.1828C154.031 53.2359 153.981 53.3103 153.949 53.4113C153.917 53.507 153.899 53.6346 153.899 53.794V54.7587C153.899 54.9687 153.854 55.1759 153.765 55.3726C153.677 55.5746 153.545 55.7553 153.378 55.9121C153.206 56.0662 152.999 56.1938 152.752 56.2895C152.506 56.3825 152.226 56.4303 151.917 56.4303C151.608 56.4303 151.361 56.3984 151.14 56.3426C150.918 56.2815 150.728 56.1991 150.566 56.0955C150.407 55.9998 150.27 55.8855 150.167 55.7579C150.06 55.6304 149.978 55.5002 149.916 55.3673C149.853 55.2371 149.808 55.1042 149.783 54.9766C149.759 54.8544 149.746 54.7401 149.746 54.6444C149.746 54.5222 149.759 54.3973 149.779 54.275C149.803 54.1528 149.831 54.0332 149.868 53.9163C149.906 53.802 149.955 53.693 150.008 53.592C150.06 53.4857 150.12 53.3954 150.18 53.3103L150.798 53.6664C150.758 53.7223 150.721 53.7887 150.686 53.8631C150.653 53.9375 150.624 54.0172 150.604 54.097C150.579 54.1794 150.561 54.2644 150.551 54.3468C150.539 54.4345 150.531 54.5142 150.531 54.5939C150.531 54.6684 150.539 54.7428 150.551 54.8278C150.564 54.9102 150.591 54.9952 150.631 55.0723C150.668 55.1547 150.718 55.2344 150.783 55.3141C150.85 55.3939 150.933 55.4576 151.04 55.5214C151.137 55.5772 151.262 55.6277 151.406 55.6623C151.551 55.6968 151.72 55.7154 151.912 55.7154C152.104 55.7154 152.266 55.6889 152.418 55.641C152.565 55.5879 152.695 55.5214 152.797 55.439C152.9 55.3593 152.979 55.2636 153.032 55.1547C153.089 55.0484 153.114 54.9394 153.114 54.8251V53.7355L153.109 53.7382ZM151.07 57.2196C151.07 57.1638 151.077 57.1106 151.1 57.0575C151.12 57.0097 151.15 56.9645 151.182 56.9299C151.219 56.8901 151.262 56.8608 151.307 56.8369C151.351 56.8183 151.406 56.805 151.459 56.805C151.511 56.805 151.561 56.8183 151.611 56.8369C151.656 56.8582 151.698 56.8901 151.73 56.9299C151.768 56.9645 151.795 57.0097 151.813 57.0575C151.833 57.1106 151.845 57.1638 151.845 57.2196C151.845 57.2754 151.833 57.3286 151.813 57.3817C151.795 57.4295 151.768 57.4747 151.73 57.5093C151.698 57.5491 151.656 57.5784 151.611 57.6023C151.561 57.6209 151.511 57.6342 151.459 57.6342C151.406 57.6342 151.351 57.6209 151.307 57.6023C151.262 57.581 151.219 57.5491 151.182 57.5093C151.15 57.4747 151.12 57.4295 151.1 57.3817C151.08 57.3286 151.07 57.2754 151.07 57.2196ZM151.977 57.2196C151.977 57.1638 151.985 57.1106 152.005 57.0575C152.025 57.0097 152.054 56.9645 152.092 56.9299C152.124 56.8901 152.167 56.8608 152.212 56.8369C152.261 56.8183 152.311 56.805 152.364 56.805C152.416 56.805 152.471 56.8183 152.516 56.8369C152.561 56.8582 152.603 56.8901 152.635 56.9299C152.673 56.9645 152.7 57.0097 152.723 57.0575C152.74 57.1106 152.752 57.1638 152.752 57.2196C152.752 57.2754 152.74 57.3286 152.723 57.3817C152.703 57.4295 152.673 57.4747 152.635 57.5093C152.603 57.5491 152.561 57.5784 152.516 57.6023C152.471 57.6209 152.416 57.6342 152.364 57.6342C152.311 57.6342 152.261 57.6209 152.212 57.6023C152.167 57.581 152.124 57.5491 152.092 57.5093C152.054 57.4747 152.027 57.4295 152.005 57.3817C151.985 57.3286 151.977 57.2754 151.977 57.2196Z" fill="#EFEAE6"/>
<path d="M157.079 54.3122C157.137 54.3122 157.179 54.3176 157.211 54.3255C157.244 54.3335 157.269 54.3468 157.286 54.3654C157.299 54.3866 157.306 54.4106 157.311 54.4398C157.316 54.4717 157.316 54.5062 157.316 54.5461V54.7693C157.316 54.8251 157.311 54.8703 157.309 54.8996C157.301 54.9341 157.291 54.9554 157.271 54.974C157.254 54.9926 157.231 55.0059 157.201 55.0085C157.169 55.0138 157.132 55.0165 157.082 55.0165H155.937C155.888 55.0165 155.85 55.0112 155.818 55.0085C155.788 55.0032 155.763 54.9899 155.748 54.974C155.728 54.9554 155.716 54.9341 155.711 54.8996C155.703 54.8703 155.703 54.8251 155.703 54.7693V54.5461C155.703 54.5062 155.703 54.4717 155.708 54.4398C155.713 54.4079 155.721 54.3866 155.733 54.3654C155.748 54.3468 155.773 54.3335 155.803 54.3255C155.835 54.3176 155.88 54.3122 155.937 54.3122H157.082H157.079Z" fill="#EFEAE6"/>
<path d="M158.109 54.3122C158.167 54.3122 158.209 54.3176 158.241 54.3255C158.274 54.3335 158.299 54.3468 158.311 54.3654C158.329 54.3866 158.336 54.4106 158.339 54.4398C158.344 54.4717 158.344 54.5062 158.344 54.5461V54.7693C158.344 54.8251 158.339 54.8703 158.336 54.8996C158.329 54.9341 158.319 54.9554 158.299 54.974C158.284 54.9926 158.259 55.0059 158.229 55.0085C158.196 55.0138 158.159 55.0165 158.109 55.0165H156.965C156.915 55.0165 156.878 55.0112 156.845 55.0085C156.815 55.0032 156.79 54.9899 156.776 54.974C156.756 54.9554 156.743 54.9341 156.738 54.8996C156.731 54.8703 156.731 54.8251 156.731 54.7693V54.5461C156.731 54.5062 156.731 54.4717 156.736 54.4398C156.741 54.4079 156.748 54.3866 156.761 54.3654C156.776 54.3468 156.8 54.3335 156.83 54.3255C156.863 54.3176 156.908 54.3122 156.965 54.3122H158.109Z" fill="#EFEAE6"/>
<path d="M159.585 53.9588C159.585 53.9986 159.58 54.0385 159.58 54.073C159.575 54.1129 159.572 54.1475 159.567 54.182C159.667 54.2272 159.772 54.2564 159.889 54.2777C159.998 54.2989 160.118 54.3122 160.243 54.3122H160.268C160.323 54.3122 160.367 54.3175 160.4 54.3255C160.432 54.3335 160.457 54.3468 160.47 54.3654C160.487 54.3866 160.495 54.4106 160.497 54.4398C160.502 54.4664 160.502 54.5009 160.502 54.5461V54.7693C160.502 54.8251 160.497 54.8703 160.495 54.9022C160.487 54.9341 160.475 54.958 160.457 54.9766C160.442 54.9952 160.417 55.0032 160.382 55.0112C160.352 55.0165 160.313 55.0165 160.268 55.0165H160.235C160.033 55.0165 159.861 54.9952 159.719 54.9474C159.575 54.8996 159.453 54.8331 159.34 54.7534C159.271 54.8358 159.183 54.8969 159.076 54.9474C158.974 54.9952 158.844 55.0165 158.692 55.0165H158.084C158.034 55.0165 157.997 55.0165 157.964 55.0112C157.937 55.0032 157.912 54.9926 157.894 54.9766C157.875 54.958 157.862 54.9314 157.857 54.9022C157.85 54.8703 157.85 54.8278 157.85 54.7693V54.5461C157.85 54.5009 157.85 54.4664 157.855 54.4398C157.86 54.4106 157.867 54.3866 157.88 54.3654C157.897 54.3468 157.922 54.3335 157.949 54.3255C157.982 54.3175 158.029 54.3122 158.086 54.3122H158.428C158.493 54.3122 158.55 54.3043 158.597 54.291C158.647 54.2724 158.685 54.2485 158.712 54.2112C158.74 54.1767 158.764 54.1289 158.777 54.0704C158.789 54.0093 158.797 53.9349 158.797 53.8418V52.3749H159.582V53.9561L159.585 53.9588ZM158.809 55.944C158.809 55.8882 158.817 55.835 158.837 55.7819C158.857 55.734 158.887 55.6888 158.919 55.6543C158.956 55.6144 158.996 55.5852 159.041 55.5613C159.086 55.5427 159.141 55.5294 159.193 55.5294C159.246 55.5294 159.295 55.5427 159.345 55.5613C159.39 55.5825 159.433 55.6144 159.465 55.6543C159.502 55.6888 159.53 55.734 159.552 55.7819C159.57 55.835 159.582 55.8882 159.582 55.944C159.582 55.9998 159.57 56.0529 159.552 56.1061C159.532 56.1539 159.502 56.1991 159.465 56.2336C159.433 56.2735 159.39 56.3027 159.345 56.3267C159.295 56.3453 159.246 56.3585 159.193 56.3585C159.141 56.3585 159.086 56.3453 159.041 56.3267C158.996 56.3054 158.954 56.2735 158.919 56.2336C158.887 56.1991 158.857 56.1539 158.837 56.1061C158.817 56.0529 158.809 55.9998 158.809 55.944Z" fill="#EFEAE6"/>
<path d="M161.3 54.3122C161.357 54.3122 161.402 54.3176 161.432 54.3255C161.465 54.3335 161.489 54.3468 161.507 54.3654C161.519 54.3866 161.527 54.4106 161.532 54.4398C161.537 54.4717 161.537 54.5062 161.537 54.5461V54.7693C161.537 54.8251 161.537 54.8703 161.529 54.8996C161.522 54.9341 161.512 54.9554 161.492 54.974C161.477 54.9926 161.452 55.0059 161.422 55.0085C161.39 55.0138 161.352 55.0165 161.302 55.0165H160.158C160.108 55.0165 160.071 55.0112 160.039 55.0085C160.009 55.0032 159.984 54.9899 159.969 54.974C159.949 54.9554 159.936 54.9341 159.931 54.8996C159.924 54.8703 159.924 54.8251 159.924 54.7693V54.5461C159.924 54.5062 159.924 54.4717 159.929 54.4398C159.934 54.4079 159.941 54.3866 159.954 54.3654C159.969 54.3468 159.994 54.3335 160.024 54.3255C160.056 54.3176 160.101 54.3122 160.158 54.3122H161.302H161.3Z" fill="#EFEAE6"/>
<path d="M161.273 55.0218C161.228 55.0218 161.185 55.0165 161.158 55.0138C161.125 55.0085 161.106 54.9952 161.083 54.9793C161.066 54.9607 161.053 54.9394 161.046 54.9049C161.041 54.873 161.038 54.8305 161.038 54.772V54.5488C161.038 54.5036 161.038 54.469 161.043 54.4425C161.048 54.4106 161.056 54.3893 161.071 54.368C161.083 54.3494 161.108 54.3362 161.14 54.3282C161.17 54.3202 161.215 54.3149 161.273 54.3149H161.921C161.948 54.2272 161.985 54.1342 162.033 54.0332C162.078 53.9375 162.123 53.8312 162.18 53.7249V50.3923H162.963V52.6699C163.135 52.5131 163.329 52.3855 163.536 52.2845C163.745 52.1889 163.977 52.141 164.224 52.141C164.453 52.141 164.655 52.1809 164.825 52.2686C164.994 52.3563 165.136 52.4706 165.249 52.6247C165.361 52.7735 165.443 52.9489 165.495 53.1562C165.55 53.3582 165.578 53.5788 165.578 53.8153V55.0218H161.275H161.273ZM164.797 53.8844C164.797 53.6824 164.777 53.515 164.74 53.3794C164.703 53.2439 164.65 53.1376 164.583 53.0552C164.521 52.9755 164.443 52.9197 164.356 52.8851C164.266 52.8506 164.172 52.832 164.072 52.832C163.94 52.832 163.805 52.8718 163.663 52.9516C163.529 53.034 163.394 53.1403 163.272 53.2758C163.147 53.4113 163.032 53.5708 162.93 53.7462C162.828 53.9269 162.746 54.1156 162.676 54.3176H164.797V53.887V53.8844ZM163.785 51.1657C163.785 51.1099 163.793 51.0567 163.813 51.0036C163.833 50.9558 163.863 50.9106 163.895 50.876C163.932 50.8362 163.972 50.8069 164.017 50.783C164.062 50.7644 164.117 50.7511 164.169 50.7511C164.222 50.7511 164.271 50.7644 164.321 50.783C164.366 50.8043 164.409 50.8362 164.441 50.876C164.478 50.9106 164.506 50.9558 164.528 51.0036C164.546 51.0567 164.558 51.1099 164.558 51.1657C164.558 51.2215 164.546 51.2747 164.528 51.3278C164.508 51.3756 164.478 51.4208 164.441 51.4554C164.409 51.4952 164.366 51.5245 164.321 51.5484C164.271 51.567 164.222 51.5803 164.169 51.5803C164.117 51.5803 164.062 51.567 164.017 51.5484C163.972 51.5271 163.93 51.4952 163.895 51.4554C163.863 51.4208 163.833 51.3756 163.813 51.3278C163.793 51.2747 163.785 51.2215 163.785 51.1657Z" fill="#EFEAE6"/>
<path d="M167.739 55.0191C167.468 55.0191 167.241 54.9793 167.051 54.8995C166.867 54.8198 166.715 54.7188 166.598 54.5966C166.483 54.469 166.396 54.3335 166.346 54.1793C166.293 54.0252 166.269 53.8764 166.269 53.7329C166.269 53.5362 166.301 53.3502 166.371 53.1748C166.436 52.9941 166.53 52.8399 166.66 52.7044C166.785 52.5742 166.932 52.4625 167.104 52.3828C167.281 52.3031 167.478 52.2632 167.692 52.2632C167.782 52.2632 167.876 52.2712 167.971 52.2898C168.071 52.3084 168.166 52.3376 168.255 52.3828C168.345 52.428 168.437 52.4838 168.52 52.5635C168.602 52.6379 168.677 52.731 168.739 52.8479C168.801 52.9622 168.854 53.0977 168.891 53.2572C168.928 53.4166 168.946 53.6 168.946 53.8099V54.3095H169.494C169.552 54.3095 169.597 54.3149 169.626 54.3228C169.659 54.3308 169.684 54.3441 169.701 54.3627C169.714 54.384 169.721 54.4079 169.726 54.4371C169.731 54.4663 169.731 54.5036 169.731 54.5434V54.7666C169.731 54.8225 169.731 54.8676 169.724 54.8969C169.719 54.9314 169.706 54.9527 169.686 54.9713C169.669 54.9899 169.644 55.0032 169.616 55.0058C169.584 55.0111 169.547 55.0138 169.497 55.0138H168.899C168.829 55.2211 168.722 55.3991 168.582 55.5639C168.442 55.726 168.278 55.8669 168.088 55.9865C167.899 56.1007 167.684 56.1964 167.455 56.2708C167.221 56.3399 166.979 56.3931 166.717 56.4196L166.642 55.7313C166.827 55.7181 167.001 55.6915 167.156 55.649C167.313 55.6038 167.453 55.5533 167.58 55.4895C167.704 55.4231 167.807 55.3486 167.896 55.2689C167.986 55.1892 168.056 55.1015 168.106 55.0138H167.739V55.0191ZM168.166 54.3122V54.0039C168.166 53.7807 168.148 53.6 168.116 53.4644C168.083 53.3236 168.038 53.2146 167.984 53.1402C167.931 53.0605 167.874 53.01 167.802 52.9781C167.732 52.9515 167.662 52.9382 167.592 52.9382C167.517 52.9382 167.445 52.9569 167.37 52.9861C167.301 53.0206 167.238 53.0685 167.181 53.1323C167.126 53.1987 167.086 53.2731 167.054 53.3555C167.021 53.4432 167.004 53.5389 167.004 53.6452C167.004 53.8524 167.061 54.0146 167.176 54.1315C167.296 54.2511 167.48 54.3122 167.737 54.3122H168.166Z" fill="#EFEAE6"/>
<path d="M170.524 54.3122C170.581 54.3122 170.626 54.3176 170.656 54.3255C170.688 54.3335 170.713 54.3468 170.731 54.3654C170.743 54.3866 170.75 54.4106 170.755 54.4398C170.76 54.4717 170.76 54.5062 170.76 54.5461V54.7693C170.76 54.8251 170.76 54.8703 170.753 54.8996C170.748 54.9341 170.736 54.9554 170.716 54.974C170.701 54.9926 170.676 55.0059 170.646 55.0085C170.613 55.0138 170.576 55.0165 170.526 55.0165H169.382C169.332 55.0165 169.295 55.0112 169.262 55.0085C169.232 55.0032 169.207 54.9899 169.192 54.974C169.172 54.9554 169.16 54.9341 169.155 54.8996C169.148 54.8703 169.148 54.8251 169.148 54.7693V54.5461C169.148 54.5062 169.148 54.4717 169.153 54.4398C169.158 54.4079 169.165 54.3866 169.177 54.3654C169.195 54.3468 169.217 54.3335 169.247 54.3255C169.28 54.3176 169.325 54.3122 169.382 54.3122H170.526H170.524Z" fill="#EFEAE6"/>
<path d="M171.553 54.3122C171.61 54.3122 171.655 54.3176 171.685 54.3255C171.717 54.3335 171.742 54.3468 171.76 54.3654C171.772 54.3866 171.78 54.4106 171.785 54.4398C171.79 54.4717 171.79 54.5062 171.79 54.5461V54.7693C171.79 54.8251 171.79 54.8703 171.782 54.8996C171.777 54.9341 171.765 54.9554 171.745 54.974C171.727 54.9926 171.705 55.0059 171.675 55.0085C171.643 55.0138 171.605 55.0165 171.555 55.0165H170.411C170.361 55.0165 170.324 55.0112 170.291 55.0085C170.262 55.0032 170.237 54.9899 170.222 54.974C170.202 54.9554 170.189 54.9341 170.184 54.8996C170.179 54.8703 170.177 54.8251 170.177 54.7693V54.5461C170.177 54.5062 170.177 54.4717 170.182 54.4398C170.187 54.4079 170.194 54.3866 170.207 54.3654C170.222 54.3468 170.247 54.3335 170.276 54.3255C170.309 54.3176 170.354 54.3122 170.411 54.3122H171.555H171.553Z" fill="#EFEAE6"/>
<path d="M171.528 55.0165C171.483 55.0165 171.441 55.0165 171.414 55.0111C171.381 55.0032 171.356 54.9925 171.339 54.9766C171.321 54.958 171.309 54.9314 171.301 54.9022C171.296 54.8703 171.294 54.8278 171.294 54.7693V54.5461C171.294 54.5009 171.294 54.4663 171.299 54.4398C171.304 54.4105 171.311 54.3866 171.326 54.3654C171.339 54.3468 171.364 54.3335 171.396 54.3255C171.426 54.3175 171.471 54.3122 171.528 54.3122H172.303V52.3775H173.089V55.0165H171.528ZM172.451 55.9439C172.451 55.8881 172.458 55.835 172.478 55.7818C172.498 55.734 172.528 55.6888 172.56 55.6543C172.598 55.6144 172.638 55.5852 172.682 55.5613C172.727 55.5427 172.782 55.5294 172.834 55.5294C172.887 55.5294 172.937 55.5427 172.987 55.5613C173.031 55.5825 173.074 55.6144 173.106 55.6543C173.144 55.6888 173.171 55.734 173.193 55.7818C173.211 55.835 173.223 55.8881 173.223 55.9439C173.223 55.9998 173.211 56.0529 173.193 56.1061C173.173 56.1539 173.144 56.1991 173.106 56.2336C173.074 56.2735 173.031 56.3027 172.987 56.3266C172.937 56.3452 172.887 56.3585 172.834 56.3585C172.782 56.3585 172.727 56.3452 172.682 56.3266C172.638 56.3054 172.595 56.2735 172.56 56.2336C172.528 56.1991 172.498 56.1539 172.478 56.1061C172.458 56.0529 172.451 55.9998 172.451 55.9439Z" fill="#EFEAE6"/>
<path d="M174.756 49.0795C174.724 49.0742 174.682 49.0662 174.632 49.0609C174.577 49.0529 174.537 49.0529 174.505 49.0529C174.44 49.0529 174.385 49.0662 174.343 49.0928C174.305 49.122 174.285 49.1751 174.285 49.2469C174.285 49.3213 174.313 49.3824 174.372 49.4409C174.435 49.4941 174.525 49.5233 174.652 49.5233H174.824V49.9086H173.699V49.5233H173.996C173.964 49.4781 173.934 49.4276 173.906 49.3665C173.881 49.3054 173.866 49.2389 173.866 49.1698C173.866 49.1034 173.879 49.0423 173.904 48.9811C173.929 48.92 173.961 48.8669 174.016 48.819C174.066 48.7712 174.128 48.7313 174.205 48.6994C174.283 48.6729 174.377 48.6543 174.482 48.6543C174.532 48.6543 174.582 48.6596 174.634 48.6596C174.687 48.6649 174.749 48.6729 174.819 48.6862L174.756 49.0821V49.0795ZM173.876 50.395H174.664V55.0218H173.876V50.395Z" fill="#EFEAE6"/>
<path d="M39.1227 29.9531C38.6491 29.9531 38.2627 29.5411 38.2627 29.0362V18.5867C38.2627 18.0818 38.6491 17.6699 39.1227 17.6699C39.5964 17.6699 39.9828 18.0818 39.9828 18.5867V29.0362C39.9828 29.5411 39.5964 29.9531 39.1227 29.9531Z" fill="#EFEAE6"/>
<path d="M29.6503 53.2625C27.3445 53.2625 26.1703 52.8612 25.0411 52.4758C23.9841 52.1171 22.9944 51.7769 20.9528 51.7769C18.9112 51.7769 17.924 52.1144 16.872 52.4758C15.7378 52.8612 14.5711 53.2625 12.2603 53.2625C9.94938 53.2625 8.78024 52.8612 7.65347 52.4758C7.03275 52.2632 6.44195 52.0639 5.65172 51.9337C5.18306 51.8566 4.86398 51.3862 4.93876 50.8866C5.01106 50.3817 5.45229 50.0415 5.92094 50.1212C6.8433 50.2727 7.52384 50.5066 8.17946 50.7298C9.23394 51.0886 10.2261 51.4288 12.2627 51.4288C14.2994 51.4288 15.2965 51.0913 16.346 50.7298C17.4803 50.3445 18.6469 49.9432 20.9553 49.9432C23.2637 49.9432 24.4328 50.3445 25.5671 50.7298C26.619 51.0886 27.6137 51.4288 29.6528 51.4288C31.692 51.4288 32.6866 51.0913 33.7361 50.7298C34.8704 50.3445 36.037 49.9432 38.3479 49.9432C38.8215 49.9432 39.2079 50.3551 39.2079 50.86C39.2079 51.365 38.824 51.7769 38.3479 51.7769C36.3062 51.7769 35.3141 52.1144 34.2596 52.4758C33.1304 52.8612 31.9587 53.2625 29.6528 53.2625" fill="#EFEAE6"/>
<path d="M29.6507 60.2704C27.3448 60.2704 26.1707 59.8691 25.0415 59.4838C23.9845 59.125 22.9948 58.7849 20.9532 58.7849C18.9116 58.7849 17.9244 59.1224 16.8724 59.4838C15.7382 59.8691 14.5715 60.2704 12.2606 60.2704C11.4879 60.2704 10.7998 60.2226 10.1592 60.1349C9.68802 60.0684 9.35648 59.6034 9.42628 59.1038C9.4886 58.5988 9.91986 58.248 10.3935 58.3171C10.9519 58.3942 11.5651 58.4367 12.2606 58.4367C14.2973 58.4367 15.2944 58.0992 16.3439 57.7378C17.4782 57.3524 18.6448 56.9511 20.9532 56.9511C23.2616 56.9511 24.4307 57.3524 25.565 57.7378C26.6169 58.0965 27.6116 58.4367 29.6507 58.4367C31.6899 58.4367 32.6845 58.0992 33.734 57.7378C34.8683 57.3524 36.0349 56.9511 38.3458 56.9511C38.8194 56.9511 39.2058 57.3631 39.2058 57.868C39.2058 58.3729 38.8219 58.7849 38.3458 58.7849C36.3041 58.7849 35.312 59.1224 34.2575 59.4838C33.1282 59.8691 31.9566 60.2704 29.6507 60.2704Z" fill="#EFEAE6"/>
<path d="M29.6504 67.2811C27.3445 67.2811 26.1704 66.8798 25.0411 66.4945C23.9841 66.1357 22.9945 65.7955 20.9528 65.7955C18.9112 65.7955 17.924 66.133 16.872 66.4945L16.8147 66.5157C16.361 66.6725 15.8774 66.4068 15.7303 65.9204C15.5882 65.4368 15.8375 64.9212 16.2887 64.7697L16.3461 64.7485C17.4803 64.3631 18.6469 63.9618 20.9553 63.9618C23.2637 63.9618 24.4328 64.3631 25.5671 64.7485C26.6191 65.1072 27.6137 65.4474 29.6529 65.4474C31.692 65.4474 32.6867 65.1099 33.7361 64.7485C34.8704 64.3631 36.037 63.9618 38.3479 63.9618C38.8215 63.9618 39.2079 64.3737 39.2079 64.8787C39.2079 65.3836 38.824 65.7955 38.3479 65.7955C36.3063 65.7955 35.3141 66.133 34.2596 66.4945C33.1304 66.8798 31.9587 67.2811 29.6529 67.2811" fill="#EFEAE6"/>
<path d="M53.3926 55.2796L53.0511 54.8384C50.9845 52.1835 50.4236 48.8297 51.5479 45.8612C52.6971 42.8343 55.3645 40.7933 58.6849 40.4053L59.1985 40.3441L59.5101 40.78C61.4769 43.5518 62.0303 46.7329 61.0282 49.5047C59.9712 52.4094 57.3812 54.4797 53.9211 55.176L53.3926 55.2796ZM58.3658 42.4144C55.9677 42.8608 54.0757 44.3916 53.2381 46.5947C52.4354 48.7208 52.7669 51.1285 54.1255 53.1376C56.6782 52.4812 58.5578 50.9239 59.3256 48.8031C60.046 46.8153 59.6945 44.5192 58.3683 42.4144" fill="#EFEAE6"/>
<path d="M39.1227 72.1896C38.6491 72.1896 38.2627 71.7777 38.2627 71.2727V37.9524C38.2627 37.4474 38.6491 37.0355 39.1227 37.0355C39.5964 37.0355 39.9828 37.4474 39.9828 37.9524V71.2727C39.9828 71.7777 39.5964 72.1896 39.1227 72.1896Z" fill="#EFEAE6"/>
<path d="M48.6954 69.6729C48.2218 69.6729 47.8354 69.261 47.8354 68.756V54.3335C47.8354 49.0609 43.8094 44.769 38.8636 44.769H38.4872C36.4456 44.769 35.4534 45.1065 34.4039 45.4679C33.2697 45.8532 32.1006 46.2545 29.7922 46.2545C27.4838 46.2545 26.3147 45.8532 25.1854 45.4679C24.1284 45.1091 23.1363 44.769 21.0996 44.769C19.063 44.769 18.0658 45.1065 17.0163 45.4679C15.8821 45.8532 14.7154 46.2545 12.4096 46.2545C10.1037 46.2545 8.92956 45.8532 7.7978 45.4679C6.74582 45.1091 5.75616 44.769 3.71452 44.769C3.24088 44.769 2.85449 44.357 2.85449 43.8521C2.85449 43.3472 3.24088 42.9352 3.71452 42.9352C6.02539 42.9352 7.19204 43.3312 8.32629 43.7166C9.37827 44.0753 10.3679 44.4155 12.4121 44.4155C14.4562 44.4155 15.4409 44.078 16.4928 43.7166C17.6271 43.3312 18.7937 42.9352 21.1046 42.9352C23.4155 42.9352 24.5796 43.3312 25.7139 43.7166C26.7634 44.0753 27.7605 44.4155 29.7972 44.4155C31.8338 44.4155 32.831 44.078 33.8804 43.7166C35.0147 43.3312 36.1838 42.9352 38.4922 42.9352H38.8686C44.7617 42.9352 49.5579 48.0457 49.5579 54.3308V68.7534C49.5579 69.2583 49.1716 69.6702 48.6979 69.6702" fill="#EFEAE6"/>
<path d="M53.6439 19.4398C52.0161 19.4398 50.6974 18.0287 50.6974 16.2933C50.6974 14.5579 52.0161 13.1521 53.6439 13.1521C55.2718 13.1521 56.593 14.5579 56.593 16.2933C56.593 18.0287 55.2693 19.4398 53.6439 19.4398ZM53.6439 14.7732C52.8537 14.7732 52.2155 15.4588 52.2155 16.296C52.2155 17.1331 52.8537 17.8214 53.6439 17.8214C54.4342 17.8214 55.0698 17.1357 55.0698 16.296C55.0698 15.4562 54.4317 14.7732 53.6439 14.7732Z" fill="#EFEAE6"/>
<path d="M68.0629 38.2712H35.3618C32.8864 38.2712 30.8672 36.1186 30.8672 33.4797C30.8672 30.8407 32.8864 28.6934 35.3618 28.6934H49.9375C50.4111 28.6934 50.7975 29.1 50.7975 29.6103C50.7975 30.1205 50.4111 30.5271 49.9375 30.5271H35.3618C33.8337 30.5271 32.5872 31.8506 32.5872 33.4797C32.5872 35.1087 33.8337 36.4375 35.3618 36.4375H68.0629C68.5366 36.4375 68.923 36.8494 68.923 37.3544C68.923 37.8593 68.923 38.2712 68.4493 38.2712" fill="#EFEAE6"/>
<path d="M35.5535 72.9443C31.4827 72.9443 27.5016 72.1736 23.73 70.6482C23.2862 70.4648 23.0619 69.9333 23.2314 69.4656C23.3984 68.9925 23.897 68.7533 24.3407 68.9287C27.9179 70.3771 31.6896 71.1106 35.556 71.1106C49.7827 71.1106 62.3366 60.9003 66.0784 46.2917C66.2006 45.8027 66.6742 45.5157 67.1354 45.6459C67.5941 45.7815 67.8633 46.2864 67.7411 46.7754C63.7925 62.1839 50.5579 72.9443 35.5585 72.9443" fill="#EFEAE6"/>
<path d="M25.8463 38.1277H2.40606V37.179C2.40606 31.7124 3.51288 26.4531 5.69662 21.5526C5.90851 21.0795 6.43699 20.8776 6.88072 21.1035C7.32444 21.3293 7.51141 21.8927 7.30201 22.3658C5.36008 26.7268 4.31558 31.3882 4.19592 36.2302H25.8463C26.3374 36.2302 26.7362 36.6555 26.7362 37.179C26.7362 37.7025 26.3374 38.1277 25.8463 38.1277Z" fill="#EFEAE6"/>
<path d="M49.6434 7.14864C60.3452 12.8092 67.1556 24.4041 67.1556 37.272C67.1556 39.7542 66.8964 42.2283 66.3878 44.6494C55.686 38.9888 48.8756 27.3939 48.8756 14.526C48.8756 12.0439 49.1349 9.56967 49.6459 7.14864M48.4543 4.48843C47.5768 7.67218 47.0957 11.0393 47.0957 14.526C47.0957 29.2914 55.5464 41.9519 67.5744 47.3122C68.4519 44.1285 68.933 40.7614 68.933 37.2747C68.933 22.5093 60.4798 9.84872 48.4543 4.48843Z" fill="#EFEAE6"/>
<path d="M28.0153 16.5617C27.5416 16.5617 27.1552 16.1498 27.1552 15.6448C27.1552 13.8324 25.6994 12.3575 23.912 12.3575C22.1247 12.3575 20.6664 13.8324 20.6664 15.6448C20.6664 16.1498 20.28 16.5617 19.8063 16.5617C19.3327 16.5617 18.9463 16.1498 18.9463 15.6448C18.9463 12.8225 21.1749 10.5237 23.912 10.5237C26.6492 10.5237 28.8753 12.8199 28.8753 15.6448C28.8753 16.1498 28.4889 16.5617 28.0153 16.5617Z" fill="#EFEAE6"/>
<path d="M33.9228 16.1418C33.4491 16.1418 33.0627 15.7299 33.0627 15.2249C33.0627 11.7728 30.2832 8.95844 26.863 8.95844C23.4428 8.95844 20.6683 11.7701 20.6683 15.2249C20.6683 15.7299 20.2819 16.1418 19.8083 16.1418C19.3346 16.1418 18.9482 15.7299 18.9482 15.2249C18.9482 10.7549 22.5005 7.12473 26.863 7.12473C31.2255 7.12473 34.7828 10.7549 34.7828 15.2249C34.7828 15.7299 34.3964 16.1418 33.9228 16.1418Z" fill="#EFEAE6"/>
<path d="M38.9712 15.3579C38.4975 15.3579 38.1111 14.9459 38.1111 14.441C38.1111 9.00366 34.1924 4.58149 29.3737 4.58149C24.555 4.58149 20.6363 9.00366 20.6363 14.441C20.6363 14.9459 20.2499 15.3579 19.7763 15.3579C19.3026 15.3579 18.9112 14.9459 18.9112 14.441C18.9112 7.99379 23.6028 2.74778 29.3712 2.74778C35.1397 2.74778 39.8262 7.99379 39.8262 14.441C39.8262 14.9459 39.4398 15.3579 38.9662 15.3579" fill="#EFEAE6"/>
<path d="M19.8031 15.3579C19.3295 15.3579 18.9431 14.9459 18.9431 14.441C18.9431 9.00365 15.0243 4.58148 10.2056 4.58148C5.38697 4.58148 1.46821 9.00365 1.46821 14.441C1.46821 14.9459 1.08432 15.3579 0.603197 15.3579C0.122078 15.3579 -0.256836 14.9459 -0.256836 14.441C-0.256836 7.99378 4.4347 2.74777 10.2031 2.74777C15.9716 2.74777 20.6581 7.99378 20.6581 14.441C20.6581 14.9459 20.2717 15.3579 19.7981 15.3579" fill="#EFEAE6"/>
<path d="M19.7809 16.5617C19.3072 16.5617 18.9209 16.1498 18.9209 15.6448C18.9209 13.8324 17.465 12.3575 15.6777 12.3575C13.8903 12.3575 12.432 13.8324 12.432 15.6448C12.432 16.1498 12.0481 16.5617 11.5719 16.5617C11.0958 16.5617 10.7119 16.1498 10.7119 15.6448C10.7119 12.8225 12.9405 10.5237 15.6777 10.5237C18.4148 10.5237 20.6409 12.8199 20.6409 15.6448C20.6409 16.1498 20.2545 16.5617 19.7809 16.5617Z" fill="#EFEAE6"/>
<path d="M19.7811 16.1418C19.3075 16.1418 18.9211 15.7299 18.9211 15.2249C18.9211 11.7728 16.1416 8.95844 12.7214 8.95844C9.3012 8.95844 6.52666 11.7701 6.52666 15.2249C6.52666 15.7299 6.14027 16.1418 5.66663 16.1418C5.19299 16.1418 4.8066 15.7299 4.8066 15.2249C4.8066 10.7549 8.3589 7.12473 12.7214 7.12473C17.0839 7.12473 20.6412 10.7549 20.6412 15.2249C20.6412 15.7299 20.2548 16.1418 19.7811 16.1418Z" fill="#EFEAE6"/>
<path d="M19.7836 38.0294C19.31 38.0294 18.9236 37.6175 18.9236 37.1125C18.8987 24.9914 18.9186 12.0997 18.9435 0.975145C18.9485 0.464895 19.3399 0.0689188 19.8085 0.0582886C20.2822 0.0582886 20.6686 0.47021 20.6686 0.975145C20.6436 12.105 20.6187 24.9914 20.6436 37.1125C20.6436 37.6175 20.2622 38.0294 19.7836 38.0294Z" fill="#EFEAE6"/>
</g>
<defs>
<clipPath id="clip0_724_9052">
<rect width="205" height="73" fill="white"/>
</clipPath>
</defs>
</svg>
