<svg width="92" height="32" viewBox="0 0 92 32" fill="none" xmlns="http://www.w3.org/2000/svg">
<path d="M85.4037 11.5221C84.8907 10.9789 83.2706 11.7533 82.2188 12.9457C81.3029 13.9833 80.7321 15.5037 80.7321 15.5037C80.9606 15.4744 82.5851 14.6875 84.0166 13.5627C84.5759 13.1226 85.9221 12.0618 85.4037 11.5221ZM84.6595 28.7992C82.9105 29.4456 80.0697 29.9578 77.4796 29.2767C76.907 29.1273 76.4989 28.9646 76.1806 28.8321C79.2117 31.5031 82.1583 32.6483 84.0184 31.6205C86.4147 30.2992 88.5504 28.015 90.1091 25.2533C88.5673 27.044 86.4378 28.143 84.6595 28.7992ZM82.3255 19.1226C81.7671 19.0008 81.0913 20.7506 81.792 20.9089C81.8693 20.9258 81.9698 20.9329 82.0898 20.9293V20.9284C82.4331 20.9089 82.7763 20.8351 83.1115 20.7213C83.0555 19.6872 82.778 19.2213 82.3255 19.1226ZM87.2345 23.0402C87.0353 23.2376 86.4849 23.7871 86.2929 23.9818C86.2546 24.0191 86.2004 24.0191 86.163 23.9818C85.963 23.7871 85.4135 23.2376 85.2125 23.0402C85.1841 23.0002 85.1841 22.9468 85.2125 22.9095C85.401 22.7165 85.9701 22.1546 86.163 21.9616C86.2004 21.9287 86.2546 21.9287 86.2929 21.9687C86.4849 22.1626 87.0353 22.7023 87.2345 22.9024C87.2683 22.9433 87.2683 23.0073 87.2345 23.0402ZM79.6767 19.4204C79.4784 19.6187 78.928 20.1682 78.7351 20.3621C78.6977 20.4003 78.6435 20.4003 78.6062 20.3621C78.407 20.1682 77.8575 19.6187 77.6548 19.4204C77.6272 19.3813 77.6272 19.3271 77.6548 19.2897C77.8442 19.0959 78.4132 18.5357 78.6062 18.3419C78.6435 18.3099 78.6977 18.3099 78.7351 18.3499C78.928 18.5437 79.4784 19.0826 79.6767 19.2835C79.7096 19.3244 79.7096 19.3884 79.6767 19.4204ZM85.3655 7.72724C85.1663 7.92463 84.6159 8.4759 84.423 8.66885C84.3847 8.70708 84.3305 8.70708 84.294 8.66885C84.094 8.4759 83.5445 7.92463 83.3418 7.72724C83.3133 7.68811 83.3133 7.63388 83.3418 7.59742C83.5312 7.40359 84.1011 6.84342 84.294 6.64959C84.3305 6.61669 84.3847 6.61669 84.423 6.6567C84.6159 6.85053 85.1663 7.38936 85.3655 7.58942C85.3975 7.63032 85.3975 7.69434 85.3655 7.72724ZM91.8509 14.6573L91.8527 14.6101C91.7549 13.7574 91.5175 12.9172 91.3272 12.9048C90.5314 12.8585 89.4298 18.5704 88.802 21.7456C88.7362 22.0719 88.7007 22.392 88.5113 22.7281C88.3583 23.0002 88.2819 23.1077 88.1832 23.2171C88.0694 23.3425 87.8915 23.4661 87.9369 23.226C89.3907 15.534 90.3189 11.4056 91.1645 9.74383C91.2552 9.56511 91.3521 9.45752 91.4544 9.4104C91.2917 9.04673 91.1201 8.68574 90.9244 8.33186C86.3773 0.100111 74.2929 -1.94227 67.5398 1.78861C64.6101 3.41308 64.8715 11.1122 68.7944 18.9323C68.4227 16.745 68.9295 14.7986 70.0179 12.5455C71.4885 9.50109 76.1717 5.09624 79.698 6.45486C82.7069 7.61076 81.5484 12.3464 81.5484 12.3464C81.5484 12.3464 83.6379 9.55266 85.3077 9.46641C86.187 9.42107 87.6915 10.0675 85.8803 13.0203C83.7588 16.4809 80.2209 18.0307 78.9769 17.3069C77.8886 16.6739 77.8673 15.4379 77.797 15.1072C77.7259 14.7791 77.549 13.6748 76.5336 13.5938C75.5199 13.5138 73.6874 14.924 73.9186 15.5509C74.1177 16.0968 75.4577 15.6629 76.0774 16.0506C76.7007 16.4409 76.9363 17.0215 76.7114 18.0458C76.049 21.1018 73.5069 22.9335 71.7304 22.5022C71.3107 22.4009 70.9017 22.2373 70.5327 22.0176C71.0804 22.8917 71.6503 23.7221 72.2354 24.5002L72.76 23.5994C72.776 23.571 72.808 23.5541 72.8409 23.5559C73.8777 23.5959 75.1162 23.1878 75.6924 22.7192C75.2398 24.2041 74.6352 25.1608 72.5884 24.9625C72.6097 24.9901 72.6311 25.0185 72.6524 25.0452C73.0374 25.2373 73.4838 25.4338 74.011 25.6347C77.0546 26.7942 79.7736 25.2559 80.2502 24.9412C80.6299 24.6913 82.1699 23.7835 82.8207 22.552C82.57 22.5903 82.3112 22.6054 82.0445 22.5912C81.8498 22.5814 81.6613 22.5618 81.6017 22.5609C81.2967 22.5494 79.6963 22.2968 80.7348 19.8837C80.9224 19.4525 81.6204 17.7809 82.6224 18.1516C82.9185 18.261 83.6654 18.5402 83.9099 19.7094C83.9508 19.905 83.9802 20.1006 84.0042 20.2954C84.9511 19.7076 85.6909 18.7731 85.8741 17.7391C86.0492 16.7477 85.8216 16.2417 85.5451 16.1955C85.1672 16.1306 84.4888 18.0085 84.3821 17.9533C84.278 17.8973 84.3856 17.6395 84.4683 17.3567C85.1174 15.1543 86.0759 14.3185 86.3987 14.3167C86.7223 14.3132 87.1509 15.3295 87.1553 16.681C87.1607 18.8052 85.907 21.261 83.9499 22.2017C83.7775 23.1922 83.3942 24.0574 82.9221 24.654C81.6026 26.322 78.7849 28.0461 75.1847 27.2325C74.8726 27.1632 74.5863 27.0805 74.308 26.9933C74.6263 27.3365 74.9438 27.6655 75.2638 27.9785C75.3874 28.0061 75.6168 28.0559 76.0587 28.1306C77.5836 28.3875 80.8433 28.4578 84.182 27.2458C88.0365 25.8437 89.2448 23.7248 90.1153 22.2648C91.9567 19.1608 92.0074 15.6727 91.8509 14.6573ZM77.7535 11.8547C78.5475 12.2663 78.4248 13.392 78.704 14.3799C78.9814 15.365 79.7967 15.4486 79.7967 15.4486C79.7967 15.4486 81.4621 12.2343 80.0421 9.63268C78.6168 7.03103 76.2801 7.9353 75.6826 8.22071C74.8886 8.59682 71.8495 10.5556 70.3228 14.6733C68.8148 18.7482 70.9906 20.1442 72.335 20.3772C73.6758 20.611 75.7404 19.2497 75.8098 18.5544C75.8453 18.1881 75.5733 17.9569 75.1714 17.8653C74.7668 17.7737 73.6758 18.0067 72.985 17.1833C72.1296 16.1626 73.602 13.9113 74.4174 13.1155C75.2701 12.285 76.5238 11.2154 77.7535 11.8547Z" fill="white"/>
<path d="M65.0884 17.8146C65.1124 17.7915 65.1124 17.7435 65.0884 17.7124C64.9364 17.5612 64.5318 17.1584 64.3789 17.0064C64.3531 16.9824 64.3157 16.9824 64.2837 17.002C64.1388 17.1584 63.7182 17.5675 63.5715 17.7177C63.5529 17.7471 63.5529 17.7871 63.5751 17.8102C63.7227 17.9622 64.1344 18.3775 64.2837 18.5224C64.3157 18.5455 64.3531 18.5455 64.3789 18.5224H64.3869C64.5318 18.3775 64.9364 17.9658 65.0884 17.8146Z" fill="white"/>
<path d="M14.526 13.384C14.526 13.3813 14.5856 13.3307 14.6185 13.3556C14.6425 13.3707 14.6318 13.4436 14.6318 13.4436C14.5492 14.034 14.2628 16.183 14.1135 18.9776C14.0939 19.4338 14.0708 19.8944 14.0592 20.3514L14.0539 20.5079L14.1455 20.3887C14.526 19.8828 15.2062 19.5974 16.0109 19.5929C16.5195 19.5929 17.7359 19.7619 18.0142 21.3117C18.1049 21.8576 17.9857 23.1229 16.8414 24.0396C16.4875 24.3179 15.5281 24.7758 14.4558 24.7891C13.5329 24.8078 12.5948 24.7465 11.9973 24.2521C11.6585 23.9693 11.3776 23.5914 11.3064 22.5271C11.3011 22.4409 11.2949 22.3324 11.2949 22.2275C11.2949 22.1003 11.2949 22.0434 11.3064 21.9412C11.3127 21.8781 11.3198 21.8549 11.35 21.8576C11.3642 21.8629 11.3838 21.9065 11.3989 21.9465C11.4167 21.999 11.4407 22.063 11.4807 22.1208C11.9902 23.1229 13.7454 23.2722 14.3384 23.2625C15.5717 23.2402 16.0803 22.8721 16.4528 22.328C16.6671 22.0185 16.7489 21.6415 16.6813 21.3063C16.5853 20.8111 16.2225 20.5666 15.6046 20.5666C14.719 20.5666 14.0468 21.2725 14.0468 22.2035L14.0423 22.328L14.0379 22.6063C14.0379 22.6783 14.029 22.697 14.0077 22.7014C13.9783 22.7059 13.9454 22.6916 13.9001 22.673L12.7931 22.0274C12.762 22.015 12.6935 21.9652 12.6624 21.9234C12.6286 21.8781 12.6286 21.8318 12.6286 21.7634C12.6375 20.7835 12.6517 19.6703 12.6846 18.9643C12.7584 17.5621 12.8722 16.183 13.0305 14.8502C13.0447 14.7586 13.0669 14.6697 13.0883 14.619C13.1114 14.5799 13.1843 14.5026 13.2323 14.4634C13.2323 14.4688 14.526 13.384 14.526 13.384Z" fill="white"/>
<path d="M62.8593 20.2278C63.1029 20.0251 63.8738 19.3689 64.1797 19.1288C64.2188 19.0897 64.2419 19.0683 64.2544 19.0781C64.2757 19.0897 64.266 19.1412 64.2615 19.191C64.2117 20.202 64.1868 21.2147 64.1868 22.1981V23.2118C64.2117 23.6608 64.2846 23.9222 64.4189 24.028C64.57 24.1552 64.8599 24.2814 65.4165 24.1961L65.4859 24.1898C65.5099 24.1845 65.557 24.1783 65.5659 24.1961C65.5739 24.2254 65.4939 24.2663 65.4521 24.2841L65.4476 24.2948C65.0102 24.5126 64.6314 24.6282 64.2846 24.6486L64.1006 24.6549C63.7769 24.638 63.4613 24.4966 63.2185 24.2752L63.1394 24.1961C63.1029 24.1623 63.0647 24.1214 63.0354 24.0689C62.8655 23.8288 62.7793 23.6323 62.7704 23.2687C62.7588 22.9112 62.7731 21.004 62.79 20.4305C62.79 20.3878 62.79 20.3274 62.8006 20.2945C62.822 20.2625 62.822 20.2625 62.8593 20.2278Z" fill="white"/>
<path d="M51.3439 23.2296C51.0052 23.4856 50.5819 23.5977 50.1836 23.5345C49.6795 23.467 49.3887 23.2536 49.3985 22.9584C49.41 22.6427 49.6457 22.4684 50.0947 22.4444C50.4246 22.4204 50.8407 22.6623 51.3439 23.1504L51.3884 23.1913L51.3439 23.2296ZM62.1693 21.3126C61.891 19.761 60.6765 19.5929 60.1616 19.5929C59.357 19.5965 58.6794 19.8828 58.3042 20.3887L58.2091 20.507L58.2153 20.3514C58.2313 19.8935 58.2402 19.4347 58.2704 18.9776C58.4162 16.183 58.7052 14.0349 58.787 13.4445C58.787 13.4445 58.7968 13.3707 58.7675 13.3547C58.7354 13.3307 58.6794 13.3813 58.6794 13.384C58.6794 13.384 57.3848 14.4688 57.3893 14.4634C57.3502 14.5026 57.263 14.5808 57.2488 14.6199C57.2186 14.6688 57.1972 14.7586 57.1848 14.8511C57.0301 16.183 56.9136 17.5612 56.8469 18.9643C56.8051 19.6703 56.7873 20.7826 56.7758 21.7634C56.7758 21.8318 56.7873 21.8781 56.822 21.9234C56.8531 21.9652 56.9225 22.015 56.942 22.0283L58.0632 22.6721C58.0944 22.6907 58.1388 22.705 58.1611 22.7005C58.1833 22.6961 58.1931 22.6783 58.1931 22.6063V22.3289L58.2002 22.2035C58.2002 21.2725 58.8804 20.5666 59.7615 20.5666C60.3741 20.5666 60.7458 20.8102 60.8401 21.3063C60.9041 21.6415 60.8214 22.0185 60.6133 22.3289C60.231 22.8721 59.726 23.2402 58.4936 23.2616C57.9076 23.2722 56.1445 23.122 55.6368 22.1199C55.6012 22.063 55.5816 22.0337 55.5665 21.9759C55.5478 21.9421 55.5194 21.8683 55.4981 21.8638C55.4714 21.8585 55.4652 21.8967 55.4625 21.959C55.4554 21.991 55.4367 22.063 55.4367 22.0861C55.3922 22.3858 55.2482 22.7743 55.0232 22.9584C54.7858 23.1566 54.2586 23.1807 53.8451 23.122C53.6584 23.0926 53.2912 23.0268 52.9435 22.9104L52.8839 22.8899L52.9071 22.8428C53.2618 21.9696 53.2796 20.948 52.9435 20.4118C52.619 19.8695 52.0321 19.5147 51.3884 19.4373C50.7544 19.3689 49.8315 19.4658 49.33 19.8606C49.0722 20.0517 48.9806 20.5541 48.9504 20.8795C48.9415 20.948 48.9388 21.012 48.9619 21.0165C48.9806 21.0298 49.0206 20.9933 49.0722 20.948C49.3007 20.7639 49.6883 20.5123 50.1142 20.4305C50.6184 20.338 51.0639 20.4456 51.287 20.5666C51.8543 20.8715 51.945 21.4086 51.9637 21.5677C51.985 21.7322 51.9761 21.9021 51.9397 22.0861L51.9254 22.1777L51.8579 22.1137C51.1314 21.429 50.6664 21.2299 50.0182 21.3312C49.707 21.3837 49.3496 21.5588 49.0722 21.8923C48.9094 22.0434 48.4933 22.6329 48.1021 22.7841C47.3277 23.0989 43.9747 22.953 43.491 22.6543C43.2029 22.4791 43.2429 22.039 43.2607 21.8834V21.8638C43.2651 21.7589 43.3256 20.8333 43.346 20.338C43.3647 19.9699 43.3007 19.7148 43.1602 19.5734C43.0064 19.424 42.7583 19.3742 42.5903 19.3742C42.4276 19.3795 42.1653 19.4373 41.8283 19.7281C40.836 20.5852 40.3994 21.2236 40.2127 21.5242C40.186 21.5588 40.1522 21.622 40.1255 21.6309C40.0704 21.6495 40.0704 21.5677 40.0775 21.5331C40.0811 20.8226 40.1611 18.8798 40.1611 18.7856C40.3087 15.9839 40.5932 13.8348 40.6804 13.2489L40.6848 13.2293C40.6919 13.1857 40.6955 13.1333 40.6804 13.1333C40.6466 13.1137 40.6084 13.1475 40.6039 13.1528C40.6039 13.1528 39.2773 14.2723 39.2773 14.2669C39.2346 14.3034 39.1599 14.387 39.1377 14.4225C39.1119 14.4688 39.0861 14.5604 39.0781 14.6582L39.0728 14.6964C38.9563 15.7154 38.7945 17.1078 38.734 18.7678C38.638 21.4201 38.6496 22.7156 38.6825 24.0751C38.6922 24.4246 38.8692 24.5286 38.9768 24.5508C39.0105 24.5615 39.3306 24.6451 39.4631 24.3908C40.2251 22.9335 40.8031 22.1306 41.8514 21.0743C41.8932 21.0298 41.9536 20.9827 42.0292 20.996C42.103 21.0165 42.0986 21.0876 42.095 21.1712L42.0603 21.614C42.0461 21.8051 42.039 21.9794 42.0239 22.4062C42.0079 22.8277 42.0461 23.8395 42.729 24.2227C43.4376 24.6157 46.948 24.5464 46.948 24.5464C48.0808 24.5615 48.2684 24.3383 48.4889 24.0751C48.5902 23.956 48.6667 23.8128 48.7281 23.6608C48.9575 24.2334 49.5239 24.4841 49.5541 24.4975C49.5541 24.4975 49.8635 24.6255 50.3659 24.6451C50.7544 24.6549 51.1794 24.5464 51.5965 24.3294C51.7165 24.2663 51.8917 24.1445 52.0704 23.9836L52.1095 23.956L52.1397 23.9836C52.2882 24.1045 52.4696 24.2254 52.6839 24.3454C53.2236 24.6451 54.231 24.6042 54.231 24.6042C55.218 24.574 55.5665 24.1312 55.6448 23.8529C55.659 23.7924 55.6741 23.7204 55.6883 23.6457C55.8093 23.9258 55.9622 24.1045 56.1445 24.2521C56.7482 24.7464 57.6889 24.8078 58.6083 24.7891C59.6842 24.7758 60.6427 24.3179 60.9957 24.0396C62.1444 23.122 62.2645 21.8585 62.1693 21.3126Z" fill="white"/>
<path d="M36.9611 16.2408C36.4249 15.4193 35.6682 14.8369 34.5906 14.411C34.066 14.2047 33.4418 14.1007 32.6282 14.0855C32.6282 14.0855 31.6928 14.0651 31.1789 14.0242C30.8695 13.9904 30.657 13.8926 30.5049 13.7868C30.424 13.7246 30.4045 13.6748 30.3467 13.6748C30.2889 13.6854 30.2889 13.8295 30.2791 13.9611C30.2053 14.8849 29.959 17.9702 29.919 18.7269C29.887 19.4293 29.8719 20.547 29.8656 21.534C29.8656 21.6033 29.8674 21.6451 29.9003 21.6958C29.9279 21.7322 29.9981 21.7847 30.0212 21.8007L31.1416 22.4444C31.1789 22.4631 31.2118 22.4791 31.2385 22.4684C31.2607 22.4578 31.2696 22.4258 31.2696 22.3466V22.1057L31.2821 21.9803L31.2963 20.3194L31.307 20.0864C31.3185 19.6703 31.331 19.1475 31.355 18.7358C31.3825 18.0432 31.4439 17.3389 31.4955 16.6534H31.5008C31.5088 16.4791 31.539 16.1919 31.6599 16.0034C31.8324 15.734 32.0432 15.6753 32.2352 15.6256C32.4504 15.5838 33.0355 15.5162 33.9006 15.8505C34.5604 16.1066 35.1516 16.5485 35.486 17.0162C35.7376 17.3798 35.9448 17.8591 36.0221 18.2557C36.1297 18.8309 36.1679 20.0962 35.6149 21.1774C35.1427 22.0799 34.3719 22.673 33.296 22.9441C32.9617 23.0268 32.4637 23.0846 31.8582 23.0989C31.2607 23.1024 28.9516 22.8117 28.4492 21.614C28.3994 21.4948 28.3923 21.437 28.331 21.437C28.2696 21.437 28.2581 21.5064 28.2358 21.6158C28.1834 21.927 28.0847 22.2524 27.9931 22.4107C27.8704 22.6232 27.6988 23.1149 25.9418 23.0846C24.7059 23.0588 24.1973 23.0508 23.7278 22.7681C23.5233 22.6374 23.4887 22.3769 23.4887 22.1884C23.4887 22.111 23.6149 19.8081 23.6354 19.5343C23.6443 19.4471 23.6549 19.3795 23.6105 19.3573C23.566 19.3431 23.5233 19.3831 23.4629 19.4373C23.2353 19.6321 22.8414 19.9557 22.6004 20.1691C22.4919 20.2527 22.4537 20.2803 22.4244 20.3434C22.3959 20.4074 22.3799 20.4643 22.3763 20.5577C22.3354 21.3019 22.2625 22.8526 22.2625 22.8526L22.2465 22.8641C22.0136 23.0215 21.5112 23.1086 21.2898 23.1229C21.0586 23.1335 20.2068 23.1406 19.6662 22.7877C19.4857 22.673 19.3746 22.528 19.3346 22.3386C19.2865 22.1003 19.3203 21.8781 19.4359 21.6709C19.6013 21.4077 20.3633 20.3105 20.3633 20.3105C20.4353 20.1896 20.4407 20.1513 20.4247 20.0962C20.4104 20.0242 20.3509 19.9806 20.3064 19.9379C20.2113 19.8543 20.0317 19.7521 19.828 19.6161C19.828 19.6161 19.684 19.5236 19.6493 19.5014C19.588 19.4578 19.5186 19.4613 19.4662 19.52C19.2394 19.7334 18.4436 20.9587 18.5103 22.3004C18.5503 23.0846 18.8366 23.6457 19.203 23.9791C19.5675 24.3161 20.2068 24.6824 21.2533 24.6442C21.7593 24.6211 22.2163 24.4255 22.6004 24.0814L22.6413 24.0476L22.6751 24.0814C22.7622 24.1898 22.8618 24.2672 22.9703 24.3285C23.6745 24.7207 25.2714 24.7251 26.1117 24.7207C27.9273 24.7038 28.4866 24.1552 28.6475 23.6635C28.7533 23.8537 28.8751 23.9942 29.0094 24.1205C29.6932 24.7349 31.1069 24.8434 31.8849 24.846C33.0613 24.8567 34.1611 24.7082 34.8315 24.4415C35.4522 24.197 36.1866 23.8288 36.8695 22.953C37.5568 22.0728 37.9205 20.828 37.9116 19.4471C37.9018 18.1161 37.659 17.3078 36.9611 16.2408Z" fill="white"/>
<path d="M8.57674 22.3813H8.58918C8.52961 22.3573 7.85741 21.999 7.51865 21.622C7.27324 21.3348 7.07941 21.0698 7.51243 20.6679C7.64669 20.5577 7.85741 20.4456 8.15617 20.3336C8.30377 21.0636 8.57674 22.3813 8.57674 22.3813ZM11.6167 21.461C11.8141 21.1818 12.0995 20.6395 11.711 19.8126C11.3304 18.9856 10.5266 18.5562 9.33963 18.6638C9.07199 17.5105 8.23441 14.0651 8.22374 13.9984C8.20685 13.9317 8.14461 13.777 8.0468 13.7245C7.94366 13.665 7.79873 13.657 7.71604 13.657C7.58711 13.657 7.21545 13.6748 7.01984 13.8464C6.81177 14.0126 6.72375 14.1887 6.60371 14.4768C6.39476 14.9676 6.0391 15.7509 5.5803 16.737C5.27177 17.3896 4.92055 18.1383 4.52577 18.983C4.03407 20.0251 2.77059 22.4587 2.64255 22.697C2.55364 22.8615 2.4336 22.9913 2.24955 23.1033C2.07705 23.2109 1.62448 23.25 1.38263 23.1291C1.00474 22.953 0.856251 22.7459 0.767336 22.4587C0.713098 22.2897 0.726435 22.0568 0.734438 22.0274C0.758445 21.5917 1.09276 21.2859 1.11766 21.2583C1.147 21.2352 1.16656 21.2147 1.16656 21.1907C1.16034 21.1658 1.13011 21.1658 1.09276 21.1774C0.597508 21.3223 0.0657972 21.8265 0.0071132 22.4684C0.0071132 22.5129 0 22.5565 0 22.5992C0 23.2296 0.405452 23.9035 1.0083 24.2352C1.34884 24.4255 2.66478 24.9581 3.44012 24.1489C3.7042 23.8751 3.98873 23.3994 4.37373 22.6232C4.76229 21.8576 5.67811 19.9806 5.82482 19.6561C5.98309 19.3369 6.8589 17.5141 7.30614 16.6241L7.37372 16.5023L7.87875 19.0034C6.80111 19.4133 6.32897 20.0251 6.13069 20.8947C5.89595 21.8345 6.77888 23.1744 8.99108 24.2121C9.1858 24.3161 10.1648 24.6575 10.3364 24.6833C10.6725 24.7242 10.7125 24.5695 10.7249 24.4895C10.7552 24.3783 10.6796 24.092 10.628 23.8795C10.5595 23.5977 9.92113 21.1036 9.68106 20.0437C10.323 20.0046 10.8458 20.1246 11.1562 20.5265C11.4202 20.8618 11.4771 21.2059 11.4807 21.4193C11.4807 21.5455 11.4771 21.558 11.4958 21.5642C11.5189 21.5731 11.5474 21.5508 11.6167 21.461Z" fill="white"/>
<path d="M20.3411 18.3197C20.4896 18.1685 20.7394 17.8884 20.8612 17.7471C20.895 17.7133 20.9084 17.6884 20.9368 17.6884C20.9733 17.6884 20.9857 17.7079 21.0231 17.7364C21.1991 17.8787 21.4952 18.1205 21.5974 18.2165C21.6775 18.2939 21.9015 18.5366 21.9229 18.9527C21.9353 19.0461 21.9229 19.1484 21.9015 19.2497C21.8411 19.5876 21.6961 19.8944 21.601 20.0517C21.5859 20.0811 21.5583 20.1362 21.5281 20.1246C21.4952 20.1149 21.5014 20.0571 21.5041 20.0091C21.5041 19.9655 21.5041 19.9468 21.5014 19.8944C21.4827 19.6739 21.4267 19.3982 21.2142 19.1777C21.0142 18.9776 20.5838 18.6638 20.3562 18.4993C20.3135 18.4699 20.3028 18.4593 20.2931 18.4166C20.2886 18.3864 20.3028 18.3766 20.3411 18.3197Z" fill="white"/>
<path d="M46.4429 21.1285C46.4678 21.1036 46.4678 21.0556 46.4429 21.0254C46.2936 20.8742 45.881 20.4696 45.7361 20.3247C45.7076 20.2945 45.6676 20.2945 45.6392 20.3194C45.4951 20.4643 45.0683 20.8849 44.9252 21.0298C44.9047 21.0583 44.9047 21.0983 44.9252 21.1285C45.0772 21.277 45.4898 21.6896 45.6392 21.8345C45.6676 21.8638 45.7076 21.8638 45.7361 21.8345C45.881 21.6896 46.2936 21.277 46.4429 21.1285Z" fill="white"/>
<path d="M35.574 28.2319C35.6949 28.2319 35.7954 28.1332 35.7954 28.0159C35.7954 27.8994 35.6949 27.8033 35.574 27.8033C35.4575 27.8033 35.3579 27.8994 35.3579 28.0159C35.3579 28.1332 35.4575 28.2319 35.574 28.2319Z" fill="white"/>
<path d="M36.1359 28.2319C36.2524 28.2319 36.3529 28.1332 36.3529 28.0159C36.3529 27.8994 36.2524 27.8033 36.1359 27.8033C36.0195 27.8033 35.9243 27.8994 35.9243 28.0159C35.9243 28.1332 36.0195 28.2319 36.1359 28.2319Z" fill="white"/>
<path d="M38.4913 28.5236C37.9916 28.5236 37.6839 28.7859 37.6839 29.1904C37.6839 29.4145 37.7302 29.5763 37.8164 29.6768C37.9205 29.7977 38.1036 29.8555 38.3704 29.8555H38.9323C38.9323 29.9844 38.887 30.0689 38.7989 30.1054C38.7536 30.1222 38.654 30.1302 38.5082 30.1302H37.1104V30.1391H36.9611C36.6899 30.1391 36.5529 29.9969 36.5529 29.7141V28.6036H35.7074C35.1783 28.6036 34.9125 28.9112 34.9125 29.5274C34.9125 30.1631 35.1783 30.4797 35.7074 30.4797C36.0195 30.4797 36.224 30.3845 36.3191 30.188C36.4062 30.3845 36.6152 30.4797 36.9397 30.4797H38.558C38.8069 30.4797 38.9919 30.4388 39.1075 30.3508C39.2533 30.2476 39.3289 30.0725 39.3289 29.8262V29.1904C39.3289 29.0064 39.2613 28.8561 39.1333 28.7361C38.9865 28.5938 38.7705 28.5236 38.4913 28.5236ZM36.1564 29.5274C36.1564 29.731 36.1279 29.8804 36.0737 29.972C36.0114 30.0849 35.8941 30.1391 35.7323 30.1391C35.5695 30.1391 35.4531 30.0849 35.3908 29.972C35.3366 29.8804 35.3072 29.731 35.3072 29.5274C35.3072 29.3229 35.3366 29.1726 35.3908 29.0855C35.4531 28.977 35.5695 28.9237 35.7323 28.9237H36.1564V29.5274ZM38.9323 29.523H38.4504C38.2832 29.523 38.1792 29.5061 38.1383 29.4723C38.0956 29.4349 38.0752 29.3487 38.0752 29.202C38.0752 28.9815 38.2121 28.873 38.4913 28.873C38.7874 28.873 38.9323 28.9815 38.9323 29.202V29.523Z" fill="white"/>
<path d="M38.4913 28.2319C38.6087 28.2319 38.7074 28.1332 38.7074 28.0159C38.7074 27.8994 38.6087 27.8033 38.4913 27.8033C38.3748 27.8033 38.2743 27.8994 38.2743 28.0159C38.2743 28.1332 38.3748 28.2319 38.4913 28.2319Z" fill="white"/>
<path d="M42.3493 28.2319C42.4658 28.2319 42.5663 28.1332 42.5663 28.0159C42.5663 27.8994 42.4658 27.8033 42.3493 27.8033C42.2328 27.8033 42.1332 27.8994 42.1332 28.0159C42.1332 28.1332 42.2328 28.2319 42.3493 28.2319Z" fill="white"/>
<path d="M41.7874 28.2319C41.9083 28.2319 42.0079 28.1332 42.0079 28.0159C42.0079 27.8994 41.9083 27.8033 41.7874 27.8033C41.6709 27.8033 41.5704 27.8994 41.5704 28.0159C41.5704 28.1332 41.6709 28.2319 41.7874 28.2319Z" fill="white"/>
<path d="M44.2814 27.7447C44.3979 27.7447 44.4975 27.654 44.4975 27.533C44.4975 27.4166 44.3979 27.317 44.2814 27.317C44.1685 27.317 44.0689 27.4166 44.0689 27.533C44.0689 27.654 44.1685 27.7447 44.2814 27.7447Z" fill="white"/>
<path d="M44.0022 28.2319C44.1187 28.2319 44.2139 28.1332 44.2139 28.0159C44.2139 27.8994 44.1187 27.8033 44.0022 27.8033C43.8813 27.8033 43.7862 27.8994 43.7862 28.0159C43.7862 28.1332 43.8813 28.2319 44.0022 28.2319Z" fill="white"/>
<path d="M44.3437 28.0159C44.3437 28.1323 44.4433 28.2319 44.5606 28.2319C44.6762 28.2319 44.7767 28.1323 44.7767 28.0159C44.7767 27.8985 44.6762 27.8042 44.5606 27.8042C44.4433 27.8042 44.3437 27.8985 44.3437 28.0159Z" fill="white"/>
<path d="M45.8072 29.7061C45.8072 29.9898 45.6694 30.1311 45.3991 30.1311H45.0168V30.1391H44.8932C44.6184 30.1391 44.4815 30.0013 44.4815 29.7266V28.6027L44.0894 28.7192V29.7141C44.0894 29.9978 43.9524 30.1391 43.6732 30.1391H42.6365C42.8063 29.9515 42.8944 29.7515 42.9032 29.5479C42.9068 29.2856 42.849 29.0695 42.7325 28.9014C42.5912 28.7023 42.3733 28.6027 42.0826 28.6027C41.7954 28.6027 41.5793 28.7023 41.4335 28.9014C41.317 29.0695 41.2628 29.2856 41.2717 29.5479C41.2752 29.7515 41.3579 29.9515 41.5295 30.1391H41.0218V30.1311H40.2811C40.1433 30.1311 40.0775 30.0636 40.0775 29.9302V27.7953L39.6819 27.9207V29.9426C39.6819 30.2645 39.8775 30.4797 40.2314 30.4797H41.8372C41.9243 30.4797 42.0034 30.4717 42.0826 30.4548C42.1661 30.4717 42.2497 30.4797 42.328 30.4797H43.6981C43.9524 30.4797 44.1481 30.4059 44.2894 30.2601C44.4308 30.4059 44.6229 30.4797 44.8674 30.4797H45.4195C45.6569 30.4797 45.8481 30.4094 45.9904 30.2725C46.1317 30.1311 46.2029 29.956 46.2029 29.7426V27.8033L45.8072 27.9207V29.7061ZM42.4124 29.8644C42.3324 30.0013 42.2239 30.0973 42.0826 30.1427C41.9447 30.0973 41.8372 30.0013 41.7536 29.8644C41.6833 29.7426 41.6495 29.6101 41.6495 29.4643C41.6495 29.1806 41.8123 28.9521 42.0826 28.9521C42.3653 28.9521 42.5191 29.1806 42.5191 29.4643C42.5191 29.6101 42.4827 29.7426 42.4124 29.8644Z" fill="white"/>
<path d="M46.5603 27.9198V30.4806H46.956V27.7953L46.5603 27.9198Z" fill="white"/>
<path d="M48.2995 28.6738C48.0123 28.6738 47.7962 28.7725 47.6593 28.969C47.5464 29.1317 47.4886 29.3434 47.4886 29.6057C47.4886 29.8679 47.5464 30.076 47.6593 30.2378C47.7962 30.4388 48.0123 30.5384 48.2995 30.5384C48.4453 30.5384 48.5742 30.5046 48.6952 30.4388C48.6623 30.7509 48.496 30.9171 48.1955 30.934C47.9918 30.9465 47.7713 30.9003 47.5339 30.7882L47.7082 31.1714C47.8256 31.2417 47.9874 31.2799 48.1955 31.2799C48.4907 31.2799 48.7156 31.1839 48.8703 30.9972C49.0161 30.8291 49.0873 30.6051 49.0908 30.3179C49.0908 30.2761 49.0953 30.188 49.1033 30.0556C49.1077 29.9346 49.1077 29.8315 49.1077 29.7515C49.1077 29.4314 49.0615 29.1851 48.9699 29.0144C48.841 28.785 48.6169 28.6738 48.2995 28.6738ZM48.2995 30.1925C48.0212 30.1925 47.8798 29.9978 47.8798 29.6057C47.8798 29.21 48.0212 29.0144 48.2995 29.0144C48.5787 29.0144 48.7156 29.21 48.7156 29.6057C48.7156 29.9978 48.5787 30.1925 48.2995 30.1925Z" fill="white"/>
<path d="M51.3342 28.2319C51.4506 28.2319 51.5511 28.1332 51.5511 28.0159C51.5511 27.8994 51.4506 27.8033 51.3342 27.8033C51.2186 27.8033 51.1225 27.8994 51.1225 28.0159C51.1225 28.1332 51.2186 28.2319 51.3342 28.2319Z" fill="white"/>
<path d="M50.7731 28.2319C50.894 28.2319 50.9927 28.1332 50.9927 28.0159C50.9927 27.8994 50.894 27.8033 50.7731 27.8033C50.6557 27.8033 50.5562 27.8994 50.5562 28.0159C50.5562 28.1332 50.6557 28.2319 50.7731 28.2319Z" fill="white"/>
<path d="M53.5837 28.6027C53.2467 28.6027 52.9426 28.7396 52.6634 29.0108L52.9462 29.2731C53.1427 29.0606 53.3543 28.9521 53.5837 28.9521C53.854 28.9521 54.0372 29.0686 54.1297 29.3016C54.1866 29.4438 54.2159 29.6732 54.2159 29.9898V30.1391H52.1593C51.8881 30.1391 51.7512 29.9978 51.7512 29.7141V28.6027H50.9065C50.3774 28.6027 50.1107 28.9103 50.1107 29.5274C50.1107 30.164 50.3774 30.4797 50.9065 30.4797C51.2186 30.4797 51.4222 30.3845 51.5173 30.1889C51.6054 30.3845 51.8143 30.4797 52.138 30.4797H54.6205V29.9898C54.6205 29.5852 54.5662 29.2731 54.4577 29.0606C54.295 28.7565 54.0043 28.6027 53.5837 28.6027ZM51.3546 29.5274C51.3546 29.731 51.3262 29.8804 51.2728 29.9729C51.2097 30.084 51.0932 30.1391 50.9314 30.1391C50.7678 30.1391 50.6522 30.084 50.5891 29.9729C50.5357 29.8804 50.5064 29.731 50.5064 29.5274C50.5064 29.3229 50.5357 29.1726 50.5891 29.0864C50.6522 28.9779 50.7678 28.9228 50.9314 28.9228H51.3546V29.5274Z" fill="white"/>
<path d="M57.1981 30.8505C57.0825 30.8505 56.9865 30.9465 56.9865 31.063C56.9865 31.1786 57.0825 31.279 57.1981 31.279C57.3146 31.279 57.4151 31.1786 57.4151 31.063C57.4151 30.9465 57.3146 30.8505 57.1981 30.8505Z" fill="white"/>
<path d="M56.6406 30.8505C56.5197 30.8505 56.429 30.9465 56.429 31.063C56.429 31.1786 56.5197 31.279 56.6406 31.279C56.7571 31.279 56.8567 31.1786 56.8567 31.063C56.8567 30.9465 56.7571 30.8505 56.6406 30.8505Z" fill="white"/>
<path d="M63.9894 27.9198V29.7052C63.9894 29.9889 63.8525 30.1302 63.5813 30.1302H63.1901C62.9198 30.1302 62.7828 29.9969 62.7828 29.7266V27.7953L62.3881 27.9198V29.7052C62.3881 29.9889 62.2494 30.1302 61.9746 30.1302H61.2144V28.6027L60.8187 28.7201V30.1302H59.9856V28.7859L59.5899 28.9023V30.1302H58.7666V28.9646L58.3709 29.0775V30.1302H57.7636V30.1383H57.5235C57.2488 30.1383 57.111 30.0004 57.111 29.7266V28.6027L56.7197 28.7201V29.7141C56.7197 29.9969 56.5828 30.1383 56.3036 30.1383H56.1329V30.1302H55.5772C55.4403 30.1302 55.3736 30.0636 55.3736 29.9311V27.7953L54.9779 27.9198V29.9435C54.9779 30.2636 55.1735 30.4806 55.5265 30.4806H56.3285C56.5828 30.4806 56.7784 30.405 56.9198 30.2592C57.0612 30.405 57.2523 30.4806 57.4986 30.4806H62.0004C62.2538 30.4806 62.4503 30.405 62.5872 30.2556C62.7331 30.405 62.9242 30.4806 63.1661 30.4806H63.6026C63.8392 30.4806 64.0312 30.4094 64.1735 30.2716C64.3149 30.1302 64.3851 29.9551 64.3851 29.7435V27.8033L63.9894 27.9198Z" fill="white"/>
<path d="M0.122703 27.9554H0.927383V30.477H1.37018V27.9554H2.17308V27.557H0.122703V27.9554Z" fill="white"/>
<path d="M3.05156 28.3742C2.76792 28.3742 2.56697 28.48 2.43182 28.6196C2.23532 28.825 2.18642 29.0873 2.18642 29.4358C2.18642 29.7879 2.23532 30.0511 2.43182 30.2556C2.56697 30.3943 2.76792 30.5019 3.05156 30.5019C3.33342 30.5019 3.5397 30.3943 3.67486 30.2556C3.87136 30.0511 3.92026 29.7879 3.92026 29.4358C3.92026 29.0873 3.87136 28.825 3.67486 28.6196C3.5397 28.48 3.33342 28.3742 3.05156 28.3742ZM3.35921 30.0058C3.28096 30.0831 3.17426 30.1294 3.05156 30.1294C2.92797 30.1294 2.82572 30.0831 2.74747 30.0058C2.62121 29.8786 2.60343 29.6608 2.60343 29.4358C2.60343 29.21 2.62121 28.993 2.74747 28.8659C2.82572 28.7876 2.92797 28.7467 3.05156 28.7467C3.17426 28.7467 3.28096 28.7876 3.35921 28.8659C3.48547 28.993 3.50236 29.21 3.50236 29.4358C3.50236 29.6608 3.48547 29.8786 3.35921 30.0058Z" fill="white"/>
<path d="M5.70034 29.6652C5.70034 29.9853 5.50295 30.1285 5.26999 30.1285C5.03614 30.1285 4.8512 29.9889 4.8512 29.6652V28.3982H4.4333V29.7266C4.4333 29.9604 4.4822 30.1569 4.64314 30.3134C4.76495 30.4317 4.94189 30.5019 5.1544 30.5019C5.36424 30.5019 5.56519 30.4237 5.70834 30.2681V30.477H6.11913V28.3982H5.70034V29.6652Z" fill="white"/>
<path d="M7.16032 28.624V28.3982H6.75042V30.477H7.16832V29.2144C7.16832 28.9272 7.35771 28.7476 7.58267 28.7476C7.72671 28.7476 7.80051 28.7921 7.89387 28.8863L8.20952 28.5698C8.06637 28.4266 7.91521 28.3733 7.71426 28.3733C7.48042 28.3733 7.26702 28.4764 7.16032 28.624Z" fill="white"/>
<path d="M8.51805 30.477H8.93595V28.3982H8.51805V30.477Z" fill="white"/>
<path d="M8.50561 27.9883H8.9484V27.5455H8.50561V27.9883Z" fill="white"/>
<path d="M10.4866 29.2553L10.1585 29.2269C9.93625 29.2055 9.87134 29.1113 9.87134 28.9886C9.87134 28.833 9.9976 28.7218 10.2483 28.7218C10.4457 28.7218 10.6307 28.7627 10.7614 28.8739L11.0237 28.6071C10.8307 28.4391 10.564 28.3742 10.2528 28.3742C9.81799 28.3742 9.46944 28.6027 9.46944 29.009C9.46944 29.3745 9.6944 29.5505 10.0838 29.5834L10.4164 29.6119C10.6182 29.6279 10.6956 29.7186 10.6956 29.8582C10.6956 30.0547 10.4946 30.1454 10.2403 30.1454C10.0358 30.1454 9.8091 30.1 9.64194 29.9275L9.36719 30.2023C9.61349 30.4441 9.89979 30.5019 10.2403 30.5019C10.7374 30.5019 11.1055 30.2761 11.1055 29.8422C11.1055 29.4723 10.8761 29.2882 10.4866 29.2553Z" fill="white"/>
<path d="M13.7872 28.3742C13.5124 28.3742 13.3035 28.472 13.1354 28.6774C13.0038 28.4764 12.8038 28.3742 12.545 28.3742C12.3361 28.3742 12.1307 28.456 11.992 28.6071V28.3982H11.5812V30.477H11.9991V29.21C11.9991 28.8908 12.1974 28.7467 12.4303 28.7467C12.6642 28.7467 12.8482 28.8863 12.8482 29.21V30.477H13.267V29.1895C13.267 28.8908 13.4715 28.7467 13.6974 28.7467C13.9303 28.7467 14.1161 28.8863 14.1161 29.21V30.477H14.5332V29.1486C14.5332 28.9148 14.4727 28.7183 14.3126 28.5627C14.189 28.4435 14.0006 28.3742 13.7872 28.3742Z" fill="white"/>
<path d="M18.3725 28.9966H17.9706C17.9662 29.2633 17.9217 29.4314 17.815 29.5834L17.1997 28.849L17.4131 28.7014C17.598 28.5742 17.7243 28.4142 17.7243 28.1848C17.7243 27.8113 17.446 27.533 17.0317 27.533C16.5969 27.533 16.3186 27.8078 16.3186 28.1812C16.3186 28.4515 16.4902 28.656 16.6218 28.8081C16.3346 28.9966 16.0438 29.2269 16.0438 29.6332C16.0438 30.1614 16.3799 30.5019 16.9872 30.5019C17.43 30.5019 17.6665 30.301 17.7937 30.1898L18.0328 30.477H18.5699L18.0809 29.8946C18.2791 29.6652 18.3601 29.37 18.3725 28.9966ZM17.0317 27.8985C17.2042 27.8985 17.3233 28.0256 17.3233 28.1892C17.3233 28.3244 17.2237 28.4142 17.1099 28.4924C17.1099 28.4924 17.0157 28.5573 16.9703 28.5867C16.8236 28.4142 16.7445 28.3039 16.7445 28.1848C16.7445 28.0212 16.8521 27.8985 17.0317 27.8985ZM16.9872 30.1205C16.684 30.1205 16.4582 29.916 16.4582 29.6252C16.4582 29.354 16.6378 29.2189 16.8521 29.0713L17.5447 29.8946C17.3518 30.068 17.1837 30.1205 16.9872 30.1205Z" fill="white"/>
<path d="M21.0017 27.9305C21.3254 27.9305 21.5219 28.1359 21.5921 28.432H22.0429C21.9407 27.8487 21.5397 27.5322 21.0017 27.5322C20.6985 27.5322 20.4353 27.6433 20.2353 27.8451C19.9481 28.1323 19.9525 28.456 19.9525 29.0179C19.9525 29.5799 19.9481 29.9035 20.2353 30.1898C20.4353 30.3908 20.6985 30.5019 21.0017 30.5019C21.5308 30.5019 21.9442 30.1863 22.0429 29.6039H21.5966C21.5272 29.8991 21.3254 30.1036 21.0017 30.1036C20.8292 30.1036 20.6736 30.0387 20.5705 29.9275C20.4273 29.7719 20.3944 29.6039 20.3944 29.0179C20.3944 28.432 20.4273 28.263 20.5705 28.1065C20.6736 27.9972 20.8292 27.9305 21.0017 27.9305Z" fill="white"/>
<path d="M23.7981 29.6652C23.7981 29.9853 23.6016 30.1285 23.3677 30.1285C23.1348 30.1285 22.9498 29.9889 22.9498 29.6652V28.3982H22.5319V29.7266C22.5319 29.9604 22.5808 30.1569 22.7409 30.3134C22.8636 30.4317 23.0396 30.5019 23.253 30.5019C23.462 30.5019 23.6638 30.4237 23.807 30.2681V30.477H24.2169V28.3982H23.7981V29.6652Z" fill="white"/>
<path d="M25.2545 29.8786V27.5579H24.8357V29.9026C24.8357 30.2112 25.0091 30.477 25.4066 30.477H25.6644V30.1214H25.4804C25.3123 30.1214 25.2545 30.0387 25.2545 29.8786Z" fill="white"/>
<path d="M26.5589 27.8042H26.1401V28.4355H25.9027V28.7547H26.1401V29.8991C26.1401 30.1987 26.3206 30.477 26.7101 30.477H26.9608V30.1205H26.7892C26.6327 30.1205 26.5589 30.0298 26.5589 29.8786V28.7547H26.9608V28.4355H26.5589V27.8042Z" fill="white"/>
<path d="M28.708 29.6652C28.708 29.9853 28.5106 30.1285 28.2776 30.1285C28.0438 30.1285 27.8588 29.9889 27.8588 29.6652V28.3982H27.4409V29.7266C27.4409 29.9604 27.4898 30.1569 27.6499 30.3134C27.7726 30.4317 27.9486 30.5019 28.162 30.5019C28.371 30.5019 28.5728 30.4237 28.716 30.2681V30.477H29.1268V28.3982H28.708V29.6652Z" fill="white"/>
<path d="M30.168 28.624V28.3982H29.7581V30.477H30.176V29.2144C30.176 28.9272 30.3645 28.7476 30.5903 28.7476C30.7343 28.7476 30.8073 28.7921 30.9015 28.8863L31.2172 28.5698C31.074 28.4266 30.9228 28.3733 30.7219 28.3733C30.4881 28.3733 30.2747 28.4764 30.168 28.624Z" fill="white"/>
<path d="M33.0417 29.3736C33.0417 28.7832 32.718 28.3742 32.1605 28.3742C31.6279 28.3742 31.2785 28.7627 31.2785 29.4358C31.2785 30.2272 31.6928 30.5019 32.2139 30.5019C32.5784 30.5019 32.7803 30.3908 32.9928 30.1774L32.726 29.9275C32.5784 30.0751 32.4566 30.1409 32.2219 30.1409C31.8813 30.1409 31.6928 29.9151 31.6928 29.5594H33.0417V29.3736ZM31.6928 29.2678C31.6973 29.1406 31.7053 29.0784 31.7471 28.985C31.812 28.8285 31.9631 28.7218 32.1605 28.7218C32.357 28.7218 32.5055 28.8285 32.5704 28.985C32.6122 29.0784 32.6247 29.1406 32.6282 29.2678H31.6928Z" fill="white"/>
</svg>
