<svg width="234" height="53" viewBox="0 0 234 53" fill="none" xmlns="http://www.w3.org/2000/svg">
<g clip-path="url(#clip0_154_210)">
<path d="M94.3656 25.6592H102.26V28.6209H94.3656V35.8584H104.584V23.5115H94.3656V25.6494V25.6592ZM102.26 33.7205H96.68V30.7588H102.26V33.7205ZM106.477 17.7842H108.792V35.8584H106.477V17.7842ZM110.684 23.5115H112.999V35.8584H110.684V23.5115ZM117.216 23.5115V17.7744H114.901V35.8584H125.12V23.5017H117.216V23.5115ZM122.796 33.7205H117.216V25.6494H122.796V33.7205ZM127.013 23.5115H134.623V25.6494H129.327V35.8584H127.013V23.5115ZM135.466 25.6592H143.361V28.6209H135.466V35.8584H145.685V23.5115H135.466V25.6494V25.6592ZM143.361 33.7205H137.781V30.7588H143.361V33.7205ZM153.472 23.5115H154.629V25.6494H151.079V33.7205H154.629V35.8584H148.755V25.6494H147.568V23.5115H148.755V17.7744H151.069V23.5115H153.472ZM165.691 30.7784V23.5115H155.473V24.5804V35.8584H165.691V33.7205H157.797V30.7784H165.691ZM157.797 25.6592H163.377V28.6503H157.797V25.6592ZM111.9 19.1474H113.058V21.2853H110.684V19.1474H111.9Z" fill="#131313"/>
<path d="M72.9375 26.7381L68.3086 22.1779L72.9375 17.6177L77.4977 22.1779L72.9375 26.7381ZM72.9375 35.8684L77.4977 40.4188L82.0481 35.8586L77.4977 31.3081L72.9375 35.8684ZM86.6377 31.2983L82.0481 35.8586L86.6377 40.4188L91.198 35.8586L86.6377 31.2983Z" fill="#131313"/>
<path d="M86.6377 22.1778L82.1069 17.6176L86.6377 13.0574L91.198 17.6078L86.6377 22.168V22.1778ZM77.4977 22.1778L72.9375 17.6176L77.4977 13.0574L82.1069 17.6078L77.4977 22.168V22.1778ZM68.3086 31.3081L72.9375 35.8683L77.4977 31.3081L72.9375 26.738L68.3086 31.3081ZM82.0481 35.8585L77.4977 40.4285L82.0481 44.9985L86.6279 40.4285L82.0481 35.8585Z" fill="#131313"/>
</g>
<defs>
<clipPath id="clip0_154_210">
<rect width="97.3828" height="32" fill="white" transform="translate(68.3086 13.0278)"/>
</clipPath>
</defs>
</svg>
