<svg width="105" height="36" viewBox="0 0 105 36" fill="none" xmlns="http://www.w3.org/2000/svg">
<g clip-path="url(#clip0_242_383)">
<path d="M28.3276 14.3156H36.7586V17.555H28.3276V25.471H39.2408V11.9666H28.3276V14.3049V14.3156ZM36.7586 23.1327H30.7993V19.8933H36.7586V23.1327ZM41.2621 5.70238H43.7338V25.471H41.2621V5.70238ZM45.7552 11.9666H48.2269V25.471H45.7552V11.9666ZM52.7304 11.9666V5.69165H50.2587V25.471H61.1719V11.9558H52.7304V11.9666ZM58.6897 23.1327H52.7304V14.3049H58.6897V23.1327ZM63.1933 11.9666H71.3206V14.3049H65.665V25.471H63.1933V11.9666ZM72.2213 14.3156H80.6523V17.555H72.2213V25.471H83.1345V11.9666H72.2213V14.3049V14.3156ZM80.6523 23.1327H74.693V19.8933H80.6523V23.1327ZM91.4503 11.9666H92.6861V14.3049H88.8948V23.1327H92.6861V25.471H86.4126V14.3049H85.1453V11.9666H86.4126V5.69165H88.8843V11.9666H91.4503ZM104.5 19.9148V11.9666H93.5868V13.1357V25.471H104.5V23.1327H96.069V19.9148H104.5ZM96.069 14.3156H102.028V17.5871H96.069V14.3156ZM47.0539 7.19334H48.2897V9.53167H45.7552V7.19334H47.0539Z" fill="#131313"/>
<path d="M5.4434 15.4955L0.5 10.5078L5.4434 5.52002L10.3135 10.5078L5.4434 15.4955ZM5.4434 25.4817L10.3135 30.4587L15.1731 25.471L10.3135 20.494L5.4434 25.4817ZM20.0746 20.4832L15.1731 25.471L20.0746 30.4587L24.9447 25.471L20.0746 20.4832Z" fill="#131313"/>
<path d="M19.5746 10.9755L14.736 5.98774L19.5746 1L24.4447 5.97702L19.5746 10.9648V10.9755ZM9.81349 10.9755L4.9434 5.98774L9.81349 1L14.736 5.97702L9.81349 10.9648V10.9755ZM0 20.9617L4.9434 25.9494L9.81349 20.9617L4.9434 15.9632L0 20.9617ZM14.6731 25.9387L9.81349 30.9372L14.6731 35.9356L19.5641 30.9372L14.6731 25.9387Z" fill="#131313"/>
</g>
<defs>
<clipPath id="clip0_242_383">
<rect width="104" height="35" fill="white" transform="translate(0.5 0.5)"/>
</clipPath>
</defs>
</svg>
