<svg width="70" height="14" viewBox="0 0 70 14" fill="none" xmlns="http://www.w3.org/2000/svg">
<path d="M10.3445 9.52291C9.92382 9.99085 9.39524 10.3566 8.80153 10.5903C8.20767 10.8241 7.56539 10.9195 6.92649 10.8686C6.28759 10.8176 5.67 10.622 5.12376 10.2975C4.57752 9.97289 4.11786 9.52845 3.78203 9.00015C3.56097 8.64896 3.39602 8.26753 3.2927 7.86866C3.28205 7.82692 3.27179 7.78519 3.26262 7.74292C3.25925 7.72945 3.25683 7.71625 3.2544 7.70317C3.20247 7.44893 3.17684 7.19032 3.17778 6.93106C3.17778 6.88985 3.17778 6.84864 3.18021 6.8073C3.18399 6.6986 3.19599 6.59044 3.21609 6.48345H0.0184823C0.0184823 6.51806 0.0140319 6.55187 0.0121436 6.58608C0.0121436 6.58608 1.27872e-06 6.81721 1.27872e-06 6.93106C-0.000403346 7.58958 0.0952202 8.24481 0.28391 8.87745C0.367802 9.17859 0.476785 9.47272 0.610041 9.75681C1.10544 10.8467 1.87881 11.797 2.85773 12.5185C3.83678 13.2399 4.98902 13.709 6.20667 13.8817C7.42432 14.0543 8.66719 13.9247 9.81902 13.5054C10.9707 13.0859 11.9935 12.3903 12.7913 11.4837L10.3445 9.52291Z" fill="#E8E8E8"/>
<path d="M27.296 13.8321H24.3894V3.65545H27.296V5.08226C27.4983 4.75472 27.7667 4.46957 28.085 4.24372C28.6123 3.857 29.2341 3.71211 29.8262 3.61279C30.4844 3.50383 31.1588 3.51757 31.8116 3.65308L31.9316 3.67738L31.4312 6.73281L31.2775 6.67417C30.6719 6.43393 30.0083 6.36432 29.3622 6.47355C28.7674 6.55742 28.2306 6.8596 27.8597 7.31738C27.5549 7.68772 27.3674 8.17098 27.304 8.7537V8.92381C27.2987 9.01151 27.296 9.10515 27.296 9.20275V13.8321Z" fill="#E8E8E8"/>
<path d="M39.7436 9.57204C39.5898 10.0027 39.3227 10.3873 38.9694 10.6883C38.616 10.9895 38.1884 11.1967 37.7272 11.2898C37.2659 11.3831 36.7885 11.359 36.3393 11.2199C35.8915 11.081 35.4883 10.8319 35.1686 10.497L37.5208 9.52145V9.51815L42.4154 7.50387C42.1065 6.24519 41.3256 5.14236 40.2237 4.40921C39.1218 3.67619 37.7784 3.36515 36.4526 3.53672C35.1281 3.70815 33.9156 4.34991 33.0524 5.3373C32.1879 6.3247 31.7347 7.58734 31.7778 8.88036C31.8224 10.1732 32.3619 11.4042 33.2911 12.3343C34.2204 13.2643 35.4734 13.8271 36.8073 13.9136C38.1412 14 39.4617 13.6038 40.511 12.8019C41.5603 12.0001 42.263 10.8496 42.4856 9.57402L39.7436 9.57204ZM37.1701 6.06953C37.7487 6.06913 38.3125 6.24823 38.7792 6.58053L34.4673 8.3543C34.5563 7.72179 34.8786 7.14185 35.3763 6.72185C35.8727 6.30172 36.5106 6.07006 37.1701 6.06953Z" fill="#E8E8E8"/>
<path d="M69.9986 13.8321H67.0867V7.931C67.0867 7.24989 66.937 6.77494 66.643 6.52004C66.3462 6.26025 65.9578 6.12091 65.5572 6.13094C65.2915 6.13781 65.0312 6.20834 64.7992 6.33619C64.5389 6.47223 64.315 6.69808 64.1356 7.00938C63.9576 7.32068 63.8632 7.74068 63.8632 8.25208V13.8303H60.9499V7.931C60.9499 7.24804 60.811 6.77217 60.5345 6.51766C60.258 6.26315 59.9168 6.13094 59.5041 6.13094C59.2626 6.13094 59.001 6.20028 58.7245 6.33764C58.4466 6.475 58.2133 6.70098 58.0191 7.01268C57.8249 7.32438 57.7277 7.74345 57.7277 8.25208V13.8303H54.8158V3.63432H57.7277V4.9C57.9988 4.52517 58.3387 4.20185 58.7299 3.94602C59.2316 3.6293 59.8183 3.46474 60.4171 3.47345C61.1333 3.47345 61.7308 3.63709 62.1934 3.95909C62.5522 4.20859 62.8921 4.61538 63.205 5.17789C63.4734 4.77334 63.8834 4.2906 64.458 3.97362C65.0447 3.64621 65.711 3.47425 66.388 3.47543C67.1002 3.47543 67.7328 3.63709 68.2696 3.95592C68.8064 4.27462 69.2393 4.77717 69.5428 5.44561C69.8476 6.11404 70 6.94558 70 7.93325L69.9986 13.8321Z" fill="#E8E8E8"/>
<path d="M51.1931 9.57204C51.0393 10.0027 50.7736 10.3873 50.4202 10.6883C50.0668 10.9895 49.638 11.1967 49.1767 11.2898C48.7168 11.3831 48.2379 11.359 47.7902 11.2199C47.341 11.081 46.9378 10.8319 46.6181 10.497L48.9717 9.52145V9.51815L53.8649 7.50387C53.5561 6.24519 52.7751 5.14236 51.6732 4.40921C50.5726 3.67619 49.2279 3.36515 47.9035 3.53672C46.5777 3.70815 45.3651 4.34991 44.5019 5.3373C43.6374 6.3247 43.1842 7.58734 43.2287 8.88036C43.2719 10.1732 43.8114 11.4042 44.7406 12.3343C45.6699 13.2643 46.9229 13.8271 48.2582 13.9136C49.5921 14 50.9112 13.6038 51.9605 12.8019C53.0098 12.0001 53.7139 10.8496 53.9351 9.57402L51.1931 9.57204ZM48.6196 6.06953C49.1983 6.06913 49.7634 6.24823 50.2301 6.58053L45.9181 8.3543C46.0058 7.72179 46.3295 7.14185 46.8258 6.72185C47.3222 6.30172 47.9601 6.07006 48.6196 6.06953Z" fill="#E8E8E8"/>
<path d="M22.1003 4.61168C21.2486 3.92449 20.1309 3.57568 18.7786 3.57568C17.5121 3.57568 16.44 3.87192 15.5917 4.45557C14.8111 4.99179 14.2734 5.656 13.9929 6.42957L13.9443 6.57009L16.7995 7.07225L16.8436 6.99009C16.9698 6.75592 17.1466 6.55068 17.362 6.38823C17.6667 6.1567 18.0887 6.03955 18.6182 6.03955C19.2549 6.03955 19.7133 6.18008 19.9812 6.4614C20.2069 6.699 20.3514 7.10962 20.3837 7.60147C18.3257 7.49502 16.689 7.66513 15.5171 8.10772C14.2399 8.58913 13.5927 9.499 13.5927 10.8125C13.585 11.3746 13.7425 11.9272 14.0465 12.4062C14.3489 12.9013 14.7927 13.2968 15.3659 13.5782C15.9391 13.8593 16.6183 14 17.4041 14C18.2627 14 19.0078 13.8154 19.6187 13.4511C20.0271 13.209 20.3917 12.9038 20.6983 12.5478V13.8439H23.4012V8.2427C23.3998 6.52981 22.9628 5.30825 22.1003 4.61168ZM19.9352 10.4937C19.7055 10.8248 19.4114 11.1094 19.0694 11.3318C18.7356 11.547 18.3911 11.6599 18.0476 11.674C17.5529 11.6983 17.1701 11.6211 16.909 11.4447C16.6522 11.2719 16.5271 11.0107 16.5271 10.6479C16.5271 10.1472 16.9022 9.814 17.674 9.6283C18.2206 9.50336 18.7809 9.443 19.3427 9.44828C19.6862 9.44894 20.0294 9.46651 20.3712 9.50085C20.2972 9.85706 20.1488 10.1949 19.9352 10.4937Z" fill="#E8E8E8"/>
<path d="M3.76071 4.54181C4.87087 4.54181 5.77088 3.67104 5.77088 2.59687C5.77088 1.52283 4.87087 0.652056 3.76071 0.652056C2.65056 0.652056 1.75054 1.52283 1.75054 2.59687C1.75054 3.67104 2.65056 4.54181 3.76071 4.54181Z" fill="#E8E8E8"/>
<path d="M13.1585 2.79141C13.1585 2.79141 11.7012 0.497396 8.61728 0L7.79077 2.99679C7.79077 2.99679 9.51892 3.06336 10.7147 4.74904L13.1585 2.79141Z" fill="#E8E8E8"/>
</svg>
