<svg width="142" height="20" viewBox="0 0 142 20" fill="none" xmlns="http://www.w3.org/2000/svg">
<path d="M63.125 15.3125C63.125 16.2617 63.8633 17 64.8125 17H79.4375C79.7188 17 80 17.2812 80 17.5625C80 17.8789 79.7188 18.125 79.4375 18.125H64.8125C63.2305 18.125 62 16.8945 62 15.3125V2.9375C62 2.65625 62.2461 2.375 62.5625 2.375C62.8438 2.375 63.125 2.65625 63.125 2.9375V15.3125ZM73.8125 5.75H78.3125C78.5938 5.75 78.875 6.03125 78.875 6.3125V10.8125C78.875 11.1289 78.5938 11.375 78.3125 11.375C77.9961 11.375 77.75 11.1289 77.75 10.8125V7.68359L73.6367 11.7969C73.4258 12.0078 73.0391 12.0078 72.8281 11.7969L69.8398 8.80859L66.3242 12.3594C66.1133 12.5703 65.7266 12.5703 65.5156 12.3594C65.3047 12.1484 65.3047 11.7617 65.5156 11.5508L69.4531 7.61328C69.6641 7.40234 70.0508 7.40234 70.2617 7.61328L73.25 10.6016L76.9414 6.875H73.8125C73.4961 6.875 73.25 6.62891 73.25 6.3125C73.25 6.03125 73.4961 5.75 73.8125 5.75Z" fill="#131313"/>
</svg>
