<svg width="142" height="20" viewBox="0 0 142 20" fill="none" xmlns="http://www.w3.org/2000/svg">
<path d="M70.4375 5.1875C70.4375 4.90625 70.6836 4.625 71 4.625C71.2812 4.625 71.5625 4.90625 71.5625 5.1875V9.96875L74.6562 12.043C74.9375 12.2188 75.0078 12.5703 74.832 12.8164C74.6562 13.0977 74.3047 13.168 74.0586 12.9922L70.6836 10.7422C70.5078 10.6367 70.4023 10.4609 70.4023 10.25L70.4375 5.1875ZM71 1.25C75.957 1.25 80 5.29297 80 10.25C80 15.2422 75.957 19.25 71 19.25C66.0078 19.25 62 15.2422 62 10.25C62 5.29297 66.0078 1.25 71 1.25ZM63.125 10.25C63.125 14.6094 66.6406 18.125 71 18.125C75.3242 18.125 78.875 14.6094 78.875 10.25C78.875 5.92578 75.3242 2.375 71 2.375C66.6406 2.375 63.125 5.92578 63.125 10.25Z" fill="#131313"/>
</svg>
