<svg width="133" height="20" viewBox="0 0 133 20" fill="none" xmlns="http://www.w3.org/2000/svg">
<g clip-path="url(#clip0_242_379)">
<path d="M18.0373 12.8199C17.8882 14.3354 17.3913 15.677 16.472 16.8695C15.3043 18.3851 13.7391 19.3292 11.8758 19.7267C9.71427 20.1987 7.60247 20.0497 5.54036 19.2298C3.25464 18.3105 1.66458 16.6708 0.795014 14.3851C-0.298154 11.4285 -0.322999 8.44718 0.869548 5.51551C2.16147 2.38507 4.59626 0.69563 7.9006 0.198736C9.66458 -0.0497113 11.4037 -2.18786e-05 13.0683 0.670786C16 1.81364 17.6397 3.99998 18.0373 7.10557C18.0373 7.13041 18.0373 7.1801 18.0373 7.22979H13.8633C13.7888 6.98134 13.7143 6.70805 13.6149 6.45961C12.8944 4.57141 11.1056 3.47824 9.06831 3.65215C7.15526 3.82606 5.7888 4.79501 5.06831 6.50929C4.02483 8.91923 4.02483 11.4037 5.19253 13.7888C6.40992 16.2733 9.44098 17.1677 11.7764 15.8261C12.7453 15.2546 13.3664 14.4099 13.7143 13.3167C13.764 13.1677 13.8136 13.0186 13.8633 12.8695C13.8633 12.8695 13.8882 12.8199 13.913 12.8199H18.0869H18.0373ZM49.2422 12.7205C49.2422 13.6894 49.0683 14.6335 48.5217 15.4534C47.8261 16.5217 46.8074 16.8199 45.59 16.6459C44.4969 16.4969 43.8758 15.7764 43.6025 14.7577C43.4534 14.236 43.354 13.6894 43.354 13.1428C43.3292 10.7081 43.354 8.27327 43.354 5.83849C43.354 5.71426 43.354 5.59004 43.354 5.46582H39.4286C39.4286 8.44718 39.4037 11.3789 39.4286 14.3354C39.4286 15.5279 39.7515 16.6956 40.3975 17.7143C42.0621 20.323 46.559 20.7453 48.7205 18.6832C48.8944 18.5093 49.0932 18.3354 49.2919 18.1366C49.4161 18.7081 49.5404 19.2546 49.6646 19.7764H53.1925V8.79501H55.5279C55.5279 8.99377 55.5279 13.913 55.5528 16.1987C55.6025 18.3602 56.9192 19.6522 59.0807 19.7515C60.1739 19.8012 61.2671 19.7764 62.3602 19.7764C62.5341 19.7764 62.7081 19.7764 62.9068 19.7764V16.4223C62.2112 16.4223 61.5652 16.4223 60.8944 16.4223C59.8758 16.4223 59.5031 16.0248 59.5031 15.0062C59.5031 13.0435 59.5031 8.86954 59.5031 8.72047H62.9068V5.39128H59.4782V1.46582H55.5031V5.44097H49.1925C49.1925 5.63973 49.1925 10.4596 49.1925 12.7205H49.2422ZM38.7081 11.7515C38.3602 9.01861 36.9938 7.05588 34.3354 6.03724C32.8199 5.46582 31.2546 5.39128 29.6646 5.61488C27.2546 5.96271 25.3664 7.15526 24.2981 9.36644C23.6273 10.7329 23.4782 12.1739 23.6273 13.6646C23.8509 15.7764 24.7453 17.5403 26.559 18.7577C27.8012 19.5776 29.1925 19.9503 30.6832 20C32.5217 20.0745 34.2857 19.7515 35.8509 18.7081C37.9379 17.2671 38.7081 15.2049 38.7577 12.6956C38.7577 12.4472 38.7577 12.0994 38.6832 11.7515H38.7081ZM31.205 16.8199C29.2174 16.8199 27.6025 14.9813 27.6025 12.7205C27.6025 10.4596 29.2174 8.6211 31.205 8.6211C33.1925 8.6211 34.8074 10.4596 34.8074 12.7205C34.8074 14.9813 33.1925 16.8199 31.205 16.8199ZM22.7081 0.0745123H18.7826V20H22.7081V0.0745123Z" fill="#131313"/>
<path d="M81.8882 5.63966H80.4472C80.3975 5.39121 80.3478 5.14277 80.2733 4.91916C79.6522 2.93159 78.236 1.88811 76.2484 1.56513C74.9317 1.34152 73.6149 1.4409 72.3478 1.98749C70.559 2.75767 69.7888 4.29805 70.1615 6.26078C70.3851 7.37879 71.1553 8.0496 72.1491 8.39742C73.1925 8.74525 74.2857 8.94401 75.354 9.2173C76.5714 9.51544 77.8136 9.7142 78.9814 10.1117C80.472 10.6335 81.6397 11.5775 82.0373 13.1925C82.6087 15.5527 81.6397 17.8136 79.5279 19.031C76.9192 20.5216 72.8695 20.3477 70.5341 18.6086C68.9441 17.4409 68.2236 15.8012 68.0994 13.8384H69.59C69.6646 14.2111 69.7143 14.5838 69.7888 14.9316C70.2112 16.5216 71.2298 17.59 72.7453 18.1614C74.5838 18.8571 76.4472 18.8322 78.2609 18.0869C80.0994 17.3415 80.9689 15.6769 80.5714 13.8136C80.2981 12.5713 79.4037 11.8757 78.2857 11.503C77.1925 11.1552 76.0497 10.9564 74.9317 10.6831C73.8385 10.4098 72.7205 10.2111 71.6522 9.86326C70.2857 9.41606 69.1677 8.59618 68.7453 7.13034C68.0497 4.72041 68.8199 2.11171 71.3789 0.944008C74.0621 -0.298228 76.795 -0.273383 79.3789 1.31668C80.8447 2.23593 81.6397 3.65208 81.8633 5.36637C81.8633 5.46575 81.8633 5.56513 81.8633 5.71419L81.8882 5.63966ZM96.6708 12.944C96.7205 16.7453 99.205 19.7763 103.006 19.9751C105.789 20.1241 108.248 18.8571 109.466 16.3974C110.211 14.9067 110.385 13.3415 110.236 11.7018C109.888 7.87569 106.807 5.24215 102.981 5.51544C100.919 5.66451 99.2546 6.50923 98.0124 8.17382C97.0186 9.54028 96.6211 11.0807 96.646 12.7453C96.646 12.8198 96.646 12.8943 96.646 12.9689L96.6708 12.944ZM107.354 17.0434C105.242 19.4533 100.596 19.4036 98.882 15.9502C97.8137 13.7887 97.8136 11.5775 98.9565 9.4409C100.025 7.45333 101.789 6.6086 104.025 6.80736C106.286 7.00612 107.776 8.32289 108.472 10.4347C108.745 11.2297 108.87 12.9192 108.845 12.944C108.795 14.4844 108.398 15.8757 107.354 17.0682V17.0434ZM111.627 6.1614C111.627 8.62103 111.627 11.0558 111.627 13.5154C111.627 14.0372 111.627 14.5838 111.702 15.1055C112.05 18.1366 113.988 19.826 116.621 19.9999C118.882 20.149 120.77 19.3043 121.888 17.2173C121.913 17.1428 121.963 17.0931 122.037 16.9937C122.087 17.8881 122.137 18.708 122.211 19.5279C122.211 19.6521 122.335 19.826 122.41 19.826C122.758 19.8508 123.13 19.826 123.478 19.826V5.68935H122.062V6.11171C122.062 8.29805 122.062 10.5092 122.062 12.6956C122.062 13.3912 121.988 14.1117 121.838 14.7825C121.366 16.8695 119.925 18.5341 117.54 18.6583C115.602 18.7577 113.988 17.7639 113.416 15.9254C113.193 15.1552 113.068 14.3353 113.068 13.5403C113.019 11.0558 113.068 8.59618 113.068 6.11171C113.068 5.96264 113.068 5.83842 113.068 5.66451H111.627C111.627 5.83842 111.627 5.98749 111.627 6.13656V6.1614ZM94.6087 15.2297C94.4099 15.9999 94.0869 16.6956 93.5404 17.267C91.4534 19.4285 87.7267 19.1055 85.9627 16.5962C84.8199 15.0061 84.6211 13.1925 84.9192 11.3291C85.3416 8.62103 87.3292 6.83221 89.9379 6.75767C91.9255 6.70798 93.5901 7.67693 94.3354 9.34152C94.4596 9.61482 94.5341 9.91295 94.6335 10.1862H96.0248C95.9006 9.04339 95.2546 7.826 94.4099 7.05581C93.0435 5.78873 91.4037 5.36637 89.6149 5.49059C86.8323 5.66451 84.8696 7.05581 83.8261 9.66451C83.2546 11.0807 83.1801 12.5713 83.4037 14.062C83.5776 15.3539 84.0248 16.5465 84.8447 17.59C86.7826 20.0993 90.1863 20.4968 92.6211 19.5279C94.559 18.7577 95.6273 17.2918 96.0497 15.2546H94.6087V15.2297ZM127.13 7.52786C127.13 10.4844 127.13 13.4409 127.13 16.3974C127.13 16.7949 127.155 17.1676 127.205 17.5651C127.354 18.7825 127.975 19.5775 129.118 19.7763C130.236 19.9502 131.404 19.9254 132.571 19.9999V18.6086C132.422 18.6086 132.298 18.6086 132.149 18.6086C131.503 18.6086 130.857 18.6086 130.211 18.6086C129.193 18.5589 128.72 18.1117 128.571 17.1179C128.571 16.9689 128.571 16.8198 128.571 16.6707C128.571 13.6148 128.571 10.5589 128.571 7.50302V7.08065H132.323V5.76388H128.547V1.81357H127.106V5.78873H124.447V7.1055H127.106V7.5527L127.13 7.52786Z" fill="#131313"/>
</g>
<defs>
<clipPath id="clip0_242_379">
<rect width="132.571" height="20" fill="white"/>
</clipPath>
</defs>
</svg>
