<svg width="234" height="53" viewBox="0 0 234 53" fill="none" xmlns="http://www.w3.org/2000/svg">
<g clip-path="url(#clip0_154_170)">
<path d="M68.7516 29.8477C68.6025 31.3632 68.1056 32.7048 67.1864 33.8974C66.0187 35.4129 64.4534 36.357 62.5901 36.7545C60.4286 37.2266 58.3168 37.0775 56.2547 36.2576C53.969 35.3384 52.3789 33.6986 51.5093 31.4129C50.4162 28.4564 50.3913 25.475 51.5839 22.5433C52.8758 19.4129 55.3106 17.7235 58.6149 17.2266C60.3789 16.9781 62.118 17.0278 63.7826 17.6986C66.7143 18.8415 68.3541 21.0278 68.7516 24.1334C68.7516 24.1582 68.7516 24.2079 68.7516 24.2576H64.5777C64.5031 24.0092 64.4286 23.7359 64.3292 23.4874C63.6087 21.5992 61.8199 20.5061 59.7826 20.68C57.8696 20.8539 56.5031 21.8228 55.7826 23.5371C54.7392 25.9471 54.7392 28.4315 55.9069 30.8166C57.1242 33.3011 60.1553 34.1955 62.4907 32.8539C63.4597 32.2825 64.0808 31.4377 64.4286 30.3446C64.4783 30.1955 64.528 30.0464 64.5777 29.8974C64.5777 29.8974 64.6025 29.8477 64.6274 29.8477H68.8013H68.7516ZM99.9565 29.7483C99.9565 30.7173 99.7826 31.6614 99.236 32.4812C98.5404 33.5495 97.5218 33.8477 96.3044 33.6738C95.2112 33.5247 94.5901 32.8042 94.3168 31.7856C94.1677 31.2638 94.0683 30.7173 94.0683 30.1707C94.0435 27.7359 94.0683 25.3011 94.0683 22.8663C94.0683 22.7421 94.0683 22.6179 94.0683 22.4936H90.1429C90.1429 25.475 90.118 28.4067 90.1429 31.3632C90.1429 32.5558 90.4659 33.7235 91.1118 34.7421C92.7764 37.3508 97.2733 37.7732 99.4348 35.711C99.6087 35.5371 99.8075 35.3632 100.006 35.1645C100.13 35.7359 100.255 36.2825 100.379 36.8042H103.907V25.8228H106.242C106.242 26.0216 106.242 30.9409 106.267 33.2266C106.317 35.3881 107.634 36.68 109.795 36.7794C110.888 36.8291 111.981 36.8042 113.075 36.8042C113.248 36.8042 113.422 36.8042 113.621 36.8042V33.4502C112.925 33.4502 112.28 33.4502 111.609 33.4502C110.59 33.4502 110.217 33.0527 110.217 32.034C110.217 30.0713 110.217 25.8974 110.217 25.7483H113.621V22.4191H110.193V18.4936H106.217V22.4688H99.9069C99.9069 22.6676 99.9069 27.4874 99.9069 29.7483H99.9565ZM89.4224 28.7794C89.0746 26.0464 87.7081 24.0837 85.0497 23.0651C83.5342 22.4936 81.969 22.4191 80.3789 22.6427C77.969 22.9905 76.0808 24.1831 75.0124 26.3943C74.3416 27.7607 74.1926 29.2017 74.3416 30.6924C74.5652 32.8042 75.4597 34.5682 77.2733 35.7856C78.5156 36.6054 79.9069 36.9781 81.3975 37.0278C83.236 37.1023 85 36.7794 86.5652 35.7359C88.6522 34.2949 89.4224 32.2328 89.4721 29.7235C89.4721 29.475 89.4721 29.1272 89.3975 28.7794H89.4224ZM81.9193 33.8477C79.9317 33.8477 78.3168 32.0092 78.3168 29.7483C78.3168 27.4874 79.9317 25.6489 81.9193 25.6489C83.9069 25.6489 85.5218 27.4874 85.5218 29.7483C85.5218 32.0092 83.9069 33.8477 81.9193 33.8477ZM73.4224 17.1023H69.4969V37.0278H73.4224V17.1023Z" fill="#131313"/>
<path d="M132.602 22.6675H131.161C131.112 22.419 131.062 22.1706 130.988 21.947C130.366 19.9594 128.95 18.9159 126.963 18.593C125.646 18.3694 124.329 18.4687 123.062 19.0153C121.273 19.7855 120.503 21.3259 120.876 23.2886C121.099 24.4066 121.87 25.0774 122.863 25.4253C123.907 25.7731 125 25.9718 126.068 26.2451C127.286 26.5433 128.528 26.742 129.696 27.1395C131.186 27.6613 132.354 28.6054 132.752 30.2203C133.323 32.5805 132.354 34.8414 130.242 36.0588C127.634 37.5495 123.584 37.3756 121.248 35.6364C119.658 34.4687 118.938 32.829 118.814 30.8663H120.304C120.379 31.2389 120.429 31.6116 120.503 31.9594C120.925 33.5495 121.944 34.6178 123.46 35.1892C125.298 35.8849 127.161 35.86 128.975 35.1147C130.814 34.3694 131.683 32.7048 131.286 30.8414C131.012 29.5992 130.118 28.9035 129 28.5308C127.907 28.183 126.764 27.9843 125.646 27.711C124.553 27.4377 123.435 27.2389 122.366 26.8911C121 26.4439 119.882 25.624 119.46 24.1582C118.764 21.7482 119.534 19.1395 122.093 17.9718C124.776 16.7296 127.509 16.7544 130.093 18.3445C131.559 19.2638 132.354 20.6799 132.578 22.3942C132.578 22.4936 132.578 22.593 132.578 22.742L132.602 22.6675ZM147.385 29.9718C147.435 33.7731 149.919 36.8041 153.72 37.0029C156.503 37.152 158.963 35.8849 160.18 33.4253C160.925 31.9346 161.099 30.3694 160.95 28.7296C160.602 24.9035 157.522 22.27 153.696 22.5433C151.634 22.6923 149.969 23.5371 148.727 25.2017C147.733 26.5681 147.335 28.1085 147.36 29.7731C147.36 29.8476 147.36 29.9222 147.36 29.9967L147.385 29.9718ZM158.068 34.0712C155.957 36.4812 151.311 36.4315 149.596 32.9781C148.528 30.8166 148.528 28.6054 149.671 26.4687C150.739 24.4812 152.503 23.6364 154.739 23.8352C157 24.034 158.491 25.3507 159.186 27.4625C159.46 28.2576 159.584 29.947 159.559 29.9718C159.509 31.5122 159.112 32.9035 158.068 34.0961V34.0712ZM162.342 23.1892C162.342 25.6489 162.342 28.0836 162.342 30.5433C162.342 31.065 162.342 31.6116 162.416 32.1333C162.764 35.1644 164.702 36.8538 167.335 37.0277C169.596 37.1768 171.484 36.3321 172.602 34.2451C172.627 34.1706 172.677 34.1209 172.752 34.0215C172.801 34.9159 172.851 35.7358 172.925 36.5557C172.925 36.6799 173.05 36.8538 173.124 36.8538C173.472 36.8787 173.845 36.8538 174.193 36.8538V22.7172H172.776V23.1395C172.776 25.3259 172.776 27.5371 172.776 29.7234C172.776 30.419 172.702 31.1395 172.553 31.8104C172.081 33.8973 170.64 35.5619 168.255 35.6861C166.317 35.7855 164.702 34.7917 164.13 32.9532C163.907 32.183 163.783 31.3631 163.783 30.5681C163.733 28.0836 163.783 25.624 163.783 23.1395C163.783 22.9905 163.783 22.8663 163.783 22.6923H162.342C162.342 22.8663 162.342 23.0153 162.342 23.1644V23.1892ZM145.323 32.2576C145.124 33.0277 144.801 33.7234 144.255 34.2948C142.168 36.4563 138.441 36.1333 136.677 33.624C135.534 32.034 135.335 30.2203 135.634 28.3569C136.056 25.6489 138.043 23.86 140.652 23.7855C142.64 23.7358 144.304 24.7048 145.05 26.3694C145.174 26.6426 145.248 26.9408 145.348 27.2141H146.739C146.615 26.0712 145.969 24.8538 145.124 24.0836C143.758 22.8166 142.118 22.3942 140.329 22.5184C137.547 22.6923 135.584 24.0836 134.54 26.6923C133.969 28.1085 133.894 29.5992 134.118 31.0899C134.292 32.3818 134.739 33.5743 135.559 34.6178C137.497 37.1271 140.901 37.5246 143.335 36.5557C145.273 35.7855 146.342 34.3197 146.764 32.2824H145.323V32.2576ZM177.845 24.5557C177.845 27.5122 177.845 30.4687 177.845 33.4253C177.845 33.8228 177.87 34.1954 177.919 34.593C178.068 35.8103 178.689 36.6054 179.832 36.8041C180.95 36.9781 182.118 36.9532 183.286 37.0277V35.6364C183.137 35.6364 183.012 35.6364 182.863 35.6364C182.217 35.6364 181.571 35.6364 180.925 35.6364C179.907 35.5867 179.435 35.1395 179.286 34.1458C179.286 33.9967 179.286 33.8476 179.286 33.6985C179.286 30.6426 179.286 27.5867 179.286 24.5308V24.1085H183.037V22.7917H179.261V18.8414H177.82V22.8166H175.161V24.1333H177.82V24.5805L177.845 24.5557Z" fill="#131313"/>
</g>
<defs>
<clipPath id="clip0_154_170">
<rect width="132.571" height="20" fill="white" transform="translate(50.7143 17.0278)"/>
</clipPath>
</defs>
</svg>
