<svg xmlns="http://www.w3.org/2000/svg" width="26" height="25" viewBox="0 0 26 25" fill="none">
  <path d="M13.5109 0H13.454C6.5682 0 0.986145 5.5837 0.986145 12.4715V12.5285C0.986145 19.4163 6.5682 25 13.454 25H13.5109C20.3967 25 25.9788 19.4163 25.9788 12.5285V12.4715C25.9788 5.5837 20.3967 0 13.5109 0Z" fill="#E8E8E8"/>
  <path d="M17.3496 5.08618H9.61617C7.47967 5.08618 5.74158 6.82479 5.74158 8.96191V16.039C5.74158 18.1761 7.47967 19.9147 9.61617 19.9147H17.3496C19.4861 19.9147 21.2242 18.1761 21.2242 16.039V8.96191C21.2242 6.82479 19.4861 5.08618 17.3496 5.08618ZM7.10841 8.96191C7.10841 7.57891 8.23357 6.45342 9.61617 6.45342H17.3496C18.7322 6.45342 19.8573 7.57891 19.8573 8.96191V16.039C19.8573 17.422 18.7322 18.5475 17.3496 18.5475H9.61617C8.23357 18.5475 7.10841 17.422 7.10841 16.039V8.96191Z" fill="black"/>
  <path d="M13.483 16.1049C15.4698 16.1049 17.087 14.4881 17.087 12.4999C17.087 10.5116 15.4706 8.89478 13.483 8.89478C11.4954 8.89478 9.87897 10.5116 9.87897 12.4999C9.87897 14.4881 11.4954 16.1049 13.483 16.1049ZM13.483 10.2629C14.7167 10.2629 15.7202 11.2666 15.7202 12.5007C15.7202 13.7348 14.7167 14.7386 13.483 14.7386C12.2493 14.7386 11.2458 13.7348 11.2458 12.5007C11.2458 11.2666 12.2493 10.2629 13.483 10.2629Z" fill="black"/>
  <path d="M17.4206 9.47711C17.9556 9.47711 18.3917 9.0418 18.3917 8.50577C18.3917 7.96973 17.9565 7.53442 17.4206 7.53442C16.8848 7.53442 16.4496 7.96973 16.4496 8.50577C16.4496 9.0418 16.8848 9.47711 17.4206 9.47711Z" fill="black"/>
</svg>