<svg xmlns="http://www.w3.org/2000/svg" width="25" height="25" viewBox="0 0 25 25" fill="none">
  <path d="M12.5248 0H12.4679C5.58206 0 0 5.5837 0 12.4715V12.5285C0 19.4163 5.58206 25 12.4679 25H12.5248C19.4106 25 24.9926 19.4163 24.9926 12.5285V12.4715C24.9926 5.5837 19.4106 0 12.5248 0Z" fill="#E8E8E8"/>
  <path d="M5.96031 8.30943C5.63108 8.00375 5.46735 7.62538 5.46735 7.17518C5.46735 6.72498 5.63195 6.32996 5.96031 6.02341C6.28954 5.71773 6.71334 5.56445 7.23258 5.56445C7.75181 5.56445 8.15898 5.71773 8.48734 6.02341C8.81657 6.32909 8.9803 6.7136 8.9803 7.17518C8.9803 7.63677 8.81569 8.00375 8.48734 8.30943C8.15811 8.61511 7.74043 8.76839 7.23258 8.76839C6.72472 8.76839 6.28954 8.61511 5.96031 8.30943ZM8.70361 10.0629V19.4347H5.74316V10.0629H8.70361Z" fill="black"/>
  <path d="M18.5587 10.9888C19.204 11.6895 19.5262 12.6512 19.5262 13.8757V19.2693H16.7146V14.2558C16.7146 13.6383 16.5544 13.1583 16.2348 12.8167C15.9152 12.4751 15.4844 12.3035 14.945 12.3035C14.4056 12.3035 13.9748 12.4743 13.6552 12.8167C13.3356 13.1583 13.1754 13.6383 13.1754 14.2558V19.2693H10.3472V10.0367H13.1754V11.2612C13.4617 10.853 13.8479 10.5307 14.333 10.2934C14.8181 10.056 15.3636 9.93774 15.9704 9.93774C17.0509 9.93774 17.9142 10.2881 18.5587 10.9879V10.9888Z" fill="black"/>
</svg>