<svg width="110" height="32" viewBox="0 0 110 32" fill="none" xmlns="http://www.w3.org/2000/svg">
<g clip-path="url(#clip0_201_70)">
<path d="M78.448 0.447219H84.5965L106.941 25.3485L106.899 3.36774C106.899 2.68303 106.759 2.15202 106.479 1.80268C106.2 1.43936 105.795 1.2577 105.292 1.2577V0.405298H109.777V1.2577C108.785 1.2577 108.24 1.85857 108.114 3.04635L107.849 31.6787H106.997L83.5764 5.15639L83.7162 28.7581C83.7162 29.4429 83.8559 29.9739 84.1354 30.3232C84.4148 30.6865 84.8201 30.8682 85.3231 30.8682V31.7206H80.8376V30.8682C81.3406 30.8682 81.7459 30.6865 82.0253 30.3232C82.3048 29.9599 82.4445 29.4429 82.4445 28.7581L82.4865 3.94067L81.676 3.08827C80.5162 1.85857 79.4402 1.24373 78.448 1.24373V0.447219ZM46.3782 16.014C46.3782 18.2918 46.6996 20.3878 47.3424 22.3162C47.9852 24.2446 48.8655 25.9075 49.9834 27.2909C51.1013 28.6883 52.4568 29.7782 54.0218 30.5608C55.5869 31.3573 57.2917 31.7485 59.1223 31.7485C60.9528 31.7485 63.021 31.3573 64.7258 30.5608C66.4306 29.7643 67.8978 28.6743 69.1275 27.2909C70.3572 25.8935 71.3214 24.2446 72.0201 22.3162C72.7188 20.3878 73.0681 18.2918 73.0681 16.014C73.0681 13.7363 72.7327 11.6402 72.062 9.71185C71.3913 7.78346 70.441 6.12058 69.2393 4.73718C68.0236 3.3398 66.5983 2.24984 64.9354 1.46731C63.2725 0.6708 61.4559 0.279534 59.4856 0.279534C57.5153 0.279534 55.8524 0.6708 54.2594 1.46731C52.6664 2.26381 51.269 3.35377 50.1092 4.73718C48.9354 6.13456 48.0271 7.78346 47.3703 9.71185C46.7135 11.6402 46.3782 13.7363 46.3782 16.014ZM41.7528 16.014H41.8507C41.8507 13.6804 42.2978 11.5424 43.1782 9.57211C44.0585 7.61578 45.2742 5.92495 46.8393 4.49962C48.3904 3.07429 50.2629 1.97036 52.4288 1.17386C54.5948 0.37735 56.9563 -0.013916 59.4996 -0.013916C62.0428 -0.013916 64.5581 0.37735 66.7799 1.17386C69.0017 1.97036 70.9022 3.07429 72.5092 4.49962C74.1162 5.92495 75.3598 7.61578 76.2541 9.57211C77.1485 11.5284 77.5956 13.6804 77.5956 16.014C77.5956 18.3477 77.1345 20.4996 76.1983 22.456C75.276 24.4123 73.9904 26.1031 72.3555 27.5284C70.7205 28.9538 68.7642 30.0577 66.4865 30.8542C64.2087 31.6507 61.7214 32.042 59.0244 32.042C56.3275 32.042 54.2035 31.6507 52.0795 30.8542C49.9694 30.0577 48.1528 28.9538 46.6157 27.5284C45.0926 26.1031 43.8908 24.4123 43.0244 22.456C42.1581 20.4996 41.7249 18.3477 41.7249 16.014H41.7528ZM37.2672 30.8263V31.6787H29.8611V30.8263C30.3642 30.8263 30.7694 30.6446 31.0489 30.2813C31.3284 29.918 31.4681 29.4009 31.4681 28.7162V3.32582C31.4681 2.64111 31.3284 2.1101 31.0489 1.76076C30.7694 1.39744 30.3642 1.21578 29.8611 1.21578V0.363377H37.2672V1.21578C36.7642 1.21578 36.3589 1.39744 36.0795 1.76076C35.8 2.12408 35.6603 2.64111 35.6603 3.32582V28.7162C35.6603 29.4009 35.8 29.9319 36.0795 30.2813C36.3589 30.6446 36.7642 30.8263 37.2672 30.8263ZM7.65676 0.405298L7.69869 1.34154C7.19563 1.34154 6.79039 1.5232 6.51091 1.88652C6.23144 2.24984 6.0917 2.76687 6.0917 3.45159V28.4367C6.0917 28.828 6.13362 29.1774 6.20349 29.4848C6.27336 29.8062 6.42707 30.0717 6.65065 30.2953C6.87423 30.5188 7.2096 30.7005 7.65676 30.8402C8.10393 30.98 8.69083 31.0359 9.40349 31.0359H18.4725C19.7581 31.0359 20.9598 30.7704 22.0638 30.2533C23.1677 29.7363 23.9502 29.0656 24.3974 28.2551L24.6629 27.766H25.3755C25.2498 28.2691 25.138 28.842 25.0122 29.4708C24.8865 30.0996 24.7747 30.6725 24.6489 31.1756V31.7206H0.292572V30.8682C0.795629 30.8682 1.20087 30.6865 1.48034 30.3232C1.75982 29.9599 1.89956 29.4429 1.89956 28.7581V3.36774C1.89956 2.68303 1.75982 2.15202 1.48034 1.80268C1.20087 1.43936 0.795629 1.2577 0.292572 1.2577V0.405298H7.65676Z" fill="#EAEBEB"/>
</g>
<defs>
<clipPath id="clip0_201_70">
<rect width="109.415" height="32" fill="white" transform="translate(0.292572)"/>
</clipPath>
</defs>
</svg>
