<svg width="234" height="53" viewBox="0 0 234 53" fill="none" xmlns="http://www.w3.org/2000/svg">
<g clip-path="url(#clip0_154_141)">
<path d="M155.802 19.5278L157.932 23.5059H161.268L159.138 19.5278H155.802Z" fill="#131313"/>
<path d="M176.068 19.5278V23.5059H173.437L171.307 19.5278H176.068Z" fill="#131313"/>
<path d="M166.875 19.5278L169.005 23.5059H173.421L171.307 19.5278H166.875Z" fill="#131313"/>
<path d="M162.787 19.5278L164.917 23.5059H169.005L166.875 19.5278H162.787Z" fill="#131313"/>
<path d="M159.138 19.5278L161.268 23.5059H164.917L162.787 19.5278H159.138Z" fill="#131313"/>
<path d="M155.802 19.5278L157.932 23.5059H161.268L159.138 19.5278H155.802Z" fill="#131313"/>
<path d="M176.068 19.5278V23.5059H173.437L171.307 19.5278H176.068Z" fill="#131313"/>
<path d="M166.875 19.5278L169.005 23.5059H173.421L171.307 19.5278H166.875Z" fill="#131313"/>
<path d="M162.787 19.5278L164.917 23.5059H169.005L166.875 19.5278H162.787Z" fill="#131313"/>
<path d="M159.138 19.5278L161.268 23.5059H164.917L162.787 19.5278H159.138Z" fill="#131313"/>
<path d="M155.802 27.5466L157.932 31.5247H161.268L159.138 27.5466H155.802Z" fill="#131313"/>
<path d="M176.068 27.5466V31.5247H173.437L171.307 27.5466H176.068Z" fill="#131313"/>
<path d="M166.875 27.5466L169.005 31.5247H173.421L171.291 27.5466H166.875Z" fill="#131313"/>
<path d="M162.787 27.5466L164.917 31.5247H169.005L166.875 27.5466H162.787Z" fill="#131313"/>
<path d="M159.138 27.5466L161.268 31.5247H164.917L162.787 27.5466H159.138Z" fill="#131313"/>
<path d="M155.802 35.5498L157.932 39.5279H161.268L159.138 35.5498H155.802Z" fill="#131313"/>
<path d="M176.068 35.5498V39.5279H173.437L171.307 35.5498H176.068Z" fill="#131313"/>
<path d="M166.875 35.5498L169.005 39.5279H173.421L171.291 35.5498H166.875Z" fill="#131313"/>
<path d="M162.787 35.5498L164.917 39.5279H169.005L166.875 35.5498H162.787Z" fill="#131313"/>
<path d="M159.138 35.5498L161.268 39.5279H164.917L162.787 35.5498H159.138Z" fill="#131313"/>
<path d="M57.9319 19.5278H64.8074L72.4346 33.0126L80.0619 19.5278H84.823V39.5278H80.0619V27.6406L73.296 39.5278H71.5262L64.8074 27.6406V39.5278H60.0462V23.1613L57.9319 19.5278ZM94.3453 19.5278H101.894L111.417 39.5278H106.374L104.995 36.6617H93.9538L92.5756 39.5278H87.5325L95.8489 22.0964L94.3453 19.5278ZM95.8645 32.6837H103.069L99.4667 25.166L95.8645 32.6837ZM105.293 19.5278L107.188 23.5059H114.189V39.5278H118.95V23.5059H127.564V19.5278H105.293ZM152.779 19.5278H130.493V23.5059H139.106V39.5278H143.868V23.5059H154.909L152.779 19.5278Z" fill="#131313"/>
</g>
<defs>
<clipPath id="clip0_154_141">
<rect width="118.136" height="20" fill="white" transform="translate(57.9319 19.5278)"/>
</clipPath>
</defs>
</svg>
