<svg width="119" height="20" viewBox="0 0 119 20" fill="none" xmlns="http://www.w3.org/2000/svg">
<g clip-path="url(#clip0_242_211)">
<path d="M98.3019 0L100.432 3.97807H103.768L101.638 0H98.3019Z" fill="#131313"/>
<path d="M118.568 0V3.97807H115.937L113.807 0H118.568Z" fill="#131313"/>
<path d="M109.375 0L111.505 3.97807H115.921L113.807 0H109.375Z" fill="#131313"/>
<path d="M105.287 0L107.417 3.97807H111.505L109.375 0H105.287Z" fill="#131313"/>
<path d="M101.638 0L103.768 3.97807H107.417L105.287 0H101.638Z" fill="#131313"/>
<path d="M98.3019 0L100.432 3.97807H103.768L101.638 0H98.3019Z" fill="#131313"/>
<path d="M118.568 0V3.97807H115.937L113.807 0H118.568Z" fill="#131313"/>
<path d="M109.375 0L111.505 3.97807H115.921L113.807 0H109.375Z" fill="#131313"/>
<path d="M105.287 0L107.417 3.97807H111.505L109.375 0H105.287Z" fill="#131313"/>
<path d="M101.638 0L103.768 3.97807H107.417L105.287 0H101.638Z" fill="#131313"/>
<path d="M98.3019 8.0188L100.432 11.9969H103.768L101.638 8.0188H98.3019Z" fill="#131313"/>
<path d="M118.568 8.0188V11.9969H115.937L113.807 8.0188H118.568Z" fill="#131313"/>
<path d="M109.375 8.0188L111.505 11.9969H115.921L113.791 8.0188H109.375Z" fill="#131313"/>
<path d="M105.287 8.0188L107.417 11.9969H111.505L109.375 8.0188H105.287Z" fill="#131313"/>
<path d="M101.638 8.0188L103.768 11.9969H107.417L105.287 8.0188H101.638Z" fill="#131313"/>
<path d="M98.3019 16.022L100.432 20H103.768L101.638 16.022H98.3019Z" fill="#131313"/>
<path d="M118.568 16.022V20H115.937L113.807 16.022H118.568Z" fill="#131313"/>
<path d="M109.375 16.022L111.505 20H115.921L113.791 16.022H109.375Z" fill="#131313"/>
<path d="M105.287 16.022L107.417 20H111.505L109.375 16.022H105.287Z" fill="#131313"/>
<path d="M101.638 16.022L103.768 20H107.417L105.287 16.022H101.638Z" fill="#131313"/>
<path d="M0.431885 0H7.30737L14.9346 13.4847L22.5619 0H27.323V20H22.5619V8.11276L15.796 20H14.0262L7.30737 8.11276V20H2.54622V3.63352L0.431885 0ZM36.8454 0H44.3943L53.9166 20H48.8735L47.4953 17.1339H36.4538L35.0756 20H30.0325L38.3489 2.56852L36.8454 0ZM38.3645 13.1558H45.5689L41.9667 5.63821L38.3645 13.1558ZM47.7929 0L49.688 3.97807H56.6887V20H61.4499V3.97807H70.0638V0H47.7929ZM95.2792 0H72.9926V3.97807H81.6065V20H86.3677V3.97807H97.4092L95.2792 0Z" fill="#131313"/>
</g>
<defs>
<clipPath id="clip0_242_211">
<rect width="118.136" height="20" fill="white" transform="translate(0.431885)"/>
</clipPath>
</defs>
</svg>
