<svg width="142" height="20" viewBox="0 0 142 20" fill="none" xmlns="http://www.w3.org/2000/svg">
<path d="M60.875 5.75V14.75C60.875 15.3828 61.3672 15.875 62 15.875H71.6328L71.3516 17H62C60.7344 17 59.75 16.0156 59.75 14.75V5.75C59.75 4.51953 60.7344 3.5 62 3.5H77.75C78.9805 3.5 80 4.51953 80 5.75V8C79.6133 8 79.2266 8.07031 78.875 8.21094V5.75C78.875 5.15234 78.3477 4.625 77.75 4.625H62C61.3672 4.625 60.875 5.15234 60.875 5.75ZM72.6875 11.375C72.9688 11.375 73.25 11.6562 73.25 11.9375C73.25 12.2539 72.9688 12.5 72.6875 12.5H63.6875C63.3711 12.5 63.125 12.2539 63.125 11.9375C63.125 11.6562 63.3711 11.375 63.6875 11.375H72.6875ZM63.125 8.5625C63.125 8.28125 63.3711 8 63.6875 8H76.0625C76.3438 8 76.625 8.28125 76.625 8.5625C76.625 8.87891 76.3438 9.125 76.0625 9.125H63.6875C63.3711 9.125 63.125 8.87891 63.125 8.5625ZM78.6289 9.75781C79.2969 9.08984 80.3516 9.08984 81.0195 9.75781L81.6172 10.3555C82.2852 11.0234 82.2852 12.0781 81.6172 12.7461L76.2383 18.1602C75.9922 18.3711 75.7461 18.5117 75.4297 18.582L72.793 19.25C72.6172 19.2852 72.4062 19.25 72.2656 19.1094C72.125 18.9688 72.0898 18.7578 72.125 18.582L72.793 15.9453C72.8633 15.6289 73.0039 15.3828 73.2148 15.1719L78.6289 9.75781ZM80.2109 10.5312C80 10.3203 79.6484 10.3203 79.4375 10.5312L78.5586 11.4102L79.9648 12.8164L80.8438 11.9375C81.0547 11.7266 81.0547 11.375 80.8438 11.1641L80.2109 10.5312ZM73.8828 16.2266L73.4258 17.9492L75.1836 17.4922C75.2539 17.4922 75.3594 17.4219 75.4297 17.3516L79.1562 13.625L77.75 12.2188L74.0234 15.9453C73.9531 16.0156 73.8828 16.1211 73.8828 16.2266Z" fill="#131313"/>
</svg>
