<svg width="24" height="17" viewBox="0 0 24 17" fill="none" xmlns="http://www.w3.org/2000/svg">
<path d="M1.875 2.75V11.75C1.875 12.3828 2.36719 12.875 3 12.875H12.6328L12.3516 14H3C1.73438 14 0.75 13.0156 0.75 11.75V2.75C0.75 1.51953 1.73438 0.5 3 0.5H18.75C19.9805 0.5 21 1.51953 21 2.75V5C20.6133 5 20.2266 5.07031 19.875 5.21094V2.75C19.875 2.15234 19.3477 1.625 18.75 1.625H3C2.36719 1.625 1.875 2.15234 1.875 2.75ZM13.6875 8.375C13.9688 8.375 14.25 8.65625 14.25 8.9375C14.25 9.25391 13.9688 9.5 13.6875 9.5H4.6875C4.37109 9.5 4.125 9.25391 4.125 8.9375C4.125 8.65625 4.37109 8.375 4.6875 8.375H13.6875ZM4.125 5.5625C4.125 5.28125 4.37109 5 4.6875 5H17.0625C17.3438 5 17.625 5.28125 17.625 5.5625C17.625 5.87891 17.3438 6.125 17.0625 6.125H4.6875C4.37109 6.125 4.125 5.87891 4.125 5.5625ZM19.6289 6.75781C20.2969 6.08984 21.3516 6.08984 22.0195 6.75781L22.6172 7.35547C23.2852 8.02344 23.2852 9.07812 22.6172 9.74609L17.2383 15.1602C16.9922 15.3711 16.7461 15.5117 16.4297 15.582L13.793 16.25C13.6172 16.2852 13.4062 16.25 13.2656 16.1094C13.125 15.9688 13.0898 15.7578 13.125 15.582L13.793 12.9453C13.8633 12.6289 14.0039 12.3828 14.2148 12.1719L19.6289 6.75781ZM21.2109 7.53125C21 7.32031 20.6484 7.32031 20.4375 7.53125L19.5586 8.41016L20.9648 9.81641L21.8438 8.9375C22.0547 8.72656 22.0547 8.375 21.8438 8.16406L21.2109 7.53125ZM14.8828 13.2266L14.4258 14.9492L16.1836 14.4922C16.2539 14.4922 16.3594 14.4219 16.4297 14.3516L20.1562 10.625L18.75 9.21875L15.0234 12.9453C14.9531 13.0156 14.8828 13.1211 14.8828 13.2266Z" fill="#131313"/>
</svg>
