<svg width="234" height="53" viewBox="0 0 234 53" fill="none" xmlns="http://www.w3.org/2000/svg">
<path d="M71.7904 23.6667H66.812V37.0112H69.4469V32.6278H71.7904C74.3646 32.6278 76.3438 30.6486 76.3438 28.1473C76.3438 25.6459 74.3646 23.6667 71.7904 23.6667ZM71.7904 30.1751H69.4469V26.1316H71.7904C72.9197 26.1316 73.7332 26.9938 73.7332 28.1473C73.7332 29.3008 72.9075 30.1629 71.7904 30.1629V30.1751ZM80.6908 34.4978H85.7785V37.0112H78.0559V23.6667H80.6908V34.4978ZM91.1333 23.6667L86.4585 37.0112H89.2998L90.1012 34.6071H95.4196L96.221 37.0112H99.0866L94.3996 23.6667H91.1454H91.1333ZM90.9512 32.1543L92.7847 26.7023L94.6182 32.1543H90.9633H90.9512ZM98.4187 23.6667H108.23V26.1802H104.624V37.0112H101.989V26.1802H98.4066V23.6667H98.4187ZM109.699 23.6667H117.664V26.1802H112.334V29.3494H117.519V31.8629H112.334V37.0112H109.699V23.6667ZM125.897 23.3996C122.048 23.3996 118.976 26.4231 118.976 30.3329C118.976 34.2428 122.048 37.2662 125.897 37.2662C129.746 37.2662 132.83 34.2428 132.83 30.3329C132.83 26.4231 129.746 23.3996 125.897 23.3996ZM125.897 34.7042C123.481 34.7042 121.586 32.9071 121.586 30.3451C121.586 27.783 123.469 25.9617 125.897 25.9617C128.326 25.9617 130.208 27.7709 130.208 30.3451C130.208 32.9193 128.326 34.7042 125.897 34.7042ZM144.463 28.0987C144.463 25.6581 142.484 23.6789 140.019 23.6789H134.688V37.0234H137.323V32.3971H139.327L142.01 37.0234H144.851L141.901 31.9964C143.431 31.2922 144.475 29.7865 144.475 28.1109L144.463 28.0987ZM140.019 30.0779H137.311V26.1316H140.019C141.014 26.1316 141.828 26.9938 141.828 28.0987C141.828 29.2037 141.002 30.0779 140.019 30.0779ZM156.739 23.6667H159.447V37.0112H156.836V28.3537L153.084 34.5463H152.78L149.028 28.378V37.0112H146.393V23.6667H149.101L152.938 29.9808L156.751 23.6667H156.739ZM165.396 23.6667L160.721 37.0112H163.563L164.364 34.6071H169.683L170.484 37.0112H173.35L168.663 23.6667H165.408H165.396ZM165.214 32.1543L167.048 26.7023L168.881 32.1543H165.226H165.214ZM182.359 23.6667H184.994V37.0112H182.991L177.272 28.8516V37.0112H174.637V23.6667H176.64L182.359 31.8022V23.6667ZM189.475 30.3451C189.475 32.9193 191.187 34.7042 193.797 34.7042C196.408 34.7042 196.639 33.9756 197.27 32.8221L199.541 34.1335C198.412 36.0399 196.262 37.2784 193.81 37.2784C189.766 37.2784 186.876 34.2306 186.876 30.3451C186.876 26.4352 189.778 23.3996 193.81 23.3996C197.841 23.3996 198.399 24.6381 199.541 26.5445L197.27 27.8559C196.627 26.6781 195.327 25.9495 193.797 25.9495C191.187 25.9495 189.475 27.7587 189.475 30.3329V30.3451ZM209.4 34.4978V37.0112H201.144V23.6667H209.303V26.1802H203.778V29.0215H208.83V31.4986H203.778V34.4856H209.4V34.4978ZM50.3226 13.8921H49.3512V13.5278H51.719V13.8921H50.7233V16.3813H50.3105V13.8921H50.3226ZM52.4961 16.3813H52.0833V13.54H52.4718L53.419 14.7056L54.3539 13.54H54.7303V16.3813H54.3175V14.1714L53.4432 15.2763H53.3704L52.484 14.1714V16.3813H52.4961ZM40.3659 19.8662H54.791V28.6573H54.7789V33.6964H54.791V42.4753H39.8316C35.946 42.4753 33.1047 45.5717 33.1047 49.5908C33.1047 53.6099 33.1047 50.0886 33.1411 50.3315H24.605C24.5929 50.0886 24.605 45.6324 24.605 45.5474L30.5305 39.1969L30.6155 45.3045H33.6875V35.0199C33.8818 34.9349 34.0882 34.862 34.2825 34.7892C35.7275 34.2549 37.2817 33.9271 38.9209 33.8421C39.0302 33.8299 39.1395 33.8299 39.2488 33.8299C39.443 33.8299 39.6373 33.8299 39.8437 33.8299H45.6478V28.5359H40.3659C36.8324 28.5359 34.1732 31.0736 33.7118 34.5585C33.6875 34.7042 33.6754 34.862 33.6632 35.0077H31.3076L31.2712 34.9713L31.2348 35.0077H24.6171C24.6171 34.8499 24.6171 34.7042 24.6414 34.5585C24.7386 33.1378 25.0057 31.7779 25.4428 30.4908C25.7464 29.5801 26.1228 28.7058 26.5842 27.8923C27.0942 26.9573 27.7135 26.0831 28.3934 25.2938C29.3163 24.2253 30.3848 23.2782 31.5626 22.4889C33.8211 20.9833 36.5167 20.0605 39.4552 19.9026C39.5645 19.9026 39.6737 19.9026 39.783 19.8904C39.9773 19.8904 40.1716 19.8904 40.378 19.8904L40.3659 19.8662ZM33.6875 34.9956V35.0199C33.6875 35.0199 33.6754 35.0199 33.6632 35.0199C33.6632 35.0078 33.6632 34.9956 33.6632 34.9835H33.6875V34.9956Z" fill="#131313"/>
</svg>
