<svg width="186" height="38" viewBox="0 0 186 38" fill="none" xmlns="http://www.w3.org/2000/svg">
<path d="M47.6227 10.1389H42.6443V23.4834H45.2792V19.1H47.6227C50.1969 19.1 52.1761 17.1208 52.1761 14.6195C52.1761 12.1181 50.1969 10.1389 47.6227 10.1389ZM47.6227 16.6472H45.2792V12.6038H47.6227C48.7519 12.6038 49.5655 13.4659 49.5655 14.6195C49.5655 15.773 48.7398 16.6351 47.6227 16.6351V16.6472ZM56.5231 20.9699H61.6108V23.4834H53.8882V10.1389H56.5231V20.9699ZM66.9656 10.1389L62.2907 23.4834H65.1321L65.9335 21.0792H71.2518L72.0532 23.4834H74.9188L70.2319 10.1389H66.9777H66.9656ZM66.7834 18.6264L68.6169 13.1745L70.4504 18.6264H66.7956H66.7834ZM74.251 10.1389H84.0621V12.6524H80.4558V23.4834H77.8209V12.6524H74.2389V10.1389H74.251ZM85.5313 10.1389H93.4967V12.6524H88.1662V15.8216H93.351V18.335H88.1662V23.4834H85.5313V10.1389ZM101.729 9.87177C97.8802 9.87177 94.8081 12.8952 94.8081 16.8051C94.8081 20.7149 97.8802 23.7384 101.729 23.7384C105.578 23.7384 108.663 20.7149 108.663 16.8051C108.663 12.8952 105.578 9.87177 101.729 9.87177ZM101.729 21.1764C99.313 21.1764 97.4187 19.3793 97.4187 16.8172C97.4187 14.2552 99.3008 12.4338 101.729 12.4338C104.158 12.4338 106.04 14.243 106.04 16.8172C106.04 19.3914 104.158 21.1764 101.729 21.1764ZM120.295 14.5709C120.295 12.1303 118.316 10.1511 115.851 10.1511H110.52V23.4956H113.155V18.8693H115.159L117.842 23.4956H120.684L117.733 18.4686C119.263 17.7643 120.307 16.2587 120.307 14.583L120.295 14.5709ZM115.851 16.5501H113.143V12.6038H115.851C116.847 12.6038 117.66 13.4659 117.66 14.5709C117.66 15.6759 116.834 16.5501 115.851 16.5501ZM132.571 10.1389H135.279V23.4834H132.668V14.8259L128.916 21.0185H128.613L124.861 14.8502V23.4834H122.226V10.1389H124.933L128.77 16.453L132.583 10.1389H132.571ZM141.229 10.1389L136.554 23.4834H139.395L140.196 21.0792H145.515L146.316 23.4834H149.182L144.495 10.1389H141.241H141.229ZM141.046 18.6264L142.88 13.1745L144.713 18.6264H141.059H141.046ZM158.192 10.1389H160.826V23.4834H158.823L153.104 15.3237V23.4834H150.469V10.1389H152.472L158.192 18.2743V10.1389ZM165.307 16.8172C165.307 19.3914 167.019 21.1764 169.63 21.1764C172.24 21.1764 172.471 20.4478 173.102 19.2943L175.373 20.6057C174.244 22.512 172.095 23.7506 169.642 23.7506C165.598 23.7506 162.708 20.7028 162.708 16.8172C162.708 12.9074 165.611 9.87177 169.642 9.87177C173.673 9.87177 174.232 11.1103 175.373 13.0167L173.102 14.328C172.459 13.1502 171.16 12.4217 169.63 12.4217C167.019 12.4217 165.307 14.2309 165.307 16.8051V16.8172ZM185.233 20.9699V23.4834H176.976V10.1389H185.136V12.6524H179.611V15.4937H184.662V17.9708H179.611V20.9578H185.233V20.9699ZM26.1549 0.364272H25.1835V0H27.5513V0.364272H26.5556V2.85347H26.1428V0.364272H26.1549ZM28.3284 2.85347H27.9156V0.0121394H28.3041L29.2512 1.17781L30.1862 0.0121394H30.5626V2.85347H30.1498V0.643539L29.2755 1.7485H29.2027L28.3163 0.643539V2.85347H28.3284ZM16.1981 6.33833H30.6233V15.1294H30.6112V20.1685H30.6233V28.9475H15.6639C11.7783 28.9475 8.93697 32.0438 8.93697 36.063C8.93697 40.0821 8.93697 36.5608 8.9734 36.8036H0.437281C0.425139 36.5608 0.437281 32.1045 0.437281 32.0195L6.36278 25.669L6.44778 31.7767H9.5198V21.4921C9.71408 21.4071 9.9205 21.3342 10.1148 21.2614C11.5597 20.7271 13.114 20.3992 14.7532 20.3142C14.8625 20.3021 14.9718 20.3021 15.081 20.3021C15.2753 20.3021 15.4696 20.3021 15.676 20.3021H21.4801V15.008H16.1981C12.6647 15.008 10.0055 17.5458 9.54409 21.0307C9.51981 21.1764 9.50766 21.3342 9.49552 21.4799H7.13989L7.10347 21.4435L7.06704 21.4799H0.449423C0.449423 21.3221 0.449422 21.1764 0.473707 21.0307C0.570846 19.61 0.83798 18.25 1.27511 16.9629C1.57867 16.0523 1.95508 15.178 2.41649 14.3645C2.92647 13.4295 3.54574 12.5552 4.22571 11.766C5.14854 10.6975 6.21707 9.75035 7.39488 8.96109C9.65337 7.45543 12.349 6.53262 15.2875 6.37477C15.3967 6.37477 15.506 6.37475 15.6153 6.36261C15.8096 6.36261 16.0039 6.36261 16.2103 6.36261L16.1981 6.33833ZM9.5198 21.4678V21.4921C9.5198 21.4921 9.50766 21.4921 9.49552 21.4921C9.49552 21.4799 9.49552 21.4678 9.49552 21.4556H9.5198V21.4678Z" fill="#131313"/>
</svg>
