<svg width="157" height="137" viewBox="0 0 157 137" fill="none" xmlns="http://www.w3.org/2000/svg">
<g clip-path="url(#clip0_240_15)">
<path d="M2.94639 124.146V122.818H12.2131V124.146H8.32785V135.174H6.83166V124.146H2.94639ZM13.5856 135.174H12.017L16.5539 122.818H18.0983L22.6352 135.174H21.0666L17.3744 124.773H17.2779L13.5856 135.174ZM14.1648 130.348H20.4874V131.675H14.1648V130.348ZM24.5597 135.174V122.818H28.7346C29.6999 122.818 30.4922 122.983 31.1116 123.313C31.731 123.639 32.1895 124.087 32.4871 124.658C32.7848 125.23 32.9336 125.879 32.9336 126.607C32.9336 127.335 32.7848 127.981 32.4871 128.544C32.1895 129.107 31.733 129.549 31.1176 129.871C30.5023 130.189 29.716 130.348 28.7587 130.348H25.3802V128.996H28.7105C29.3701 128.996 29.901 128.9 30.3032 128.707C30.7094 128.514 31.003 128.24 31.184 127.886C31.369 127.528 31.4615 127.102 31.4615 126.607C31.4615 126.112 31.369 125.68 31.184 125.31C30.999 124.94 30.7034 124.654 30.2971 124.453C29.8909 124.248 29.354 124.146 28.6863 124.146H26.0559V135.174H24.5597ZM30.3756 129.624L33.4162 135.174H31.6787L28.6863 129.624H30.3756ZM36.9229 122.818V135.174H35.4267V122.818H36.9229ZM44.4114 131.313H46.0524L47.4279 133.123L47.7899 133.605L49.8411 136.332H48.2002L46.8488 134.522L46.5109 134.064L44.4114 131.313ZM50.3479 128.996C50.3479 130.299 50.1126 131.425 49.6421 132.375C49.1715 133.324 48.5259 134.056 47.7055 134.571C46.885 135.085 45.9478 135.343 44.8941 135.343C43.8403 135.343 42.9032 135.085 42.0827 134.571C41.2622 134.056 40.6166 133.324 40.1461 132.375C39.6755 131.425 39.4402 130.299 39.4402 128.996C39.4402 127.693 39.6755 126.567 40.1461 125.618C40.6166 124.668 41.2622 123.936 42.0827 123.422C42.9032 122.907 43.8403 122.649 44.8941 122.649C45.9478 122.649 46.885 122.907 47.7055 123.422C48.5259 123.936 49.1715 124.668 49.6421 125.618C50.1126 126.567 50.3479 127.693 50.3479 128.996ZM48.9 128.996C48.9 127.926 48.721 127.023 48.3631 126.287C48.0091 125.551 47.5285 124.994 46.9212 124.616C46.3179 124.238 45.6422 124.049 44.8941 124.049C44.146 124.049 43.4683 124.238 42.8609 124.616C42.2576 124.994 41.777 125.551 41.419 126.287C41.0651 127.023 40.8881 127.926 40.8881 128.996C40.8881 130.066 41.0651 130.969 41.419 131.705C41.777 132.441 42.2576 132.998 42.8609 133.376C43.4683 133.754 44.146 133.943 44.8941 133.943C45.6422 133.943 46.3179 133.754 46.9212 133.376C47.5285 132.998 48.0091 132.441 48.3631 131.705C48.721 130.969 48.9 130.066 48.9 128.996ZM58.1486 135.174H56.58L61.1169 122.818H62.6613L67.1982 135.174H65.6296L61.9374 124.773H61.8408L58.1486 135.174ZM58.7278 130.348H65.0504V131.675H58.7278V130.348ZM69.1227 135.174V122.818H70.6189V133.847H76.3624V135.174H69.1227ZM83.4572 135.174V122.818H90.8658V124.146H84.9534V128.32H90.3107V129.648H84.9534V135.174H83.4572ZM101.537 122.818H103.033V130.999C103.033 131.844 102.834 132.598 102.436 133.262C102.041 133.921 101.484 134.442 100.764 134.824C100.045 135.202 99.1999 135.391 98.2306 135.391C97.2613 135.391 96.4167 135.202 95.6967 134.824C94.9768 134.442 94.4177 133.921 94.0195 133.262C93.6254 132.598 93.4283 131.844 93.4283 130.999V122.818H94.9245V130.878C94.9245 131.482 95.0572 132.019 95.3227 132.489C95.5881 132.956 95.9662 133.324 96.4569 133.593C96.9516 133.859 97.5428 133.992 98.2306 133.992C98.9184 133.992 99.5096 133.859 100.004 133.593C100.499 133.324 100.877 132.956 101.139 132.489C101.404 132.019 101.537 131.482 101.537 130.878V122.818ZM105.345 124.146V122.818H114.612V124.146H110.727V135.174H109.23V124.146H105.345ZM116.245 124.146V122.818H125.512V124.146H121.627V135.174H120.131V124.146H116.245ZM126.884 135.174H125.316L129.853 122.818H131.397L135.934 135.174H134.365L130.673 124.773H130.577L126.884 135.174ZM127.464 130.348H133.786V131.675H127.464V130.348ZM139.355 122.818V135.174H137.859V122.818H139.355ZM142.355 122.818H144.14L148.339 133.074H148.484L152.683 122.818H154.469V135.174H153.069V125.787H152.949L149.088 135.174H147.736L143.875 125.787H143.754V135.174H142.355V122.818Z" fill="white"/>
<path d="M124.785 67.8924C123.493 66.8672 122.249 65.8815 121.007 64.8917C119.488 63.6809 117.971 62.4702 116.456 61.2574C114.514 59.6987 112.559 58.1545 110.638 56.5687C108.885 55.1246 106.96 54.2056 104.632 54.3327C104.209 54.3557 103.778 54.3807 103.361 54.3265C102.227 54.1785 101.573 54.9391 100.871 55.6018C100.775 55.6914 100.735 56.0207 100.785 56.0498C100.962 56.1582 101.192 56.2457 101.394 56.2332C102.969 56.1332 104.432 56.5687 105.741 57.3648C106.905 58.0712 107.964 58.9568 109.039 59.8008C110.961 61.3053 112.863 62.8328 114.766 64.3603C116.397 65.671 118.017 66.9985 119.646 68.3113C120.769 69.2157 121.899 70.118 123.037 71.0036C123.545 71.3996 123.483 71.7663 123.003 72.2456C122.297 71.6934 121.59 71.1537 120.899 70.5973C117.542 67.8945 114.195 65.1813 110.834 62.4848C109.241 61.2074 107.656 59.9133 106.007 58.713C104.807 57.8378 103.436 57.296 101.913 57.271C101.139 57.2585 100.36 57.3252 99.5932 57.2543C98.4846 57.1543 97.8282 57.8732 97.1905 58.5421C96.7821 58.9714 97.2759 59.0152 97.601 59.0798C98.8368 59.3277 100.122 59.4486 101.283 59.8946C102.304 60.2863 103.242 60.9719 104.115 61.6575C107.385 64.229 110.606 66.8609 113.855 69.4595C116.17 71.31 118.492 73.15 120.822 74.9838C121.305 75.3631 121.584 75.7236 120.888 76.3258C120.188 75.7944 119.457 75.261 118.75 74.6962C115.526 72.1102 112.319 69.5033 109.091 66.9234C106.874 65.1521 104.649 63.3913 102.398 61.6617C100.969 60.5614 99.3244 60.0571 97.5135 60.1071C97.1155 60.1175 96.705 60.1655 96.3174 60.0988C95.2046 59.9071 94.4919 60.5822 93.7667 61.2261C93.6396 61.3408 93.5167 61.5929 93.5583 61.7263C93.5979 61.8471 93.8647 61.9638 94.0335 61.9659C96.9446 62.018 99.2327 63.3996 101.375 65.2251C103.592 67.1131 105.916 68.876 108.187 70.6973C109.858 72.0372 111.521 73.3876 113.188 74.7296C114.972 76.1654 116.754 77.6032 118.544 79.0307C118.848 79.2724 119.084 79.4787 118.779 79.8809C118.446 80.3247 118.181 80.0372 117.908 79.8204C113.276 76.1195 108.648 72.4165 104.015 68.7155C102.323 67.3631 100.635 66.0024 98.9305 64.6645C97.6635 63.6684 96.2361 63.0766 94.6003 63.0662C93.9522 63.062 93.2916 63.1204 92.656 63.0266C91.5745 62.8661 90.8681 63.4934 90.1429 64.0956C89.9991 64.2144 89.9116 64.4874 89.9303 64.677C89.9407 64.7833 90.2262 64.9479 90.3804 64.9396C93.5167 64.7729 95.7818 66.5171 98.0261 68.3509C100.416 70.3035 102.846 72.2123 105.257 74.1419C107.61 76.0257 109.958 77.9137 112.311 79.7975C113.457 80.7165 114.614 81.623 115.758 82.5461C116.033 82.767 116.439 82.9546 116.091 83.4401C115.739 83.9298 115.416 83.6027 115.149 83.3943C113.641 82.2106 112.153 81.002 110.654 79.8038C108.283 77.9054 105.911 76.0112 103.54 74.1148C101.577 72.5415 99.6349 70.9411 97.6469 69.4011C96.2569 68.3279 95.0358 66.9797 93.2833 66.4566C92.5289 66.2316 91.7454 66.067 90.9639 65.9753C90.2742 65.894 89.5511 66.0545 88.8738 65.9315C87.7319 65.7252 87.165 66.5733 86.4211 67.1026C86.3232 67.1714 86.2669 67.4777 86.3336 67.5611C86.4378 67.6903 86.6566 67.7611 86.8379 67.7903C87.7444 67.9404 88.7175 67.9133 89.5469 68.2467C90.7326 68.7218 91.9079 69.3344 92.9228 70.1055C95.4567 72.0351 97.8928 74.094 100.381 76.0862C102.559 77.8304 104.755 79.5495 106.939 81.2854C108.887 82.8337 110.836 84.3841 112.772 85.9491C113.009 86.1408 113.424 86.3325 113.065 86.7868C112.722 87.2202 112.413 87.0056 112.111 86.7639C110.144 85.1947 108.181 83.6193 106.214 82.0481C103.88 80.183 101.542 78.3201 99.2077 76.4529C96.8342 74.5545 94.4523 72.6665 92.0934 70.7494C90.5471 69.4907 88.8071 68.8072 86.8087 68.8052C86.5086 68.8052 86.2065 68.8302 85.9106 68.7926C84.7374 68.6405 83.7454 68.9698 82.9702 69.8763C82.8244 70.0471 82.741 70.2722 82.6285 70.4722C82.8306 70.5389 83.0327 70.6598 83.2349 70.6619C84.9812 70.6681 86.6045 71.162 88.0403 72.1039C89.3052 72.9354 90.4638 73.9294 91.6537 74.8713C94.0543 76.7738 96.4466 78.6847 98.8388 80.5998C101.229 82.5149 103.611 84.4425 106.001 86.3596C107.031 87.1848 108.072 87.9954 109.104 88.8186C109.389 89.0457 109.654 89.2999 109.915 89.5292C109.521 90.371 109.05 90.1272 108.579 89.7501C107.12 88.5831 105.668 87.4078 104.211 86.2387C101.84 84.3403 99.464 82.4503 97.0926 80.5519C95.1296 78.9807 93.1978 77.3677 91.2015 75.8382C89.6261 74.6316 88.0403 73.4167 86.3398 72.4061C84.6915 71.4287 82.7556 71.5371 80.9343 71.7496C80.2133 71.8351 79.5006 72.5207 78.9192 73.075C78.5962 73.3834 79.0317 73.5043 79.3547 73.5605C80.5467 73.7731 81.7803 73.8898 82.9077 74.2899C83.8913 74.64 84.8353 75.2255 85.6626 75.8778C88.9134 78.4326 92.1017 81.0645 95.3296 83.6464C98.8305 86.445 102.35 89.2207 105.864 92.0006C106.018 92.1236 106.205 92.2028 106.376 92.3007C105.895 92.9363 105.482 93.1342 105.007 92.6675C104.447 92.1132 103.801 91.9798 103.034 91.9923C101.285 92.0235 99.5098 91.9277 97.9449 92.8717C96.9696 93.4593 96.0611 94.1678 95.165 94.8743C92.8769 96.6789 90.643 98.5523 88.3216 100.311C87.7485 100.745 86.9275 100.853 86.219 101.109C86.1773 101.026 86.1335 100.942 86.0919 100.859C86.5107 100.501 86.9171 100.132 87.3463 99.788C90.2075 97.5041 93.0645 95.2181 95.9402 92.9529C97.4239 91.786 99.0889 91.0525 101.016 91.0254C101.239 91.0212 101.471 91.015 101.685 90.9608C101.835 90.9233 102.069 90.8212 102.083 90.7211C102.106 90.5607 102.029 90.3273 101.908 90.2127C101.137 89.475 100.304 89.0415 99.1327 89.0665C97.178 89.1103 95.2754 89.2395 93.6188 90.3669C92.5518 91.0941 91.5724 91.9506 90.5576 92.755C88.1382 94.6721 85.7168 96.5851 83.3057 98.5106C82.2346 99.365 81.1781 100.24 80.1237 101.115C79.4339 101.688 78.7087 102.112 77.6376 101.78C78.6775 100.938 79.6506 100.146 80.628 99.3608C82.9973 97.4583 85.3333 95.5119 87.7506 93.6719C89.9032 92.0319 91.8308 90.0793 94.3064 88.8665C95.4171 88.3226 96.5695 88.1476 97.7782 88.1267C98.0449 88.1226 98.3116 87.9642 98.5763 87.8787C98.4116 87.6245 98.2824 87.3411 98.0782 87.1244C97.3405 86.3409 96.4111 86.2033 95.363 86.2054C93.4375 86.2117 91.5516 86.3367 89.9366 87.487C88.6217 88.4247 87.3901 89.4833 86.1252 90.4919C83.6517 92.4632 81.176 94.4304 78.7066 96.408C76.8208 97.9188 74.9349 99.4254 73.074 100.963C72.4592 101.472 71.8612 101.826 70.9026 101.403C71.757 100.697 72.5405 100.034 73.3386 99.3921C75.2974 97.8188 77.2646 96.2517 79.2318 94.6867C81.647 92.7633 84.0518 90.8253 86.4878 88.9269C87.7214 87.9663 88.9718 87.016 90.2846 86.17C91.487 85.3969 92.9019 85.2614 94.3023 85.151C94.5273 85.1322 94.744 85.0072 94.9649 84.9322C94.8399 84.7342 94.744 84.505 94.5815 84.3445C93.848 83.6256 93.027 83.3088 91.9329 83.2505C88.8467 83.09 86.4128 84.3091 84.1455 86.2513C81.7824 88.2747 79.2818 90.1335 76.852 92.0756C74.9661 93.5844 73.0969 95.1139 71.2172 96.633C69.7252 97.8375 68.2248 99.0295 66.739 100.242C66.2451 100.647 65.7429 100.78 65.0448 100.394C65.3533 100.086 65.6117 99.7693 65.9242 99.5213C69.621 96.5685 73.3303 93.6302 77.0271 90.6774C79.734 88.5164 82.3972 86.2992 85.1416 84.1903C86.6878 83.0025 88.48 82.3252 90.4742 82.2752C90.741 82.269 91.0056 82.121 91.2703 82.0377C91.1181 81.8001 90.9889 81.5438 90.8097 81.3312C90.1866 80.5956 89.4031 80.3768 88.4258 80.3768C86.5545 80.3768 84.7019 80.4352 83.0869 81.473C81.897 82.2377 80.8093 83.163 79.6965 84.0444C77.2167 86.0074 74.7473 87.9829 72.2779 89.9605C69.9648 91.8131 67.658 93.674 65.347 95.5307C63.9487 96.6539 62.5442 97.7688 61.1543 98.9024C60.6687 99.3004 60.252 99.1733 59.681 98.7669C60.4083 98.1688 61.0813 97.6041 61.7669 97.0561C63.7112 95.4994 65.6596 93.949 67.6059 92.3966C70.019 90.4711 72.4342 88.5497 74.8473 86.6222C76.6957 85.1468 78.5754 83.7068 80.3779 82.1773C82.3388 80.5144 84.4685 79.3599 87.115 79.3849C87.3026 79.3849 87.4943 79.2349 87.6818 79.1557C87.5777 78.9536 87.5214 78.7014 87.3651 78.5576C85.3688 76.7426 83.0828 77.449 80.8843 77.9366C79.1255 78.3263 77.9085 79.7058 76.5436 80.7707C73.6366 83.0358 70.7734 85.3594 67.8935 87.6599C66.4931 88.779 65.0928 89.9001 63.6966 91.0254C61.2543 92.9925 58.812 94.9618 56.3739 96.9352C55.9134 97.3061 55.4841 97.3249 54.9506 96.781C55.3049 96.4705 55.6362 96.1558 55.9925 95.8724C58.3452 93.9886 60.7 92.109 63.0589 90.2335C65.9055 87.9704 68.7604 85.7219 71.6007 83.4526C73.5262 81.9127 75.4308 80.3456 77.35 78.7994C79.1047 77.3844 81.051 76.4717 83.362 76.5238C83.5766 76.5279 83.7934 76.4904 84.008 76.4717C84.0518 76.405 84.0955 76.3362 84.1393 76.2695C83.883 76.0257 83.6662 75.7111 83.3662 75.5485C80.5696 74.019 77.0625 74.4733 74.5598 76.5384C71.6778 78.914 68.7229 81.202 65.8096 83.5381C63.0318 85.7657 60.2645 88.0059 57.4888 90.2377C55.6841 91.688 53.8774 93.1363 52.0624 94.5742C51.3685 95.1243 50.6725 94.9264 49.8327 93.9157C50.1265 93.8928 50.364 93.8407 50.5974 93.8615C51.6164 93.9532 52.1707 93.1634 52.8042 92.6195C53.1647 92.309 52.8251 92.0631 52.3791 91.9839C51.1642 91.7693 49.916 91.6172 48.7615 91.2088C47.8446 90.8858 46.9882 90.3023 46.2109 89.698C44.1458 88.0934 42.1432 86.4096 40.1052 84.7675C39.2154 84.0507 38.3089 83.3526 37.3982 82.6628C36.1854 81.7459 35.3477 80.531 34.6559 79.1661C35.2769 79.6433 35.9062 80.108 36.5189 80.5977C40.1302 83.4922 43.7311 86.4034 47.3508 89.2874C48.7365 90.3919 50.3515 90.9274 52.1228 90.9754C52.5709 90.9879 53.0293 90.9233 53.469 90.99C54.663 91.1671 55.5362 90.6149 56.3093 89.8167C56.4322 89.6896 56.476 89.4875 56.5552 89.3187C56.3822 89.2499 56.2093 89.1166 56.0363 89.1186C53.3044 89.1499 51.1267 87.9037 49.0887 86.2367C46.14 83.8235 43.1414 81.473 40.1719 79.089C37.3753 76.8447 34.5934 74.5795 31.7885 72.3436C30.8716 71.6142 29.8505 70.9974 29.5275 69.7575C29.4921 69.622 29.4712 69.4824 29.4087 69.1657C30.4569 69.9888 31.3738 70.6973 32.2782 71.4204C35.1581 73.7189 38.038 76.0174 40.9116 78.3221C43.3018 80.2372 45.6587 82.1961 48.0801 84.0715C49.6284 85.2718 51.0121 86.7097 52.8813 87.4682C54.5672 88.1517 56.3385 88.3059 58.091 88.0559C58.7953 87.9558 59.4789 87.3098 60.0477 86.7805C60.4749 86.3846 60.0019 86.295 59.6643 86.2367C58.614 86.0554 57.545 85.9345 56.5198 85.6553C54.8381 85.201 53.5836 84.0028 52.2604 82.9587C49.3867 80.6894 46.5318 78.3951 43.6769 76.1028C41.2096 74.1232 38.7569 72.1206 36.2855 70.1451C33.8348 68.1862 31.3717 66.2441 28.9044 64.3061C28.6544 64.1102 28.3439 63.981 28.0521 63.8456C27.5353 63.6038 27.304 63.2183 27.4103 62.489C27.8917 62.6849 28.3855 62.787 28.7627 63.0537C30.1631 64.0456 31.5509 65.0605 32.8992 66.1232C35.7374 68.3571 38.5485 70.6244 41.368 72.8812C44.1687 75.1234 46.959 77.3823 49.766 79.6141C51.6164 81.0874 53.4732 82.5545 55.3632 83.9736C56.3822 84.7384 57.595 85.0593 58.862 85.1322C59.5351 85.1697 60.2186 85.0822 60.8813 85.1801C61.9795 85.3406 62.7338 84.7634 63.4694 84.1215C63.6132 83.9965 63.7362 83.7173 63.6945 83.5526C63.6632 83.4318 63.3507 83.3068 63.1652 83.3088C60.5416 83.3338 58.4348 82.171 56.4885 80.5394C54.5797 78.9411 52.6021 77.4282 50.6579 75.8736C48.7511 74.3482 46.8506 72.8166 44.9439 71.2912C42.5537 69.3782 40.1594 67.4694 37.765 65.5606C36.3626 64.4415 34.9372 63.3538 33.5639 62.2014C31.8698 60.7802 29.9755 59.9967 27.7395 60.0946C27.3394 60.1113 26.7935 60.2446 26.7018 59.6487C26.6018 59.0047 26.1412 58.2983 26.881 57.7128C29.167 55.906 31.4322 54.0743 33.7369 52.2926C35.3394 51.0548 37.1857 50.438 39.2175 50.3755C39.4675 50.3671 39.7134 50.2379 39.9635 50.1629C39.7989 49.9483 39.6426 49.7253 39.4654 49.5232C38.1505 48.029 36.4209 48.4416 34.7851 48.5604C32.2636 48.7438 30.4736 50.3484 28.6377 51.8508C27.8 52.5364 26.9414 53.197 26.012 53.9326C25.8036 53.1783 25.8182 52.7386 26.4142 52.3072C27.7833 51.3153 29.0607 50.1963 30.4111 49.1752C31.9323 48.0249 33.6973 47.556 35.5832 47.4768C35.8083 47.4664 36.0292 47.3476 36.2521 47.2789C36.1063 47.0475 35.9937 46.785 35.8083 46.5933C34.3079 45.0554 32.4199 45.6055 30.6611 45.7535C29.0607 45.8889 27.6895 46.6912 26.4976 47.7727C26.3809 47.879 26.2142 47.929 25.9974 48.0436C25.9391 47.3351 26.0308 46.7766 26.5747 46.3849C28.0896 45.295 29.763 44.6532 31.6489 44.6261C31.8239 44.624 32.0094 44.6532 32.1698 44.6032C32.3386 44.5511 32.547 44.4531 32.6158 44.3135C32.6637 44.2177 32.5491 43.9655 32.4324 43.8738C31.5989 43.2216 30.8257 42.5172 29.5859 42.7069C28.6419 42.8527 27.6583 42.736 26.6768 42.736C26.5684 42.0796 26.8247 41.765 27.4686 41.7629C27.7437 41.7629 28.023 41.7879 28.2897 41.7441C28.5127 41.7066 28.719 41.5816 28.9336 41.4941C28.819 41.2648 28.7502 40.9877 28.5793 40.8147C28.3022 40.5313 27.9709 40.3 27.6416 40.0749C27.0477 39.6686 27.1936 39.2372 27.5728 38.6996C28.4439 39.381 29.2858 40.0312 30.1172 40.6959C33.1534 43.1216 36.2021 45.5326 39.2112 47.9936C40.424 48.9855 41.6743 49.8399 43.2289 50.1858C45.1648 50.6172 46.9924 50.3255 48.7199 49.3919C48.9491 49.2689 49.0783 48.9626 49.2554 48.7396C48.9991 48.65 48.7428 48.475 48.4886 48.4812C46.2734 48.5396 44.4 47.6602 42.7267 46.3328C39.057 43.4237 35.4248 40.4709 31.776 37.5368C30.8633 36.8033 29.9464 36.076 29.0336 35.3446C28.4564 34.882 28.4501 34.8361 28.9503 34.0213C29.615 34.536 30.2819 35.0341 30.932 35.553C33.4243 37.5389 35.9125 39.5311 38.4006 41.5232C40.1698 42.9382 41.9223 44.3781 43.7144 45.7639C45.1711 46.8892 46.8152 47.5518 48.697 47.4893C49.145 47.4747 49.6076 47.4122 50.0431 47.4914C51.1892 47.6998 51.9353 47.0705 52.6459 46.3453C52.7688 46.2203 52.8855 45.9744 52.8418 45.8368C52.8063 45.7201 52.5292 45.6097 52.3604 45.6159C49.7243 45.6972 47.6363 44.4886 45.6712 42.8944C42.0536 39.9603 38.3985 37.0721 34.758 34.1651C33.416 33.0919 32.0719 32.0187 30.7299 30.9455C30.6528 30.883 30.5215 30.8205 30.5132 30.7476C30.4798 30.46 30.4861 30.1703 30.4777 29.8807C30.7091 29.9099 31.0029 29.8557 31.1613 29.9786C32.9263 31.3602 34.6684 32.7689 36.4188 34.1672C38.9299 36.1698 41.4451 38.164 43.9541 40.1687C45.1398 41.119 46.2922 42.113 47.4946 43.0403C49.3138 44.4427 51.4456 44.6219 53.6565 44.6594C54.8652 44.6803 55.607 44.0676 56.3801 43.3674C56.4823 43.2737 56.4823 43.0674 56.5302 42.9132C56.326 42.8548 56.1238 42.7465 55.9196 42.7423C54.0754 42.711 52.3604 42.2109 50.8496 41.1773C49.6805 40.3771 48.6094 39.4373 47.4987 38.5516C45.1231 36.6616 42.7454 34.7715 40.3761 32.8731C38.3943 31.2852 36.4251 29.6806 34.4454 28.0886C33.864 27.6197 33.2785 27.1529 32.6741 26.7174C32.3136 26.4569 32.2594 26.1964 32.5158 25.8422C32.8138 25.4316 33.0742 25.6755 33.3285 25.8818C36.0667 28.0802 38.7986 30.285 41.5431 32.4772C44.7522 35.0424 47.953 37.6181 51.1934 40.1416C52.9022 41.4732 54.9256 41.7504 57.0512 41.792C58.2577 41.8171 59.0954 41.3315 59.881 40.5813C60.0332 40.4355 60.0644 40.1666 60.1519 39.9541C59.954 39.9062 59.7539 39.8165 59.556 39.8165C57.2033 39.8311 55.1986 38.9434 53.3961 37.4951C50.5808 35.232 47.7509 32.9856 44.9314 30.7267C42.1119 28.4678 39.2987 26.2048 36.4813 23.9417C35.9958 23.552 35.5269 23.1394 35.0289 22.7685C34.6788 22.508 34.6413 22.2079 34.9643 21.9849C35.1248 21.8724 35.5249 21.8995 35.6874 22.0266C37.5295 23.4749 39.3404 24.9586 41.17 26.4215C43.231 28.0698 45.3023 29.7077 47.3695 31.3498C49.7285 33.2253 52.0936 35.0924 54.4484 36.9742C55.9425 38.1703 57.6221 38.8121 59.5518 38.7642C60.0498 38.7517 60.5625 38.6975 61.048 38.7788C62.1129 38.9601 62.7734 38.287 63.4778 37.7118C63.6174 37.5972 63.6945 37.318 63.6716 37.1304C63.6591 37.0346 63.359 36.9054 63.1902 36.9096C60.4478 36.9554 58.3015 35.6759 56.2718 33.9817C53.5774 31.7332 50.785 29.6035 48.0447 27.4134C45.6524 25.5004 43.2747 23.5728 40.8866 21.6536C39.8968 20.8597 38.8986 20.0761 37.9046 19.2863C37.6421 19.078 37.2545 18.9258 37.5837 18.4674C37.888 18.0444 38.1734 18.1402 38.5173 18.4215C41.2659 20.6471 44.0166 22.8685 46.7777 25.0795C49.5388 27.2884 52.3083 29.4868 55.0798 31.6832C56.3864 32.7168 57.6617 33.8004 59.0329 34.7423C61.0292 36.1177 63.3527 36.0197 65.6137 35.8239C66.2222 35.7718 66.8703 35.1195 67.3142 34.586C67.6872 34.1401 67.1662 34.0276 66.8036 34.038C65.5054 34.0693 64.2551 33.8234 63.1214 33.217C62.117 32.6814 61.1314 32.0729 60.2415 31.3665C54.8589 27.0862 49.5076 22.7664 44.1416 18.4653C43.0726 17.6088 41.9848 16.7753 40.9158 15.9188C40.6637 15.7167 40.2573 15.5396 40.6387 15.0978C40.97 14.7123 41.2617 14.8269 41.5993 15.0978C44.8522 17.7276 48.1093 20.3554 51.3726 22.9727C53.5482 24.7169 55.73 26.4486 57.9222 28.1698C59.5268 29.4306 61.1188 30.7101 62.7797 31.8937C63.8279 32.6418 65.0678 32.9752 66.3743 32.9794C66.9724 32.9815 67.583 32.9169 68.1686 33.0023C69.3438 33.1753 70.092 32.4918 70.8422 31.7895C70.9484 31.6916 71.0068 31.4894 70.9943 31.3415C70.988 31.2748 70.7567 31.1748 70.6275 31.1769C67.4538 31.2248 65.0886 29.5535 62.7984 27.6197C60.5354 25.7088 58.1744 23.9146 55.8613 22.0641C53.8983 20.495 51.9415 18.9133 49.9785 17.3442C48.0926 15.8355 46.2026 14.333 44.3167 12.8264C44.1291 12.6763 43.952 12.5117 43.7749 12.3575C44.3271 11.599 44.4563 11.5886 45.1002 12.1033C48.4615 14.7977 51.829 17.4859 55.1903 20.1803C58.4161 22.7664 61.6732 25.315 64.8448 27.9656C67.137 29.8807 69.7731 30.4287 72.6051 30.0849C73.3511 29.9953 74.0138 29.2284 74.714 28.7721C74.6035 28.6033 74.5223 28.3261 74.3764 28.2865C73.9971 28.1823 73.5908 28.1594 73.1927 28.1469C71.2297 28.0844 69.5814 27.2196 68.0935 26.0547C65.2678 23.8437 62.4942 21.5661 59.6935 19.3259C56.9511 17.1316 54.1983 14.9498 51.4539 12.7576C50.1161 11.6886 48.7886 10.6091 47.4404 9.52136C47.8405 8.91496 48.2197 8.72116 48.7345 9.26088C49.1971 9.74433 49.7701 9.85478 50.4307 9.86728C52.3708 9.90479 54.313 9.87562 55.9946 8.78576C57.3054 7.93554 58.5078 6.91028 59.7373 5.9392C61.5731 4.48675 63.3548 2.96345 65.2366 1.57559C65.8305 1.13798 66.6723 1.03796 67.4017 0.781643C67.435 0.862913 67.4705 0.9421 67.5038 1.02337C66.5848 1.76939 65.6721 2.52167 64.7489 3.26144C62.8443 4.78474 60.8917 6.25178 59.035 7.82927C56.9657 9.58804 54.7568 10.9175 51.929 10.8696C51.754 10.8675 51.5748 11.0488 51.3976 11.1468C51.5102 11.3218 51.5977 11.5219 51.7394 11.6698C53.3335 13.3473 55.3403 12.7305 57.2137 12.5513C58.8724 12.3908 60.2061 11.3927 61.4814 10.3737C63.9925 8.37107 66.5056 6.37264 69.0084 4.3638C70.4837 3.18017 71.9591 1.99445 73.4074 0.777475C74.1138 0.183574 74.8536 -0.176934 75.9122 0.0772974C75.4808 0.448225 75.1099 0.785811 74.7202 1.09839C70.6088 4.3763 66.4744 7.62296 62.3942 10.9363C60.9605 12.0991 59.4893 13.1285 57.6638 13.5203C57.0366 13.6557 56.3781 13.6328 55.7383 13.7162C55.5174 13.7453 55.3132 13.8808 55.1007 13.9662C55.1965 14.1809 55.234 14.4622 55.3945 14.6018C56.1363 15.2374 56.9053 15.7208 58.0014 15.6146C59.333 15.4854 60.675 15.6458 61.9857 15.1603C63.6216 14.5539 64.8865 13.4328 66.2076 12.3804C69.521 9.74433 72.8239 7.09575 76.1289 4.44716C77.6064 3.26352 79.0817 2.07989 80.5404 0.873333C81.3511 0.204413 81.597 0.118975 82.641 0.42947C82.2992 0.754553 82.0262 1.05254 81.7137 1.30261C78.7629 3.67196 75.8101 6.03506 72.851 8.39399C70.2232 10.4883 67.5976 12.5867 64.9552 14.6602C63.3194 15.9438 61.446 16.6065 59.3622 16.694C59.1475 16.7024 58.9412 16.8566 58.7307 16.9441C58.8537 17.1441 58.9516 17.3671 59.1058 17.5401C60.2895 18.8675 61.8524 18.5841 63.359 18.5236C65.7992 18.4257 67.6351 17.0837 69.4272 15.6146C71.409 13.9892 73.4366 12.42 75.435 10.8154C76.9104 9.6318 78.3691 8.42525 79.8444 7.23953C82.2117 5.33488 84.5852 3.44065 86.9525 1.536C87.4568 1.13173 87.9653 1.06922 88.6321 1.50058C88.1278 1.92568 87.6714 2.32578 87.2005 2.70296C84.381 4.96187 81.5636 7.22286 78.7358 9.47135C75.5579 11.9991 72.3488 14.4893 69.1938 17.0462C67.7518 18.2152 66.2076 19.1134 64.3676 19.4322C63.88 19.5176 63.3757 19.4968 62.8818 19.5552C62.7026 19.576 62.4421 19.6448 62.3858 19.7677C62.3317 19.8865 62.4442 20.1511 62.563 20.272C63.259 20.9763 64.005 21.4494 65.1053 21.4306C67.0412 21.3973 68.9708 21.4244 70.6421 20.2783C71.7695 19.5051 72.8385 18.6424 73.9096 17.7901C76.3081 15.8834 78.69 13.9579 81.0802 12.0428C83.4328 10.1611 85.7897 8.28355 88.1424 6.40182C89.5823 5.24944 91.0202 4.09915 92.4518 2.93636C92.9269 2.55084 93.3562 2.64878 93.9438 3.05305C93.1937 3.66571 92.4997 4.24085 91.7975 4.80558C89.8574 6.36431 87.9152 7.91887 85.9689 9.47135C84.0038 11.0405 82.0304 12.5992 80.0653 14.1684C78.1607 15.6917 76.2685 17.2317 74.3576 18.7466C72.7635 20.0136 71.2589 21.4494 69.2292 22.0016C68.3749 22.235 67.4663 22.2642 66.5869 22.41C66.366 22.4455 66.1597 22.5684 65.9472 22.6518C66.0451 22.8393 66.1118 23.0519 66.2451 23.2102C66.937 24.023 67.7893 24.3772 68.8875 24.2897C70.2441 24.1813 71.6549 24.4752 72.9323 23.8167C73.8763 23.329 74.8307 22.8247 75.6705 22.185C77.7689 20.5867 79.809 18.9092 81.8658 17.2567C84.2143 15.3708 86.5482 13.4661 88.9009 11.5865C91.2744 9.69015 93.6646 7.81259 96.0423 5.92253C96.4716 5.58078 96.8717 5.2036 97.2968 4.85768C97.7594 4.48258 98.197 4.53051 98.6805 5.04522C98.0136 5.6037 97.3822 6.15384 96.7279 6.67689C93.9043 8.92954 91.0702 11.1697 88.2487 13.4244C85.5042 15.6167 82.7952 17.8568 80.0216 20.0094C77.9627 21.6057 76.1393 23.5666 73.6699 24.5543C72.653 24.9607 71.5132 25.0649 70.4254 25.2899C70.1461 25.3483 69.8565 25.3483 69.571 25.3733C69.5335 25.4441 69.4981 25.515 69.4606 25.5859C69.7294 25.8317 69.9565 26.1547 70.2691 26.309C73.2573 27.7822 76.4582 27.4134 79.0776 25.267C81.4657 23.3103 83.885 21.391 86.2961 19.4614C88.2007 17.936 90.1158 16.4231 92.0204 14.8977C94.3919 12.9993 96.7591 11.0947 99.1306 9.19211C99.7912 8.66281 100.473 8.15851 101.114 7.60838C102.231 6.6498 102.736 6.67689 103.811 7.86469C103.646 7.9022 103.505 7.9793 103.38 7.95846C102.279 7.77092 101.621 8.50444 100.925 9.14001C100.806 9.25046 100.741 9.49219 100.766 9.65681C100.779 9.74017 101.048 9.84644 101.196 9.84228C103.913 9.7485 106.062 10.9655 108.07 12.6576C110.2 14.4518 112.434 16.1251 114.607 17.8672C116.141 19.0967 117.764 20.2407 118.788 21.9912C118.909 22.1954 119.036 22.3975 119.038 22.7122C117.758 21.7036 116.477 20.6992 115.201 19.6864C112.08 17.2108 108.981 14.7039 105.832 12.2637C104.449 11.1926 102.815 10.7654 101.056 10.8488C100.708 10.8655 100.348 10.903 100.01 10.8425C98.8847 10.6446 98.1032 11.226 97.3885 11.9511C97.253 12.0887 97.2176 12.3262 97.1384 12.5159C97.3135 12.5826 97.4864 12.7076 97.6615 12.7076C100.216 12.6972 102.308 13.7974 104.24 15.3541C108.487 18.7758 112.757 22.1704 117.016 25.5775C119.117 27.2592 121.245 28.9096 123.293 30.6517C123.799 31.081 124.049 31.8124 124.416 32.4042C124.335 32.473 124.256 32.5397 124.174 32.6085C123.583 32.1521 122.987 31.702 122.401 31.2373C119.93 29.268 117.458 27.2967 114.993 25.3191C112.624 23.4186 110.269 21.4994 107.893 19.6073C105.947 18.0589 104.001 16.5106 102.015 15.0144C100.783 14.085 99.2973 13.8308 97.7969 13.7099C97.351 13.6745 96.8883 13.7641 96.4507 13.6912C95.3254 13.5036 94.5523 14.1079 93.8105 14.7873C93.6646 14.9206 93.6083 15.154 93.5104 15.3416C93.698 15.4249 93.8813 15.5708 94.073 15.5791C96.4757 15.6917 98.545 16.5398 100.395 18.1069C102.673 20.0344 105.065 21.8266 107.399 23.6895C109.344 25.242 111.271 26.8195 113.215 28.3741C115.547 30.2391 117.885 32.0917 120.223 33.9505C121.607 35.0508 122.982 36.1635 124.381 37.2451C124.789 37.5618 125.246 37.8369 125.714 38.0515C126.262 38.3016 126.383 38.7121 126.383 39.3081C125.121 39.1018 124.158 38.4308 123.255 37.7139C118.55 33.9838 113.872 30.2224 109.181 26.4736C105.718 23.7041 102.263 20.9263 98.7826 18.1777C97.6239 17.2629 96.2799 16.7544 94.7878 16.7023C94.1147 16.6794 93.4271 16.769 92.7686 16.6648C91.6724 16.4919 90.9077 17.0462 90.1721 17.6901C90.0179 17.8256 89.9949 18.1152 89.9116 18.3319C90.1075 18.4049 90.3054 18.5466 90.5013 18.5424C93.0436 18.4986 95.0941 19.6073 97.0009 21.1681C99.737 23.4082 102.527 25.5817 105.288 27.7906C107.662 29.689 110.023 31.5999 112.396 33.4983C114.73 35.3654 117.087 37.2055 119.404 39.0893C120.592 40.0541 121.78 41.0189 123.297 41.3794C124.185 41.5899 125.112 41.6399 126.023 41.7545C126.419 41.8046 126.944 41.6024 127.044 42.2234C127.14 42.834 127.513 43.4966 126.85 44.0259C125.062 45.4596 123.299 46.9288 121.467 48.3041C120.282 49.196 119.059 50.0962 117.723 50.7131C116.695 51.1861 115.462 51.2132 114.326 51.457C114.084 51.5091 113.859 51.6425 113.626 51.7383C113.78 51.9092 113.936 52.0759 114.086 52.2489C115.32 53.6659 116.964 53.3679 118.536 53.2804C120.586 53.1658 122.278 52.2259 123.814 50.9069C125.014 49.8753 126.292 48.9314 127.596 47.8978C127.855 48.4792 127.942 48.9293 127.494 49.2856C126.052 50.4338 124.618 51.5924 123.141 52.6927C121.678 53.7826 119.988 54.2452 118.177 54.3327C117.906 54.3452 117.644 54.4911 117.377 54.5745C117.546 54.8016 117.706 55.0329 117.883 55.2517C118.548 56.0644 119.425 56.1978 120.43 56.1853C122.186 56.1644 123.931 56.1686 125.485 55.2038C126.117 54.812 126.694 54.3327 127.298 53.9014C127.392 53.8347 127.513 53.8055 127.669 53.7367C127.873 54.5807 127.538 55.1121 126.906 55.5393C125.362 56.5854 123.66 57.1439 121.799 57.2564C121.545 57.271 121.301 57.4564 121.053 57.5606C121.207 57.7649 121.359 57.9691 121.518 58.1691C122.218 59.0527 123.168 59.1465 124.208 59.0839C125.146 59.0277 126.09 59.0714 127.081 59.0714C127.163 59.6007 127.013 59.9883 126.346 60.0238C125.998 60.0425 125.646 60.0467 125.304 60.105C125.083 60.1425 124.877 60.2676 124.662 60.3509C124.785 60.5781 124.864 60.849 125.037 61.024C125.316 61.3033 125.629 61.5762 125.979 61.7492C126.7 62.1055 126.523 62.5682 126.198 63.185C125.973 63.0349 125.767 62.9182 125.585 62.7724C122.741 60.5051 119.903 58.2316 117.058 55.9623C115.714 54.8912 114.418 53.7492 113.003 52.7844C110.477 51.0611 107.785 51.0215 105.061 52.3385C104.805 52.4614 104.642 52.774 104.436 52.9991C104.709 53.1053 104.982 53.3012 105.257 53.3033C107.258 53.3304 109.029 54.0181 110.569 55.2288C113.82 57.7836 117.025 60.3989 120.253 62.9808C121.711 64.1477 123.172 65.3126 124.654 66.4483C125.179 66.8505 125.262 67.2443 124.764 67.8758L124.785 67.8924ZM54.9735 59.0819C56.9511 59.2861 58.7891 58.788 60.3374 57.6148C63.3507 55.3309 66.2764 52.9282 69.2292 50.563C71.5986 48.6646 73.9513 46.7433 76.3185 44.8449C78.765 42.8819 81.2594 40.9773 83.6642 38.9663C85.7647 37.2076 88.0007 35.878 90.8431 35.8905C91.0118 35.8905 91.1806 35.7468 91.3494 35.6697C91.2786 35.5217 91.2411 35.3362 91.1285 35.23C90.3596 34.5027 89.574 33.8129 88.3799 34.0359C88.0924 34.0901 87.784 34.0297 87.4839 34.0234C85.748 33.9901 84.083 34.3089 82.6889 35.3842C79.5173 37.8327 76.3873 40.3313 73.2511 42.8277C70.8755 44.7178 68.5228 46.6412 66.1514 48.5375C63.334 50.7922 60.5145 53.047 57.6784 55.2767C56.2343 56.4103 54.5901 57.0793 52.7396 57.1835C52.4416 57.2001 52.1353 57.173 51.8436 57.2293C51.3851 57.3189 51.308 57.6773 51.6248 57.9253C52.3645 58.5067 52.998 59.3611 54.1504 59.0923C54.4109 59.0318 54.6964 59.0839 54.9715 59.0839L54.9735 59.0819ZM69.4085 70.639C71.3881 70.8536 73.1136 70.3764 74.6681 69.324C75.4496 68.7947 76.1581 68.1612 76.8999 67.5736C79.0838 65.8398 81.2698 64.1123 83.4453 62.3702C85.5063 60.7219 87.5506 59.0527 89.6094 57.4023C92.4247 55.1434 95.2713 52.9261 98.0532 50.6276C100.195 48.8563 102.452 47.4435 105.361 47.4852C105.522 47.4872 105.795 47.3664 105.822 47.2538C105.857 47.1038 105.755 46.8454 105.626 46.7433C104.786 46.0806 103.957 45.393 102.75 45.6264C102.367 45.7014 101.954 45.6368 101.554 45.6305C99.9891 45.6076 98.5388 46.0181 97.2593 46.9038C96.2778 47.5831 95.363 48.3562 94.4294 49.1002C92.0913 50.959 89.7574 52.8198 87.4255 54.6849C85.0353 56.5979 82.6493 58.5192 80.2612 60.4343C77.8543 62.3639 75.4329 64.279 73.0365 66.2212C71.1318 67.7653 69.0709 68.876 66.5286 68.8156C66.341 68.8114 66.1493 68.9614 65.9597 69.0406C66.0597 69.2282 66.1326 69.4386 66.266 69.597C67.1245 70.5994 68.229 70.889 69.4064 70.639H69.4085ZM61.9295 64.9563C64.1446 65.0209 66.0388 64.5707 67.6663 63.3204C69.9357 61.5783 72.1717 59.7945 74.4076 58.0087C77.3438 55.6622 80.2633 53.2929 83.1953 50.9381C85.5626 49.0356 87.9527 47.1622 90.3033 45.2388C92.581 43.3737 94.867 41.567 98.0616 41.7441C98.1991 41.7525 98.4637 41.6024 98.4679 41.5211C98.4742 41.3211 98.4221 41.0419 98.2845 40.9272C97.5823 40.35 96.93 39.6707 95.8652 39.8311C95.2796 39.9187 94.669 39.8832 94.071 39.8624C92.5643 39.8124 91.2015 40.2479 90.0095 41.1335C88.4529 42.2922 86.9421 43.5112 85.4209 44.7178C83.0411 46.6037 80.6676 48.4958 78.2961 50.3921C76.3706 51.9321 74.4577 53.4825 72.5342 55.0246C70.5546 56.6125 68.5332 58.1524 66.5952 59.7904C64.4551 61.5992 62.1816 63.0308 59.258 63.0537C59.0892 63.0537 58.9204 63.1975 58.7495 63.2746C58.837 63.4642 58.8745 63.7122 59.0204 63.8372C59.904 64.6062 60.8375 65.273 61.9336 64.9521L61.9295 64.9563ZM51.2559 56.1415C53.5044 56.327 55.4445 55.7768 57.1345 54.4182C59.0746 52.8594 61.0022 51.284 62.9485 49.7336C65.7096 47.531 68.4895 45.3492 71.2485 43.1424C74.4743 40.5605 77.6543 37.9223 80.9197 35.3925C81.9241 34.6152 83.0994 33.9984 84.2831 33.5254C85.1854 33.1649 86.2211 33.1336 87.2026 32.9919C87.6089 32.9335 87.9277 32.7293 87.6006 32.4022C87.1192 31.9229 86.5128 31.3144 85.9106 31.256C83.6329 31.0331 81.3094 30.8934 79.286 32.3313C78.4337 32.9356 77.6064 33.5754 76.7874 34.2276C74.0221 36.4282 71.2673 38.6433 68.5082 40.8501C66.0972 42.7777 63.682 44.7011 61.2668 46.6266C59.4205 48.0999 57.5471 49.544 55.7341 51.0548C53.5732 52.8553 51.3268 54.4077 48.3427 54.3452C48.1697 54.3411 47.9926 54.4744 47.8155 54.5432C47.9134 54.7266 47.9843 54.935 48.1176 55.0892C48.9804 56.0832 50.0827 56.3895 51.2559 56.1436V56.1415ZM66.9995 79.4058C69.396 79.3808 69.4022 79.387 70.5712 78.4034C70.763 78.2409 70.8797 77.9908 71.0318 77.7803C70.7692 77.6949 70.5087 77.547 70.242 77.5324C68.4082 77.4407 66.7036 76.9593 65.2178 75.8549C64.2801 75.1568 63.3715 74.4191 62.4567 73.6918C60.0602 71.7872 57.6659 69.8804 55.2757 67.9674C53.3919 66.4587 51.5164 64.9375 49.6326 63.4288C47.1653 61.4512 44.7022 59.4715 42.2182 57.5148C41.2034 56.7146 40.1885 55.8956 39.0883 55.2267C37.5858 54.3119 35.8708 54.3223 34.162 54.314C33.1472 54.3077 32.2865 54.4994 31.626 55.2934C31.4467 55.508 31.3196 55.7664 31.1696 56.004C31.4342 56.0853 31.7031 56.2436 31.9656 56.2332C33.789 56.1624 35.4436 56.7438 36.8648 57.7815C39.0945 59.409 41.218 61.1845 43.3748 62.9141C45.6879 64.7666 47.9759 66.6504 50.2932 68.4967C53.9129 71.385 57.5784 74.219 61.1668 77.1448C63.0027 78.641 64.9782 79.5704 67.0016 79.4058H66.9995ZM27.2957 58.9756C27.8646 59.0277 28.2022 59.0673 28.5398 59.0902C30.1068 59.1965 31.6468 59.5278 32.895 60.476C36.2042 62.9912 39.4446 65.596 42.7017 68.18C45.0231 70.0221 47.3237 71.8893 49.6368 73.7397C52.0853 75.7007 54.5338 77.6616 56.9886 79.6162C58.3556 80.704 59.7122 81.9127 61.5169 82.0919C63.3319 82.2711 65.2866 82.965 66.8828 81.3667C67.0912 81.1583 67.2412 80.8895 67.4184 80.6477C67.1475 80.5665 66.8807 80.4269 66.6077 80.4164C64.9011 80.3539 63.2673 79.9684 61.9024 78.9452C59.4122 77.0802 56.9886 75.1255 54.5568 73.1854C51.8102 70.9953 49.0929 68.7697 46.3505 66.5754C43.4915 64.2873 40.6178 62.0201 37.7525 59.7404C36.7002 58.9026 35.6436 58.0962 34.3391 57.6419C32.7012 57.0709 31.0258 57.2293 29.3733 57.321C28.5502 57.3668 27.9479 58.1087 27.2957 58.9756ZM65.7284 67.7757C67.9497 67.9487 69.8356 67.4006 71.4652 66.1149C75.6871 62.7828 79.8882 59.4257 84.0893 56.0665C87.7444 53.1408 91.3869 50.2025 95.0316 47.2622C96.4612 46.1098 97.9553 45.0804 99.8183 44.7845C100.454 44.6844 101.108 44.6886 101.748 44.6073C101.913 44.5865 102.119 44.449 102.19 44.3093C102.236 44.2156 102.115 43.9697 102 43.8738C101.179 43.1862 100.37 42.4922 99.1535 42.7319C98.6721 42.8256 98.1574 42.761 97.6594 42.7527C96.0173 42.7214 94.5336 43.2883 93.2749 44.2427C90.5951 46.2744 88.0069 48.425 85.3813 50.5255C82.9306 52.4864 80.48 54.4494 78.0294 56.4103C75.3079 58.5901 72.5572 60.7364 69.8732 62.962C67.8039 64.677 65.5908 65.9586 62.8109 65.9649C62.6401 65.9649 62.4692 66.1024 62.2983 66.1753C62.39 66.3399 62.4484 66.5358 62.5755 66.665C63.4819 67.5903 64.5447 68.0883 65.7304 67.7757H65.7284ZM90.0429 19.5593C87.9277 19.5635 87.9173 19.551 86.7983 20.4512C86.5795 20.6283 86.4669 20.9368 86.3065 21.1868C86.5711 21.2702 86.8337 21.4202 87.1004 21.4265C89.1968 21.4765 91.0264 22.2058 92.6456 23.5228C94.0168 24.6377 95.4046 25.7296 96.7883 26.8299C98.7534 28.3928 100.725 29.9495 102.686 31.5186C104.567 33.0273 106.435 34.5569 108.316 36.0677C110.352 37.7014 112.392 39.331 114.443 40.946C115.556 41.8233 116.648 42.7402 117.831 43.5133C119.461 44.5803 121.332 44.6282 123.226 44.6594C124.364 44.6782 125.114 44.1927 125.831 43.48C125.954 43.357 126.071 43.1153 126.029 42.9778C125.994 42.8611 125.729 42.7756 125.554 42.7506C125.137 42.6923 124.712 42.6902 124.291 42.6423C121.949 42.3818 120.144 41.0835 118.402 39.6353C116.931 38.4099 115.42 37.2305 113.924 36.0364C111.98 34.4839 110.031 32.9377 108.089 31.3811C106.205 29.8724 104.334 28.347 102.45 26.8383C100.489 25.2691 98.4867 23.7479 96.5591 22.1371C94.5836 20.4866 92.4643 19.303 90.0408 19.5593H90.0429ZM82.2534 25.3191C81.1573 25.044 80.1633 25.5233 79.3214 26.4027C79.163 26.5674 79.0672 26.7903 78.9421 26.9862C79.163 27.0591 79.3797 27.1821 79.6048 27.1967C81.2906 27.3175 82.9348 27.6093 84.3435 28.6012C85.5209 29.4306 86.6441 30.3371 87.7777 31.2289C89.7157 32.7502 91.6495 34.2797 93.575 35.8176C95.5192 37.3722 97.4489 38.9455 99.3931 40.5021C101.375 42.09 103.363 43.6717 105.353 45.2513C106.97 46.5349 108.529 47.9082 110.231 49.0647C112.751 50.7756 115.458 50.8027 118.173 49.4752C118.446 49.3419 118.615 48.9918 118.833 48.7417C118.55 48.6542 118.267 48.4875 117.985 48.4896C116.089 48.5063 114.399 47.8832 112.919 46.7558C110.486 44.8991 108.095 42.984 105.705 41.071C102.925 38.8496 100.17 36.5949 97.3926 34.3714C94.594 32.1333 91.735 29.9661 88.9822 27.6739C87.0504 26.0651 84.9332 25.1774 82.2555 25.3191H82.2534ZM95.0108 38.6621C94.9566 38.4683 94.9608 38.3453 94.9024 38.2912C94.1251 37.5681 93.4125 36.7283 92.1684 36.9012C91.8016 36.9512 91.4203 36.9137 91.0473 36.9075C89.1989 36.8741 87.5005 37.3326 86.0252 38.4745C84.529 39.6332 83.0432 40.8022 81.5657 41.9838C78.7275 44.2531 75.8997 46.537 73.0615 48.8084C69.8169 51.407 66.539 53.9681 63.3257 56.6062C61.0397 58.4817 58.7287 60.2155 55.5633 60.1196C55.4195 60.1155 55.1486 60.2488 55.1486 60.3176C55.1486 60.5176 55.1944 60.7948 55.3299 60.9031C56.0571 61.4866 56.7448 62.1618 57.8284 61.9909C58.339 61.9097 58.8745 61.9722 59.3976 61.9743C60.9605 61.9826 62.4296 61.6221 63.6799 60.6698C65.7971 59.0568 67.8872 57.4064 69.969 55.7477C72.7697 53.5138 75.5475 51.2507 78.3441 49.0105C81.6824 46.3349 85.0249 43.6613 88.3758 41.0023C89.7636 39.902 91.3119 39.1372 93.0957 38.9163C93.7209 38.8392 94.344 38.7517 95.0087 38.6642L95.0108 38.6621ZM86.3273 22.508C85.0353 22.3684 83.8517 22.3996 82.9952 23.4812C82.8494 23.6645 82.7285 23.8688 82.5951 24.0626C82.8139 24.1355 83.0307 24.2668 83.2516 24.2751C84.8249 24.3272 86.3732 24.6148 87.6485 25.5254C89.9324 27.1571 92.1267 28.9159 94.3335 30.6517C96.6237 32.4522 98.8826 34.2922 101.156 36.1094C104.034 38.4099 106.912 40.7084 109.792 43.0069C111.096 44.0468 112.367 45.1304 113.722 46.1015C115.437 47.333 117.414 47.5727 119.49 47.5227C120.54 47.4977 121.403 47.2893 122.076 46.4849C122.234 46.2953 122.311 46.0369 122.426 45.8097C122.201 45.7472 121.976 45.6347 121.751 45.6326C120.061 45.6243 118.45 45.245 117.104 44.2323C114.322 42.138 111.598 39.9645 108.866 37.8035C106.543 35.9656 104.244 34.0943 101.931 32.2438C99.0556 29.9411 96.1486 27.6739 93.3062 25.3316C91.2411 23.6312 89.1301 22.1412 86.3273 22.5101V22.508ZM106.255 48.4875C104.607 48.4417 103.173 48.5646 101.913 49.2773C100.796 49.9108 99.7495 50.686 98.7305 51.4758C96.4862 53.2116 94.2731 54.985 92.058 56.7583C89.5719 58.7484 87.1004 60.7594 84.6165 62.7536C82.268 64.6374 79.8924 66.49 77.5605 68.3967C75.3912 70.1701 73.1761 71.7872 70.1753 71.6871C70.0065 71.6809 69.8315 71.8934 69.6585 72.0039C69.7877 72.1664 69.8857 72.3769 70.0524 72.4853C72.3009 73.9565 75.8205 74.0211 78.2211 72.2539C80.0632 70.8973 81.8199 69.4241 83.6121 67.9966C86.0252 66.0753 88.4341 64.1456 90.8472 62.2243C92.8332 60.6427 94.8232 59.0693 96.8071 57.4835C98.6534 56.0082 100.508 54.5411 102.329 53.0345C103.976 51.6758 105.755 50.6443 107.935 50.4692C108.333 50.438 108.733 50.4255 109.125 50.3671C109.275 50.3442 109.483 50.2442 109.527 50.1275C109.564 50.0275 109.437 49.8128 109.325 49.7211C108.375 48.9397 107.439 48.0999 106.259 48.4875H106.255ZM71.3006 76.5092C72.1612 76.5759 73.0344 76.6217 73.7429 75.9424C73.9575 75.7361 74.2201 75.5819 74.4326 75.3735C74.5723 75.2359 74.6598 75.0442 74.7702 74.8775C74.5681 74.7817 74.3764 74.64 74.1617 74.5941C72.9323 74.3357 71.6278 74.2774 70.4796 73.821C67.8664 72.7832 65.993 70.6369 63.7945 68.9802C61.3522 67.1381 59.0329 65.1313 56.6427 63.2162C54.2338 61.2845 51.8082 59.3736 49.3888 57.4585C47.4175 55.8977 45.5024 54.2577 43.4498 52.8094C40.9241 51.0256 38.1901 51.0381 35.4498 52.3697C35.2039 52.4885 35.0643 52.8261 34.8747 53.0616C35.1373 53.1512 35.3977 53.3158 35.6603 53.3179C37.6587 53.3304 39.4342 54.0181 40.9825 55.2142C43.6978 57.3147 46.3568 59.4903 49.0366 61.6408C51.3664 63.5101 53.6836 65.3939 56.0155 67.2568C58.8349 69.5095 61.7148 71.6871 64.4718 74.0127C66.4702 75.6986 68.6437 76.6801 71.2964 76.5092H71.3006ZM84.058 30.0724C84.0893 30.0016 84.1226 29.9286 84.1539 29.8578C83.9017 29.6244 83.685 29.316 83.3891 29.1701C81.0677 28.0386 78.6733 27.8114 76.3623 29.0805C75.0891 29.7786 73.9471 30.7351 72.7989 31.6395C68.6937 34.8757 64.6072 38.1307 60.5249 41.394C57.2783 43.9884 54.0546 46.6141 50.8058 49.2064C49.7701 50.0337 48.6615 50.7672 47.332 51.034C46.4339 51.2153 45.5191 51.309 44.6167 51.4653C44.4209 51.4987 44.2375 51.63 44.0687 51.7446C44.0458 51.7592 44.1104 52.003 44.1875 52.0509C45.1377 52.6448 45.9337 53.593 47.2549 53.3387C47.6404 53.2637 48.051 53.3387 48.4511 53.3241C50.0535 53.27 51.606 52.9199 52.8813 51.9488C55.7925 49.7336 58.6349 47.4289 61.4939 45.145C63.5549 43.4987 65.5929 41.8191 67.6518 40.1687C70.8963 37.5681 74.143 34.9695 77.4021 32.3876C79.1422 31.0101 81.0781 30.1099 83.362 30.1599C83.5933 30.1641 83.8246 30.0995 84.0559 30.0662L84.058 30.0724Z" fill="white"/>
<path d="M97.92 97.1375C99.6767 95.6788 101.471 94.2888 103.844 93.9909C103.878 94.0534 103.913 94.118 103.947 94.1805C101.975 95.2433 100.002 96.3039 98.0304 97.3667C97.9929 97.2896 97.9554 97.2146 97.92 97.1375Z" fill="white"/>
<path d="M55.5195 4.85779C53.9545 6.14145 52.3833 7.41261 50.2953 7.72727C50.2536 7.65017 50.2098 7.57306 50.1682 7.49388C51.9165 6.54989 53.6649 5.6059 55.4132 4.66191C55.4487 4.72651 55.4841 4.79319 55.5195 4.85779Z" fill="white"/>
</g>
<defs>
<clipPath id="clip0_240_15">
<rect width="155.99" height="137" fill="white" transform="translate(0.504883)"/>
</clipPath>
</defs>
</svg>
