<svg xmlns="http://www.w3.org/2000/svg" width="25" height="25" viewBox="0 0 25 25" fill="none">
  <path d="M24.9844 12.5004C24.9844 18.8137 20.306 24.033 14.2284 24.88C13.6601 24.9588 13.0787 25 12.4886 25C11.8073 25 11.1384 24.9457 10.4869 24.8406C4.53711 23.8824 -0.00732422 18.7218 -0.00732422 12.5004C-0.00732422 5.59682 5.58784 0 12.4894 0C19.391 0 24.9862 5.59682 24.9862 12.5004H24.9844Z" fill="#E8E8E8"/>
  <path d="M5.06062 5.51294L10.8239 13.2206L5.02472 19.4875H6.33026L11.4079 14.001L15.5102 19.4875H19.9522L13.8649 11.3462L19.2631 5.51294H17.9575L13.2817 10.5658L9.50349 5.51294H5.06149H5.06062ZM6.97996 6.47464H9.02014L18.0311 18.5258H15.9909L6.97996 6.47464Z" fill="black"/>
</svg>