<svg width="72" height="32" viewBox="0 0 72 32" fill="none" xmlns="http://www.w3.org/2000/svg">
<path d="M58.3927 15.9383C58.1789 15.7991 57.9372 15.6688 57.6855 15.5688L57.6804 15.5663C57.6804 15.5663 57.669 15.5688 57.664 15.5701C57.65 15.5726 57.6361 15.5752 57.6222 15.5789C57.583 15.5878 57.5438 15.5967 57.5058 15.6068C57.4729 15.6156 57.4413 15.6245 57.4084 15.6346C57.3717 15.646 57.3363 15.6587 57.3008 15.6713C57.2591 15.6865 57.2173 15.7029 57.1768 15.7194C57.1313 15.7384 57.087 15.7586 57.0427 15.7789C57.0136 15.7928 56.9832 15.808 56.9541 15.8231C56.9162 15.8434 56.8795 15.8636 56.8428 15.8839C56.8074 15.9041 56.7719 15.9256 56.7365 15.9484C56.6935 15.975 56.6518 16.0028 56.6113 16.0306C56.5847 16.0496 56.5581 16.0673 56.5328 16.0863C56.4949 16.1141 56.4569 16.1432 56.4202 16.1723C56.3797 16.204 56.3405 16.2369 56.3025 16.2698C56.2785 16.2913 56.2545 16.3115 56.2304 16.333C56.2039 16.3571 56.1786 16.3798 56.1533 16.4039C56.1254 16.4305 56.0976 16.457 56.071 16.4836C56.047 16.5076 56.0229 16.5317 56.0002 16.5545C55.9546 16.6013 55.9116 16.6481 55.8711 16.6936C55.8395 16.7291 55.8091 16.7645 55.7813 16.7974C55.7269 16.8632 55.6775 16.9252 55.6358 16.9808C55.6105 17.0137 55.5877 17.0454 55.5674 17.0745C55.5345 17.12 55.508 17.1592 55.4877 17.1896C55.4561 17.2377 55.4384 17.2655 55.4371 17.2693C55.427 17.287 55.4156 17.3047 55.4055 17.3212C55.3802 17.3617 55.3561 17.4034 55.3308 17.4439C55.3169 17.4654 55.3043 17.4882 55.2904 17.5097C55.2638 17.5527 55.2372 17.5957 55.2119 17.64C55.1967 17.6653 55.1815 17.6906 55.1664 17.7172C55.1499 17.745 55.1335 17.7729 55.1183 17.8007C55.1082 17.8197 55.0968 17.8387 55.0867 17.8577C55.0778 17.8728 55.0702 17.8893 55.0613 17.9057C55.0575 17.9133 55.0525 17.9222 55.0487 17.9298L55.0436 17.9399L55.0373 17.9538C55.4333 18.112 55.7952 18.3739 55.9913 18.6244C56.1355 18.8091 56.2621 19.0103 56.4202 19.1824C56.5062 19.2747 56.5417 19.3747 56.5847 19.486C56.6847 19.7441 56.5923 20.0162 56.6454 20.2781C56.6644 20.3704 56.6733 20.4628 56.6758 20.5552C56.7542 20.5944 56.8061 20.7045 56.7302 20.793C56.7821 20.8968 56.9314 21.8027 57.0389 22.2531L57.0427 22.2468C57.0478 22.2367 57.0541 22.2253 57.0592 22.2152L57.0731 22.1886C57.0781 22.1785 57.0832 22.1696 57.0883 22.1595C57.1034 22.1304 57.1186 22.1 57.1338 22.0696C57.1604 22.0165 57.187 21.9634 57.2135 21.909C57.2325 21.8697 57.2515 21.8305 57.2705 21.79C57.3034 21.7204 57.3363 21.6496 57.3679 21.5775C57.3907 21.5269 57.4134 21.475 57.4362 21.4218C57.4615 21.3636 57.4868 21.3042 57.5121 21.2434C57.5412 21.1726 57.5716 21.1005 57.6007 21.0271C57.6197 20.9803 57.6386 20.9322 57.6576 20.8841C57.7006 20.774 57.7424 20.664 57.7816 20.5539C57.7854 20.5425 57.7905 20.5298 57.7943 20.5172C57.8006 20.4982 57.8082 20.4792 57.8145 20.4603C57.8575 20.3401 57.8993 20.2186 57.941 20.0959L57.9537 20.0579C57.9866 19.9592 58.0182 19.8593 58.0498 19.7593C58.0562 19.7391 58.0625 19.7201 58.0688 19.6998C58.0752 19.6809 58.0802 19.6632 58.0865 19.6442C58.1283 19.5088 58.1688 19.3721 58.2067 19.2368C58.2118 19.2191 58.2169 19.2013 58.2219 19.1836C58.2282 19.1596 58.2358 19.1355 58.2422 19.1115C58.2485 19.0887 58.2548 19.066 58.2611 19.0432C58.2877 18.9483 58.313 18.8521 58.3383 18.756C58.3434 18.737 58.3484 18.7168 58.3535 18.6978C58.3586 18.6788 58.3636 18.6586 58.3687 18.6396C58.3725 18.6231 58.3775 18.6067 58.3813 18.5902C58.3877 18.5649 58.394 18.5396 58.4003 18.5156C58.4307 18.3929 58.4611 18.2676 58.4902 18.1436C58.5104 18.0563 58.5306 17.969 58.5496 17.8804C58.5547 17.8589 58.5597 17.8361 58.5648 17.8134C58.599 17.6552 58.6344 17.4895 58.6686 17.3161C58.6749 17.282 58.6825 17.2478 58.6888 17.2124C58.6926 17.1921 58.6964 17.1719 58.7002 17.1516C58.7078 17.1124 58.7154 17.0732 58.723 17.034C58.7457 16.9113 58.7685 16.7885 58.79 16.6671C58.7951 16.6354 58.8014 16.6038 58.8065 16.5722C58.8141 16.5317 58.8204 16.4899 58.828 16.4494C58.8305 16.4317 58.8343 16.414 58.8368 16.395L58.8394 16.3798V16.3723C58.728 16.2027 58.5812 16.0547 58.3953 15.9332L58.3927 15.9383ZM47.7166 22.057C47.7128 22.0216 47.709 21.9836 47.7039 21.9469C47.6989 21.9014 47.6938 21.8546 47.6888 21.8065C47.6837 21.7584 47.6786 21.7103 47.6723 21.661C47.6685 21.6319 47.666 21.6015 47.6622 21.5711C47.6584 21.5294 47.6533 21.4889 47.6495 21.4459C47.6458 21.4105 47.6419 21.3738 47.6382 21.3371C47.6356 21.3118 47.6331 21.2852 47.6306 21.2599C47.6268 21.2181 47.6217 21.1751 47.6179 21.1321C47.6141 21.1005 47.6116 21.0688 47.6078 21.0359C47.604 20.9967 47.6002 20.9562 47.5951 20.917C47.5913 20.8841 47.5888 20.85 47.585 20.8158C47.5825 20.7918 47.58 20.769 47.5774 20.7449C47.5736 20.707 47.5698 20.669 47.566 20.6311C47.5622 20.5944 47.5584 20.5577 47.5547 20.5223C47.5521 20.497 47.5496 20.4729 47.5471 20.4476C47.5433 20.4134 47.5407 20.3793 47.5369 20.3451C47.5331 20.3021 47.5281 20.2591 47.5243 20.2161C47.5218 20.192 47.5192 20.1693 47.518 20.1452C47.5142 20.1085 47.5104 20.0718 47.5078 20.0351C47.5053 20.0086 47.5028 19.982 47.5002 19.9554C47.4977 19.9327 47.4964 19.9099 47.4939 19.8884C47.4914 19.8656 47.4901 19.8428 47.4876 19.82C47.4851 19.7922 47.4825 19.7631 47.48 19.7353C47.4775 19.7074 47.4749 19.6809 47.4724 19.653C47.4711 19.6341 47.4686 19.6138 47.4674 19.5948C47.4636 19.5556 47.4598 19.5164 47.4572 19.4772C47.4534 19.4291 47.4484 19.381 47.4446 19.3342C47.4395 19.2697 47.4332 19.2064 47.4281 19.1444C47.4256 19.1166 47.4231 19.0887 47.4218 19.0609C47.4193 19.028 47.4167 18.9964 47.4142 18.966C47.4091 18.9091 47.4053 18.8547 47.4016 18.8015C47.3952 18.7218 47.3902 18.6472 47.3864 18.5801C47.3851 18.551 47.3826 18.5232 47.3813 18.4966C47.3775 18.4384 47.3763 18.3878 47.3737 18.3435C47.3712 18.26 47.3725 18.2043 47.3775 18.1841C47.3838 18.1562 47.3889 18.1246 47.3927 18.0879C47.3965 18.0474 47.3978 18.0032 47.3965 17.9551C47.3965 17.8905 47.3914 17.8184 47.3864 17.745C47.3813 17.6805 47.375 17.6135 47.3661 17.5477C47.3623 17.5097 47.3573 17.4718 47.3522 17.4338C47.3484 17.406 47.3446 17.3794 47.3408 17.3528C47.3345 17.3085 47.3282 17.2643 47.3218 17.2238C47.318 17.201 47.3155 17.1795 47.3117 17.158C47.3067 17.1251 47.3016 17.0934 47.2978 17.0643C47.289 17.0074 47.2826 16.9593 47.2776 16.9226C47.275 16.9087 47.2738 16.8961 47.2725 16.8847C47.2712 16.8708 47.27 16.8594 47.27 16.853C47.1498 17.3237 47.0979 19.2671 46.9233 19.7429C46.7613 20.1844 46.7917 20.4033 46.6196 20.8411C46.6007 20.8892 46.7031 21.5446 46.3501 22.5024C46.1793 23.345 45.9782 23.8777 45.6897 24.3281H45.6935L45.6998 24.3319C45.6998 24.3319 45.7099 24.3357 45.715 24.337C45.7201 24.3382 45.7251 24.3395 45.7302 24.342C45.7352 24.3433 45.739 24.3446 45.7441 24.3458C45.7529 24.3484 45.7618 24.3509 45.7707 24.3521C45.7783 24.3534 45.7846 24.3547 45.7922 24.3559C45.7998 24.3572 45.8074 24.3585 45.8149 24.3597C45.8213 24.3597 45.8276 24.361 45.8352 24.3623C45.8428 24.3623 45.8504 24.3623 45.858 24.3635C45.8706 24.3635 45.8833 24.3635 45.8959 24.3635C45.9035 24.3635 45.9098 24.3635 45.9174 24.3635C45.9301 24.3635 45.9427 24.3623 45.9554 24.361C45.9655 24.361 45.9769 24.3585 45.987 24.3572C45.9971 24.3559 46.0085 24.3534 46.0199 24.3509C46.0262 24.3509 46.0313 24.3484 46.0376 24.3471C46.0528 24.3433 46.0667 24.3408 46.0832 24.3357C46.0895 24.3344 46.0958 24.3319 46.1009 24.3306C46.1085 24.3281 46.1173 24.3256 46.1249 24.323C46.1325 24.3205 46.1401 24.318 46.1477 24.3155C46.1553 24.3129 46.1616 24.3104 46.1692 24.3079C46.1743 24.3066 46.1793 24.3041 46.1844 24.3028C46.1895 24.3015 46.1945 24.299 46.1996 24.2965C46.2072 24.2939 46.2135 24.2914 46.2211 24.2876C46.2261 24.2851 46.2312 24.2838 46.2363 24.2813C46.2426 24.2788 46.2489 24.2762 46.2552 24.2737L46.2654 24.2686L46.2742 24.2648H46.278V24.2623C46.3641 24.1687 46.4463 24.0649 46.5247 23.9485C47.1523 23.0249 47.1143 23.2919 47.7305 22.1861C47.7293 22.1747 47.728 22.1633 47.7267 22.1519C47.7229 22.1203 47.7191 22.0874 47.7153 22.0545L47.7166 22.057ZM38.7903 14.7983C38.3829 14.5326 37.9426 14.3694 37.4504 14.3226C37.3644 14.315 36.9468 14.2783 36.8608 14.2669C36.8406 14.2884 36.8203 14.3099 36.7988 14.3314C36.7773 14.3542 36.7558 14.377 36.7343 14.3997C36.7027 14.4339 36.6698 14.4681 36.6381 14.5035C36.6204 14.5237 36.6014 14.544 36.5837 14.563C36.5572 14.5921 36.5306 14.6224 36.504 14.6515C36.4724 14.687 36.4407 14.7236 36.4091 14.7591C36.3775 14.7945 36.3471 14.8312 36.3155 14.8666C36.2788 14.9096 36.2421 14.9527 36.2054 14.9969C36.1814 15.0248 36.1586 15.0539 36.1346 15.0817C36.1055 15.1159 36.0776 15.15 36.0498 15.1855C36.0182 15.2234 35.9878 15.2614 35.9574 15.2993C35.9245 15.3398 35.8929 15.3803 35.86 15.4208C35.8284 15.4613 35.7967 15.5005 35.7651 15.541C35.7373 15.5764 35.7107 15.6118 35.6829 15.6473C35.6588 15.6776 35.6348 15.7093 35.612 15.7409C35.569 15.7966 35.526 15.8535 35.4842 15.9092C35.4602 15.9421 35.4361 15.9737 35.4121 16.0066C35.3741 16.0585 35.3362 16.1091 35.2982 16.161C35.2489 16.2268 35.2008 16.2938 35.1527 16.3596C35.1211 16.4039 35.0895 16.4469 35.0578 16.4912C35.0275 16.5329 34.9984 16.5734 34.968 16.6152C34.9579 16.6291 34.9478 16.6443 34.9376 16.6582C34.9326 16.6658 34.9275 16.6734 34.9225 16.6797C35.4956 16.748 36.1118 17.1276 36.3914 17.4857C36.5356 17.6704 36.6622 17.8716 36.8203 18.0436C36.9064 18.136 36.9418 18.236 36.9848 18.3473C37.0848 18.6054 36.9924 18.8774 37.0443 19.1393C37.0632 19.2317 37.0721 19.3241 37.0746 19.4164C37.1531 19.4557 37.205 19.5657 37.129 19.6543C37.1999 19.7947 37.2771 19.8479 37.3618 19.815C37.4074 19.7821 37.4529 19.7492 37.4998 19.7176C37.5567 19.6796 37.6124 19.6404 37.6668 19.5999C37.7743 19.5227 37.8781 19.443 37.9881 19.3696C38.4145 19.0849 38.8675 18.8445 39.3078 18.5814C39.3116 18.5712 39.3179 18.5624 39.323 18.5523C39.3166 18.4068 39.3268 18.26 39.3508 18.112C39.4191 17.7033 39.4546 17.2908 39.5368 16.8847C39.6127 16.5076 39.5672 16.142 39.4786 15.7902C39.3774 15.3866 39.1636 15.0374 38.7928 14.7958L38.7903 14.7983ZM42.1698 22.6441C42.166 22.6112 42.1622 22.5757 42.1571 22.5378C42.147 22.4454 42.1343 22.3417 42.1217 22.2291C42.109 22.1165 42.0939 21.9937 42.0799 21.8647C42.0673 21.7584 42.0546 21.6471 42.042 21.5332C42.0344 21.4636 42.0255 21.3915 42.0179 21.3194C42.0053 21.2068 41.9914 21.0904 41.9787 20.9739C41.9699 20.8955 41.961 20.8158 41.9522 20.7361C41.9408 20.6387 41.9306 20.5412 41.9205 20.4438C41.9079 20.3236 41.894 20.2034 41.8826 20.0845C41.8661 19.9276 41.8497 19.7745 41.8357 19.6265C41.8218 19.4923 41.8104 19.3633 41.7991 19.2406C41.7877 19.1128 41.7763 18.9926 41.7674 18.8812C41.7611 18.7965 41.7548 18.718 41.7497 18.6459C41.7409 18.5168 41.7371 18.4093 41.7358 18.3283C41.7358 18.303 41.7358 18.2802 41.7358 18.2613C41.7358 18.2473 41.7358 18.2334 41.7383 18.222C41.7383 18.2132 41.7396 18.2056 41.7409 18.1993C41.7409 18.1942 41.7421 18.1891 41.7434 18.1853C41.6472 18.5599 41.6067 19.3873 41.5523 19.9845C41.5156 20.3869 41.5156 20.7336 41.3765 21.1131C41.2474 21.4649 41.2715 21.6395 41.1335 21.9887C41.1184 22.0266 41.0209 22.5504 40.74 23.3134C40.5325 23.9637 40.2555 24.4951 39.9607 24.9H39.9708C39.9834 24.9 39.9961 24.9 40.0087 24.9C40.0214 24.9 40.0328 24.9 40.0454 24.9C40.0606 24.9 40.0771 24.9 40.0935 24.8975C40.1087 24.8975 40.1239 24.8962 40.1378 24.8949C40.1568 24.8937 40.1758 24.8924 40.1947 24.8899C40.2099 24.8886 40.2264 24.8861 40.2415 24.8848C40.2542 24.8835 40.2681 24.881 40.2808 24.8798C40.2985 24.8772 40.3175 24.8747 40.3352 24.8722C40.3478 24.8709 40.3592 24.8684 40.3719 24.8658C40.3883 24.8633 40.4048 24.8608 40.4199 24.857C40.4351 24.8545 40.4503 24.8519 40.4642 24.8481C40.4781 24.8456 40.4933 24.8418 40.5072 24.8393C40.5224 24.8355 40.5363 24.8329 40.5515 24.8291C40.5667 24.8253 40.5806 24.8216 40.5958 24.819C40.6161 24.814 40.635 24.8089 40.654 24.8038C40.6667 24.8 40.6781 24.7975 40.6894 24.7937C40.6996 24.7912 40.7097 24.7874 40.7198 24.7849C40.7312 24.7811 40.7413 24.7785 40.7527 24.7747C40.7654 24.7709 40.7767 24.7671 40.7881 24.7634C40.7945 24.7608 40.8008 24.7583 40.8071 24.7558C40.8122 24.7545 40.816 24.752 40.821 24.7507C40.9083 24.6647 40.988 24.5698 41.0564 24.4686C41.4752 23.8435 41.7877 23.4437 42.1837 22.7807L42.1799 22.7491C42.1761 22.7162 42.1723 22.682 42.1685 22.6441H42.1698ZM29.7843 17.0125C29.6742 16.9619 29.6046 16.8239 29.5148 16.7354C29.4035 16.624 29.3022 16.4747 29.2554 16.2419C29.1175 16.2698 29.12 16.2609 28.9885 16.1622C28.8974 16.0939 28.8417 15.9864 28.8468 15.7675C28.7721 15.9395 28.7088 15.9294 28.6468 15.8788C28.4052 15.6789 28.1661 15.4739 27.9244 15.2778C27.7764 15.1589 27.6283 15.0374 27.4714 14.9451C27.1931 14.7806 26.8945 14.6794 26.6313 14.4731C26.3821 14.2783 26.0822 14.2973 25.8393 14.091C25.8152 14.0708 25.7798 14.086 25.7507 14.0758C25.6862 14.0531 25.6229 14.0252 25.5597 13.9999C25.4888 13.9721 25.4167 13.9493 25.3458 13.9164C25.2016 13.8494 25.0434 13.843 24.9043 13.7519C24.8524 13.7178 24.7879 13.719 24.7284 13.7102C24.6095 13.6925 24.4804 13.7102 24.3716 13.6532C24.2248 13.5761 24.0755 13.533 23.9199 13.4989C23.4986 13.4078 23.0848 13.2813 22.6547 13.2395C22.58 13.2319 22.5117 13.1952 22.4269 13.28C22.4016 13.3053 22.3409 13.28 22.332 13.2408C22.2966 13.0814 22.2143 13.0902 22.1296 13.0877C21.9626 13.0839 21.7918 13.0915 21.6323 13.0459C21.5159 13.013 21.3983 13.0016 21.2793 12.9852C20.9795 12.9434 20.6821 12.8878 20.3861 12.8232C20.3785 12.822 20.1393 12.7815 19.9243 12.7435C19.8661 12.7688 19.8066 12.7954 19.7459 12.822C19.6661 12.8574 19.5852 12.8928 19.5029 12.9295C19.3878 12.9801 19.2727 13.032 19.1588 13.0839C19.0259 13.1434 18.8969 13.2003 18.7754 13.2547C18.6742 13.299 18.578 13.342 18.492 13.3787C18.4148 13.4116 18.3452 13.442 18.2858 13.466C18.239 13.485 18.1909 13.5052 18.1441 13.5242C17.8606 13.6419 17.5836 13.7633 17.3077 13.8898C17.2065 13.9367 17.1053 13.9835 17.0041 14.0316C16.7649 14.1442 16.5283 14.2606 16.2905 14.382C16.2184 14.4187 16.1462 14.4554 16.0741 14.4921C16.0096 14.525 15.9337 14.563 15.8476 14.6047C15.7274 14.6629 15.587 14.7287 15.4339 14.7996C15.2631 14.878 15.0746 14.964 14.8772 15.0526C14.7406 15.1146 14.6001 15.1766 14.4584 15.2411C14.3243 15.3006 14.1889 15.3613 14.0548 15.4208C13.9308 15.4765 13.8093 15.5309 13.6891 15.5853C13.5095 15.6663 13.3374 15.7434 13.1754 15.8181C13.0439 15.8775 12.9211 15.9345 12.8085 15.9876C12.706 16.0357 12.6137 16.08 12.5314 16.1205C12.4581 16.1559 12.3935 16.1888 12.3404 16.2179C12.3341 16.2217 12.3277 16.2242 12.3227 16.228C12.3176 16.2305 12.3201 16.2381 12.3189 16.2445C12.2948 16.2546 12.2708 16.2596 12.2455 16.2622C12.8629 16.1913 14.1573 16.0028 14.3066 16.023C14.4622 16.0446 14.6153 16.0597 14.7772 16.0281C14.8544 16.0129 14.9341 16.0129 15.0037 16.0395C15.2024 16.1141 15.4364 15.9838 15.6224 16.1319C15.6326 16.1407 15.6541 16.1319 15.668 16.1167C15.7831 16.0015 15.8869 16.0344 15.9818 16.0863C16.2057 16.2078 16.4512 16.1825 16.6992 16.1357C16.7789 16.1205 16.8522 16.1141 16.9244 16.1496C17.0205 16.1977 17.1268 16.2078 17.2343 16.1673C17.3179 16.1357 17.3874 16.1357 17.4545 16.1926C17.4861 16.2192 17.5228 16.2356 17.5608 16.2356C17.6822 16.2356 17.8062 16.2204 17.9277 16.2255C18.0542 16.2305 18.1757 16.2786 18.3035 16.2596C18.4616 16.2369 18.6046 16.2786 18.7476 16.3368C18.8475 16.3786 18.9488 16.3988 19.0652 16.3216C19.16 16.2584 19.2486 16.285 19.3372 16.3128C19.4599 16.3507 19.5902 16.352 19.7168 16.3672C19.7534 16.371 19.7977 16.3495 19.8294 16.3672C19.9445 16.4317 20.066 16.4039 20.1887 16.3191C20.2975 16.3976 20.3873 16.5266 20.5252 16.4634C20.6518 16.5823 20.815 16.5342 20.9567 16.5861C21.1528 16.6582 21.3768 16.6114 21.5843 16.643C21.8436 16.6822 22.1233 16.6304 22.3548 16.8024C22.4687 16.8872 22.5977 16.8834 22.7154 16.9416C22.7685 16.9682 22.8419 16.9214 22.8951 16.9492C22.9912 16.9998 23.076 17.12 23.1886 17.0745C23.3126 17.0251 23.3771 17.1744 23.4809 17.1959C23.7099 17.2427 23.9212 17.3781 24.1641 17.3541C24.216 17.349 24.2742 17.3667 24.3121 17.4136C24.4108 17.5312 24.5335 17.5654 24.6499 17.6185C24.7271 17.6539 24.8068 17.6843 24.8891 17.6906C25.032 17.7033 25.1801 17.7008 25.299 17.8134C25.4167 17.9247 25.5622 17.9361 25.6773 18.0576C25.8203 18.2081 25.9759 18.3271 26.1265 18.4599C26.1556 18.4852 26.1847 18.508 26.2252 18.5421C26.2404 18.4561 26.2454 18.3966 26.2631 18.3473C26.2783 18.3005 26.3074 18.2398 26.3302 18.2309C26.3555 18.2208 26.3972 18.2473 26.4023 18.2828C26.4188 18.3903 26.4213 18.5105 26.4289 18.6269C26.5605 18.7914 26.6743 18.9989 26.8274 19.133C26.916 19.0482 26.9995 18.9002 27.1096 18.9521C27.1311 19.0217 27.1564 19.1064 27.1842 19.1975C27.1399 19.2342 27.1121 19.257 27.083 19.2811C27.1058 19.4076 27.1475 19.4974 27.2108 19.5619C27.3399 19.6935 27.4259 19.9036 27.5056 20.1237C27.6043 20.3945 27.6941 20.6779 27.808 20.9259C27.8611 21.041 27.8776 21.1713 27.8839 21.3143C27.8915 21.4737 27.889 21.642 27.8738 21.8077C27.8586 21.9849 27.7207 22.4948 27.6131 22.8263C27.6359 22.8048 27.66 22.782 27.684 22.7592C27.7321 22.7137 27.7814 22.6681 27.8295 22.6213C27.9333 22.5239 28.0357 22.4239 28.1319 22.3303C28.266 22.1987 28.3862 22.076 28.4773 21.9748C28.5102 21.9381 28.5431 21.9026 28.576 21.8672C28.6734 21.7622 28.7734 21.6584 28.8733 21.5547C28.9113 21.5167 28.948 21.4775 28.9859 21.4396C29.0201 21.4041 29.0555 21.3687 29.0897 21.332C29.3124 20.8171 29.8564 19.4974 29.9551 18.9065C30.0525 18.3207 30.0513 17.783 29.9323 17.3047C29.902 17.1833 29.8501 17.0454 29.7818 17.0137L29.7843 17.0125ZM65.8007 22.2152L65.7931 22.1873C65.7881 22.1696 65.783 22.1519 65.778 22.1354C65.7704 22.1076 65.7628 22.0785 65.7539 22.0507C65.7438 22.014 65.7337 21.9773 65.7235 21.9393C65.7147 21.909 65.7071 21.8773 65.6995 21.847C65.6894 21.809 65.6805 21.7723 65.6704 21.7344C65.659 21.6913 65.6489 21.6496 65.6388 21.6066C65.6287 21.5648 65.6185 21.5231 65.6084 21.4826C65.5983 21.4408 65.5882 21.3978 65.5793 21.3561C65.5692 21.3118 65.5591 21.2662 65.549 21.2207C65.5414 21.184 65.5325 21.146 65.5249 21.1093C65.5173 21.0739 65.5097 21.0385 65.5034 21.003C65.4945 20.96 65.4869 20.917 65.4781 20.874C65.4718 20.8398 65.4654 20.8057 65.4591 20.7715C65.4515 20.731 65.4439 20.6893 65.4376 20.6488C65.43 20.607 65.4237 20.564 65.4161 20.5223C65.411 20.4868 65.4047 20.4514 65.3997 20.4172C65.3946 20.3843 65.3895 20.3514 65.3845 20.3186C65.3794 20.2831 65.3743 20.2464 65.3693 20.211C65.3655 20.1819 65.3617 20.1528 65.3579 20.125C65.3528 20.087 65.349 20.0503 65.344 20.0124C65.3377 19.9592 65.3326 19.9073 65.3263 19.8542C65.3225 19.8125 65.3174 19.7707 65.3136 19.7289C65.3098 19.6859 65.306 19.6442 65.3022 19.6012C65.2997 19.5708 65.2972 19.5392 65.2946 19.5088C65.2934 19.4911 65.2921 19.4734 65.2908 19.4544C65.2908 19.4455 65.2908 19.4354 65.2896 19.4266C65.2896 19.4177 65.2896 19.4088 65.2883 19.4C65.2883 19.4025 65.2883 19.4063 65.287 19.4088C65.2617 19.5341 65.0365 19.8782 65.0618 19.9352C65.01 20.1351 64.9568 20.3363 64.9049 20.5362C64.8581 20.7158 64.81 20.8942 64.767 21.0739C64.7265 21.2409 64.6936 21.4092 64.6569 21.5775H64.6721C64.6721 21.5775 64.6658 21.5838 64.6633 21.5876C64.5696 21.9469 64.4558 22.3025 64.3875 22.6668C64.3419 22.9085 64.3014 23.0325 64.2584 23.2666C64.2432 23.3501 64.166 23.674 63.9838 24.0877H63.9876L63.9927 24.0902C63.9927 24.0902 64.0041 24.0928 64.0091 24.094C64.0155 24.094 64.0218 24.0966 64.0281 24.0978C64.0345 24.0978 64.0395 24.1004 64.0458 24.1004L64.0585 24.1029C64.0673 24.1042 64.0762 24.1054 64.0851 24.1067C64.0964 24.108 64.1078 24.1092 64.1192 24.1118C64.1306 24.113 64.142 24.1143 64.1534 24.1155C64.166 24.1155 64.1787 24.1181 64.1913 24.1181C64.2027 24.1181 64.2154 24.1193 64.2268 24.1206C64.2369 24.1206 64.2483 24.1206 64.2584 24.1206C64.2799 24.1206 64.3002 24.1206 64.3217 24.1206C64.3394 24.1206 64.3571 24.1206 64.3761 24.1181C64.395 24.1181 64.4153 24.1155 64.4343 24.113C64.4596 24.1105 64.4849 24.1067 64.5102 24.1029C64.5292 24.1004 64.5469 24.0966 64.5659 24.0928C64.5798 24.0902 64.595 24.0864 64.6089 24.0827C64.6203 24.0801 64.6316 24.0763 64.643 24.0738C64.6481 24.0738 64.6519 24.0713 64.6569 24.07L64.6683 24.0662H64.6734L64.6785 24.0624H64.6823L64.6861 24.0586L64.6911 24.0548C64.8493 23.9194 64.9922 23.7663 65.139 23.6196C65.1846 23.574 65.2162 23.5348 65.2175 23.4564C65.2175 23.4019 65.2719 23.3425 65.3085 23.2919C65.3781 23.1995 65.7565 22.1544 65.8007 22.2253L65.7982 22.2164L65.8007 22.2152ZM64.8594 22.9237V22.8959L64.9986 22.9009C64.9973 22.9136 64.9948 22.9262 64.9935 22.9389C64.9492 22.9338 64.9037 22.9287 64.8594 22.9237ZM65.0011 23.6284L64.9758 23.6208L64.9821 23.5955C64.991 23.5981 65.0011 23.5968 65.0062 23.6031C65.0087 23.6069 65.0036 23.6196 65.0011 23.6284ZM65.2402 23.1464L65.2124 23.1325L65.2428 23.1185L65.2402 23.1464Z" fill="white"/>
<path d="M40.8058 24.757C40.7995 24.7596 40.7932 24.7621 40.7869 24.7646C40.7755 24.7684 40.7641 24.7722 40.7514 24.776C40.7413 24.7798 40.7299 24.7823 40.7185 24.7861C40.7084 24.7887 40.6983 24.7925 40.6882 24.795C40.6768 24.7988 40.6641 24.8013 40.6527 24.8051C40.6338 24.8102 40.6148 24.8152 40.5945 24.8203C40.5806 24.8241 40.5654 24.8279 40.5503 24.8304C40.5363 24.8342 40.5212 24.8367 40.506 24.8405C40.4921 24.8431 40.4769 24.8469 40.463 24.8494C40.4478 24.8519 40.4339 24.8557 40.4187 24.8582C40.4022 24.8608 40.3858 24.8646 40.3706 24.8671C40.3579 24.8696 40.3466 24.8709 40.3339 24.8734C40.3162 24.876 40.2972 24.8785 40.2795 24.881C40.2668 24.8823 40.2529 24.8848 40.2403 24.8861C40.2238 24.8886 40.2086 24.8899 40.1935 24.8911C40.1745 24.8937 40.1555 24.8949 40.1365 24.8962C40.1213 24.8962 40.1062 24.8987 40.0922 24.8987C40.0758 24.8987 40.0606 24.9 40.0442 24.9013C40.0315 24.9013 40.0201 24.9013 40.0075 24.9013C39.9948 24.9013 39.9822 24.9013 39.9695 24.9013H39.9467C39.8303 24.8949 39.7342 24.8734 39.681 24.8291C39.4584 24.6419 39.3078 24.1687 39.2749 23.8625C39.2559 23.6879 39.1408 22.8883 39.1382 22.8769C39.118 22.7529 39.1054 22.5163 39.099 22.2759C39.1636 21.6762 39.1382 21.2725 39.2281 20.6678C39.2521 20.502 39.2698 19.8972 39.2749 19.7302C39.2407 19.7264 39.2066 19.7327 39.1737 19.7517C38.9168 19.8998 38.6562 20.0415 38.4107 20.2085C38.1412 20.3932 37.8768 20.5918 37.6288 20.8082C37.2923 21.1005 36.9342 21.37 36.6419 21.7179C36.547 21.8305 36.4496 21.9393 36.3484 22.0469L36.3433 22.0519C35.4083 22.9212 34.7466 23.4981 33.8748 23.7461C33.4459 23.8676 33.8786 23.9156 33.4333 23.8979C33.1954 23.8878 33.0043 23.9941 32.8437 23.86C32.7197 23.7562 32.6007 23.6196 32.5451 23.4728C32.4287 23.1666 32.3021 22.849 32.2756 22.5239C32.2313 21.9646 32.2781 21.3965 32.4666 20.8462C32.6804 20.2173 32.9057 19.5986 33.2409 19.009C33.5889 18.3979 34.0077 17.8412 34.4303 17.287C34.5328 17.1542 34.6466 17.0289 34.7605 16.9037C34.8124 16.8303 34.8655 16.7556 34.9187 16.6822C34.9237 16.6746 34.9288 16.6671 34.9338 16.6607C34.944 16.6468 34.9541 16.6316 34.9642 16.6177C34.9933 16.576 35.0237 16.5355 35.054 16.4937C35.0857 16.4494 35.1173 16.4064 35.1489 16.3621C35.197 16.2951 35.2464 16.2293 35.2944 16.1635C35.3324 16.1116 35.3704 16.061 35.4083 16.0091C35.4324 15.9762 35.4564 15.9446 35.4804 15.9117C35.5234 15.8548 35.5652 15.7991 35.6082 15.7434C35.6323 15.7118 35.6563 15.6814 35.6791 15.6498C35.7069 15.6144 35.7335 15.5789 35.7613 15.5435C35.7929 15.503 35.8246 15.4625 35.8562 15.4233C35.8891 15.3828 35.9207 15.3423 35.9536 15.3019C35.984 15.2639 36.0156 15.2259 36.046 15.188C36.0738 15.1538 36.1029 15.1184 36.1308 15.0842C36.1548 15.0564 36.1776 15.0273 36.2016 14.9995C36.2383 14.9564 36.275 14.9122 36.3117 14.8691C36.3421 14.8337 36.3737 14.797 36.4053 14.7616C36.437 14.7262 36.4686 14.6895 36.5002 14.6541C36.5268 14.6237 36.5534 14.5946 36.5799 14.5655C36.5976 14.5452 36.6166 14.525 36.6343 14.506C36.666 14.4719 36.6976 14.4364 36.7305 14.4023C36.752 14.3795 36.7735 14.3567 36.795 14.3339C36.8153 14.3124 36.8355 14.2909 36.857 14.2694C36.6824 14.272 36.5103 14.3086 36.3433 14.4276C35.6816 14.5794 35.1312 14.9602 34.6074 15.3575C33.8913 15.9028 33.179 16.4659 32.5261 17.0998C31.7163 17.8855 31.0344 18.756 30.6168 19.7998C30.565 19.9289 30.4941 20.0528 30.4346 20.1794C30.212 20.6589 29.9463 21.1245 29.8235 21.6395C29.7767 21.833 29.7603 22.0317 29.7172 22.2265C29.6515 22.5289 29.5781 22.8301 29.5034 23.1312C29.4591 23.3109 29.4857 23.469 29.6249 23.5917C29.7084 23.6651 29.7527 23.7461 29.7704 23.86C29.8514 24.3977 30.0627 24.7735 30.4688 25.1366C30.5144 25.1771 30.5839 25.1999 30.6118 25.2479C30.7408 25.4719 30.9509 25.4719 31.1824 25.4225C31.2026 25.296 31.2229 25.1708 31.2444 25.0341C31.4671 25.0404 31.6594 25.0291 31.8429 25.0544C32.0795 25.0873 32.3021 25.1227 32.5223 24.9595C32.5754 24.9202 32.6741 24.9354 32.7526 24.9304C33.308 24.8937 33.8217 24.4989 34.3442 24.3357C34.4467 24.3041 34.5378 24.2307 34.634 24.1763C34.9326 24.0067 35.1983 23.6057 35.5083 23.4538C35.6892 23.3653 35.8575 23.2413 36.0106 23.1097C36.0979 23.035 36.1826 22.9604 36.2687 22.8857C36.4142 22.8073 36.5723 22.7567 36.7419 22.7301C36.7634 22.7149 36.7849 22.701 36.8064 22.6846L36.8115 22.6808L36.8191 22.6744C36.8848 23.0414 36.9873 23.574 36.9835 23.8068C37.0025 23.7942 37.0215 23.7828 37.0405 23.7714C37.0708 23.9726 37.1075 24.1788 37.1303 24.3142C37.1506 24.4344 37.1923 24.5343 37.2885 24.6115C37.4719 24.7596 37.5769 24.9696 37.6516 25.1847C37.7123 25.3593 37.911 25.5668 38.2197 25.5668C38.5398 25.6642 38.8599 25.6604 39.3065 25.5756H39.3103C39.49 25.5402 40.3655 25.3365 40.8185 24.7507C40.8185 24.7507 40.8096 24.7545 40.8046 24.7558L40.8058 24.757ZM46.2654 24.2712L46.2552 24.2762C46.2489 24.2788 46.2426 24.2813 46.2363 24.2838C46.2312 24.2864 46.2261 24.2876 46.2211 24.2901C46.2135 24.2927 46.2072 24.2952 46.1996 24.299C46.1945 24.3015 46.1895 24.3028 46.1844 24.3053C46.1793 24.3079 46.1743 24.3091 46.1692 24.3104C46.1616 24.3129 46.1553 24.3155 46.1477 24.318C46.1401 24.3205 46.1325 24.323 46.1249 24.3256C46.1173 24.3281 46.1085 24.3306 46.1009 24.3332C46.0946 24.3344 46.0882 24.337 46.0832 24.3382C46.068 24.342 46.0528 24.3458 46.0376 24.3496C46.0313 24.3509 46.0262 24.3521 46.0199 24.3534C46.0085 24.3559 45.9984 24.3572 45.987 24.3597C45.9756 24.361 45.9655 24.3623 45.9554 24.3635C45.9427 24.3648 45.9288 24.3661 45.9174 24.3661C45.9098 24.3661 45.9022 24.3661 45.8959 24.3661C45.8833 24.3661 45.8706 24.3661 45.858 24.3661C45.8504 24.3661 45.8428 24.3661 45.8352 24.3648C45.8289 24.3648 45.8213 24.3635 45.8149 24.3623C45.8074 24.3623 45.7998 24.3597 45.7922 24.3585C45.7846 24.3585 45.7783 24.3559 45.7707 24.3547C45.7618 24.3521 45.7529 24.3509 45.7441 24.3484C45.739 24.3471 45.7352 24.3458 45.7302 24.3446C45.7251 24.3433 45.7201 24.342 45.715 24.3395C45.7099 24.3382 45.7049 24.3357 45.6998 24.3344L45.6935 24.3319H45.6897L45.6859 24.3294C45.5834 24.2901 45.4898 24.2231 45.3835 24.1472C45.367 24.1105 44.8989 23.9485 44.8787 22.7972C44.842 22.6466 44.8141 22.4935 44.7787 22.3429C44.6724 21.8925 44.5649 21.4408 44.4535 20.9904C44.4244 20.8715 44.3485 20.7551 44.3536 20.6387C44.3852 19.9769 44.2473 19.3342 44.1967 18.6826C44.1625 18.2284 44.136 18.2005 44.1385 17.7438C44.141 17.4173 44.1322 17.0896 44.1284 16.7417C44.0537 16.7442 43.9816 16.7291 43.9221 16.7518C43.7361 16.8202 43.5539 16.9024 43.3692 16.9796C42.9302 17.1643 43.1794 17.1137 42.7733 17.3591C42.6518 17.4325 41.7775 18.0107 41.7383 18.1904C41.7383 18.1904 41.7371 18.1993 41.7358 18.2043C41.7358 18.2107 41.7345 18.2195 41.7333 18.2271C41.7333 18.2385 41.732 18.2511 41.7307 18.2663C41.7307 18.2866 41.7307 18.3081 41.7307 18.3334C41.7307 18.4144 41.7358 18.5219 41.7446 18.651C41.7497 18.7231 41.7548 18.8015 41.7624 18.8863C41.7712 18.9976 41.7813 19.1178 41.794 19.2456C41.8054 19.3684 41.818 19.4974 41.8307 19.6315C41.8459 19.7796 41.8611 19.9327 41.8775 20.0895C41.8902 20.2085 41.9028 20.3287 41.9155 20.4489C41.9256 20.5463 41.937 20.6437 41.9471 20.7411C41.9559 20.8209 41.9648 20.9006 41.9737 20.979C41.9863 21.0954 42.0002 21.2105 42.0129 21.3244C42.0217 21.3965 42.0293 21.4687 42.0369 21.5382C42.0496 21.6521 42.0635 21.7635 42.0749 21.8697C42.0901 21.9988 42.104 22.1203 42.1166 22.2341C42.1293 22.3467 42.1419 22.4505 42.1521 22.5429C42.1559 22.5795 42.1609 22.615 42.1647 22.6491C42.1685 22.6871 42.1723 22.7212 42.1761 22.7541L42.1799 22.7858L42.1824 22.806C42.1951 22.9186 42.2027 22.9895 42.2027 23.0085C42.2077 23.2564 42.2925 23.4766 42.4038 23.6955C42.562 24.0042 42.7682 24.2914 42.8226 24.652C42.8404 24.7634 42.8581 24.8772 42.8922 24.9835C42.9201 25.0695 42.9846 25.1239 43.0909 25.0847C43.1023 25.0809 43.1225 25.105 43.1339 25.1126C43.1023 25.1632 43.0744 25.21 43.0466 25.2543C43.2149 25.4997 43.416 25.5934 43.7083 25.4858C43.8272 25.4415 43.9626 25.4504 44.0879 25.4276C44.1714 25.4124 44.2511 25.3757 44.3321 25.3542C44.8951 25.1986 45.8238 24.8696 46.273 24.2737L46.2755 24.2712H46.2717L46.2628 24.2762L46.2654 24.2712ZM52.8079 24.089C52.4284 23.9966 52.0918 24.0611 51.7135 23.908C51.4984 23.8207 51.2188 23.6942 51.0758 23.5209C50.8291 23.2248 50.6279 22.9351 50.5596 22.6175C50.4394 22.0519 50.2484 21.6395 50.1661 21.0777C50.1003 20.6247 50.075 20.3666 50.0016 19.9137C49.9649 19.6847 49.9422 19.6239 49.9004 19.3127C49.8561 18.9837 49.8194 18.8078 49.7372 18.2638C49.7309 18.2246 49.679 17.8956 49.6727 17.8577C49.6271 17.5692 49.555 17.2794 49.5525 16.9884C49.5499 16.6493 49.5702 16.1357 49.5297 15.8155C49.2766 15.6979 48.9502 15.9699 48.7528 16.0888C48.3277 16.3444 48.1822 16.4077 47.733 16.6202C47.6609 16.6544 47.3332 16.8075 47.2687 16.853C47.2687 16.8594 47.2687 16.8708 47.2712 16.8847C47.2712 16.8948 47.2738 16.9075 47.2763 16.9226C47.2814 16.9593 47.289 17.0074 47.2965 17.0643C47.3003 17.0934 47.3054 17.1251 47.3105 17.158C47.3143 17.1795 47.3168 17.201 47.3206 17.2238C47.3269 17.2655 47.3332 17.3085 47.3396 17.3528C47.3434 17.3794 47.3471 17.406 47.3509 17.4338C47.356 17.4718 47.3611 17.5097 47.3649 17.5477C47.3725 17.6147 47.3788 17.6805 47.3851 17.745C47.3914 17.8184 47.3952 17.8905 47.3952 17.9551C47.3952 18.0032 47.3952 18.0474 47.3914 18.0879C47.3889 18.1246 47.3838 18.1562 47.3763 18.1841C47.3712 18.2043 47.3699 18.26 47.3725 18.3435C47.3737 18.3865 47.3763 18.4384 47.38 18.4966C47.3813 18.5232 47.3826 18.551 47.3851 18.5801C47.3889 18.6472 47.394 18.7218 47.4003 18.8015C47.4041 18.8534 47.4079 18.9091 47.4129 18.966C47.4155 18.9976 47.418 19.0293 47.4205 19.0609C47.4231 19.0887 47.4256 19.1153 47.4269 19.1444C47.4319 19.2051 47.437 19.2684 47.4433 19.3342C47.4471 19.381 47.4509 19.4291 47.456 19.4772C47.4598 19.5164 47.4623 19.5556 47.4661 19.5948C47.4674 19.6138 47.4699 19.6341 47.4711 19.653C47.4737 19.6809 47.4762 19.7074 47.4787 19.7353C47.4813 19.7631 47.4838 19.7922 47.4863 19.82C47.4889 19.8428 47.4901 19.8656 47.4927 19.8884C47.4952 19.9111 47.4964 19.9327 47.499 19.9554C47.5015 19.982 47.504 20.0086 47.5066 20.0351C47.5104 20.0718 47.5142 20.1085 47.5167 20.1452C47.5192 20.1693 47.5218 20.192 47.523 20.2161C47.5268 20.2591 47.5319 20.3021 47.5357 20.3451C47.5395 20.3793 47.542 20.4134 47.5458 20.4476C47.5483 20.4729 47.5509 20.4969 47.5534 20.5223C47.5572 20.5589 47.561 20.5956 47.5648 20.6311C47.5686 20.669 47.5724 20.707 47.5762 20.7449C47.5787 20.769 47.5812 20.7918 47.5838 20.8158C47.5875 20.85 47.5901 20.8829 47.5939 20.917C47.5977 20.9562 47.6015 20.9967 47.6065 21.0359C47.6103 21.0676 47.6129 21.1005 47.6166 21.1321C47.6217 21.1751 47.6255 21.2169 47.6293 21.2599C47.6318 21.2865 47.6344 21.3118 47.6369 21.3371C47.6407 21.3738 47.6445 21.4105 47.6483 21.4459C47.6533 21.4876 47.6571 21.5294 47.6609 21.5711C47.6647 21.6015 47.6673 21.6319 47.6711 21.661C47.6761 21.7103 47.6812 21.7597 47.6875 21.8065C47.6926 21.8546 47.6976 21.9014 47.7027 21.9469C47.7065 21.9849 47.7115 22.0216 47.7153 22.057C47.7191 22.0899 47.7229 22.1228 47.7267 22.1544C47.728 22.1658 47.7293 22.1772 47.7305 22.1886L47.733 22.2101C47.7786 22.6023 47.8128 22.8642 47.8241 22.8781C47.8912 22.9642 47.9406 23.0641 47.9962 23.159C48.1139 23.3627 48.2328 23.5614 48.4745 23.636C48.5188 23.6499 48.5605 23.6993 48.5858 23.7436C48.7313 24.0067 48.873 24.2724 49.0135 24.5369C49.1704 24.8329 49.3943 25.062 49.6524 25.2568C49.6929 25.2872 49.7498 25.3074 49.8005 25.3087C49.9055 25.3112 50.0168 25.2783 50.1168 25.2985C50.2129 25.3175 50.2977 25.4251 50.3888 25.4213C50.6671 25.4124 50.9379 25.4782 51.2239 25.4162C51.5237 25.3517 51.8046 25.2366 52.0146 25.0278C52.2348 24.8089 52.4891 24.6621 52.7244 24.4787C52.832 24.3952 52.956 24.337 53.0648 24.256C53.1116 24.2206 53.1382 24.1535 53.1951 24.0713C53.0901 24.0396 52.8826 24.1054 52.8092 24.0877L52.8079 24.089ZM49.5651 24.7115C49.5461 24.7115 49.5272 24.6634 49.5082 24.6368C49.5436 24.6216 49.5778 24.6027 49.6145 24.5951C49.6259 24.5925 49.6423 24.6254 49.6638 24.652C49.6284 24.6761 49.5968 24.7102 49.5651 24.7127V24.7115ZM28.8733 21.5547C28.7734 21.6572 28.6734 21.7609 28.576 21.8672C28.5431 21.9026 28.5102 21.9393 28.4773 21.9748C28.3862 22.076 28.2647 22.1987 28.1319 22.3303C28.0357 22.4252 27.9333 22.5239 27.8295 22.6213C27.7802 22.6681 27.7321 22.7137 27.684 22.7592C27.66 22.782 27.6372 22.8035 27.6131 22.8263C27.2816 23.1375 26.9932 23.4032 26.9691 23.4437C26.9577 23.4639 26.94 23.4753 26.9249 23.4893C26.7654 23.6284 26.6073 23.7777 26.4466 23.9055C26.1935 24.1067 25.9392 24.3066 25.6836 24.4799C25.5926 24.5419 25.5116 24.6533 25.4129 24.6912C25.2737 24.7444 25.1345 24.8595 24.9941 24.9493C24.698 25.1404 24.402 25.3365 24.1059 25.5225C24.035 25.5668 23.9629 25.6022 23.9047 25.706C23.8313 25.8363 23.7491 25.8856 23.6593 25.916C23.5897 25.9388 23.5112 25.9717 23.453 26.0476C23.386 26.1349 23.3265 26.1703 23.2531 26.2045C23.019 26.3145 22.7862 26.4562 22.5534 26.5764C22.4838 26.6119 22.413 26.6169 22.3434 26.6334C22.3054 26.6422 22.2624 26.6233 22.2295 26.6562C22.1043 26.7814 21.979 26.7776 21.855 26.8282C21.7766 26.8599 21.7045 26.9054 21.6273 26.9573C21.4438 27.0825 21.2477 27.2091 21.0693 27.2205C20.8871 27.2318 20.715 27.39 20.5366 27.4318C20.3671 27.471 20.19 27.6152 20.0204 27.6494C19.7623 27.7025 19.5055 27.7835 19.2474 27.905C19.1234 27.9632 18.9994 27.891 18.8766 28.0669C18.8741 28.072 18.8615 28.0631 18.8577 28.0555C18.7969 27.9277 18.7084 28.0378 18.6413 28.0922C18.5692 28.1491 18.5047 28.1922 18.4363 28.1707C18.4148 28.1643 18.392 28.1567 18.3693 28.1643C18.1972 28.2238 18.0264 28.2858 17.8543 28.3478C17.7139 28.3984 17.5671 28.4971 17.4355 28.4895C17.2356 28.4781 17.0281 28.6451 16.8307 28.6072C16.77 28.5958 16.7105 28.6654 16.6802 28.8083C16.6612 28.8982 16.6207 28.9817 16.584 29.0829C16.5018 29.0209 16.4334 28.9703 16.3563 28.9121L16.2917 29.2676C16.4271 29.2385 16.5499 29.2094 16.6713 29.1854C16.746 29.1702 16.808 29.1031 16.8687 28.9728C16.937 29.1398 17.0408 29.1525 17.166 29.1145C17.2748 29.0804 17.3824 29.0753 17.4925 29.0019C17.5152 28.9867 17.5418 29.0146 17.5772 29.026C17.3836 29.4625 17.1344 29.6485 16.8965 29.899C16.7586 29.7914 16.6017 29.856 16.4436 29.942C16.2424 30.0508 16.0425 30.2052 15.8489 30.1001C15.7932 30.0698 15.711 30.133 15.6414 30.152C15.5478 30.1786 15.4529 30.2204 15.3618 30.2279C15.2239 30.2393 15.0885 30.2558 14.9468 30.3039C14.6811 30.3937 14.4154 30.5367 14.1509 30.5809C14.051 30.5974 13.9485 30.6505 13.8473 30.6796C13.7942 30.6948 13.7347 30.7227 13.6891 30.6986C13.5993 30.6518 13.5145 30.6935 13.4196 30.7771C13.2817 30.8985 13.1501 30.9441 13.0148 30.8618C12.8427 30.7568 12.6504 30.7846 12.4467 30.8973C12.3417 30.9555 12.2316 30.9365 12.1253 30.9466C12.0797 30.9517 12.0342 30.92 11.9886 30.9428C11.8077 31.0339 11.647 30.9846 11.4927 30.92C11.3573 30.8644 11.2295 30.8682 11.1182 30.9921C11.0347 30.9618 10.9802 30.9213 10.922 30.9264C10.8461 30.9327 10.7652 30.9593 10.688 31.0061C10.4919 31.125 10.3147 31.0984 10.1401 31.0415C10.0655 31.0175 9.99589 31.0124 9.91238 31.087C9.87063 31.1237 9.8099 31.1503 9.77953 31.1225C9.70362 31.0567 9.61758 31.0896 9.53407 31.0946C9.41135 31.1035 9.28735 31.1225 9.16715 31.1161C8.8559 31.0997 8.54718 31.0693 8.23593 31.0503C8.04109 31.0377 7.86016 30.9301 7.65266 30.9959C7.56156 30.901 7.44895 30.9529 7.34141 30.9605C7.27308 30.9656 7.20729 30.9415 7.1415 30.9289C6.95045 30.8935 6.78596 30.7227 6.57467 30.7846C6.54683 30.7935 6.52153 30.7518 6.49243 30.7429C6.35578 30.6999 6.22293 30.61 6.07996 30.629C5.86107 30.6581 5.69912 30.4759 5.50301 30.4304C5.41065 30.2925 5.27906 30.2811 5.16392 30.2178C5.08927 30.1761 5.00324 30.171 4.92859 30.128C4.75904 30.0306 4.59836 29.9028 4.42502 29.8193C4.3276 29.7725 4.22764 29.737 4.14034 29.6548C3.93031 29.4587 3.71901 29.2676 3.50645 29.0778C3.44446 29.0222 3.38246 28.9387 3.31287 28.9412C3.20912 28.945 3.15092 28.8488 3.08766 28.7565C2.97758 28.5932 2.89534 28.368 2.73465 28.3174C2.71441 28.3111 2.70049 28.2769 2.68531 28.2529C2.60307 28.1226 2.5183 27.9973 2.43859 27.8607C2.36394 27.7329 2.28296 27.6102 2.22856 27.4545C2.09318 27.0648 1.96792 26.66 1.84392 26.2538C1.81103 26.145 1.79837 26.0121 1.7756 25.8907C1.72752 25.6338 1.72625 25.3403 1.68703 25.0809C1.63389 24.7343 1.63136 24.3724 1.65034 23.9966C1.66552 23.6904 1.69336 23.3804 1.72625 23.0705C1.74397 22.9034 1.77813 22.7352 1.80976 22.5682C1.8338 22.4416 1.86417 22.3176 1.89327 22.1924C1.94261 21.9861 1.98057 21.7673 2.04763 21.5749C2.22223 21.079 2.42467 20.6146 2.68911 20.2439C2.78273 20.1136 2.84347 19.9491 2.90293 19.7821C2.94848 19.653 2.98517 19.5139 3.02186 19.3772C3.03452 19.3304 3.03452 19.2785 3.0459 19.1862C2.79412 19.424 2.59674 19.7087 2.43859 20.0895C2.40696 20.1642 2.38545 20.2528 2.34875 20.3173C2.11215 20.7437 1.95147 21.2612 1.74397 21.7242C1.58834 22.0722 1.47953 22.4758 1.34668 22.8528C1.26444 23.0844 1.21004 23.3412 1.1531 23.5917C1.10249 23.8132 1.04808 24.0409 1.03037 24.261C0.991148 24.7241 0.97217 25.1834 0.95066 25.644C0.922825 26.2487 0.958252 26.8244 1.05061 27.3508C1.16702 28.0112 1.33909 28.616 1.58075 29.1284C1.79078 29.5751 2.10203 29.8167 2.34369 30.1988C2.34875 30.2064 2.35761 30.2077 2.36267 30.214C2.55499 30.4152 2.74731 30.6164 2.93962 30.8163C2.95734 30.8353 2.97632 30.8504 2.99782 30.8606C3.05729 30.8897 3.11676 30.915 3.22683 30.963C3.15978 30.8416 3.13321 30.7707 3.09398 30.7264C3.01933 30.6404 2.93836 30.5658 2.85865 30.4898C2.74098 30.3798 2.63976 30.2317 2.52083 30.1229C2.40822 30.0204 2.3399 29.8129 2.21211 29.7206C2.10962 29.6472 2.0413 29.4739 1.94767 29.3676C1.89074 29.3018 1.86417 29.2069 1.84645 29.0943C1.8376 29.0361 1.85025 28.9893 1.90086 28.95C1.94641 29.026 1.99575 29.1095 2.04636 29.1917C2.23488 29.5004 2.41834 29.8193 2.65874 30.0141C2.84473 30.1647 3.03578 30.3039 3.22557 30.4418C3.3445 30.5265 3.47609 30.5734 3.58616 30.6822C3.87717 30.9694 4.21879 31.0757 4.54016 31.2528C4.71223 31.3477 4.90202 31.3705 5.07789 31.4413C5.45619 31.5919 5.83577 31.7285 6.23179 31.7918C6.60503 31.8512 6.96563 31.993 7.36165 31.912C7.4072 31.9031 7.44895 31.9335 7.4945 31.9411C7.62862 31.9626 7.7602 32.0157 7.89938 31.9955C8.26503 31.9449 8.62183 31.9563 8.9799 31.9626C9.14564 31.9651 9.3038 32.0322 9.47967 31.9626C9.49485 31.9563 9.50877 31.9702 9.52395 31.9689C9.84153 31.9373 10.1578 31.9057 10.4754 31.8728C10.4906 31.8715 10.507 31.8728 10.5222 31.8614C10.5969 31.8019 10.6576 31.8437 10.7259 31.8487C10.922 31.8652 11.1169 31.8955 11.3231 31.8348C11.4724 31.7918 11.6243 31.7197 11.7685 31.7171C11.9836 31.7133 12.1999 31.6728 12.4176 31.6286C12.5327 31.6058 12.6504 31.5754 12.7668 31.5261C12.9629 31.4426 13.1577 31.3325 13.3399 31.4249C13.3602 31.435 13.3855 31.4287 13.4083 31.4249C13.6866 31.3768 13.9688 31.2844 14.2408 31.3021C14.2699 31.3047 14.304 31.2794 14.3344 31.2718C14.4192 31.2515 14.5052 31.23 14.59 31.2148C14.6355 31.206 14.6811 31.2136 14.7266 31.2022C14.9291 31.1554 15.1328 31.0137 15.3365 30.9782C15.377 30.9706 15.4428 30.9188 15.463 30.8606C15.5073 30.734 15.5566 30.6973 15.6237 30.6708C15.7439 30.624 15.8578 30.5873 15.9476 30.7201C15.9995 30.796 16.0779 30.7657 16.1475 30.7239C16.1779 30.7062 16.2057 30.6303 16.2348 30.5797C16.3031 30.6113 16.3411 30.7366 16.4334 30.6961C16.5245 30.6569 16.6043 30.6025 16.6663 30.4456C16.6726 30.4278 16.6941 30.4253 16.7093 30.4165C16.7611 30.4759 16.8118 30.5354 16.8409 30.5683C17.0357 30.5202 17.1989 30.4886 17.3634 30.438C17.6291 30.3557 17.8961 30.2419 18.1605 30.1811C18.325 30.1432 18.4869 29.9977 18.6502 29.9875C18.7261 29.9825 18.8058 29.9407 18.8842 29.9218C18.9437 29.9066 19.0032 29.9015 19.0664 29.8914C19.0563 29.9888 19.0487 30.0559 19.0411 30.1293C19.0652 30.1318 19.0867 30.1381 19.1094 30.1343C19.3195 30.0938 19.5282 29.918 19.7408 29.8522C20.109 29.7396 20.4784 29.5599 20.8479 29.4005C21.0908 29.2942 21.335 29.1791 21.5779 29.0576C21.7892 28.9526 22.0005 28.8134 22.2118 28.7286C22.4218 28.6439 22.6281 28.4338 22.8406 28.4148C22.871 28.4123 22.9064 28.3959 22.9343 28.3655C23.095 28.1896 23.2632 28.2339 23.4252 28.0985C23.6099 28.12 23.782 27.9062 23.9591 27.7873C23.9945 27.7632 24.0236 27.6709 24.073 27.5773C24.1236 27.5773 24.1919 27.619 24.2413 27.5709C24.326 27.49 24.4108 27.4558 24.4943 27.3963C25.2104 26.8814 25.9013 26.2222 26.5731 25.463C26.8426 25.1594 27.1007 24.8152 27.3449 24.4382C27.6878 23.9093 28.0497 23.4159 28.3407 22.7782C28.4457 22.5492 28.5583 22.3303 28.676 22.119C28.8177 21.8634 28.9556 21.6015 29.0884 21.3333C29.0543 21.3687 29.0188 21.4054 28.9847 21.4408C28.9467 21.4788 28.91 21.518 28.8721 21.556L28.8733 21.5547ZM10.3565 16.3128C10.3818 16.3318 10.4122 16.3419 10.4425 16.3457C10.5779 16.3596 10.712 16.4052 10.8499 16.3761C11.2194 16.2963 11.5774 16.3153 11.9406 16.2862H11.9431C11.9811 16.2824 12.019 16.2799 12.057 16.2748C12.0785 16.2723 12.1013 16.2698 12.124 16.266C12.1645 16.2609 12.205 16.2634 12.2455 16.2584C12.2695 16.2559 12.2936 16.2508 12.3189 16.2407C12.3201 16.2356 12.3176 16.228 12.3227 16.2242C12.329 16.2204 12.3341 16.2179 12.3404 16.2141C12.3935 16.1863 12.4581 16.1534 12.5314 16.1167C12.6137 16.0762 12.706 16.0319 12.8085 15.9838C12.9211 15.9307 13.0439 15.8737 13.1754 15.8143C13.3374 15.7409 13.5107 15.6625 13.6891 15.5815C13.8093 15.5271 13.9321 15.4727 14.0548 15.417C14.1889 15.3575 14.3243 15.2968 14.4584 15.2373C14.6001 15.1741 14.7406 15.1108 14.8772 15.0488C15.0746 14.9602 15.2618 14.8742 15.4339 14.7958C15.587 14.7249 15.7274 14.6591 15.8476 14.6009C15.9337 14.5592 16.0096 14.5212 16.0741 14.4883C16.1462 14.4516 16.2184 14.4137 16.2905 14.3782C16.5283 14.258 16.7662 14.1404 17.0041 14.0278C17.1053 13.9797 17.2065 13.9329 17.3077 13.8861C17.5823 13.7595 17.8606 13.6381 18.1441 13.5204C18.1909 13.5014 18.2377 13.4812 18.2858 13.4622C18.3452 13.4382 18.4148 13.4091 18.492 13.3749C18.578 13.3382 18.6729 13.2964 18.7754 13.2509C18.8969 13.1978 19.0259 13.1396 19.1588 13.0801C19.2727 13.0295 19.3891 12.9776 19.5029 12.9257C19.5852 12.889 19.6661 12.8523 19.7459 12.8182C19.8066 12.7916 19.8661 12.765 19.9243 12.7397C20.3279 12.5639 20.6391 12.4361 20.6505 12.4639C20.7644 12.4399 20.8795 12.4044 20.9947 12.3791C21.1477 12.3462 21.3008 12.3311 21.4565 12.2425C21.7386 12.0831 22.017 12.0843 22.3004 11.9566C22.7242 11.7642 23.1494 11.5896 23.5732 11.4441C23.9022 11.3315 25.1244 10.7217 25.4508 10.7166C25.4812 10.7166 25.5141 10.6976 25.5445 10.6787C25.6432 10.6205 25.6672 10.7609 25.7456 10.8381C25.819 10.9089 25.8405 11.4517 25.9392 11.4176C26.0569 11.1329 26.2707 10.9102 26.439 10.8229C26.5314 10.7748 26.6655 10.1017 26.7427 9.99796C26.9527 9.7196 27.1146 8.73904 27.3424 8.50244C27.3626 8.48093 27.3816 8.43918 27.3955 8.40248C27.5461 8.00646 27.6979 7.61171 27.7991 7.17646C27.832 7.03223 27.9927 6.81587 27.951 6.72351C27.8953 6.59825 28.1218 5.97701 28.0218 6.00864C27.9434 6.03521 27.5031 6.37683 27.4272 6.43756C27.2956 6.54258 27.1792 6.69187 27.0704 6.62861C26.9831 6.57674 26.7654 6.84497 26.6731 6.8728C26.4845 6.92974 26.296 6.9968 26.1075 7.06386C26.0139 7.09802 25.9165 7.11573 25.8279 7.19038C25.7178 7.28401 25.6128 7.33968 25.5015 7.35866C25.4015 7.37637 24.4083 7.78505 24.3083 7.80529C24.0692 7.85463 23.8301 7.9141 23.5922 7.95459C23.386 7.98875 23.1721 7.97736 22.9735 8.27343C22.9242 8.24812 22.8824 8.19372 22.8419 8.2127C22.6863 8.28482 22.5433 8.13678 22.3814 8.3253C22.3687 8.34049 22.3497 8.34049 22.3345 8.33922C22.1372 8.32277 21.9309 8.49485 21.7323 8.49991C21.6969 8.49991 21.6526 8.5328 21.6172 8.57076C21.5602 8.63149 21.5083 8.65174 21.4577 8.6239C21.3211 8.54546 21.1756 8.62137 21.025 8.68843C20.8846 8.75169 20.7441 8.84152 20.6024 8.83646C20.5215 8.83393 20.4304 8.90226 20.3443 8.94654C20.2583 8.98956 20.1722 9.03764 20.0875 9.09078C19.9597 9.17175 19.8319 9.29954 19.7054 9.24387C19.5434 9.39064 19.3954 9.33244 19.2448 9.3337C19.1385 9.3337 19.0411 9.26158 18.9323 9.44884C18.9171 9.47415 18.8868 9.47288 18.864 9.47668C18.7792 9.48806 18.6957 9.48174 18.6109 9.50704C18.5262 9.53235 18.4262 9.545 18.3604 9.63736C18.2668 9.76895 18.1921 9.6614 18.1112 9.74491C18.0315 9.82715 17.9581 9.82209 17.8847 9.79678C17.8252 9.77654 17.7594 9.79299 17.7063 9.89927C17.6493 10.0144 17.5886 9.99669 17.5279 10.003C17.3267 10.0233 17.1268 10.0397 16.9256 10.065C16.8801 10.0701 16.8295 10.0928 16.7852 10.1321C16.7194 10.1915 16.6574 10.2991 16.5916 10.337C16.5157 10.3813 16.4372 10.3636 16.3601 10.3889C16.3234 10.4003 16.2867 10.456 16.25 10.48C16.1349 10.5534 16.0184 10.6458 15.9033 10.685C15.7996 10.7204 15.7009 10.7786 15.5997 10.8558C15.5478 10.8963 15.4769 10.957 15.4415 10.9304C15.2353 10.7748 14.9784 11.0127 14.7659 10.9165C14.7418 10.9051 14.7039 10.938 14.6722 10.9608C14.6039 11.0102 14.5242 11.1202 14.4711 11.105C14.3939 11.0823 14.3167 11.1278 14.242 11.1367C14.1345 11.1493 14.0232 11.1923 13.9143 11.2177C13.7663 11.2518 13.6158 11.3012 13.4715 11.3037C13.3867 11.3062 13.3083 11.3151 13.2197 11.353C13.0565 11.4214 12.892 11.4517 12.7288 11.4783C12.5972 11.4998 12.4682 11.4922 12.3708 11.4973C12.2581 11.6251 12.1784 11.7124 12.0987 11.8047C11.9975 11.9224 11.8862 12.6094 11.8191 12.8093C11.7774 12.9359 11.7027 13.0383 11.642 13.1497C11.6053 13.2155 11.5597 13.2699 11.5281 13.3407C11.2852 13.9063 10.9651 14.3643 10.7449 14.964C10.7272 15.0109 10.6918 15.0425 10.6652 15.0817C10.5108 15.3019 10.4071 15.5891 10.3021 15.8712C10.2312 16.0623 10.2591 16.2356 10.3577 16.3077L10.3565 16.3128ZM21.6564 3.96401C20.4367 4.42582 16.2563 5.8973 14.7431 6.40466L14.6267 6.94366C16.207 6.43123 20.1431 5.01669 21.3515 4.5359L21.6564 3.96401ZM65.9513 16.1015C66.2006 16.2812 66.4587 16.4203 66.7383 16.5228C66.8028 16.5469 66.8623 16.5911 66.9154 16.638C67.1381 16.8315 67.1887 16.8239 67.3722 16.5848C67.4493 16.4836 67.4506 16.3748 67.4557 16.2559C67.4658 15.9686 67.5329 15.8953 67.7897 15.8636C68.0769 15.8269 68.1667 15.6966 68.1478 15.3423C68.1465 15.3057 68.1452 15.2538 68.1642 15.2348C68.2983 15.107 68.2262 15.0184 68.1389 14.9109C68.063 14.816 68.0073 14.7009 67.9428 14.5921C67.8517 14.5427 67.7328 14.5161 67.6708 14.4364C67.5506 14.2808 67.3962 14.1986 67.2393 14.1125C67.1444 14.0607 67.066 14.0062 67.0305 13.8709C67.004 13.7684 66.923 13.6672 66.842 13.6039C66.5928 13.4116 66.3752 13.1661 66.0879 13.0333C66.0335 13.008 65.9728 12.9801 65.9361 12.9333C65.8956 12.8814 65.8792 12.8055 65.8526 12.741C65.6641 12.822 65.535 12.9536 65.4148 13.1041C65.1048 13.4938 64.9189 13.9734 64.6342 14.3846C64.5393 14.5212 64.4748 14.6832 64.3773 14.816C64.2812 14.9476 64.2837 15.1361 64.1243 15.2386C64.0458 15.2892 64.0193 15.4398 64.0585 15.5574C64.2871 15.6156 64.4718 15.573 64.6127 15.4296C64.7594 15.4094 64.8948 15.4524 65.0226 15.5296C65.3339 15.7169 65.6552 15.8864 65.95 16.099L65.9513 16.1015ZM47.2371 13.6823L47.1017 13.6634L47.1422 13.533C47.1789 13.4141 47.1979 13.2838 47.1979 13.1459C47.1979 12.1818 46.7955 11.8389 46.4526 11.8389C45.8757 11.8389 45.2051 12.388 45.2051 13.0953C45.2051 13.595 45.5391 13.8658 46.3223 14.0037L46.5867 14.0505L46.3717 14.2112C45.8048 14.6363 44.8825 15.0083 44.0449 15.3373C44.2473 15.3841 44.6066 15.4221 44.7876 15.4246C45.1697 15.2854 46.2464 14.8831 46.812 14.1657L46.8626 14.1011L46.9397 14.1264C46.9967 14.1454 47.0549 14.1657 47.1105 14.1935L47.4433 13.7342C47.3838 13.7102 47.3155 13.6925 47.2371 13.6811V13.6823ZM46.9233 13.5432L46.8904 13.6406L46.7892 13.6203C45.6758 13.3977 45.443 13.0269 45.443 12.7549C45.443 12.4829 45.7884 12.2273 46.1401 12.2273C46.5146 12.2273 46.9435 12.6955 46.9575 13.3255C46.9575 13.3977 46.9448 13.4711 46.9208 13.5432H46.9233ZM53.7885 28.7539C55.1335 28.3174 58.4813 27.1142 59.5099 26.7055L59.7693 26.2184C58.7318 26.6119 55.1752 27.8632 53.8885 28.2946L53.7885 28.7527V28.7539ZM64.6747 24.0649H64.6696L64.6582 24.07C64.6582 24.07 64.6494 24.0725 64.6443 24.0738C64.6329 24.0776 64.6215 24.0801 64.6101 24.0827C64.5962 24.0864 64.581 24.089 64.5671 24.0928C64.5481 24.0966 64.5304 24.1004 64.5114 24.1029C64.4861 24.1067 64.4608 24.1105 64.4355 24.113C64.4153 24.1155 64.3963 24.1168 64.3773 24.1181C64.3596 24.1181 64.3419 24.1193 64.3229 24.1206C64.3014 24.1206 64.2812 24.1206 64.2597 24.1206C64.2495 24.1206 64.2382 24.1206 64.228 24.1206C64.2166 24.1206 64.204 24.1206 64.1926 24.1181C64.18 24.1181 64.1673 24.1155 64.1546 24.1155C64.1433 24.1155 64.1319 24.113 64.1205 24.1118C64.1091 24.1105 64.0977 24.1092 64.0863 24.1067C64.0775 24.1054 64.0686 24.1042 64.0598 24.1029L64.0471 24.1004C64.0471 24.1004 64.0357 24.0978 64.0294 24.0978C64.0231 24.0978 64.0167 24.0953 64.0104 24.094C64.0054 24.094 63.999 24.0915 63.994 24.0902H63.9851V24.0877H63.9813C63.7434 24.0358 63.5499 23.9334 63.4689 23.8271C63.3993 23.736 63.3829 23.612 63.3474 23.4994C63.2348 23.14 63.1032 22.7858 63.0172 22.4163C62.8995 21.9077 62.8198 21.3864 62.7211 20.8715C62.5895 20.1844 62.4504 19.4999 62.3884 18.7965C62.3808 18.7041 62.377 18.6016 62.3378 18.5244C62.2707 18.3916 62.2568 18.2499 62.2378 18.1044C62.1973 17.7881 62.1328 17.4743 62.1088 17.1554C62.0834 16.8252 61.8861 15.6182 61.8595 15.3752C61.8468 15.2601 61.8392 15.0804 61.7937 14.9881C61.7304 14.8616 61.7089 14.5996 61.6988 14.4617C61.6672 13.9822 61.6545 13.5027 61.6102 13.0232C61.5723 12.6132 61.7077 10.3535 61.7001 9.93975C61.6975 9.8069 61.6849 9.67152 61.6609 9.5412C61.6482 9.47035 61.6039 9.40582 61.5748 9.34256C61.2876 9.36533 60.7663 9.85625 60.5259 9.96886C60.2514 10.0966 59.5466 10.6306 59.2607 10.7267C59.0367 10.8027 59.4884 11.0026 59.4631 11.2227C59.4378 11.4467 59.429 11.849 59.4226 12.2817C59.4353 12.5209 59.4517 12.779 59.4707 13.0497C59.31 13.8848 58.9709 15.5245 58.8811 16.0888C58.8659 16.1825 58.8507 16.2761 58.8356 16.3672V16.3748H58.8343V16.3824L58.8305 16.3976C58.828 16.4153 58.8242 16.433 58.8216 16.452C58.8141 16.4937 58.8077 16.5342 58.8001 16.5747C58.7951 16.6063 58.7887 16.638 58.7837 16.6696C58.7622 16.7911 58.7394 16.9138 58.7166 17.0365C58.709 17.0757 58.7014 17.115 58.6939 17.1542C58.6901 17.1744 58.6863 17.1947 58.6825 17.2149C58.6761 17.2491 58.6686 17.2845 58.6622 17.3187C58.6281 17.492 58.5926 17.6577 58.5585 17.8159C58.5534 17.8387 58.5484 17.8602 58.5433 17.883C58.523 17.9715 58.5041 18.0588 58.4838 18.1461C58.4547 18.2714 58.4244 18.3954 58.394 18.5181C58.3877 18.5434 58.3813 18.5687 58.375 18.5928C58.3712 18.6092 58.3662 18.6257 58.3624 18.6421C58.3573 18.6611 58.3522 18.6813 58.3472 18.7003C58.3421 18.7205 58.3371 18.7395 58.332 18.7585C58.3067 18.8547 58.2814 18.9508 58.2548 19.0457C58.2485 19.0685 58.2422 19.0913 58.2358 19.114C58.2295 19.1381 58.2219 19.1621 58.2156 19.1862C58.2105 19.2039 58.2055 19.2216 58.2004 19.2393C58.1625 19.3747 58.122 19.5101 58.0802 19.6467C58.0751 19.6657 58.0688 19.6834 58.0625 19.7024C58.0562 19.7226 58.0499 19.7416 58.0435 19.7618C58.0119 19.8631 57.9803 19.9618 57.9474 20.0604L57.9347 20.0984C57.893 20.2211 57.8512 20.3426 57.8082 20.4628C57.8019 20.4818 57.7943 20.5007 57.7879 20.5197C57.7841 20.5324 57.7791 20.5438 57.7753 20.5564C57.7348 20.6665 57.6931 20.7766 57.6513 20.8866C57.6323 20.9347 57.6133 20.9828 57.5944 21.0296C57.5653 21.103 57.5349 21.1751 57.5058 21.246C57.4805 21.3067 57.4552 21.3662 57.4299 21.4244C57.4071 21.4775 57.3843 21.5294 57.3616 21.58C57.3287 21.6521 57.297 21.723 57.2641 21.7926C57.2452 21.833 57.2262 21.8723 57.2072 21.9115C57.1806 21.9659 57.1541 22.0203 57.1275 22.0722C57.1123 22.1025 57.0971 22.1316 57.0819 22.162C57.0769 22.1721 57.0718 22.181 57.0668 22.1911L57.0528 22.2177C57.0478 22.2278 57.0414 22.2392 57.0364 22.2493L57.0326 22.2556L57.0301 22.2607C56.486 23.2982 55.9647 23.9093 55.6105 24.2459H55.6092C55.6016 24.2547 55.594 24.261 55.5864 24.2686C55.575 24.2788 55.5636 24.2901 55.5535 24.3003C55.012 24.7747 54.6198 24.1016 54.4173 23.8574C54.2946 23.7398 54.1947 23.5892 54.1238 23.4019C53.9441 22.9262 53.8619 22.4277 53.8923 21.9102C53.9441 21.0182 54.1402 20.1528 54.4591 19.319C54.6223 18.8926 54.7918 18.4688 54.9829 18.0576C54.9968 18.0285 55.0107 17.9994 55.0246 17.9715L55.0322 17.9589L55.0386 17.945L55.0436 17.9348C55.0474 17.9272 55.0525 17.9184 55.0563 17.9108C55.0651 17.8943 55.0727 17.8792 55.0816 17.8627C55.0917 17.8437 55.1018 17.8248 55.1132 17.8058C55.1284 17.7779 55.1448 17.7501 55.1613 17.7223C55.1765 17.697 55.1917 17.6717 55.2068 17.6451C55.2334 17.6021 55.2587 17.5591 55.2853 17.5148C55.2992 17.4933 55.3119 17.4705 55.3258 17.449C55.3511 17.4085 55.3764 17.3667 55.4004 17.3263C55.4105 17.3085 55.4219 17.2908 55.4321 17.2744C55.4346 17.2706 55.451 17.2427 55.4827 17.1947C55.5029 17.1643 55.5295 17.1251 55.5624 17.0795C55.5826 17.0504 55.6054 17.0201 55.6307 16.9859C55.6725 16.9302 55.7218 16.8682 55.7762 16.8024C55.804 16.7683 55.8344 16.7341 55.866 16.6987C55.9065 16.6531 55.9495 16.6063 55.9951 16.5595C56.0179 16.5355 56.0419 16.5114 56.0659 16.4887C56.0925 16.4621 56.1203 16.4355 56.1482 16.4089C56.1735 16.3849 56.1988 16.3621 56.2254 16.3381C56.2494 16.3166 56.2734 16.2951 56.2975 16.2748C56.3354 16.2419 56.3747 16.2103 56.4152 16.1774C56.4518 16.1483 56.4898 16.1192 56.5278 16.0914C56.5531 16.0724 56.5796 16.0534 56.6062 16.0357C56.6467 16.0079 56.6884 15.98 56.7315 15.9535C56.7656 15.9319 56.8011 15.9104 56.8377 15.8889C56.8744 15.8674 56.9111 15.8472 56.9491 15.8282C56.9782 15.813 57.0073 15.7978 57.0377 15.7839C57.0819 15.7624 57.1262 15.7434 57.1718 15.7245C57.2123 15.7067 57.254 15.6916 57.2958 15.6764C57.3312 15.6637 57.3679 15.6511 57.4033 15.6397C57.4349 15.6296 57.4678 15.6207 57.5007 15.6118C57.5387 15.6017 57.5779 15.5916 57.6171 15.584C57.6311 15.5815 57.645 15.5777 57.6589 15.5752C57.664 15.5752 57.6703 15.5726 57.6753 15.5714C57.5577 15.4904 57.1224 15.3993 56.9807 15.398C56.7783 15.3955 56.5746 15.4246 56.3759 15.5182C55.9964 15.6966 55.2094 15.7207 54.8551 15.9636C54.5363 16.1837 54.201 16.3798 53.8682 16.5798C53.4937 16.805 53.185 17.1187 52.9572 17.4907C52.7573 17.8184 52.5789 18.1828 52.6194 18.6054C52.6333 18.7509 52.5928 18.9103 52.5511 19.0546C52.4157 19.524 52.2626 19.9896 52.1285 20.4615C52.0842 20.6197 52.0779 20.7867 52.0539 20.9512C52.2133 21.1966 52.0918 21.4484 52.0387 21.6989C52.0159 21.809 51.9881 21.9191 52.0564 22.0216C52.069 22.0393 52.0728 22.0861 52.0615 22.0975C51.8805 22.2696 51.9881 22.4189 52.0716 22.5719L52.0855 22.5922C52.0779 22.5897 52.0716 22.5884 52.064 22.5859C52.1424 22.8174 52.1083 23.0743 52.1905 23.3109C52.2462 23.4703 52.298 23.5702 52.4676 23.6006C52.5486 23.6145 52.6245 23.6854 52.6877 23.7474C52.8573 23.9093 53.4886 24.1788 53.5633 24.4103C53.6215 24.5913 53.7404 24.6735 53.8657 24.7494C54.02 24.8418 54.1946 24.9025 54.3667 24.9595C54.435 24.9822 55.0525 24.9936 55.1145 24.9506L55.1803 24.9367C55.4979 24.8987 55.8546 24.7203 55.8584 24.7165H55.8572C56.6834 24.3623 57.3147 23.5829 57.6222 23.326C57.6728 23.2843 57.7171 23.2324 57.7601 23.1805C58.2017 22.6656 58.6255 22.1354 58.9621 21.542C59.0835 21.3282 59.2442 21.1169 59.2291 20.8424C59.3214 20.8411 59.3923 20.8107 59.4062 20.7133C59.4264 20.5665 59.4328 20.4185 59.453 20.2717C59.453 20.2641 59.9275 18.7876 59.9464 18.756C59.9515 18.6636 59.9553 18.57 59.9591 18.4776C59.9768 18.6459 59.9869 18.7471 59.9882 18.756C60.011 18.9673 60.1565 19.2848 60.1843 19.3557C60.2134 19.4278 60.2337 19.5139 60.2248 19.591C60.2096 19.7353 60.2893 19.8466 60.307 19.9757C60.326 20.1186 60.3235 20.2654 60.3311 20.4248C60.4462 20.435 60.536 20.4438 60.6284 20.4527C60.6942 20.6703 60.6752 20.9094 60.7727 21.103C60.7878 21.1334 60.8055 21.1612 60.8245 21.1852V21.189C60.9068 21.3573 60.8903 21.5876 61.0776 21.6926C61.0788 21.6926 61.0675 21.7318 61.0561 21.7445C60.9966 21.8077 61.032 21.8659 61.0497 21.9279C61.1383 22.2291 61.2256 22.5302 61.3116 22.8313C61.3749 23.054 61.4647 23.2729 61.49 23.5019C61.5533 24.0763 61.8 24.5533 62.0619 25.024C62.0847 25.0632 62.1366 25.1126 62.1707 25.1088C62.6009 25.3707 62.9641 25.1138 63.0678 25.0948C63.1032 25.0898 63.565 24.8734 63.5979 24.8595C63.9838 24.5647 64.3406 24.4394 64.6772 24.0649H64.6734L64.6683 24.0675L64.6747 24.0649ZM52.4005 20.855C52.398 20.8626 52.3841 20.8664 52.3752 20.8727C52.3689 20.8639 52.3638 20.855 52.3575 20.8462C52.3714 20.8373 52.3841 20.8297 52.398 20.8209C52.3993 20.8322 52.4056 20.8449 52.4018 20.855H52.4005ZM53.2786 23.3311C53.2698 23.3222 53.2533 23.3121 53.2546 23.3045C53.2584 23.2805 53.2698 23.2577 53.2786 23.2324C53.2913 23.2476 53.314 23.2628 53.3128 23.2754C53.3102 23.2944 53.2913 23.3121 53.2786 23.3311ZM59.2265 17.6299C59.2025 17.6236 59.1822 17.5806 59.1747 17.5502C59.1696 17.5325 59.1911 17.5059 59.2012 17.4831C59.2366 17.5034 59.2721 17.5236 59.3341 17.5578C59.2784 17.597 59.2468 17.6362 59.2265 17.6299ZM60.4665 19.1431L60.6006 19.0647L60.6044 19.2064L60.4665 19.1431ZM60.9485 20.8753C60.9333 20.8689 60.927 20.8411 60.9169 20.8221C60.9371 20.8145 60.9599 20.7993 60.9776 20.8031C60.989 20.8057 60.9953 20.836 61.0029 20.8538C60.9839 20.8613 60.9612 20.8803 60.9473 20.8753H60.9485ZM61.4559 22.3619C61.4496 22.3645 61.4318 22.3467 61.4318 22.3366C61.4318 22.3265 61.4483 22.3075 61.4546 22.3088C61.4761 22.3126 61.4976 22.3227 61.5191 22.3316C61.4976 22.3429 61.4774 22.3556 61.4559 22.3619ZM61.628 19.8011C61.6204 19.7922 61.6027 19.7808 61.6052 19.7758C61.6128 19.7555 61.6254 19.7378 61.6368 19.7188C61.6469 19.7264 61.6646 19.7378 61.6634 19.7391C61.6533 19.7606 61.6406 19.7808 61.628 19.8011ZM61.9873 24.2737L61.9481 24.2408C61.9557 24.2332 61.9645 24.218 61.9721 24.2193C61.981 24.2193 61.9873 24.2345 61.9949 24.2433L61.986 24.2737H61.9873ZM62.2846 21.4914L62.2871 21.4661L62.315 21.48L62.2834 21.4914H62.2846ZM62.5263 24.4369C62.4921 24.4141 62.4592 24.3901 62.4263 24.3635C62.4213 24.3585 62.4238 24.3433 62.4225 24.3319C62.4428 24.3243 62.4731 24.3053 62.4795 24.3117C62.5086 24.3408 62.5288 24.3787 62.5516 24.4141C62.5516 24.4141 62.5288 24.4382 62.525 24.4357L62.5263 24.4369ZM62.6996 21.4762C62.6882 21.4598 62.673 21.4434 62.6655 21.4244C62.6617 21.4155 62.673 21.4003 62.6781 21.3877L62.7325 21.4206C62.7224 21.4396 62.711 21.4573 62.7009 21.4762H62.6996ZM63.0805 24.9772C63.045 24.9114 63.0071 24.8469 62.9818 24.776C62.9767 24.7608 63.0362 24.7127 63.0665 24.6798C63.083 24.6988 63.1134 24.7191 63.1121 24.738C63.1058 24.8178 63.0931 24.8962 63.0805 24.9759V24.9772ZM71.5171 24.1826C71.4412 24.2104 71.3577 24.256 71.2716 24.2712C71.0249 24.3129 70.8124 24.4369 70.6049 24.5938C70.4783 24.69 70.3417 24.7684 70.2063 24.8469C69.9824 24.9772 69.9229 24.9683 69.7432 24.7899C69.7015 24.7482 69.661 24.7039 69.6243 24.6545C69.5737 24.5875 69.537 24.5027 69.4775 24.4483C69.413 24.3888 69.3295 24.3559 69.289 24.3319C69.2878 24.218 69.3118 24.1269 69.2814 24.0801C69.1296 23.8385 69.041 23.5614 68.9259 23.2982C68.9006 23.2413 68.8879 23.1628 68.8475 23.1312C68.683 23.0072 68.6437 22.7984 68.5666 22.615C68.4793 22.4062 68.4021 22.1911 68.3059 21.9887C68.2414 21.8546 68.1225 21.7521 68.0756 21.6129C67.9947 21.3725 67.7733 21.2321 67.7404 20.9588C67.7328 20.8955 67.6568 20.8373 67.6012 20.793C67.5 20.712 67.4519 20.6007 67.4278 20.4691C67.3874 20.2528 67.3431 20.0377 67.3038 19.8213C67.2406 19.4772 67.1545 19.1355 67.1267 18.7863C67.0951 18.3789 66.966 18.0032 66.8939 17.6084C66.8901 17.5882 66.8888 17.2921 66.8509 17.2567C66.7649 17.2655 66.1753 17.7071 66.0804 17.7488C65.6274 17.9475 65.3946 18.136 64.9682 18.3764C64.8632 18.7446 65.1592 18.5055 65.1972 18.7889C65.2377 18.8066 65.2693 18.842 65.2693 18.8989C65.2719 19.0609 65.2769 19.2241 65.287 19.3848V19.3987C65.287 19.4076 65.287 19.4177 65.2883 19.4266C65.2883 19.4354 65.2883 19.4455 65.2896 19.4544C65.2896 19.4721 65.2921 19.4898 65.2934 19.5088C65.2959 19.5392 65.2984 19.5708 65.301 19.6012C65.3048 19.6442 65.3086 19.6859 65.3123 19.7289C65.3161 19.7707 65.3199 19.8125 65.325 19.8542C65.3301 19.9073 65.3364 19.9592 65.3427 20.0124C65.3478 20.0503 65.3516 20.0883 65.3566 20.125C65.3604 20.1541 65.3642 20.1832 65.368 20.211C65.3731 20.2464 65.3781 20.2831 65.3832 20.3186C65.3883 20.3514 65.3933 20.3843 65.3984 20.4172C65.4034 20.4527 65.4098 20.4881 65.4148 20.5223C65.4212 20.564 65.4287 20.607 65.4363 20.6488C65.4439 20.6893 65.4503 20.731 65.4579 20.7715C65.4642 20.8057 65.4705 20.8398 65.4768 20.874C65.4844 20.917 65.4933 20.96 65.5021 21.003C65.5097 21.0385 65.5161 21.0739 65.5236 21.1093C65.5312 21.146 65.5388 21.184 65.5477 21.2207C65.5578 21.2662 65.5679 21.3105 65.578 21.356C65.5882 21.3978 65.597 21.4408 65.6071 21.4826C65.6173 21.5243 65.6274 21.5661 65.6375 21.6066C65.6476 21.6496 65.659 21.6913 65.6691 21.7344C65.678 21.7723 65.6881 21.809 65.6982 21.847C65.7058 21.8773 65.7147 21.909 65.7223 21.9393C65.7324 21.976 65.7425 22.0127 65.7527 22.0507C65.7602 22.0785 65.7678 22.1076 65.7767 22.1354C65.7818 22.1532 65.7868 22.1709 65.7919 22.1873L65.7995 22.2152L65.802 22.224L65.8045 22.2316C66.1487 23.4361 66.6206 24.6166 67.1027 25.7755C67.1179 25.7983 67.1318 25.8224 67.1394 25.8477C67.1735 25.9464 67.1988 26.0425 67.314 26.0855C67.3823 25.9868 67.4772 25.9527 67.5847 25.9843C67.5 26.1564 67.5797 26.3082 67.5948 26.4676C67.6897 26.5119 67.7783 26.5423 67.8555 26.5916C67.9643 26.6612 68.0668 26.6625 68.1883 26.6106C68.3439 26.5436 68.5185 26.5271 68.6589 26.4347C68.8133 26.3335 68.9892 26.3601 69.1397 26.2462C69.2764 26.145 69.4421 26.0994 69.5914 26.021C69.7091 25.959 69.8318 25.8995 69.9343 25.8122C70.2152 25.5693 70.5214 25.3757 70.8187 25.1695C71.0945 24.9772 71.302 24.7216 71.4956 24.4445C71.5374 24.3838 71.6006 24.2939 71.5171 24.1813V24.1826ZM67.5873 25.978C67.5797 25.9476 67.5708 25.9185 67.5632 25.8882C67.5822 25.8818 67.5999 25.873 67.6189 25.8704C67.6277 25.8704 67.6379 25.8806 67.6467 25.8856C67.6353 25.8995 67.624 25.9135 67.6138 25.9286C67.6037 25.9438 67.5961 25.9603 67.5885 25.9767L67.5873 25.978ZM67.7568 26.4056C67.6695 26.3626 67.6543 26.3133 67.6202 26.04C67.7669 26.169 67.8605 26.2513 67.9491 26.3297C67.8922 26.4512 67.8188 26.4373 67.7568 26.4056ZM68.0934 26.4613C68.0858 26.4562 68.0718 26.4512 68.0731 26.4461C68.0744 26.4221 68.0794 26.398 68.0832 26.374C68.0908 26.3791 68.1035 26.3854 68.1035 26.3905C68.1035 26.4145 68.0972 26.4373 68.0946 26.4613H68.0934ZM68.4286 25.5478C68.4286 25.5478 68.416 25.5326 68.4097 25.5238C68.4261 25.5149 68.4426 25.5035 68.4603 25.4972C68.4653 25.4959 68.4742 25.5111 68.4805 25.5187C68.4653 25.5276 68.4476 25.5402 68.4286 25.5465V25.5478ZM68.7842 23.6284C68.769 23.6183 68.7563 23.6057 68.7424 23.5943C68.7475 23.5841 68.7538 23.5728 68.7589 23.5626L68.8032 23.6057C68.7968 23.6132 68.7854 23.6297 68.7842 23.6284Z" fill="white"/>
<path d="M40.4503 2.43686H39.4267V7.96851H40.4503V2.43686Z" fill="white"/>
<path d="M39.2002 1.10709L39.9379 1.65747L40.6768 1.03117L39.9392 0.490915L39.2002 1.10709Z" fill="white"/>
<path d="M35.0287 6.69314L35.0072 6.64253L32.1351 0L31.171 0.674375L34.4252 8.15829L35.3767 7.47633L38.245 0.211296H37.5478L35.0287 6.69314Z" fill="white"/>
<path d="M48.3201 1.10709L49.0578 1.65747L49.7954 1.03117L49.059 0.490915L48.3201 1.10709Z" fill="white"/>
<path d="M54.8032 7.46873C53.91 7.46873 53.3343 6.68175 53.3343 5.46459V3.04924H54.6628L55.5232 2.43686H53.333V1.71187L51.4339 3.03785H52.3094V6.09974C52.3094 7.22328 53.1015 8.10389 54.1124 8.10389C55.0525 8.10389 55.5105 7.49404 55.6497 7.26377C55.3486 7.40041 55.0639 7.47 54.802 7.47L54.8032 7.46873Z" fill="white"/>
<path d="M49.5702 2.43686H48.5466V7.96851H49.5702V2.43686Z" fill="white"/>
<path d="M44.7407 4.61814C43.8753 4.34991 43.0567 4.09686 43.0845 3.46044C43.0921 3.26939 43.1503 3.13654 43.1921 3.06442C43.349 2.99736 43.5388 2.967 43.7399 2.967C44.3346 2.967 45.033 3.22764 45.2987 3.55913L46.1857 2.92904C45.858 2.55579 45.2519 2.35209 44.599 2.39637C43.9854 2.43812 43.4666 2.68611 43.1908 3.06316C42.9795 3.15299 42.3507 3.47309 42.3507 4.09433C42.3507 4.93066 43.3148 5.23052 44.2473 5.52026C45.028 5.76319 45.7656 5.9922 45.8238 6.52992C45.8668 6.92341 45.6555 7.23593 45.5505 7.36372C44.7597 7.57502 43.7032 7.14104 43.244 6.5818L42.3127 7.23466C42.7012 7.69395 43.33 7.97104 44.0006 7.97483C44.0056 7.97483 44.0107 7.97483 44.0158 7.97483C44.6256 7.97483 45.1912 7.74835 45.5505 7.36372C45.8238 7.26883 46.7272 6.88419 46.6816 5.99852C46.6424 5.20395 45.677 4.90535 44.742 4.61688L44.7407 4.61814Z" fill="white"/>
</svg>
