<svg width="92" height="58" viewBox="0 0 92 58" fill="none" xmlns="http://www.w3.org/2000/svg">
<path d="M1.56541 34.1038V31.8149L7.3676 24.5295H1.86889V21.3538H12.4758V23.6792L6.73518 30.9281H12.7687V34.1038H1.56541Z" fill="#131313"/>
<path d="M26.4865 28.6757H17.1933C17.4967 30.3741 18.5791 31.2481 20.0264 31.2481C21.3401 31.2481 21.9959 30.6812 22.276 29.9447H26.2892C25.7289 32.2078 23.4793 34.5096 20.0986 34.5096C16.1703 34.5096 13.4454 31.4456 13.4454 27.7288C13.4454 24.012 16.1576 20.948 20.0986 20.948C24.0396 20.948 26.5566 23.9991 26.5566 27.63C26.5566 28.0358 26.5332 28.2828 26.4844 28.6757H26.4865ZM22.7302 26.1163C22.6092 24.9353 21.4653 24.0614 20.1156 24.0614C18.9611 24.0614 17.8045 24.639 17.3418 26.1163H22.7302Z" fill="#131313"/>
<path d="M28.0959 34.1037V21.3537H31.6846V23.1509C32.2555 22.0923 33.1935 21.3537 34.6642 21.3537H36.1243V24.5788H34.8722C32.9876 24.5788 31.8565 25.8714 31.8565 28.2333V34.1037H28.0959Z" fill="#131313"/>
<path d="M36.3056 27.7288C36.3056 24.012 39.0433 20.948 43.0076 20.948C46.972 20.948 49.7585 23.9991 49.7585 27.7288C49.7585 31.4585 46.9974 34.5096 42.9949 34.5096C38.9923 34.5096 36.3056 31.4692 36.3056 27.7288ZM46.0467 27.7288C46.0467 25.7963 44.7945 24.4436 43.031 24.4436C41.2674 24.4436 40.0153 25.7963 40.0153 27.7288C40.0153 29.6613 41.2674 31.014 43.031 31.014C44.7945 31.014 46.0467 29.672 46.0467 27.7288Z" fill="#131313"/>
<path d="M0 46.7507C0 43.0339 2.33446 39.9698 6.04413 39.9698C7.83318 39.9698 9.17019 41.0026 9.77927 41.9023L9.70712 40.5002V35.7871H13.4295V53.1257H9.87902V51.5132C9.19778 52.4966 7.94566 53.5444 6.01018 53.5444C2.41086 53.5444 0.00212224 50.4932 0.00212224 46.7507H0ZM9.73046 46.7507C9.73046 44.9041 8.4168 43.4526 6.70203 43.4526C4.98726 43.4526 3.68633 44.7946 3.68633 46.7507C3.68633 48.7068 4.87903 50.0616 6.70203 50.0616C8.40406 50.0616 9.73046 48.6338 9.73046 46.7507Z" fill="#131313"/>
<path d="M28.1476 47.6978H18.8543C19.1578 49.3963 20.2402 50.2702 21.6875 50.2702C23.0012 50.2702 23.657 49.7033 23.9371 48.9668H27.9502C27.39 51.23 25.1404 53.5318 21.7597 53.5318C17.8314 53.5318 15.1065 50.4677 15.1065 46.7509C15.1065 43.0341 17.8187 39.9701 21.7597 39.9701C25.7007 39.9701 28.2177 43.0213 28.2177 46.6522C28.2177 47.058 28.1943 47.3049 28.1455 47.6978H28.1476ZM24.3891 45.1384C24.2682 43.9574 23.1243 43.0835 21.7745 43.0835C20.62 43.0835 19.4634 43.6611 19.0008 45.1384H24.3891Z" fill="#131313"/>
<path d="M29.5356 53.04H33.05C33.3174 54.1844 33.9859 54.8372 35.7622 54.8372C38.0012 54.8372 38.9116 53.5575 38.9116 51.8955V50.8627C38.0733 52.2777 36.6493 52.7329 35.0194 52.7329C31.4307 52.7329 29.0241 49.9158 29.0241 46.4696C29.0241 43.0233 31.3968 39.9721 34.8985 39.9721C37.0037 39.9721 38.3407 41.0543 38.9244 42.0141V40.378H42.477V51.8848C42.477 55.5157 39.9345 58 35.7622 58C31.5899 58 29.5717 55.5264 29.5356 53.04ZM38.7652 46.4545C38.7652 44.8785 37.4643 43.4527 35.7495 43.4527C34.0347 43.4527 32.7338 44.5972 32.7338 46.4545C32.7338 48.3119 34.0347 49.4821 35.7389 49.4821C37.443 49.4821 38.7673 48.0907 38.7673 46.4545H38.7652Z" fill="#131313"/>
<path d="M44.8736 53.1259V40.3758H48.4623V42.173C49.0332 41.1145 49.9712 40.3758 51.4419 40.3758H52.902V43.6009H51.6499C49.7653 43.6009 48.6342 44.8935 48.6342 47.2554V53.1259H44.8736Z" fill="#131313"/>
<path d="M66.1224 47.6978H56.8292C57.1326 49.3963 58.215 50.2702 59.6623 50.2702C60.976 50.2702 61.6318 49.7033 61.9119 48.9668H65.9251C65.3648 51.23 63.1152 53.5318 59.7345 53.5318C55.8062 53.5318 53.0813 50.4677 53.0813 46.7509C53.0813 43.0341 55.7935 39.9701 59.7345 39.9701C63.6755 39.9701 66.1925 43.0213 66.1925 46.6522C66.1925 47.058 66.1691 47.3049 66.1203 47.6978H66.1224ZM62.3639 45.1384C62.243 43.9574 61.0991 43.0835 59.7494 43.0835C58.5949 43.0835 57.4382 43.6611 56.9756 45.1384H62.3639Z" fill="#131313"/>
<path d="M80.0381 47.6978H70.7448C71.0482 49.3963 72.1306 50.2702 73.578 50.2702C74.8916 50.2702 75.5474 49.7033 75.8275 48.9668H79.8407C79.2804 51.23 77.0308 53.5318 73.6501 53.5318C69.7219 53.5318 66.9969 50.4677 66.9969 46.7509C66.9969 43.0341 69.7091 39.9701 73.6501 39.9701C77.5911 39.9701 80.1081 43.0213 80.1081 46.6522C80.1081 47.058 80.0847 47.3049 80.0359 47.6978H80.0381ZM76.2796 45.1384C76.1586 43.9574 75.0147 43.0835 73.665 43.0835C72.5105 43.0835 71.3539 43.6611 70.8912 45.1384H76.2796Z" fill="#131313"/>
<path d="M80.941 48.9411L84.5297 48.9668C84.5913 49.903 85.1982 50.5665 86.5246 50.5665C87.7279 50.5665 88.1672 50.0855 88.1672 49.4092C88.1672 48.6576 87.4627 48.4 85.9898 48.2024C83.4835 47.8954 81.393 46.7874 81.393 44.0927C81.393 41.398 83.2182 39.9701 86.3676 39.9701C89.517 39.9701 91.6583 41.6921 91.6583 44.301L87.9975 44.2774C87.9486 43.5645 87.4499 43.0341 86.3803 43.0341C85.4444 43.0341 85.0666 43.4765 85.0666 44.0068C85.0666 44.7197 85.334 44.9043 87.3417 45.2007C90.2131 45.6194 92 46.5427 92 49.188C92 52.1662 89.5679 53.5447 86.5013 53.5447C82.6324 53.5447 80.9431 51.2321 80.9431 48.9432L80.941 48.9411Z" fill="#131313"/>
<path d="M53.1546 18.9811C53.1546 9.13446 61.0873 1.0545 70.8727 1.0545C80.6582 1.0545 88.5909 9.13446 88.5909 18.9811C88.5909 28.8277 80.6582 36.9076 70.8727 36.9076C61.0873 36.9076 53.1546 28.8277 53.1546 18.9811Z" fill="#131313"/>
<path d="M91.7177 3.69076C91.7177 5.72911 90.0845 7.38152 88.0698 7.38152C86.0552 7.38152 84.422 5.72911 84.422 3.69076C84.422 1.65241 86.0552 0 88.0698 0C90.0845 0 91.7177 1.65241 91.7177 3.69076Z" fill="#131313"/>
</svg>
