<svg width="234" height="53" viewBox="0 0 234 53" fill="none" xmlns="http://www.w3.org/2000/svg">
<path d="M76.8704 30.6086V28.5542L82.1105 22.0155H77.1445V19.1653H86.7238V21.2523L81.5393 27.7583H86.9883V30.6086H76.8704Z" fill="#131313"/>
<path d="M99.3771 25.7368H90.9842C91.2582 27.2611 92.2357 28.0455 93.5429 28.0455C94.7293 28.0455 95.3215 27.5367 95.5745 26.8757H99.1988C98.6928 28.9069 96.6612 30.9728 93.608 30.9728C90.0604 30.9728 87.5994 28.2228 87.5994 24.8869C87.5994 21.551 90.0489 18.801 93.608 18.801C97.1672 18.801 99.4403 21.5395 99.4403 24.7983C99.4403 25.1625 99.4192 25.3841 99.3752 25.7368H99.3771ZM95.9846 23.4396C95.8754 22.3797 94.8423 21.5954 93.6234 21.5954C92.5807 21.5954 91.5362 22.1138 91.1183 23.4396H95.9846Z" fill="#131313"/>
<path d="M100.83 30.6085V19.1652H104.072V20.7782C104.587 19.8281 105.434 19.1652 106.762 19.1652H108.081V22.0597H106.95C105.248 22.0597 104.227 23.2199 104.227 25.3397V30.6085H100.83Z" fill="#131313"/>
<path d="M108.245 24.8869C108.245 21.551 110.717 18.801 114.298 18.801C117.878 18.801 120.394 21.5395 120.394 24.8869C120.394 28.2343 117.901 30.9728 114.286 30.9728C110.671 30.9728 108.245 28.244 108.245 24.8869ZM117.042 24.8869C117.042 23.1525 115.911 21.9384 114.319 21.9384C112.726 21.9384 111.595 23.1525 111.595 24.8869C111.595 26.6213 112.726 27.8354 114.319 27.8354C115.911 27.8354 117.042 26.631 117.042 24.8869Z" fill="#131313"/>
<path d="M75.4567 41.9593C75.4567 38.6234 77.565 35.8734 80.9152 35.8734C82.5309 35.8734 83.7384 36.8003 84.2885 37.6078L84.2233 36.3494V32.1193H87.5851V47.6809H84.3786V46.2336C83.7633 47.1163 82.6325 48.0567 80.8846 48.0567C77.634 48.0567 75.4586 45.3182 75.4586 41.9593H75.4567ZM84.2444 41.9593C84.2444 40.3019 83.058 38.9992 81.5094 38.9992C79.9607 38.9992 78.7858 40.2036 78.7858 41.9593C78.7858 43.7149 79.863 44.9309 81.5094 44.9309C83.0465 44.9309 84.2444 43.6493 84.2444 41.9593Z" fill="#131313"/>
<path d="M100.877 42.8094H92.4843C92.7584 44.3337 93.7359 45.1181 95.043 45.1181C96.2294 45.1181 96.8216 44.6093 97.0746 43.9483H100.699C100.193 45.9795 98.1614 48.0454 95.1082 48.0454C91.5605 48.0454 89.0996 45.2954 89.0996 41.9595C89.0996 38.6236 91.549 35.8736 95.1082 35.8736C98.6674 35.8736 100.94 38.6121 100.94 41.8708C100.94 42.2351 100.919 42.4567 100.875 42.8094H100.877ZM97.4829 40.5122C97.3736 39.4523 96.3406 38.6679 95.1216 38.6679C94.0789 38.6679 93.0344 39.1863 92.6166 40.5122H97.4829Z" fill="#131313"/>
<path d="M102.131 47.604H105.305C105.546 48.6311 106.15 49.217 107.754 49.217C109.776 49.217 110.598 48.0684 110.598 46.5768V45.6499C109.841 46.9198 108.555 47.3284 107.083 47.3284C103.842 47.3284 101.669 44.8 101.669 41.707C101.669 38.6139 103.812 35.8755 106.974 35.8755C108.875 35.8755 110.083 36.8467 110.61 37.7082V36.2397H113.818V46.5672C113.818 49.826 111.522 52.0557 107.754 52.0557C103.986 52.0557 102.163 49.8356 102.131 47.604ZM110.466 41.6935C110.466 40.2789 109.291 38.9993 107.743 38.9993C106.194 38.9993 105.019 40.0265 105.019 41.6935C105.019 43.3604 106.194 44.4107 107.733 44.4107C109.272 44.4107 110.468 43.1619 110.468 41.6935H110.466Z" fill="#131313"/>
<path d="M115.983 47.6811V36.2378H119.224V37.8508C119.739 36.9007 120.586 36.2378 121.915 36.2378H123.233V39.1323H122.103C120.401 39.1323 119.379 40.2924 119.379 42.4123V47.6811H115.983Z" fill="#131313"/>
<path d="M135.173 42.8094H126.78C127.054 44.3337 128.032 45.1181 129.339 45.1181C130.525 45.1181 131.117 44.6093 131.37 43.9483H134.995C134.489 45.9795 132.457 48.0454 129.404 48.0454C125.856 48.0454 123.395 45.2954 123.395 41.9595C123.395 38.6236 125.845 35.8736 129.404 35.8736C132.963 35.8736 135.236 38.6121 135.236 41.8708C135.236 42.2351 135.215 42.4567 135.171 42.8094H135.173ZM131.779 40.5122C131.669 39.4523 130.636 38.6679 129.417 38.6679C128.375 38.6679 127.33 39.1863 126.912 40.5122H131.779Z" fill="#131313"/>
<path d="M147.74 42.8094H139.347C139.621 44.3337 140.599 45.1181 141.906 45.1181C143.092 45.1181 143.685 44.6093 143.938 43.9483H147.562C147.056 45.9795 145.024 48.0454 141.971 48.0454C138.424 48.0454 135.963 45.2954 135.963 41.9595C135.963 38.6236 138.412 35.8736 141.971 35.8736C145.53 35.8736 147.804 38.6121 147.804 41.8708C147.804 42.2351 147.782 42.4567 147.738 42.8094H147.74ZM144.346 40.5122C144.237 39.4523 143.204 38.6679 141.985 38.6679C140.942 38.6679 139.897 39.1863 139.48 40.5122H144.346Z" fill="#131313"/>
<path d="M148.556 43.9252L151.797 43.9483C151.852 44.7885 152.401 45.384 153.598 45.384C154.685 45.384 155.082 44.9523 155.082 44.3453C155.082 43.6708 154.446 43.4395 153.115 43.2622C150.852 42.9866 148.964 41.9923 148.964 39.5737C148.964 37.1551 150.612 35.8736 153.457 35.8736C156.301 35.8736 158.235 37.4192 158.235 39.7606L154.929 39.7394C154.884 39.0996 154.434 38.6236 153.468 38.6236C152.623 38.6236 152.282 39.0206 152.282 39.4966C152.282 40.1364 152.523 40.3022 154.336 40.5681C156.93 40.9439 158.543 41.7726 158.543 44.1468C158.543 46.8197 156.347 48.0569 153.577 48.0569C150.083 48.0569 148.558 45.9814 148.558 43.9271L148.556 43.9252Z" fill="#131313"/>
<path d="M123.461 17.0357C123.461 8.19829 130.626 0.946429 139.463 0.946429C148.3 0.946429 155.465 8.19829 155.465 17.0357C155.465 25.8731 148.3 33.125 139.463 33.125C130.626 33.125 123.461 25.8731 123.461 17.0357Z" fill="#131313"/>
<path d="M158.288 3.3125C158.288 5.14194 156.813 6.625 154.994 6.625C153.174 6.625 151.699 5.14194 151.699 3.3125C151.699 1.48306 153.174 0 154.994 0C156.813 0 158.288 1.48306 158.288 3.3125Z" fill="#131313"/>
</svg>
