<svg width="120" height="68" viewBox="0 0 120 68" fill="none" xmlns="http://www.w3.org/2000/svg">
<path d="M81.0141 17.0011H109.399V50.9998H81.0141V17.0011Z" fill="#131313"/>
<path d="M102.394 29.2485C101.842 28.6713 100.097 29.4941 98.9635 30.761C97.977 31.8635 97.3622 33.4789 97.3622 33.4789C97.6083 33.4478 99.3581 32.6117 100.9 31.4166C101.503 30.949 102.953 29.8219 102.394 29.2485ZM101.593 47.6054C99.7087 48.2922 96.6486 48.8363 93.8587 48.1127C93.2419 47.954 92.8022 47.7811 92.4594 47.6403C95.7244 50.4783 98.8984 51.6951 100.902 50.603C103.483 49.1991 105.784 46.7721 107.463 43.8378C105.802 45.7405 103.508 46.9082 101.593 47.6054ZM99.0785 37.324C98.477 37.1945 97.7491 39.0537 98.5038 39.2219C98.5871 39.2399 98.6954 39.2474 98.8247 39.2436V39.2427C99.1944 39.2219 99.5641 39.1435 99.9251 39.0226C99.8648 37.9239 99.566 37.4288 99.0785 37.324ZM104.366 41.4864C104.152 41.6961 103.559 42.28 103.352 42.4869C103.311 42.5265 103.252 42.5265 103.212 42.4869C102.997 42.28 102.405 41.6961 102.188 41.4864C102.158 41.4439 102.158 41.3872 102.188 41.3475C102.391 41.1425 103.004 40.5455 103.212 40.3405C103.252 40.3055 103.311 40.3055 103.352 40.348C103.559 40.554 104.152 41.1274 104.366 41.34C104.403 41.3834 104.403 41.4515 104.366 41.4864ZM96.2253 37.6404C96.0117 37.8511 95.4189 38.435 95.211 38.6409C95.1708 38.6815 95.1124 38.6815 95.0721 38.6409C94.8576 38.435 94.2657 37.8511 94.0473 37.6404C94.0176 37.5989 94.0176 37.5413 94.0473 37.5016C94.2513 37.2956 94.8643 36.7004 95.0721 36.4945C95.1124 36.4605 95.1708 36.4605 95.211 36.503C95.4189 36.709 96.0117 37.2815 96.2253 37.495C96.2607 37.5384 96.2607 37.6064 96.2253 37.6404ZM102.353 25.2164C102.139 25.4261 101.546 26.0119 101.338 26.2169C101.297 26.2575 101.238 26.2575 101.199 26.2169C100.983 26.0119 100.392 25.4261 100.173 25.2164C100.143 25.1748 100.143 25.1172 100.173 25.0785C100.377 24.8725 100.991 24.2774 101.199 24.0714C101.238 24.0365 101.297 24.0365 101.338 24.079C101.546 24.2849 102.139 24.8574 102.353 25.07C102.388 25.1134 102.388 25.1815 102.353 25.2164ZM109.339 32.5796L109.341 32.5295C109.236 31.6235 108.98 30.7308 108.775 30.7175C107.918 30.6684 106.731 36.7373 106.055 40.1109C105.984 40.4576 105.946 40.7977 105.742 41.1548C105.577 41.4439 105.495 41.5582 105.388 41.6744C105.266 41.8076 105.074 41.9389 105.123 41.6839C106.689 33.5111 107.689 29.1247 108.6 27.359C108.697 27.1692 108.802 27.0548 108.912 27.0048C108.737 26.6184 108.552 26.2348 108.341 25.8588C103.443 17.1126 90.426 14.9426 83.1518 18.9066C79.9959 20.6326 80.2775 28.813 84.5032 37.1218C84.1029 34.7978 84.6488 32.7298 85.8211 30.3359C87.4052 27.1011 92.4498 22.421 96.2483 23.8645C99.4894 25.0927 98.2414 30.1242 98.2414 30.1242C98.2414 30.1242 100.492 27.1559 102.291 27.0643C103.238 27.0161 104.859 27.7029 102.908 30.8403C100.622 34.5172 96.8114 36.1638 95.4715 35.3948C94.2992 34.7222 94.2762 33.409 94.2006 33.0576C94.124 32.709 93.9334 31.5357 92.8396 31.4497C91.7477 31.3647 89.7738 32.863 90.0228 33.529C90.2373 34.1091 91.6807 33.6481 92.3483 34.06C93.0197 34.4747 93.2735 35.0916 93.0311 36.1799C92.3176 39.4269 89.5794 41.373 87.6657 40.9149C87.2137 40.8072 86.7731 40.6333 86.3756 40.4C86.9656 41.3286 87.5795 42.211 88.2098 43.0376L88.7748 42.0806C88.7921 42.0504 88.8266 42.0325 88.862 42.0343C89.9787 42.0769 91.3129 41.6432 91.9335 41.1454C91.446 42.723 90.7948 43.7396 88.59 43.5289C88.613 43.5582 88.636 43.5884 88.659 43.6168C89.0737 43.8208 89.5545 44.0296 90.1224 44.2431C93.4008 45.475 96.3297 43.8407 96.8431 43.5062C97.252 43.2408 98.9109 42.2762 99.612 40.9678C99.3419 41.0084 99.0632 41.0244 98.7758 41.0093C98.5661 40.9989 98.363 40.9781 98.2989 40.9772C97.9703 40.9649 96.2464 40.6966 97.365 38.1326C97.5671 37.6745 98.319 35.8984 99.3984 36.2923C99.7173 36.4085 100.522 36.7052 100.785 37.9475C100.829 38.1553 100.861 38.3632 100.887 38.5701C101.907 37.9456 102.704 36.9527 102.901 35.854C103.09 34.8006 102.844 34.2631 102.547 34.2139C102.139 34.145 101.409 36.1402 101.294 36.0817C101.182 36.0221 101.298 35.7482 101.387 35.4477C102.086 33.1077 103.118 32.2196 103.466 32.2177C103.815 32.214 104.276 33.2938 104.281 34.7298C104.287 36.9867 102.936 39.596 100.828 40.5955C100.643 41.648 100.23 42.5672 99.7211 43.2011C98.2998 44.9734 95.2647 46.8052 91.3867 45.9408C91.0505 45.8671 90.7421 45.7792 90.4423 45.6866C90.7852 46.0513 91.1271 46.4008 91.4719 46.7334C91.605 46.7627 91.8521 46.8156 92.3281 46.8949C93.9707 47.168 97.4819 47.2426 101.078 45.9549C105.23 44.4651 106.532 42.2138 107.469 40.6626C109.453 37.3646 109.508 33.6584 109.339 32.5796ZM94.1536 29.6018C95.0089 30.0392 94.8768 31.2352 95.1775 32.2848C95.4763 33.3316 96.3546 33.4204 96.3546 33.4204C96.3546 33.4204 98.1485 30.0052 96.6189 27.241C95.0836 24.4767 92.5666 25.4375 91.923 25.7407C91.0677 26.1404 87.7941 28.2216 86.1496 32.5966C84.5252 36.9262 86.8689 38.4094 88.317 38.657C89.7613 38.9054 91.9853 37.4591 92.06 36.7203C92.0983 36.3311 91.8052 36.0854 91.3723 35.9881C90.9365 35.8908 89.7613 36.1383 89.0172 35.2635C88.0958 34.179 89.6818 31.787 90.5601 30.9414C91.4786 30.0591 92.8291 28.9226 94.1536 29.6018Z" fill="white"/>
<path d="M80.5112 35.9343C80.5371 35.9097 80.5371 35.8587 80.5112 35.8256C80.3475 35.665 79.9117 35.2371 79.7469 35.0755C79.7192 35.05 79.6789 35.05 79.6445 35.0708C79.4883 35.2371 79.0353 35.6716 78.8773 35.8313C78.8572 35.8625 78.8572 35.905 78.8811 35.9296C79.0401 36.0911 79.4836 36.5323 79.6445 36.6863C79.6789 36.7108 79.7192 36.7108 79.7469 36.6863H79.7556C79.9117 36.5323 80.3475 36.0949 80.5112 35.9343Z" fill="white"/>
<path d="M26.0469 31.2267C26.0469 31.2239 26.1111 31.17 26.1465 31.1965C26.1724 31.2126 26.1609 31.29 26.1609 31.29C26.0718 31.9173 25.7634 34.2007 25.6025 37.17C25.5814 37.6546 25.5565 38.144 25.5441 38.6296L25.5383 38.7958L25.637 38.6692C26.0469 38.1317 26.7796 37.8284 27.6464 37.8237C28.1942 37.8237 29.5045 38.0032 29.8042 39.6499C29.9019 40.2299 29.7736 41.5743 28.5409 42.5483C28.1598 42.844 27.1263 43.3305 25.9713 43.3447C24.9771 43.3645 23.9667 43.2993 23.323 42.7741C22.9581 42.4736 22.6555 42.0721 22.5789 40.9413C22.5731 40.8497 22.5664 40.7344 22.5664 40.6229C22.5664 40.4878 22.5664 40.4274 22.5789 40.3187C22.5856 40.2517 22.5932 40.2271 22.6258 40.2299C22.6411 40.2356 22.6622 40.2819 22.6785 40.3244C22.6976 40.3801 22.7235 40.4482 22.7666 40.5096C23.3154 41.5743 25.206 41.733 25.8448 41.7226C27.1733 41.699 27.7211 41.3079 28.1224 40.7297C28.3532 40.4009 28.4413 40.0004 28.3685 39.6442C28.2651 39.118 27.8743 38.8582 27.2087 38.8582C26.2548 38.8582 25.5307 39.6083 25.5307 40.5974L25.5259 40.7297L25.5211 41.0254C25.5211 41.1019 25.5115 41.1217 25.4885 41.1265C25.4569 41.1312 25.4215 41.1161 25.3727 41.0962L24.1802 40.4104C24.1467 40.3971 24.073 40.3442 24.0394 40.2998C24.003 40.2517 24.003 40.2025 24.003 40.1298C24.0126 39.0887 24.028 37.9059 24.0634 37.1558C24.1429 35.666 24.2655 34.2007 24.436 32.7846C24.4513 32.6873 24.4752 32.5928 24.4982 32.539C24.5231 32.4974 24.6017 32.4152 24.6534 32.3736C24.6534 32.3793 26.0469 31.2267 26.0469 31.2267Z" fill="white"/>
<path d="M78.1101 38.4983C78.3725 38.2829 79.2029 37.5857 79.5324 37.3306C79.5745 37.289 79.5994 37.2663 79.6128 37.2767C79.6358 37.289 79.6253 37.3438 79.6205 37.3967C79.5669 38.4709 79.5401 39.5469 79.5401 40.5918V41.6687C79.5669 42.1458 79.6454 42.4236 79.79 42.536C79.9529 42.6711 80.2651 42.8052 80.8647 42.7145L80.9394 42.7079C80.9652 42.7023 81.016 42.6957 81.0256 42.7145C81.0342 42.7457 80.948 42.7892 80.903 42.8081L80.8982 42.8194C80.4269 43.0509 80.0189 43.1737 79.6454 43.1954L79.4472 43.202C79.0985 43.1841 78.7585 43.0339 78.4971 42.7986L78.4118 42.7145C78.3725 42.6786 78.3314 42.6352 78.2998 42.5794C78.1168 42.3244 78.0239 42.1156 78.0143 41.7292C78.0019 41.3494 78.0172 39.323 78.0354 38.7136C78.0354 38.6683 78.0354 38.6041 78.0469 38.5691C78.0699 38.5351 78.0699 38.5351 78.1101 38.4983Z" fill="white"/>
<path d="M65.7061 41.6876C65.3412 41.9597 64.8853 42.0787 64.4562 42.0117C63.9132 41.9399 63.6 41.7131 63.6105 41.3995C63.6229 41.0641 63.8768 40.879 64.3604 40.8534C64.7158 40.8279 65.164 41.0849 65.7061 41.6036L65.754 41.647L65.7061 41.6876ZM77.3669 39.6508C77.0671 38.0023 75.7588 37.8237 75.2042 37.8237C74.3375 37.8275 73.6077 38.1317 73.2035 38.6692L73.101 38.7949L73.1077 38.6296C73.1249 38.143 73.1345 37.6556 73.1671 37.17C73.3242 34.2007 73.6354 31.9183 73.7235 31.291C73.7235 31.291 73.7341 31.2126 73.7025 31.1956C73.668 31.17 73.6077 31.2239 73.6077 31.2267C73.6077 31.2267 72.2132 32.3793 72.2179 32.3736C72.1758 32.4152 72.0819 32.4983 72.0666 32.5399C72.034 32.5919 72.0111 32.6873 71.9977 32.7855C71.831 34.2007 71.7055 35.665 71.6337 37.1558C71.5887 37.9059 71.5695 39.0878 71.5571 40.1298C71.5571 40.2025 71.5695 40.2517 71.6069 40.2998C71.6404 40.3442 71.7151 40.3971 71.7362 40.4113L72.9439 41.0953C72.9774 41.1151 73.0253 41.1302 73.0493 41.1255C73.0732 41.1208 73.0838 41.1019 73.0838 41.0254V40.7306L73.0914 40.5974C73.0914 39.6083 73.8241 38.8582 74.7733 38.8582C75.4332 38.8582 75.8335 39.117 75.935 39.6442C76.004 40.0004 75.9149 40.4009 75.6908 40.7306C75.279 41.3079 74.7349 41.699 73.4075 41.7216C72.7763 41.733 70.8771 41.5733 70.3302 40.5086C70.2919 40.4482 70.2708 40.417 70.2545 40.3556C70.2344 40.3197 70.2038 40.2413 70.1808 40.2365C70.152 40.2309 70.1453 40.2715 70.1425 40.3376C70.1348 40.3716 70.1147 40.4482 70.1147 40.4727C70.0668 40.7911 69.9116 41.2039 69.6693 41.3995C69.4136 41.6102 68.8456 41.6357 68.4003 41.5733C68.1992 41.5421 67.8036 41.4722 67.4291 41.3485L67.3649 41.3267L67.3898 41.2767C67.772 40.349 67.7911 39.2635 67.4291 38.6938C67.0795 38.1175 66.4474 37.7406 65.754 37.6584C65.0711 37.5857 64.0769 37.6886 63.5368 38.1081C63.259 38.3112 63.1603 38.845 63.1278 39.1907C63.1182 39.2635 63.1153 39.3315 63.1402 39.3362C63.1603 39.3504 63.2034 39.3117 63.259 39.2635C63.5051 39.0679 63.9227 38.8006 64.3815 38.7136C64.9246 38.6154 65.4044 38.7297 65.6448 38.8582C66.2558 39.1822 66.3535 39.7528 66.3736 39.9219C66.3966 40.0967 66.3871 40.2772 66.3478 40.4727L66.3325 40.57L66.2597 40.502C65.4772 39.7746 64.9763 39.563 64.2781 39.6707C63.9428 39.7264 63.5578 39.9125 63.259 40.2668C63.0837 40.4274 62.6355 41.0537 62.2141 41.2143C61.3799 41.5488 57.7681 41.3938 57.2471 41.0764C56.9368 40.8903 56.9799 40.4226 56.999 40.2573V40.2365C57.0038 40.1251 57.069 39.1416 57.091 38.6154C57.1111 38.2243 57.0421 37.9531 56.8908 37.8029C56.7251 37.6442 56.4579 37.5913 56.2769 37.5913C56.1016 37.597 55.8191 37.6584 55.4561 37.9673C54.3872 38.878 53.9169 39.5563 53.7158 39.8757C53.6871 39.9125 53.6507 39.9796 53.622 39.989C53.5626 40.0089 53.5626 39.9219 53.5702 39.8851C53.5741 39.1303 53.6603 37.0661 53.6603 36.9659C53.8193 33.9891 54.1257 31.7057 54.2196 31.0831L54.2244 31.0623C54.2321 31.0161 54.2359 30.9603 54.2196 30.9603C54.1832 30.9395 54.142 30.9754 54.1372 30.9811C54.1372 30.9811 52.7082 32.1705 52.7082 32.1648C52.6623 32.2036 52.5818 32.2924 52.5579 32.3302C52.5301 32.3793 52.5023 32.4766 52.4937 32.5805L52.488 32.6211C52.3625 33.7038 52.1882 35.1832 52.1231 36.947C52.0196 39.7651 52.0321 41.1416 52.0675 42.5861C52.078 42.9573 52.2686 43.0679 52.3845 43.0915C52.4209 43.1028 52.7657 43.1916 52.9084 42.9214C53.7292 41.373 54.3518 40.52 55.481 39.3976C55.526 39.3504 55.5911 39.3003 55.6725 39.3145C55.752 39.3362 55.7472 39.4118 55.7434 39.5006L55.7061 39.9711C55.6907 40.1742 55.6831 40.3594 55.6668 40.8128C55.6495 41.2606 55.6907 42.3357 56.4263 42.7429C57.1896 43.1605 60.9709 43.0868 60.9709 43.0868C62.1911 43.1028 62.3932 42.8657 62.6307 42.5861C62.7399 42.4595 62.8223 42.3074 62.8883 42.1458C63.1354 42.7542 63.7455 43.0206 63.7781 43.0348C63.7781 43.0348 64.1114 43.1708 64.6525 43.1916C65.0711 43.202 65.5289 43.0868 65.9781 42.8563C66.1074 42.7892 66.2961 42.6598 66.4886 42.4888L66.5307 42.4595L66.5633 42.4888C66.7232 42.6172 66.9186 42.7457 67.1494 42.8733C67.7308 43.1916 68.816 43.1482 68.816 43.1482C69.8791 43.1161 70.2545 42.6456 70.3388 42.3499C70.3541 42.2856 70.3704 42.2091 70.3857 42.1298C70.516 42.4273 70.6807 42.6172 70.8771 42.7741C71.5274 43.2993 72.5407 43.3645 73.531 43.3447C74.6899 43.3305 75.7224 42.844 76.1026 42.5483C77.3401 41.5733 77.4694 40.2309 77.3669 39.6508Z" fill="white"/>
<path d="M50.2133 34.2621C49.6357 33.3892 48.8207 32.7704 47.6599 32.3179C47.0948 32.0987 46.4224 31.9882 45.5461 31.9721C45.5461 31.9721 44.5385 31.9504 43.9849 31.9069C43.6516 31.871 43.4227 31.7671 43.2589 31.6547C43.1718 31.5886 43.1507 31.5357 43.0884 31.5357C43.0262 31.547 43.0262 31.7 43.0157 31.8399C42.9362 32.8214 42.6709 36.0996 42.6278 36.9036C42.5933 37.6499 42.577 38.8374 42.5703 39.886C42.5703 39.9597 42.5722 40.0041 42.6077 40.058C42.6373 40.0967 42.713 40.1525 42.7379 40.1695L43.9447 40.8534C43.9849 40.8733 44.0204 40.8903 44.0491 40.879C44.073 40.8676 44.0826 40.8336 44.0826 40.7495V40.4935L44.096 40.3603L44.1113 38.5956L44.1228 38.348C44.1353 37.9059 44.1487 37.3504 44.1746 36.913C44.2042 36.1771 44.2703 35.4289 44.3259 34.7005H44.3316C44.3402 34.5153 44.3728 34.2102 44.5031 34.0099C44.6889 33.7236 44.9159 33.6613 45.1227 33.6084C45.3545 33.564 45.9847 33.4922 46.9166 33.8474C47.6273 34.1195 48.2642 34.589 48.6243 35.0859C48.8954 35.4723 49.1185 35.9815 49.2019 36.4029C49.3178 37.0141 49.3589 38.3584 48.7632 39.5072C48.2546 40.4661 47.4243 41.0962 46.2654 41.3844C45.9052 41.4722 45.3689 41.5336 44.7167 41.5488C44.073 41.5525 41.5857 41.2436 41.0446 39.9711C40.9909 39.8445 40.9833 39.7831 40.9172 39.7831C40.8511 39.7831 40.8387 39.8568 40.8147 39.973C40.7582 40.3036 40.6519 40.6494 40.5532 40.8175C40.4211 41.0433 40.2362 41.5658 38.3437 41.5336C37.0124 41.5062 36.4645 41.4977 35.9588 41.1973C35.7386 41.0584 35.7012 40.7816 35.7012 40.5814C35.7012 40.4992 35.8372 38.0523 35.8592 37.7614C35.8688 37.6688 35.8803 37.597 35.8324 37.5734C35.7845 37.5583 35.7386 37.6008 35.6734 37.6584C35.4282 37.8653 35.0039 38.2092 34.7444 38.4359C34.6275 38.5247 34.5864 38.554 34.5548 38.6211C34.5241 38.6891 34.5069 38.7495 34.503 38.8487C34.459 39.6395 34.3804 41.2871 34.3804 41.2871L34.3632 41.2994C34.1123 41.4666 33.5711 41.5592 33.3326 41.5743C33.0836 41.5856 32.1661 41.5932 31.5838 41.2181C31.3893 41.0962 31.2696 40.9422 31.2265 40.741C31.1748 40.4878 31.2112 40.2517 31.3357 40.0315C31.5138 39.7519 32.3347 38.5861 32.3347 38.5861C32.4122 38.4576 32.418 38.417 32.4007 38.3584C32.3854 38.2819 32.3212 38.2356 32.2734 38.1903C32.1709 38.1015 31.9774 37.9928 31.7581 37.8483C31.7581 37.8483 31.6029 37.75 31.5656 37.7264C31.4995 37.6801 31.4248 37.6839 31.3683 37.7463C31.124 37.973 30.2668 39.2748 30.3387 40.7004C30.3818 41.5336 30.6902 42.1298 31.0848 42.484C31.4775 42.8421 32.1661 43.2313 33.2934 43.1907C33.8383 43.1661 34.3306 42.9583 34.7444 42.5927L34.7885 42.5568L34.8248 42.5927C34.9187 42.7079 35.026 42.7901 35.1428 42.8553C35.9014 43.2719 37.6215 43.2767 38.5266 43.2719C40.4824 43.254 41.0848 42.6711 41.2582 42.1487C41.3721 42.3508 41.5033 42.5001 41.648 42.6342C42.3845 43.287 43.9073 43.4023 44.7454 43.4051C46.0125 43.4165 47.1973 43.2587 47.9194 42.9753C48.5879 42.7155 49.3791 42.3244 50.1146 41.3938C50.855 40.4586 51.2467 39.1359 51.2371 37.6688C51.2266 36.2545 50.9651 35.3958 50.2133 34.2621Z" fill="white"/>
<path d="M19.6385 40.7864H19.6519C19.5877 40.7609 18.8637 40.3801 18.4988 39.9796C18.2344 39.6744 18.0256 39.3929 18.4921 38.9659C18.6367 38.8487 18.8637 38.7297 19.1855 38.6107C19.3445 39.3863 19.6385 40.7864 19.6385 40.7864ZM22.9131 39.8086C23.1257 39.5119 23.4332 38.9357 23.0146 38.0571C22.6047 37.1785 21.7389 36.7222 20.4603 36.8365C20.172 35.6112 19.2698 31.9504 19.2583 31.8795C19.2401 31.8087 19.173 31.6443 19.0677 31.5886C18.9566 31.5253 18.8005 31.5168 18.7114 31.5168C18.5725 31.5168 18.1722 31.5357 17.9615 31.718C17.7373 31.8946 17.6425 32.0817 17.5132 32.3878C17.2882 32.9093 16.905 33.7416 16.4108 34.7893C16.0785 35.4827 15.7002 36.2782 15.2749 37.1756C14.7453 38.2829 13.3843 40.8686 13.2464 41.1217C13.1506 41.2965 13.0213 41.4344 12.8231 41.5535C12.6372 41.6678 12.1497 41.7094 11.8892 41.5809C11.4822 41.3938 11.3222 41.1737 11.2265 40.8686C11.168 40.6891 11.1824 40.4415 11.191 40.4104C11.2169 39.9475 11.577 39.6225 11.6038 39.5932C11.6354 39.5686 11.6565 39.5469 11.6565 39.5214C11.6498 39.4949 11.6172 39.4949 11.577 39.5072C11.0435 39.6612 10.4708 40.1969 10.4076 40.879C10.4076 40.9262 10.3999 40.9725 10.3999 41.0178C10.3999 41.6876 10.8366 42.4037 11.486 42.7561C11.8528 42.9583 13.2703 43.5242 14.1055 42.6645C14.39 42.3735 14.6964 41.8681 15.1112 41.0433C15.5297 40.2299 16.5162 38.2356 16.6742 37.8908C16.8447 37.5516 17.7881 35.615 18.2699 34.6693L18.3427 34.5399L18.8867 37.1974C17.7259 37.6329 17.2173 38.2829 17.0037 39.2068C16.7508 40.2054 17.7019 41.6291 20.0848 42.7316C20.2946 42.8421 21.3491 43.2049 21.5339 43.2323C21.896 43.2757 21.9391 43.1113 21.9525 43.0263C21.985 42.9082 21.9036 42.604 21.8481 42.3782C21.7743 42.0787 21.0867 39.4288 20.8281 38.3027C21.5196 38.2611 22.0827 38.3887 22.417 38.8157C22.7014 39.1718 22.7627 39.5374 22.7666 39.7642C22.7666 39.8983 22.7627 39.9116 22.7829 39.9182C22.8078 39.9276 22.8384 39.904 22.9131 39.8086Z" fill="white"/>
<path d="M32.3107 36.4709C32.4707 36.3103 32.7398 36.0127 32.871 35.8625C32.9074 35.8266 32.9218 35.8001 32.9524 35.8001C32.9917 35.8001 33.0051 35.8209 33.0453 35.8511C33.235 36.0023 33.5539 36.2593 33.664 36.3613C33.7502 36.4435 33.9916 36.7014 34.0146 37.1435C34.028 37.2427 34.0146 37.3514 33.9916 37.4591C33.9265 37.8181 33.7703 38.144 33.6679 38.3112C33.6516 38.3424 33.6219 38.4009 33.5893 38.3887C33.5539 38.3783 33.5606 38.3169 33.5635 38.2659C33.5635 38.2196 33.5635 38.1997 33.5606 38.144C33.5405 37.9097 33.4801 37.6168 33.2512 37.3825C33.0357 37.17 32.5722 36.8365 32.327 36.6617C32.281 36.6305 32.2695 36.6192 32.259 36.5739C32.2542 36.5417 32.2695 36.5313 32.3107 36.4709Z" fill="white"/>
<path d="M60.4269 39.4553C60.4537 39.4288 60.4537 39.3778 60.4269 39.3457C60.266 39.1851 59.8216 38.7552 59.6655 38.6012C59.6348 38.5691 59.5917 38.5691 59.5611 38.5956C59.4059 38.7495 58.9462 39.1964 58.792 39.3504C58.7699 39.3806 58.7699 39.4231 58.792 39.4553C58.9558 39.613 59.4002 40.0514 59.5611 40.2054C59.5917 40.2365 59.6348 40.2365 59.6655 40.2054C59.8216 40.0514 60.266 39.613 60.4269 39.4553Z" fill="white"/>
<path d="M48.7192 47.0026C48.8494 47.0026 48.9576 46.8978 48.9576 46.7731C48.9576 46.6493 48.8494 46.5473 48.7192 46.5473C48.5937 46.5473 48.4864 46.6493 48.4864 46.7731C48.4864 46.8978 48.5937 47.0026 48.7192 47.0026Z" fill="white"/>
<path d="M49.3245 47.0026C49.4499 47.0026 49.5582 46.8978 49.5582 46.7731C49.5582 46.6493 49.4499 46.5473 49.3245 46.5473C49.199 46.5473 49.0965 46.6493 49.0965 46.7731C49.0965 46.8978 49.199 47.0026 49.3245 47.0026Z" fill="white"/>
<path d="M51.8616 47.3125C51.3233 47.3125 50.9919 47.5912 50.9919 48.021C50.9919 48.2591 51.0417 48.4311 51.1346 48.5378C51.2467 48.6663 51.444 48.7277 51.7313 48.7277H52.3366C52.3366 48.8647 52.2878 48.9544 52.193 48.9932C52.1441 49.0111 52.0369 49.0196 51.8798 49.0196H50.3742V49.0291H50.2133C49.9212 49.0291 49.7737 48.8779 49.7737 48.5775V47.3975H48.8628C48.2929 47.3975 48.0066 47.7244 48.0066 48.3791C48.0066 49.0546 48.2929 49.3909 48.8628 49.3909C49.199 49.3909 49.4193 49.2898 49.5218 49.081C49.6156 49.2898 49.8407 49.3909 50.1903 49.3909H51.9334C52.2016 49.3909 52.4008 49.3474 52.5253 49.2539C52.6824 49.1443 52.7638 48.9582 52.7638 48.6965V48.021C52.7638 47.8255 52.691 47.6658 52.5531 47.5383C52.3951 47.3871 52.1623 47.3125 51.8616 47.3125ZM49.3465 48.3791C49.3465 48.5954 49.3158 48.7541 49.2574 48.8515C49.1904 48.9714 49.0639 49.0291 48.8896 49.0291C48.7144 49.0291 48.5889 48.9714 48.5219 48.8515C48.4634 48.7541 48.4318 48.5954 48.4318 48.3791C48.4318 48.1618 48.4634 48.0021 48.5219 47.9096C48.5889 47.7943 48.7144 47.7376 48.8896 47.7376H49.3465V48.3791ZM52.3366 48.3744H51.8175C51.6375 48.3744 51.5254 48.3564 51.4813 48.3205C51.4354 48.2808 51.4133 48.1892 51.4133 48.0333C51.4133 47.799 51.5608 47.6838 51.8616 47.6838C52.1805 47.6838 52.3366 47.799 52.3366 48.0333V48.3744Z" fill="white"/>
<path d="M51.8616 47.0026C51.988 47.0026 52.0943 46.8978 52.0943 46.7731C52.0943 46.6493 51.988 46.5473 51.8616 46.5473C51.7361 46.5473 51.6279 46.6493 51.6279 46.7731C51.6279 46.8978 51.7361 47.0026 51.8616 47.0026Z" fill="white"/>
<path d="M56.0173 47.0026C56.1428 47.0026 56.251 46.8978 56.251 46.7731C56.251 46.6493 56.1428 46.5473 56.0173 46.5473C55.8919 46.5473 55.7846 46.6493 55.7846 46.7731C55.7846 46.8978 55.8919 47.0026 56.0173 47.0026Z" fill="white"/>
<path d="M55.412 47.0026C55.5423 47.0026 55.6495 46.8978 55.6495 46.7731C55.6495 46.6493 55.5423 46.5473 55.412 46.5473C55.2866 46.5473 55.1783 46.6493 55.1783 46.7731C55.1783 46.8978 55.2866 47.0026 55.412 47.0026Z" fill="white"/>
<path d="M58.0986 46.4849C58.224 46.4849 58.3313 46.3886 58.3313 46.2601C58.3313 46.1363 58.224 46.0305 58.0986 46.0305C57.9769 46.0305 57.8696 46.1363 57.8696 46.2601C57.8696 46.3886 57.9769 46.4849 58.0986 46.4849Z" fill="white"/>
<path d="M57.7978 47.0026C57.9233 47.0026 58.0258 46.8978 58.0258 46.7731C58.0258 46.6493 57.9233 46.5473 57.7978 46.5473C57.6676 46.5473 57.5651 46.6493 57.5651 46.7731C57.5651 46.8978 57.6676 47.0026 57.7978 47.0026Z" fill="white"/>
<path d="M58.1656 46.7731C58.1656 46.8968 58.2729 47.0026 58.3993 47.0026C58.5238 47.0026 58.632 46.8968 58.632 46.7731C58.632 46.6484 58.5238 46.5482 58.3993 46.5482C58.2729 46.5482 58.1656 46.6484 58.1656 46.7731Z" fill="white"/>
<path d="M59.7421 48.569C59.7421 48.8703 59.5936 49.0206 59.3025 49.0206H58.8906V49.0291H58.7575C58.4615 49.0291 58.314 48.8826 58.314 48.5907V47.3966L57.8917 47.5203V48.5775C57.8917 48.8789 57.7442 49.0291 57.4434 49.0291H56.3267C56.5096 48.8297 56.6044 48.6172 56.614 48.4008C56.6178 48.1221 56.5556 47.8926 56.4301 47.714C56.2778 47.5024 56.0432 47.3966 55.73 47.3966C55.4206 47.3966 55.1879 47.5024 55.0308 47.714C54.9054 47.8926 54.8469 48.1221 54.8565 48.4008C54.8603 48.6172 54.9494 48.8297 55.1343 49.0291H54.5874V49.0206H53.7896C53.6411 49.0206 53.5702 48.9488 53.5702 48.8071V46.5388L53.144 46.672V48.8203C53.144 49.1623 53.3547 49.3909 53.7359 49.3909H55.4657C55.5595 49.3909 55.6448 49.3824 55.73 49.3644C55.82 49.3824 55.9101 49.3909 55.9943 49.3909H57.4703C57.7442 49.3909 57.9549 49.3125 58.1072 49.1575C58.2595 49.3125 58.4663 49.3909 58.7297 49.3909H59.3245C59.5802 49.3909 59.7861 49.3163 59.9394 49.1708C60.0917 49.0206 60.1683 48.8344 60.1683 48.6077V46.5473L59.7421 46.672V48.569ZM56.0853 48.7371C55.9991 48.8826 55.8823 48.9847 55.73 49.0328C55.5815 48.9847 55.4657 48.8826 55.3756 48.7371C55.3 48.6077 55.2636 48.467 55.2636 48.312C55.2636 48.0107 55.4388 47.7679 55.73 47.7679C56.0346 47.7679 56.2003 48.0107 56.2003 48.312C56.2003 48.467 56.161 48.6077 56.0853 48.7371Z" fill="white"/>
<path d="M60.5533 46.671V49.3918H60.9795V46.5388L60.5533 46.671Z" fill="white"/>
<path d="M62.4267 47.4722C62.1173 47.4722 61.8846 47.577 61.7371 47.7858C61.6155 47.9587 61.5532 48.1835 61.5532 48.4622C61.5532 48.7409 61.6155 48.962 61.7371 49.1339C61.8846 49.3474 62.1173 49.4532 62.4267 49.4532C62.5838 49.4532 62.7226 49.4173 62.8529 49.3474C62.8175 49.679 62.6384 49.8557 62.3146 49.8736C62.0953 49.8869 61.8578 49.8377 61.6021 49.7187L61.7898 50.1259C61.9162 50.2005 62.0905 50.2411 62.3146 50.2411C62.6326 50.2411 62.8749 50.1391 63.0416 49.9407C63.1987 49.7622 63.2753 49.5241 63.2791 49.219C63.2791 49.1745 63.2839 49.081 63.2925 48.9403C63.2973 48.8118 63.2973 48.7022 63.2973 48.6172C63.2973 48.2771 63.2475 48.0154 63.1489 47.834C63.01 47.5903 62.7686 47.4722 62.4267 47.4722ZM62.4267 49.0857C62.1269 49.0857 61.9746 48.8789 61.9746 48.4622C61.9746 48.0418 62.1269 47.834 62.4267 47.834C62.7274 47.834 62.8749 48.0418 62.8749 48.4622C62.8749 48.8789 62.7274 49.0857 62.4267 49.0857Z" fill="white"/>
<path d="M65.6956 47.0026C65.821 47.0026 65.9293 46.8978 65.9293 46.7731C65.9293 46.6493 65.821 46.5473 65.6956 46.5473C65.571 46.5473 65.4676 46.6493 65.4676 46.7731C65.4676 46.8978 65.571 47.0026 65.6956 47.0026Z" fill="white"/>
<path d="M65.0912 47.0026C65.2215 47.0026 65.3278 46.8978 65.3278 46.7731C65.3278 46.6493 65.2215 46.5473 65.0912 46.5473C64.9648 46.5473 64.8575 46.6493 64.8575 46.7731C64.8575 46.8978 64.9648 47.0026 65.0912 47.0026Z" fill="white"/>
<path d="M68.1187 47.3966C67.7557 47.3966 67.4282 47.5421 67.1274 47.8302L67.432 48.1089C67.6436 47.8831 67.8716 47.7679 68.1187 47.7679C68.4099 47.7679 68.6072 47.8916 68.7068 48.1391C68.7681 48.2903 68.7997 48.534 68.7997 48.8703V49.0291H66.5844C66.2922 49.0291 66.1447 48.8789 66.1447 48.5775V47.3966H65.2349C64.665 47.3966 64.3777 47.7235 64.3777 48.3791C64.3777 49.0555 64.665 49.3909 65.2349 49.3909C65.571 49.3909 65.7904 49.2898 65.8929 49.082C65.9877 49.2898 66.2127 49.3909 66.5614 49.3909H69.2355V48.8703C69.2355 48.4405 69.177 48.1089 69.0602 47.8831C68.8849 47.56 68.5717 47.3966 68.1187 47.3966ZM65.7176 48.3791C65.7176 48.5954 65.6869 48.7541 65.6295 48.8524C65.5615 48.9705 65.436 49.0291 65.2617 49.0291C65.0855 49.0291 64.9609 48.9705 64.8929 48.8524C64.8355 48.7541 64.8039 48.5954 64.8039 48.3791C64.8039 48.1618 64.8355 48.0022 64.8929 47.9105C64.9609 47.7953 65.0855 47.7367 65.2617 47.7367H65.7176V48.3791Z" fill="white"/>
<path d="M72.012 49.7848C71.8875 49.7848 71.7841 49.8869 71.7841 50.0106C71.7841 50.1334 71.8875 50.2402 72.012 50.2402C72.1375 50.2402 72.2457 50.1334 72.2457 50.0106C72.2457 49.8869 72.1375 49.7848 72.012 49.7848Z" fill="white"/>
<path d="M71.4115 49.7848C71.2812 49.7848 71.1835 49.8869 71.1835 50.0106C71.1835 50.1334 71.2812 50.2402 71.4115 50.2402C71.537 50.2402 71.6442 50.1334 71.6442 50.0106C71.6442 49.8869 71.537 49.7848 71.4115 49.7848Z" fill="white"/>
<path d="M79.3274 46.671V48.568C79.3274 48.8694 79.1799 49.0196 78.8878 49.0196H78.4664C78.1752 49.0196 78.0277 48.8779 78.0277 48.5907V46.5388L77.6025 46.671V48.568C77.6025 48.8694 77.4531 49.0196 77.1571 49.0196H76.3382V47.3966L75.912 47.5213V49.0196H75.0146V47.5912L74.5884 47.715V49.0196H73.7015V47.7811L73.2753 47.9011V49.0196H72.6212V49.0281H72.3626C72.0666 49.0281 71.9182 48.8817 71.9182 48.5907V47.3966L71.4967 47.5213V48.5775C71.4967 48.8779 71.3492 49.0281 71.0485 49.0281H70.8646V49.0196H70.266C70.1185 49.0196 70.0467 48.9488 70.0467 48.808V46.5388L69.6205 46.671V48.8212C69.6205 49.1613 69.8312 49.3918 70.2114 49.3918H71.0753C71.3492 49.3918 71.5599 49.3115 71.7122 49.1566C71.8645 49.3115 72.0704 49.3918 72.3357 49.3918H77.1849C77.4579 49.3918 77.6695 49.3115 77.817 49.1528C77.9741 49.3115 78.18 49.3918 78.4405 49.3918H78.9108C79.1656 49.3918 79.3724 49.3163 79.5257 49.1698C79.678 49.0196 79.7536 48.8335 79.7536 48.6087V46.5473L79.3274 46.671Z" fill="white"/>
<path d="M10.5321 46.7088H11.3989V49.3881H11.8758V46.7088H12.7407V46.2856H10.5321V46.7088Z" fill="white"/>
<path d="M13.687 47.1538C13.3814 47.1538 13.165 47.2662 13.0194 47.4145C12.8077 47.6328 12.755 47.9115 12.755 48.2818C12.755 48.6559 12.8077 48.9355 13.0194 49.1528C13.165 49.3002 13.3814 49.4145 13.687 49.4145C13.9906 49.4145 14.2128 49.3002 14.3583 49.1528C14.57 48.9355 14.6227 48.6559 14.6227 48.2818C14.6227 47.9115 14.57 47.6328 14.3583 47.4145C14.2128 47.2662 13.9906 47.1538 13.687 47.1538ZM14.0183 48.8874C13.9341 48.9695 13.8191 49.0187 13.687 49.0187C13.5538 49.0187 13.4437 48.9695 13.3594 48.8874C13.2234 48.7523 13.2042 48.5208 13.2042 48.2818C13.2042 48.0418 13.2234 47.8113 13.3594 47.6762C13.4437 47.5931 13.5538 47.5496 13.687 47.5496C13.8191 47.5496 13.9341 47.5931 14.0183 47.6762C14.1543 47.8113 14.1725 48.0418 14.1725 48.2818C14.1725 48.5208 14.1543 48.7523 14.0183 48.8874Z" fill="white"/>
<path d="M16.5401 48.5255C16.5401 48.8656 16.3275 49.0177 16.0766 49.0177C15.8247 49.0177 15.6255 48.8694 15.6255 48.5255V47.1793H15.1753V48.5907C15.1753 48.8392 15.228 49.048 15.4014 49.2142C15.5326 49.3399 15.7232 49.4145 15.9521 49.4145C16.1781 49.4145 16.3946 49.3314 16.5488 49.166V49.3881H16.9912V47.1793H16.5401V48.5255Z" fill="white"/>
<path d="M18.1128 47.4193V47.1793H17.6713V49.3881H18.1214V48.0466C18.1214 47.7414 18.3254 47.5506 18.5677 47.5506C18.7229 47.5506 18.8024 47.5978 18.9029 47.698L19.243 47.3616C19.0888 47.2095 18.9259 47.1528 18.7095 47.1528C18.4576 47.1528 18.2277 47.2624 18.1128 47.4193Z" fill="white"/>
<path d="M19.5753 49.3881H20.0254V47.1793H19.5753V49.3881Z" fill="white"/>
<path d="M19.5619 46.7438H20.0389V46.2733H19.5619V46.7438Z" fill="white"/>
<path d="M21.6958 48.09L21.3424 48.0598C21.1029 48.0371 21.033 47.937 21.033 47.8066C21.033 47.6413 21.169 47.5232 21.4391 47.5232C21.6517 47.5232 21.851 47.5666 21.9917 47.6847L22.2743 47.4013C22.0664 47.2228 21.7791 47.1538 21.4439 47.1538C20.9756 47.1538 20.6001 47.3966 20.6001 47.8283C20.6001 48.2166 20.8424 48.4037 21.2619 48.4386L21.6201 48.4688C21.8375 48.4858 21.9209 48.5822 21.9209 48.7305C21.9209 48.9393 21.7044 49.0357 21.4305 49.0357C21.2102 49.0357 20.966 48.9875 20.7859 48.8042L20.49 49.0961C20.7553 49.3531 21.0637 49.4145 21.4305 49.4145C21.9659 49.4145 22.3624 49.1745 22.3624 48.7135C22.3624 48.3205 22.1153 48.125 21.6958 48.09Z" fill="white"/>
<path d="M25.251 47.1538C24.9551 47.1538 24.73 47.2577 24.549 47.4759C24.4072 47.2624 24.1917 47.1538 23.913 47.1538C23.6879 47.1538 23.4667 47.2407 23.3173 47.4013V47.1793H22.8748V49.3881H23.325V48.0418C23.325 47.7027 23.5385 47.5496 23.7895 47.5496C24.0414 47.5496 24.2396 47.698 24.2396 48.0418V49.3881H24.6907V48.0201C24.6907 47.7027 24.911 47.5496 25.1543 47.5496C25.4052 47.5496 25.6054 47.698 25.6054 48.0418V49.3881H26.0546V47.9766C26.0546 47.7282 25.9895 47.5194 25.8171 47.3541C25.6839 47.2275 25.4809 47.1538 25.251 47.1538Z" fill="white"/>
<path d="M30.1902 47.8151H29.7573C29.7525 48.0985 29.7046 48.2771 29.5897 48.4386L28.9269 47.6583L29.1568 47.5014C29.356 47.3664 29.492 47.1963 29.492 46.9526C29.492 46.5558 29.1922 46.2601 28.7459 46.2601C28.2776 46.2601 27.9778 46.552 27.9778 46.9488C27.9778 47.236 28.1626 47.4533 28.3044 47.6148C27.995 47.8151 27.6818 48.0598 27.6818 48.4915C27.6818 49.0527 28.0439 49.4145 28.698 49.4145C29.175 49.4145 29.4298 49.201 29.5667 49.0829L29.8244 49.3881H30.4028L29.8761 48.7693C30.0897 48.5255 30.1768 48.2119 30.1902 47.8151ZM28.7459 46.6484C28.9317 46.6484 29.0601 46.7835 29.0601 46.9573C29.0601 47.1009 28.9528 47.1963 28.8302 47.2794C28.8302 47.2794 28.7287 47.3484 28.6798 47.3796C28.5218 47.1963 28.4365 47.0792 28.4365 46.9526C28.4365 46.7787 28.5524 46.6484 28.7459 46.6484ZM28.698 49.0092C28.3714 49.0092 28.1281 48.7919 28.1281 48.483C28.1281 48.1949 28.3216 48.0513 28.5524 47.8945L29.2985 48.7693C29.0907 48.9535 28.9097 49.0092 28.698 49.0092Z" fill="white"/>
<path d="M33.0223 46.6824C33.371 46.6824 33.5826 46.9006 33.6583 47.2152H34.1439C34.0337 46.5955 33.6018 46.2591 33.0223 46.2591C32.6957 46.2591 32.4122 46.3772 32.1967 46.5917C31.8874 46.8968 31.8922 47.2407 31.8922 47.8378C31.8922 48.4348 31.8874 48.7787 32.1967 49.0829C32.4122 49.2964 32.6957 49.4145 33.0223 49.4145C33.5922 49.4145 34.0376 49.0791 34.1439 48.4603H33.6631C33.5884 48.774 33.371 48.9913 33.0223 48.9913C32.8365 48.9913 32.6689 48.9223 32.5578 48.8042C32.4036 48.6389 32.3682 48.4603 32.3682 47.8378C32.3682 47.2152 32.4036 47.0357 32.5578 46.8694C32.6689 46.7532 32.8365 46.6824 33.0223 46.6824Z" fill="white"/>
<path d="M36.0345 48.5255C36.0345 48.8656 35.8228 49.0177 35.5709 49.0177C35.32 49.0177 35.1208 48.8694 35.1208 48.5255V47.1793H34.6706V48.5907C34.6706 48.8392 34.7233 49.048 34.8957 49.2142C35.0279 49.3399 35.2175 49.4145 35.4474 49.4145C35.6725 49.4145 35.8899 49.3314 36.0441 49.166V49.3881H36.4856V47.1793H36.0345V48.5255Z" fill="white"/>
<path d="M37.6033 48.7523V46.2865H37.1522V48.7778C37.1522 49.1056 37.339 49.3881 37.7671 49.3881H38.0449V49.0102H37.8466C37.6656 49.0102 37.6033 48.9223 37.6033 48.7523Z" fill="white"/>
<path d="M39.0084 46.5482H38.5573V47.219H38.3015V47.5581H38.5573V48.774C38.5573 49.0924 38.7517 49.3881 39.1712 49.3881H39.4413V49.0092H39.2564C39.0879 49.0092 39.0084 48.9129 39.0084 48.7523V47.5581H39.4413V47.219H39.0084V46.5482Z" fill="white"/>
<path d="M41.3233 48.5255C41.3233 48.8656 41.1107 49.0177 40.8597 49.0177C40.6078 49.0177 40.4086 48.8694 40.4086 48.5255V47.1793H39.9585V48.5907C39.9585 48.8392 40.0111 49.048 40.1835 49.2142C40.3157 49.3399 40.5054 49.4145 40.7352 49.4145C40.9603 49.4145 41.1777 49.3314 41.3319 49.166V49.3881H41.7744V47.1793H41.3233V48.5255Z" fill="white"/>
<path d="M42.8959 47.4193V47.1793H42.4544V49.3881H42.9046V48.0466C42.9046 47.7414 43.1076 47.5506 43.3509 47.5506C43.506 47.5506 43.5846 47.5978 43.6861 47.698L44.0261 47.3616C43.8719 47.2095 43.7091 47.1528 43.4926 47.1528C43.2407 47.1528 43.0109 47.2624 42.8959 47.4193Z" fill="white"/>
<path d="M45.9914 48.2157C45.9914 47.5884 45.6428 47.1538 45.0423 47.1538C44.4686 47.1538 44.0922 47.5666 44.0922 48.2818C44.0922 49.1226 44.5385 49.4145 45.0998 49.4145C45.4924 49.4145 45.7099 49.2964 45.9388 49.0697L45.6514 48.8042C45.4924 48.961 45.3612 49.031 45.1084 49.031C44.7416 49.031 44.5385 48.791 44.5385 48.4131H45.9914V48.2157ZM44.5385 48.1032C44.5433 47.9681 44.5519 47.902 44.5969 47.8028C44.6668 47.6365 44.8297 47.5232 45.0423 47.5232C45.254 47.5232 45.4139 47.6365 45.4838 47.8028C45.5288 47.902 45.5422 47.9681 45.5461 48.1032H44.5385Z" fill="white"/>
</svg>
