<svg width="119" height="68" viewBox="0 0 119 68" fill="none" xmlns="http://www.w3.org/2000/svg">
<g clip-path="url(#clip0_205_408)">
<path d="M108.861 34.5948C108.861 32.83 107.601 31.9658 105.701 30.5292C103.844 29.1291 100.692 27.0668 98.8154 25.936C96.9384 24.8053 93.8841 23.0628 91.7739 22.0415C89.6442 21.0118 87.9477 20.3328 86.9176 20.3328C85.8875 20.3328 85.1794 20.6582 84.6685 21.3401C84.166 22.0191 83.8661 23.0123 83.6662 24.2722C83.4607 25.5292 83.358 27.0499 83.2997 28.7867C83.2497 30.5236 83.2441 34.5976 83.2441 34.5976C83.2441 34.5976 83.2497 38.6689 83.2997 40.4085C83.358 42.1453 83.4607 43.6661 83.6662 44.9231C83.8661 46.1801 84.166 47.1762 84.6685 47.8552C85.1767 48.5342 85.8875 48.8625 86.9176 48.8625C87.9477 48.8625 89.6442 48.1807 91.7739 47.1538C93.8813 46.1324 96.9384 44.39 98.8154 43.2593C100.692 42.1285 103.847 40.069 105.701 38.6689C107.601 37.2323 108.861 36.3681 108.861 34.6032" fill="white"/>
<path d="M106.054 32.4427H105.657C105.476 32.4427 105.324 32.5943 105.324 32.7823V36.413C105.324 36.5982 105.476 36.7525 105.657 36.7525H106.054C106.24 36.7525 106.387 36.601 106.387 36.413V32.7823C106.387 32.5943 106.237 32.4427 106.054 32.4427Z" fill="#131313"/>
<path d="M93.9369 31.3653H94.334C94.52 31.3653 94.67 31.2138 94.67 31.0258V25.2402C94.67 25.0522 94.52 24.9007 94.334 24.9007H93.9369C93.7509 24.9007 93.6038 25.0522 93.6038 25.2402V31.0258C93.6038 31.211 93.7537 31.3653 93.9369 31.3653Z" fill="#131313"/>
<path d="M97.527 41.0595H97.1355C96.9439 41.0595 96.7968 41.211 96.7968 41.399V41.7974C96.7968 41.9854 96.9467 42.1369 97.1355 42.1369H97.527C97.713 42.1369 97.8657 41.9854 97.8657 41.7974V41.399C97.8657 41.211 97.7103 41.0595 97.527 41.0595Z" fill="#131313"/>
<path d="M85.4072 29.2104H90.0663C90.2523 29.2104 90.3995 29.0589 90.3995 28.8709V27.0556H92.1932C92.3792 27.0556 92.5292 26.904 92.5292 26.7189V24.1655C92.5292 23.9776 92.3792 23.826 92.1932 23.826H91.7989C91.6184 23.826 91.463 23.9776 91.463 24.1655V25.9809H90.3995V23.0881C90.3995 22.9001 90.2496 22.7514 90.0663 22.7514H87.5368C87.3508 22.7514 87.2036 22.9029 87.2036 23.0909V26.7245C87.2036 26.9097 87.3563 27.0612 87.5424 27.0612H89.3361V28.1386H86.1374V24.1712C86.1374 23.9832 85.9875 23.8317 85.8042 23.8317H85.4072C85.2211 23.8317 85.074 23.9832 85.074 24.1712V28.8765C85.074 29.0645 85.2239 29.2161 85.4072 29.2161M89.3388 25.9809H88.2699L88.2754 23.826H89.3388V25.9809Z" fill="#131313"/>
<path d="M103.924 31.3653H103.527C103.341 31.3653 103.191 31.5168 103.191 31.7048V36.7525H101.392C101.212 36.7525 101.059 36.9069 101.059 37.092V38.9074H99.9954V37.092C99.9954 36.904 99.8427 36.7525 99.6622 36.7525H96.0665C95.8805 36.7525 95.7333 36.9069 95.7333 37.092V37.4905C95.7333 37.6785 95.8833 37.83 96.0665 37.83H98.932V38.9074H94.6699V35.6751H97.5298C97.7158 35.6751 97.8685 35.5208 97.8685 35.3356V34.9372C97.8685 34.752 97.7131 34.5976 97.5298 34.5976H93.9396C93.7536 34.5976 93.6064 34.7492 93.6064 34.9372V39.6425C93.6064 39.8277 93.7564 39.982 93.9396 39.982H98.9348V40.72C98.9348 40.908 99.0847 41.0595 99.2707 41.0595H99.6678C99.8538 41.0595 100.001 40.908 100.001 40.72V39.982H101.797C101.983 39.982 102.133 39.8249 102.133 39.6397V37.83H103.933C104.116 37.83 104.266 37.6785 104.266 37.4905V31.7076C104.266 31.5196 104.116 31.3681 103.933 31.3681" fill="#131313"/>
<path d="M95.3974 41.0595H92.8651C92.6791 41.0595 92.5319 41.211 92.5319 41.399V43.2144H86.1374V42.1369H91.1325C91.3186 42.1369 91.4685 41.9854 91.4685 41.7974V41.4018C91.4685 41.2138 91.3186 41.0595 91.1325 41.0595H85.4072C85.2211 41.0595 85.074 41.211 85.074 41.3962V43.9523C85.074 44.1375 85.2295 44.289 85.4072 44.289H93.2622C93.4482 44.289 93.6009 44.1375 93.6009 43.9523V42.1369H94.6644V42.8749C94.6644 43.06 94.8143 43.2144 94.9948 43.2144H95.3974C95.5834 43.2144 95.7306 43.0628 95.7306 42.8749V41.399C95.7306 41.211 95.5807 41.0595 95.3974 41.0595Z" fill="#131313"/>
<path d="M86.8593 45.3693H86.4844C86.2928 45.3693 86.1401 45.5264 86.1401 45.7172V46.0988C86.1401 46.2896 86.2956 46.4467 86.4844 46.4467H86.8593C87.0509 46.4467 87.2036 46.2896 87.2036 46.0988V45.7172C87.2036 45.5264 87.0481 45.3693 86.8593 45.3693Z" fill="#131313"/>
<path d="M88.9946 45.3693H88.6142C88.4282 45.3693 88.2699 45.5264 88.2699 45.7172V46.0988C88.2699 46.2896 88.4282 46.4467 88.6142 46.4467H88.9946C89.1862 46.4467 89.3389 46.2896 89.3389 46.0988V45.7172C89.3389 45.5264 89.1862 45.3693 88.9946 45.3693Z" fill="#131313"/>
<path d="M85.4183 38.9074C85.2267 38.9074 85.074 39.0645 85.074 39.2553V39.6341C85.074 39.8249 85.2295 39.982 85.4183 39.982H85.7931C85.9847 39.982 86.1374 39.8249 86.1374 39.6341V39.2553C86.1374 39.0645 85.9819 38.9074 85.7931 38.9074" fill="#131313"/>
<path d="M87.5479 38.9074C87.3563 38.9074 87.2036 39.0645 87.2036 39.2553V39.6369C87.2036 39.8277 87.3563 39.9849 87.5479 39.9849H87.9228C88.1143 39.9849 88.2671 39.8277 88.2671 39.6369V39.2553C88.2671 39.0645 88.1116 38.9074 87.9228 38.9074" fill="#131313"/>
<path d="M89.3389 39.2525V39.6341C89.3389 39.8249 89.4944 39.9821 89.6832 39.9821H92.1988C92.3848 39.9821 92.5347 39.8277 92.5347 39.6425V34.9372C92.5347 34.7492 92.3848 34.5977 92.1988 34.5977H91.8045C91.624 34.5977 91.4685 34.7492 91.4685 34.9372V38.9074H89.6832C89.4916 38.9074 89.3389 39.0645 89.3389 39.2553" fill="#131313"/>
<path d="M99.2735 34.5948C99.0847 34.5948 98.9292 34.752 98.9292 34.9456V35.3272C98.9292 35.518 99.0847 35.6751 99.2735 35.6751H99.6483C99.8399 35.6751 99.9926 35.5208 99.9926 35.3272V34.9456C99.9926 34.7548 99.8399 34.5948 99.6483 34.5948" fill="#131313"/>
<path d="M98.2046 28.133H98.585C98.7766 28.133 98.9293 27.9787 98.9293 27.7879V27.4063C98.9293 27.2155 98.7766 27.0583 98.585 27.0583H98.2046C98.0213 27.0583 97.8658 27.2155 97.8658 27.4063V27.7879C97.8658 27.9787 98.0213 28.133 98.2046 28.133Z" fill="#131313"/>
<path d="M92.1876 28.133H91.8128C91.6212 28.133 91.4685 28.2901 91.4685 28.4837V28.8653C91.4685 29.0561 91.624 29.2132 91.8128 29.2132H92.1876C92.3792 29.2132 92.5319 29.0589 92.5319 28.8653V28.4837C92.5319 28.2929 92.3765 28.133 92.1876 28.133Z" fill="#131313"/>
<path d="M90.058 32.4427H89.6832C89.4916 32.4427 89.3389 32.5999 89.3389 32.7907V33.1723C89.3389 33.3603 89.4944 33.5202 89.6832 33.5202H90.058C90.2496 33.5202 90.4023 33.3631 90.4023 33.1723V32.7907C90.4023 32.5999 90.2468 32.4427 90.058 32.4427Z" fill="#131313"/>
<path d="M101.778 34.5948H101.403C101.217 34.5948 101.059 34.752 101.059 34.9456V35.3272C101.059 35.518 101.217 35.6751 101.403 35.6751H101.778C101.972 35.6751 102.122 35.5208 102.122 35.3272V34.9456C102.122 34.7548 101.972 34.5948 101.778 34.5948Z" fill="#131313"/>
<path d="M85.4071 37.83H90.0663C90.2523 37.83 90.3995 37.6785 90.3995 37.4905V34.9372C90.3995 34.752 90.2495 34.5976 90.0663 34.5976H88.2698V31.3653H91.4629V33.1723C91.4629 33.3631 91.6184 33.5202 91.8072 33.5202H101.786C101.972 33.5202 102.12 33.3659 102.12 33.1807V29.5499C102.12 29.3648 101.97 29.2133 101.786 29.2133H99.2652C99.0819 29.2133 98.9264 29.3648 98.9264 29.5499V30.2907H96.7912V26.3204C96.7912 26.1352 96.6413 25.9809 96.458 25.9809H96.061C95.875 25.9809 95.7278 26.1352 95.7278 26.3204V32.4428H92.5291V30.6274C92.5291 30.4422 92.3792 30.2907 92.1932 30.2907H87.5396C87.3535 30.2907 87.2008 30.4422 87.2008 30.6274V35.3384C87.2008 35.5236 87.3535 35.6751 87.5396 35.6751H89.3333V36.7497H86.1346V30.6274C86.1346 30.4422 85.9847 30.2879 85.8014 30.2879H85.4044C85.2183 30.2879 85.0712 30.4394 85.0712 30.6246V37.4877C85.0712 37.6757 85.2211 37.8272 85.4044 37.8272M96.7968 31.3653H99.9954V30.2879H101.059V32.44H96.794V31.3625L96.7968 31.3653Z" fill="#131313"/>
<path d="M75.0282 26.3793C74.9032 26.3793 74.7561 26.3457 74.7561 26.2783V25.4029C74.7561 25.344 74.906 25.3019 75.0282 25.3019H75.8056C76.0694 25.3019 76.136 25.2935 76.136 25.0241V23.6857C76.136 23.3406 76.1305 22.9618 76.1194 22.5578C76.1194 22.4652 76.186 22.3979 76.2887 22.3979H76.9884C77.1106 22.3979 77.1634 22.4652 77.1689 22.5578C77.18 22.9198 77.1856 23.1807 77.1856 23.4248V24.5443C77.1856 25.2598 77.1856 25.7396 77.155 26.0398C77.1301 26.1493 77.0995 26.225 76.9635 26.284C76.733 26.3513 76.0694 26.3765 75.6224 26.3765M75.5113 27.3025C75.5113 27.193 75.6029 27.1089 75.7029 27.1089H76.347C76.4553 27.1089 76.5525 27.193 76.5525 27.3025V27.9759C76.5525 28.0685 76.4553 28.1526 76.347 28.1526H75.7029C75.6057 28.1526 75.5113 28.0685 75.5113 27.9759V27.3025ZM71.9739 26.3793C71.8517 26.3793 71.7018 26.3457 71.7018 26.2783V25.4029C71.7018 25.344 71.8517 25.3019 71.9739 25.3019H72.7569C72.9485 25.3019 73.24 25.2767 73.24 25.0157V22.5859C73.24 22.4933 73.3067 22.4259 73.4094 22.4259H74.1285C74.2202 22.4259 74.2896 22.4933 74.2896 22.5859V25.1616C74.3562 25.2795 74.6811 25.3047 74.831 25.3047H75.0309V26.3822H74.9338C74.5062 26.3822 74.0452 26.3317 73.7509 26.096C73.4427 26.3148 72.9596 26.3822 72.6042 26.3822H71.9767L71.9739 26.3793ZM73.2345 20.9949C73.2345 20.8855 73.3233 20.8013 73.4288 20.8013H74.0869C74.1896 20.8013 74.2729 20.8855 74.2729 20.9949V21.6515C74.2729 21.7525 74.1896 21.8367 74.0813 21.8367H73.4288C73.3067 21.8367 73.2345 21.7525 73.2345 21.6515V20.9949ZM66.0125 23.7194C66.1041 23.7194 66.1569 23.7699 66.1569 23.8793C66.1458 24.0056 66.1458 24.1992 66.1458 24.2581C66.1458 25.0662 66.5456 25.3019 67.6535 25.3019H69.6693C69.8692 25.3019 70.1413 25.2767 70.1413 25.0157V20.1532C70.1413 20.0522 70.2191 19.9764 70.3107 19.9764H71.0576C71.1492 19.9764 71.227 20.0522 71.227 20.1532V25.1588C71.2936 25.2767 71.5907 25.3019 71.7462 25.3019H71.9683V26.3793H71.8656C71.5296 26.3793 71.0465 26.3373 70.7189 26.1437C70.4218 26.3373 69.9414 26.3793 69.5666 26.3793H67.4675C65.6876 26.3793 65.1629 25.7144 65.1629 24.5443C65.1629 24.4349 65.174 24.0561 65.2128 23.8878C65.2434 23.7615 65.2795 23.7194 65.3878 23.7194H66.0097H66.0125ZM67.2065 23.0376C67.2065 22.9703 67.2537 22.9366 67.3564 22.9366H67.4786C67.4119 22.8272 67.3703 22.6251 67.3703 22.4652C67.3703 21.9181 67.709 21.6235 68.3115 21.6235C68.4087 21.6235 68.5698 21.6319 68.728 21.674C68.8002 21.6908 68.8363 21.7413 68.8363 21.8171V22.1201C68.8363 22.1958 68.8002 22.2295 68.728 22.2295C68.6614 22.2295 68.4615 22.2127 68.3948 22.2127C68.1366 22.2127 68.02 22.3558 68.02 22.5662C68.02 22.743 68.0977 22.8777 68.1533 22.9113H68.7808C68.878 22.9113 68.9307 22.9534 68.9307 23.0264V23.3715C68.9307 23.4473 68.8807 23.4893 68.7808 23.4893H67.3564C67.2537 23.4893 67.2065 23.4473 67.2065 23.3715V23.0348V23.0376ZM61.3256 20.6162C61.234 20.6162 61.1923 20.5825 61.1923 20.5152V20.271C61.1923 20.2121 61.234 20.1869 61.3256 20.1869H61.4839C61.3922 20.0522 61.3506 19.8754 61.3506 19.7071C61.3506 19.2357 61.6227 19 62.1836 19C62.2724 19 62.4418 19.0084 62.5751 19.0505C62.6334 19.0589 62.6667 19.0926 62.6667 19.1347V19.362C62.6667 19.4209 62.6306 19.4461 62.5584 19.4461H62.2669C61.9725 19.4461 61.8504 19.5387 61.8504 19.7828C61.8504 19.9764 61.9281 20.1195 62.0253 20.1785H62.6056C62.6972 20.1785 62.7389 20.2037 62.7389 20.2626V20.5152C62.7389 20.5825 62.6972 20.6162 62.6056 20.6162H61.3256ZM61.4755 21.3148C61.4755 21.2222 61.5422 21.1465 61.6393 21.1465H62.3918C62.4945 21.1465 62.5612 21.2222 62.5612 21.3148V26.2026C62.5612 26.2952 62.4945 26.3793 62.3918 26.3793H61.6393C61.5422 26.3793 61.4755 26.2952 61.4755 26.2026V21.3148ZM57.7715 26.3793C57.6438 26.3793 57.4994 26.3457 57.4994 26.2783V25.4029C57.4994 25.344 57.6438 25.3019 57.7715 25.3019H58.6295C58.8905 25.3019 58.9599 25.2935 58.9599 25.0241V23.711C58.9599 23.3659 58.9544 22.9871 58.946 22.5831C58.946 22.4905 59.0127 22.4231 59.1154 22.4231H59.8096C59.9373 22.4231 59.9845 22.4905 59.9956 22.5831C60.0067 22.945 60.0095 23.2059 60.0095 23.4501V24.5443C60.0095 25.2598 60.0095 25.7396 59.9789 26.0398C59.9539 26.1493 59.9179 26.225 59.7873 26.284C59.5513 26.3513 58.8933 26.3765 58.4462 26.3765H57.7715V26.3793ZM58.338 27.3025C58.338 27.193 58.4296 27.1089 58.5295 27.1089H59.1737C59.282 27.1089 59.3792 27.193 59.3792 27.3025V27.9759C59.3792 28.0685 59.282 28.1526 59.1737 28.1526H58.5295C58.4324 28.1526 58.338 28.0685 58.338 27.9759V27.3025ZM53.776 27.5662C53.776 27.4736 53.826 27.4231 53.9259 27.4231H54.6812C55.5502 27.4231 56.0084 27.2716 56.0084 26.6319V26.3793H55.3975C54.1953 26.3793 53.4678 25.748 53.4678 24.5303V24.362C53.4678 23.0404 54.2647 22.2828 55.7002 22.2828C56.1222 22.2828 56.6887 22.3418 56.9247 22.4259C57.033 22.468 57.0635 22.4933 57.0635 22.5859V25.3047H57.7993V26.3822H57.0496V26.6684C56.9413 28.0488 56.0528 28.3827 54.9088 28.3827C54.7173 28.3827 54.0342 28.3827 53.912 28.3406C53.8038 28.3154 53.7788 28.2733 53.7788 28.1807V27.5662H53.776ZM54.5173 24.3928C54.5173 25.0325 54.7756 25.3356 55.3975 25.3356H56.025V23.2845C55.8668 23.2677 55.6918 23.2593 55.5169 23.2593C54.8839 23.2593 54.5201 23.638 54.5201 24.2862V24.3956L54.5173 24.3928ZM49.0641 20.5741C49.0641 20.4646 49.1502 20.3805 49.264 20.3805H49.9165C50.0192 20.3805 50.1025 20.4646 50.1025 20.5741V21.2306C50.1025 21.3316 50.0192 21.4158 49.911 21.4158H49.264C49.1363 21.4158 49.0641 21.3316 49.0641 21.2306V20.5741ZM45.51 25.4534C45.51 25.3608 45.5822 25.3019 45.6738 25.3019H46.7539V20.1532C46.7539 20.0522 46.8206 19.9764 46.9233 19.9764H47.6786C47.7702 19.9764 47.8368 20.0522 47.8368 20.1532V22.7205C48.4171 22.3165 49.2779 22.266 49.6694 22.266C51.0938 22.266 52.0101 22.8552 52.0101 24.5219V24.867C52.0101 25.2374 51.974 25.7593 51.9018 26.096C51.8768 26.2054 51.8102 26.3148 51.6352 26.3401C51.327 26.3822 50.0859 26.3822 49.6139 26.3822H45.6738C45.5822 26.3822 45.51 26.3232 45.51 26.2306V25.4562V25.4534ZM50.7911 25.3272C50.9355 25.3272 50.9605 25.2346 50.9605 24.7716V24.6453C50.9605 23.6184 50.4885 23.2901 49.3973 23.2901C49.0224 23.2901 48.2561 23.3406 47.8396 23.6521V25.3103C48.0978 25.3187 48.4171 25.3272 48.8364 25.3272H50.7911ZM37.9493 24.6117C37.9493 24.3676 37.991 23.8625 38.0576 23.5006C38.0743 23.3911 38.1354 23.3322 38.2214 23.3322H38.8656C38.9739 23.3322 39.0155 23.3827 39.01 23.4921C38.985 23.7363 38.9628 24.014 38.9628 24.174C38.9628 25.344 39.1571 26.2194 40.6454 26.2194C40.9481 26.2194 41.1896 26.2026 41.4229 26.1689C41.4478 25.6049 41.4478 25.344 41.4478 24.8895V24.1487C41.4478 22.8692 42.2142 22.28 43.5886 22.28C44.0301 22.28 44.4938 22.3305 44.7881 22.3895C44.8797 22.4147 44.9269 22.4484 44.9269 22.5578V25.0045C44.9269 25.2486 45.0186 25.2991 45.3129 25.2991H45.6933V26.3765H45.0352C44.2689 26.3765 43.8718 26.1914 43.8718 25.3159V23.2985C43.708 23.2733 43.6192 23.2649 43.4609 23.2649C42.8334 23.2649 42.503 23.509 42.503 24.2497V25.6386C42.503 26.0398 42.4974 26.5645 42.4724 26.9602C42.4724 27.0612 42.4113 27.1201 42.2864 27.1453C41.8227 27.2211 41.2313 27.2716 40.626 27.2716C38.7184 27.2716 37.9521 26.3541 37.9521 24.6145M39.2932 28.0264C39.2932 27.9169 39.3793 27.8496 39.482 27.8496H40.0373C40.1401 27.8496 40.2289 27.9169 40.2289 28.0264V28.624C40.2289 28.7166 40.1317 28.7924 40.0373 28.7924H39.482C39.3793 28.7924 39.2932 28.7166 39.2932 28.624V28.0264ZM40.8398 28.0264C40.8398 27.9169 40.9258 27.8496 41.0203 27.8496H41.5867C41.6783 27.8496 41.7727 27.9169 41.7727 28.0264V28.624C41.7727 28.7166 41.6811 28.7924 41.5867 28.7924H41.0203C40.9286 28.7924 40.8398 28.7166 40.8398 28.624V28.0264ZM34.2759 20.1448C34.2759 20.0522 34.3425 19.9764 34.4452 19.9764H35.1894C35.2921 19.9764 35.3587 20.0522 35.3587 20.1448V26.2026C35.3587 26.2952 35.2921 26.3793 35.1894 26.3793H34.4452C34.3425 26.3793 34.2759 26.2952 34.2759 26.2026V20.1448ZM30.7996 25.4029C30.7996 25.344 30.9495 25.3019 31.0717 25.3019H31.8075C32.0712 25.3019 32.1323 25.2935 32.1323 25.0241V20.1532C32.1323 20.0522 32.2045 19.9764 32.2961 19.9764H33.0514C33.143 19.9764 33.2124 20.0522 33.2124 20.1532V25.041C33.2124 25.344 33.2013 25.7396 33.1708 26.0426C33.1458 26.1521 33.1152 26.2278 32.9792 26.2868C32.7376 26.3541 32.0546 26.3793 31.6048 26.3793H31.0689C30.9467 26.3793 30.7968 26.3457 30.7968 26.2783V25.4029H30.7996ZM27.7508 25.4029C27.7508 25.344 27.9008 25.3019 28.0285 25.3019H28.8004C28.992 25.3019 29.2835 25.2767 29.2835 25.0157V22.5859C29.2835 22.4933 29.3502 22.4259 29.4529 22.4259H30.172C30.2637 22.4259 30.3331 22.4933 30.3331 22.5859V25.1616C30.3997 25.2795 30.7246 25.3047 30.8717 25.3047H31.0717V26.3822H30.9745C30.5469 26.3822 30.0804 26.3317 29.7916 26.096C29.4834 26.3148 29.0003 26.3822 28.6449 26.3822H28.0285C27.9008 26.3822 27.7508 26.3485 27.7508 26.2811V25.4057V25.4029ZM28.5311 20.9865C28.5311 20.8771 28.6227 20.7929 28.731 20.7929H29.3085C29.4168 20.7929 29.514 20.8771 29.514 20.9865V21.6431C29.514 21.7441 29.4057 21.8283 29.3085 21.8283H28.731C28.6227 21.8283 28.5311 21.7441 28.5311 21.6431V20.9865ZM30.0749 20.9865C30.0749 20.8771 30.172 20.7929 30.2748 20.7929H30.8551C30.9634 20.7929 31.0467 20.8771 31.0467 20.9865V21.6431C31.0467 21.7441 30.9634 21.8283 30.8551 21.8283H30.2748C30.172 21.8283 30.0749 21.7441 30.0749 21.6431V20.9865ZM22.9834 26.3793C22.8501 26.3793 22.7113 26.3204 22.7113 26.2783V25.4029C22.7113 25.344 22.8557 25.3019 22.9834 25.3019H26.6041L26.2126 24.4265C25.8877 23.711 25.3241 23.2565 24.2634 23.2565C24.1857 23.2565 23.9385 23.2649 23.8164 23.2733C23.697 23.2817 23.6415 23.2396 23.6415 23.1386V22.5185C23.6415 22.4343 23.697 22.3838 23.8053 22.3586C24.0829 22.2997 24.33 22.2828 24.6216 22.2828C25.835 22.2828 26.7096 22.771 27.3732 24.2946C27.5481 24.6987 27.7064 25.1027 27.7703 25.1869C27.8258 25.2795 27.8675 25.3047 27.9619 25.3047H28.0452V26.3822H22.9834V26.3793ZM24.7299 27.3025C24.7299 27.193 24.816 27.1089 24.9215 27.1089H25.5656C25.6739 27.1089 25.7711 27.193 25.7711 27.3025V27.9759C25.7711 28.0685 25.6739 28.1526 25.5656 28.1526H24.9215C24.8187 28.1526 24.7299 28.0685 24.7299 27.9759V27.3025ZM21.1564 20.1448C21.1564 20.0522 21.2341 19.9764 21.3313 19.9764H22.0727C22.181 19.9764 22.242 20.0522 22.242 20.1448V24.8726C22.242 25.2514 22.3975 25.3019 22.7113 25.3019H22.9834V26.3793H22.3975C21.6423 26.3793 21.1592 26.1773 21.1592 25.1925V20.1448H21.1564ZM17.7189 27.5718C17.7189 27.4877 17.7717 27.4456 17.8578 27.4456H18.0327C18.6602 27.4456 18.8823 27.3866 18.8823 26.6964V22.5831C18.8823 22.4905 18.949 22.4231 19.0517 22.4231H19.7764C19.8625 22.4231 19.9319 22.4905 19.9319 22.5831V26.573C19.9319 27.0022 19.9125 27.3951 19.7403 27.7262C19.4821 28.2059 19.0573 28.3827 18.3576 28.3827C18.2715 28.3827 17.9772 28.3827 17.8383 28.3575C17.7606 28.3406 17.7189 28.2901 17.7189 28.1975V27.5746V27.5718ZM10.3915 24.6117C10.3915 24.3591 10.4442 23.8625 10.5109 23.5006C10.5359 23.3743 10.5608 23.3322 10.6858 23.3322H11.33C11.4216 23.3322 11.4688 23.3827 11.4688 23.4921C11.4438 23.7363 11.4216 24.014 11.4216 24.174C11.4216 25.344 11.6132 26.2194 13.1042 26.2194C13.4013 26.2194 13.6429 26.2026 13.8761 26.1689C13.9011 25.6049 13.9011 25.344 13.9011 24.8895V24.1487C13.9011 22.8608 14.6563 22.28 16.0919 22.28C16.4834 22.28 16.9665 22.3221 17.2747 22.3895C17.3608 22.4147 17.4135 22.4484 17.4135 22.5578V26.1998C17.4135 26.3008 17.3469 26.3765 17.2497 26.3765H16.5139C16.4223 26.3765 16.3529 26.3008 16.3529 26.1998V23.2985C16.1585 23.2733 16.0696 23.2649 15.9169 23.2649C15.2839 23.2649 14.959 23.509 14.959 24.2497V25.6386C14.959 26.0398 14.9479 26.5645 14.9229 26.9602C14.9229 27.0612 14.8674 27.1201 14.7369 27.1453C14.2732 27.2211 13.6734 27.2716 13.0765 27.2716C11.1689 27.2716 10.3915 26.3541 10.3915 24.6145M11.7437 28.0264C11.7437 27.9169 11.827 27.8496 11.9353 27.8496H12.485C12.5933 27.8496 12.6766 27.9169 12.6766 28.0264V28.624C12.6766 28.7166 12.585 28.7924 12.485 28.7924H11.9353C11.827 28.7924 11.7437 28.7166 11.7437 28.624V28.0264ZM13.2819 28.0264C13.2819 27.9169 13.3735 27.8496 13.4735 27.8496H14.0399C14.1316 27.8496 14.226 27.9169 14.226 28.0264V28.624C14.226 28.7166 14.1343 28.7924 14.0399 28.7924H13.4735C13.3763 28.7924 13.2819 28.7166 13.2819 28.624V28.0264ZM35.1783 30.8182H29.9666C29.8083 30.8182 29.364 30.9697 29.364 31.6599V47.8636C29.364 48.6212 29.9666 48.6212 29.9666 48.6212H35.1783C40.4399 48.6212 44.0773 45.2991 44.0773 39.7632C44.0773 34.2273 40.4399 30.8182 35.1783 30.8182ZM34.8673 46.4439H31.7408V32.9927H34.8673C38.8906 32.9927 41.409 35.4169 41.409 39.766C41.409 44.115 38.8878 46.4439 34.8673 46.4439ZM62.0364 44.7688C61.8365 44.4068 61.5172 44.5584 61.3173 44.7688C60.5704 45.4506 58.7961 46.5786 56.4054 46.5786C52.5376 46.5786 49.8638 43.4416 49.8638 39.5976C49.8638 35.7536 52.3905 32.8749 56.2555 32.8749C58.3296 32.8749 59.8096 33.6829 60.6842 34.2806C61.3173 34.6678 61.4616 34.6678 61.8365 34.2806C62.0364 33.9018 62.3446 33.3799 62.3446 33.3799C62.3446 33.3799 62.7111 32.8749 62.3446 32.6139C61.4589 32.0415 59.4292 30.6021 56.2555 30.6021C51.1271 30.6021 47.3426 34.4966 47.3426 39.5976C47.3426 44.6987 50.9633 48.826 56.2555 48.826C59.6818 48.826 61.8365 47.1874 62.7111 46.4467C63.0915 46.2026 62.9333 45.9753 62.7833 45.6723C62.7111 45.546 62.3446 45.0915 62.0364 44.7716M75.2614 39.2161C76.6858 38.6352 77.5715 37.2043 77.5715 35.4141C77.5715 32.4624 75.4169 30.821 72.3765 30.821H67.0121C66.3651 30.821 66.2152 31.5112 66.2152 31.6627V47.8664C66.2152 48.0937 66.2152 48.624 67.0121 48.624H72.5153C75.6362 48.624 78.1629 46.9686 78.1629 43.509C78.1629 41.6487 77.1051 39.8418 75.2614 39.2189M68.7391 32.9899H72.3765C74.0064 32.9899 75.0448 34.1263 75.0448 35.7172C75.0448 37.2071 74.0064 38.3154 72.3765 38.3154H68.7391V32.9899ZM72.668 46.4439H68.7391V40.3608H72.668C74.5256 40.3608 75.6362 41.6459 75.6362 43.4388C75.6362 45.2318 74.5256 46.4411 72.668 46.4411M20.0346 31.6599C19.782 31.1212 19.6709 30.8182 18.9018 30.8182H17.4246C16.7499 30.8182 16.5194 31.1212 16.3195 31.6599C16.1585 32.0892 9.99719 48.0909 9.99719 48.0909C9.99719 48.0909 9.99719 48.6212 10.5886 48.6212H12.1629C12.5128 48.6212 12.6711 48.2424 12.6711 48.2424L14.3787 43.5062H21.9699L23.6553 48.2424C23.6553 48.2424 23.8108 48.6212 24.1746 48.6212H25.6712C26.3153 48.6212 26.3153 48.0909 26.3153 48.0909C26.3153 48.0909 20.1957 32.0892 20.0291 31.6599M15.1395 41.4972L16.9026 36.5337L18.1771 33.3042L19.4155 36.5337L21.1397 41.4972H15.1367H15.1395ZM44.0023 27.3025C44.0023 27.193 44.0884 27.1089 44.1911 27.1089H44.8353C44.9436 27.1089 45.0408 27.193 45.0408 27.3025V27.9759C45.0408 28.0685 44.9436 28.1526 44.8353 28.1526H44.1911C44.0884 28.1526 44.0023 28.0685 44.0023 27.9759V27.3025Z" fill="white"/>
</g>
<defs>
<clipPath id="clip0_205_408">
<rect width="99" height="30" fill="white" transform="translate(10 19)"/>
</clipPath>
</defs>
</svg>
