<svg width="120" height="68" viewBox="0 0 120 68" fill="none" xmlns="http://www.w3.org/2000/svg">
<g clip-path="url(#clip0_205_416)">
<path d="M68.7696 39.8296L57.5588 20.3461L65.6127 15.7201L79.5532 39.8296H68.7696Z" fill="white"/>
<path d="M38.9089 37.0998L46.9628 32.4425L51.2241 39.8296H40.4718L38.9089 37.0998Z" fill="white"/>
<path d="M54.7146 52.2594H57.0068V42.9865H54.7146V52.2594Z" fill="white"/>
<path d="M83.4396 52.4782C80.8766 52.4782 79.3346 51.155 79.2512 49.29H81.6684C81.6684 49.8735 82.0331 50.7278 83.5959 50.7591C84.6378 50.7591 85.1275 50.1443 85.1275 49.6859C85.065 48.9566 84.1481 48.8941 83.1688 48.7378C82.1894 48.5815 81.3559 48.4044 80.7516 48.0918C79.9805 47.6959 79.4596 46.8415 79.4596 45.8622C79.4596 44.2055 80.8974 42.8928 83.2938 42.8928C85.6172 42.8928 87.0863 44.1118 87.2426 45.9247H84.9087C84.8879 45.435 84.7941 44.664 83.4188 44.664C82.4915 44.664 81.8768 44.8515 81.8247 45.4975C81.8247 46.4456 83.7522 46.3831 85.2525 46.779C86.6903 47.1437 87.6072 48.0397 87.6072 49.29C87.6072 51.5926 85.7422 52.4782 83.4396 52.4782Z" fill="white"/>
<path d="M48.3486 28.8271L56.4025 24.1803L65.4357 39.8296H57.0068V42.1217H54.7146V39.8191L48.3486 28.8271Z" fill="white"/>
<path d="M48.5569 52.4782C45.8897 52.4782 43.7225 50.3006 43.7225 47.6646C43.7225 44.9974 45.8897 42.8928 48.5569 42.8928C49.5676 42.8928 50.4844 43.1636 51.2867 43.7159V39.8296H53.5789V52.2594H51.2867V51.6447C50.4844 52.1656 49.5676 52.4782 48.5569 52.4782ZM45.9209 47.6646C45.9209 49.1024 47.1504 50.3006 48.6194 50.3006C50.0573 50.3006 51.2867 49.1024 51.2867 47.6646C51.2867 46.2268 50.0573 44.9974 48.6194 44.9974C47.1504 44.9974 45.9209 46.2268 45.9209 47.6646Z" fill="white"/>
<path d="M65.4982 39.8296H67.7591V52.2594H65.4982V51.6447C64.7272 52.1656 63.7791 52.4782 62.7372 52.4782C60.1012 52.4782 57.9341 50.3006 57.9341 47.6646C57.9341 44.9974 60.1012 42.8928 62.7372 42.8928C63.7791 42.8928 64.696 43.1636 65.4982 43.7159V39.8296ZM60.1637 47.6646C60.1637 49.1024 61.3932 50.3006 62.7997 50.3006C64.2688 50.3006 65.4982 49.1024 65.4982 47.6646C65.4982 46.2268 64.2688 44.9974 62.7997 44.9974C61.3932 44.9974 60.1637 46.2268 60.1637 47.6646Z" fill="white"/>
<path d="M73.3333 52.4782C70.7077 52.4782 68.5302 50.3006 68.5302 47.6646C68.5302 44.9974 70.7077 42.8928 73.3333 42.8928C74.3439 42.8928 75.292 43.1636 76.0631 43.7159V42.9761H78.3552V52.2594H76.0631V51.6447C75.292 52.1656 74.3752 52.4782 73.3333 52.4782ZM70.7598 47.6646C70.7598 49.1024 71.9892 50.3006 73.4271 50.3006C74.8649 50.3006 76.0631 49.1024 76.0631 47.6646C76.0631 46.2268 74.8649 44.9974 73.4271 44.9974C71.9892 44.9974 70.7598 46.2268 70.7598 47.6646Z" fill="white"/>
<path d="M35.2937 47.6646C35.2937 49.1024 36.5231 50.3006 37.9609 50.3006C39.43 50.3006 40.6594 49.1024 40.6594 47.6646C40.6594 46.2268 39.43 44.9974 37.9609 44.9974C36.5231 44.9974 35.2937 46.2268 35.2937 47.6646ZM37.8984 52.4782C35.2624 52.4782 33.0848 50.3006 33.0848 47.6646C33.0848 44.9974 35.2624 42.8928 37.8984 42.8928C38.909 42.8928 39.8572 43.1636 40.6594 43.7159V42.9761H42.9203V52.2594H40.6594V51.6447C39.8884 52.1656 38.9403 52.4782 37.8984 52.4782Z" fill="white"/>
</g>
<defs>
<clipPath id="clip0_205_416">
<rect width="55.1" height="38" fill="white" transform="translate(32.75 15)"/>
</clipPath>
</defs>
</svg>
