<svg width="120" height="68" viewBox="0 0 120 68" fill="none" xmlns="http://www.w3.org/2000/svg">
<path d="M31.1703 36.8833C30.6835 37.4181 30.0718 37.8361 29.3848 38.1032C28.6976 38.3704 27.9544 38.4794 27.2151 38.4213C26.4758 38.363 25.7612 38.1395 25.1291 37.7686C24.497 37.3976 23.9652 36.8897 23.5765 36.2859C23.3207 35.8845 23.1299 35.4486 23.0103 34.9928C22.998 34.9451 22.9861 34.8974 22.9755 34.8491C22.9716 34.8337 22.9688 34.8186 22.966 34.8036C22.9059 34.5131 22.8763 34.2175 22.8773 33.9212C22.8773 33.8741 22.8773 33.827 22.8802 33.7798C22.8845 33.6555 22.8984 33.5319 22.9217 33.4097H19.2216C19.2216 33.4492 19.2164 33.4878 19.2142 33.5269C19.2142 33.5269 19.2002 33.7911 19.2002 33.9212C19.1997 34.6738 19.3104 35.4226 19.5287 36.1457C19.6258 36.4898 19.7519 36.826 19.9061 37.1506C20.4793 38.3962 21.3742 39.4823 22.507 40.3069C23.6399 41.1313 24.9732 41.6675 26.3822 41.8648C27.7912 42.062 29.2294 41.914 30.5622 41.4347C31.8949 40.9553 33.0784 40.1603 34.0015 39.1242L31.1703 36.8833Z" fill="white"/>
<path d="M50.7855 41.8082H47.4222V30.1777H50.7855V31.8083C51.0196 31.434 51.3302 31.1081 51.6985 30.85C52.3087 30.408 53.0282 30.2424 53.7134 30.1289C54.475 30.0044 55.2553 30.0201 56.0107 30.1749L56.1496 30.2027L55.5706 33.6946L55.3927 33.6276C54.6919 33.3531 53.9241 33.2735 53.1765 33.3983C52.4882 33.4942 51.8671 33.8395 51.4379 34.3627C51.0852 34.786 50.8682 35.3383 50.7949 36.0042V36.1986C50.7886 36.2989 50.7855 36.4059 50.7855 36.5174V41.8082Z" fill="white"/>
<path d="M65.1892 36.9395C65.0112 37.4317 64.7022 37.8712 64.2933 38.2152C63.8844 38.5594 63.3897 38.7962 62.8559 38.9026C62.3222 39.0092 61.7697 38.9817 61.25 38.8228C60.7318 38.664 60.2652 38.3793 59.8953 37.9965L62.6171 36.8817V36.8779L68.2809 34.5759C67.9235 33.1374 67.0199 31.877 65.7448 31.0391C64.4697 30.2014 62.9152 29.8459 61.3811 30.042C59.8485 30.2379 58.4454 30.9713 57.4466 32.0998C56.4462 33.2282 55.9218 34.6712 55.9717 36.149C56.0232 37.6266 56.6475 39.0334 57.7228 40.0963C58.7981 41.1592 60.248 41.8024 61.7915 41.9013C63.3351 42 64.863 41.5472 66.0772 40.6308C67.2914 39.7144 68.1045 38.3995 68.3621 36.9417L65.1892 36.9395ZM62.2113 32.9366C62.8809 32.9362 63.5333 33.1408 64.0733 33.5206L59.0837 35.5478C59.1867 34.8249 59.5597 34.1621 60.1356 33.6821C60.71 33.202 61.4482 32.9372 62.2113 32.9366Z" fill="white"/>
<path d="M100.199 41.8082H96.8291V35.064C96.8291 34.2856 96.6559 33.7428 96.3156 33.4515C95.9723 33.1546 95.5228 32.9953 95.0593 33.0068C94.7518 33.0146 94.4506 33.0952 94.1822 33.2414C93.8809 33.3968 93.6219 33.6549 93.4143 34.0107C93.2083 34.3665 93.099 34.8465 93.099 35.4309V41.806H89.7279V35.064C89.7279 34.2835 89.5672 33.7396 89.2472 33.4488C88.9273 33.1579 88.5325 33.0068 88.0549 33.0068C87.7755 33.0068 87.4727 33.086 87.1528 33.243C86.8313 33.4 86.5613 33.6583 86.3366 34.0145C86.1118 34.3707 85.9994 34.8497 85.9994 35.4309V41.806H82.6299V30.1535H85.9994V31.6C86.3131 31.1716 86.7064 30.8021 87.159 30.5097C87.7396 30.1478 88.4185 29.9597 89.1115 29.9697C89.9402 29.9697 90.6316 30.1567 91.1669 30.5247C91.582 30.8098 91.9753 31.2747 92.3374 31.9176C92.648 31.4552 93.1225 30.9035 93.7873 30.5413C94.4662 30.1671 95.2372 29.9706 96.0207 29.9719C96.8447 29.9719 97.5767 30.1567 98.1978 30.5211C98.819 30.8853 99.32 31.4596 99.6711 32.2235C100.024 32.9875 100.2 33.9378 100.2 35.0666L100.199 41.8082Z" fill="white"/>
<path d="M78.4379 36.9395C78.26 37.4317 77.9525 37.8712 77.5436 38.2152C77.1347 38.5594 76.6384 38.7962 76.1046 38.9026C75.5724 39.0092 75.0184 38.9817 74.5002 38.8228C73.9805 38.664 73.5139 38.3793 73.144 37.9965L75.8674 36.8817V36.8779L81.5296 34.5759C81.1722 33.1374 80.2686 31.877 78.9935 31.0391C77.72 30.2014 76.164 29.8459 74.6314 30.042C73.0972 30.2379 71.6941 30.9713 70.6953 32.0998C69.6949 33.2282 69.1705 34.6712 69.222 36.149C69.2719 37.6266 69.8962 39.0334 70.9715 40.0963C72.0468 41.1592 73.4967 41.8024 75.0418 41.9013C76.5853 42 78.1117 41.5472 79.3259 40.6308C80.5401 39.7144 81.3548 38.3995 81.6108 36.9417L78.4379 36.9395ZM75.4601 32.9366C76.1296 32.9362 76.7836 33.1408 77.3236 33.5206L72.334 35.5478C72.4354 34.8249 72.81 34.1621 73.3844 33.6821C73.9587 33.202 74.6969 32.9372 75.4601 32.9366Z" fill="white"/>
<path d="M44.7734 31.2705C43.7878 30.4851 42.4945 30.0865 40.9297 30.0865C39.4642 30.0865 38.2236 30.4251 37.242 31.0921C36.3388 31.7049 35.7165 32.464 35.3919 33.3481L35.3357 33.5087L38.6396 34.0826L38.6906 33.9887C38.8367 33.7211 39.0413 33.4865 39.2905 33.3008C39.6431 33.0362 40.1314 32.9023 40.7442 32.9023C41.4808 32.9023 42.0113 33.0629 42.3212 33.3845C42.5825 33.656 42.7496 34.1253 42.7871 34.6874C40.4056 34.5657 38.5117 34.7602 37.1557 35.266C35.6778 35.8162 34.9289 36.856 34.9289 38.3571C34.92 38.9995 35.1023 39.6311 35.454 40.1786C35.8039 40.7443 36.3174 41.1964 36.9807 41.5179C37.644 41.8392 38.43 42 39.3392 42C40.3328 42 41.1949 41.789 41.9019 41.3727C42.3745 41.096 42.7963 40.7472 43.1511 40.3404V41.8216H46.2787V35.4202C46.2771 33.4626 45.7715 32.0666 44.7734 31.2705ZM42.268 37.9928C42.0022 38.3712 41.662 38.6965 41.2662 38.9506C40.8799 39.1965 40.4813 39.3256 40.0838 39.3417C39.5114 39.3695 39.0684 39.2812 38.7663 39.0797C38.4691 38.8821 38.3245 38.5837 38.3245 38.1691C38.3245 37.5968 38.7585 37.216 39.6515 37.0038C40.2841 36.861 40.9324 36.792 41.5824 36.798C41.9799 36.7988 42.3771 36.8189 42.7726 36.8581C42.6869 37.2652 42.5152 37.6513 42.268 37.9928Z" fill="white"/>
<path d="M23.5519 31.1906C24.8365 31.1906 25.8779 30.1955 25.8779 28.9678C25.8779 27.7404 24.8365 26.7452 23.5519 26.7452C22.2673 26.7452 21.2258 27.7404 21.2258 28.9678C21.2258 30.1955 22.2673 31.1906 23.5519 31.1906Z" fill="white"/>
<path d="M34.4265 29.1902C34.4265 29.1902 32.7401 26.5685 29.1716 26L28.2152 29.4249C28.2152 29.4249 30.2149 29.501 31.5987 31.4275L34.4265 29.1902Z" fill="white"/>
</svg>
