<svg width="119" height="68" viewBox="0 0 119 68" fill="none" xmlns="http://www.w3.org/2000/svg">
<path d="M32.5645 41.2881V28.7715H34.6208C35.7334 28.7715 36.6771 29.6457 36.6771 30.8278V39.0728C36.6771 40.1854 35.8029 41.1291 34.6208 41.1291H32.5645V41.2881ZM36.6076 24.6589H28.3625V45.4901H36.7566C39.0513 45.4901 40.9586 43.5927 40.9586 41.298V28.7815C40.8096 26.5563 38.9818 24.6589 36.6076 24.6589Z" fill="white"/>
<path d="M90.6375 43.2748V24.5795H88.5812C87.4686 24.5795 86.5249 25.4536 86.5249 26.6358V45.3311H88.5812C89.7633 45.4106 90.6375 44.457 90.6375 43.2748Z" fill="white"/>
<path d="M69.8758 39.2318C69.8758 38.0398 69.5579 36.7782 68.8427 35.8245L68.7632 35.904C67.74 36.9371 66.548 37.5629 65.2765 37.8013C66.0712 38.6755 65.9122 40.0166 65.0381 40.8113C64.1639 41.606 62.8228 41.447 62.0281 40.5729C61.7102 40.1755 61.6308 39.6192 61.6308 39.2219V38.1093H57.4387V43.4338C57.4387 44.5464 58.4619 45.4901 59.495 45.4901H63.697C67.1043 45.4106 69.8758 42.6391 69.8758 39.2318Z" fill="white"/>
<path d="M61.6408 30.8278C61.6408 30.0331 62.1176 29.3278 62.7534 28.9304V24.5695H57.4487V31.9404H61.6408V30.8278Z" fill="white"/>
<path d="M47.0579 32.8146V24.6589H45.0016C43.889 24.6589 42.9453 25.5331 42.9453 26.7152V32.0199H45.0016C45.7963 32.0199 46.5115 32.2583 47.0579 32.8146Z" fill="white"/>
<path d="M55.3825 32.0199V26.6358C55.3825 25.5232 54.3494 24.5795 53.3262 24.5795H51.26V32.8146C51.8163 32.2583 52.611 31.9404 53.3163 31.9404L55.3825 32.0199Z" fill="white"/>
<path d="M71.9421 45.4106H73.9984C75.1109 45.4106 76.0546 44.5364 76.0546 43.3543V38.0497H71.9321C71.9421 37.9603 71.9421 45.4106 71.9421 45.4106Z" fill="white"/>
<path d="M76.1341 32.0199V26.6358C76.1341 25.8411 76.452 25.1258 77.0083 24.5795H76.1341C73.8394 24.5795 71.9321 26.4768 71.9321 28.7815V32.8245C72.4884 32.2682 73.2831 31.9503 73.9884 31.9503L76.1341 32.0199Z" fill="white"/>
<path d="M80.3359 37.9603V43.2749C80.3359 44.3874 81.2101 45.3311 82.3922 45.3311H84.4485V35.904C83.5048 37.255 82.0048 37.9603 80.3359 37.9603Z" fill="white"/>
<path d="M49.6008 45.649H51.2598C53.5545 45.649 55.4618 43.7417 55.4618 41.447V37.0166H63.6969C67.1042 37.0166 69.9552 34.245 69.9552 30.7583C69.9552 27.351 67.1836 24.5 63.6969 24.5V28.702C64.8095 28.6225 65.7532 29.4967 65.9121 30.6093C66.071 31.7219 65.1174 32.6656 64.0048 32.8245C63.9254 32.8245 63.7664 32.8245 63.6869 32.8245H53.2465C52.134 32.8245 51.1903 33.6987 51.1903 34.8808V41.1391H49.134C48.0214 41.1391 47.0777 40.2649 47.0777 39.0828V35.1192C47.0777 34.0066 46.2035 33.0629 45.0214 33.0629H42.9651V41.447C42.9651 43.7417 44.8624 45.649 47.1671 45.649H49.7797H49.6008Z" fill="white"/>
<path d="M62.5942 37.9603V39.0728C62.5942 39.7086 63.1505 40.1854 63.7068 40.1854C64.2631 40.1854 64.8194 39.6291 64.8194 39.0728C64.8194 38.4371 64.3426 37.9603 63.7068 37.9603H62.5942Z" fill="white"/>
<path d="M51.7366 47.3874C51.7366 46.7517 51.2598 46.2748 50.6241 46.2748H49.5115V47.3874C49.5115 48.0232 50.0678 48.5 50.6241 48.5C51.2598 48.4205 51.8161 48.0232 51.7366 47.3874Z" fill="white"/>
<path d="M48.7269 47.3874C48.7269 46.7517 48.2501 46.2748 47.6143 46.2748H46.5017V47.3874C46.5017 48.0232 47.058 48.5 47.6143 48.5C48.3295 48.4205 48.7269 48.0232 48.7269 47.3874Z" fill="white"/>
<path d="M80.3361 30.8278C80.3361 31.3841 80.0977 31.9404 79.7798 32.2583C79.303 32.7351 78.9056 32.8146 78.3493 32.8941H74.1474C73.0348 32.8941 72.0911 33.7682 72.0911 34.9504V37.0066H80.3262C82.6209 37.0066 84.5282 35.1093 84.5282 32.8047V28.7616C84.5282 26.4669 82.6209 24.5596 80.3262 24.5596H79.2136C78.101 24.5596 77.1573 25.4338 77.1573 26.6159V28.6722H78.2798C79.303 28.7716 80.3361 29.7252 80.3361 30.8278Z" fill="white"/>
</svg>
