<svg width="120" height="68" viewBox="0 0 120 68" fill="none" xmlns="http://www.w3.org/2000/svg">
<g clip-path="url(#clip0_205_433)">
<path d="M71.5726 36.5033C72.7696 34.4263 73.456 32.0853 73.7025 29.797H70.0413C69.9533 31.2052 69.6717 32.6309 69.1788 33.9158C68.7036 35.1656 68.0875 36.2921 67.2954 37.2074C66.0985 38.5803 64.5847 39.4604 62.8422 39.4604C60.7828 39.4604 59.3746 38.5803 58.8466 37.1018H54.939C54.3053 38.6331 52.8092 39.39 50.9082 39.39C48.8312 39.39 46.7014 37.8938 46.4549 34.8487H58.6882C59.005 33.3526 60.1843 32.2261 62.1029 31.4868C62.1029 31.4868 63.8807 30.8355 65.6409 30.0787C68.0875 28.9521 69.9181 26.9279 69.9181 24.3757C69.9181 20.7497 66.8026 19.5 64.0039 19.5C60.4659 19.5 57.8433 21.3658 57.8433 24.3229C57.8433 26.0655 58.7938 27.7024 60.1843 29.357C59.445 29.621 58.7234 29.9554 58.0721 30.3779C56.9456 27.2624 54.3405 25.2382 50.8026 25.2382C46.1381 25.2382 42.741 28.7409 42.741 33.687C42.741 38.6331 45.7685 42.4175 51.049 42.4175C53.478 42.4175 55.3086 41.5374 56.5759 40.2877C57.8785 41.6078 59.8147 42.4175 62.1909 42.4175C65.1128 42.4175 67.5066 41.2558 69.3372 39.4604L71.6783 42.0303H76.6596L71.5726 36.5033ZM64.0215 22.2635C65.3592 22.2635 66.4681 23.0204 66.4681 24.5165C66.4681 25.8894 65.6409 27.2272 63.7751 28.0545L63.7399 28.0193C62.6486 26.8575 61.6101 25.5198 61.6101 24.2349C61.6101 22.9851 62.7542 22.2635 64.0215 22.2635ZM50.8026 28.0721C52.9324 28.0721 54.8862 29.621 54.9918 32.1909H46.4549C46.7542 29.093 49.0952 28.0721 50.8026 28.0721Z" fill="white"/>
<path d="M45.258 50.8487C45.6628 50.8487 45.9796 50.6903 46.1028 50.3559H46.8597C46.7013 50.9191 46.1732 51.4824 45.2756 51.4824C44.1666 51.4824 43.5154 50.6199 43.5154 49.6342C43.5154 48.5781 44.2371 47.8388 45.2228 47.8388C46.2965 47.8388 46.9477 48.7013 46.8949 49.8806H44.3075C44.3779 50.5319 44.8179 50.8487 45.258 50.8487ZM46.1204 49.3174C46.1028 48.7717 45.6804 48.4373 45.2404 48.4373C44.8707 48.4373 44.3779 48.6485 44.3251 49.3174H46.1204Z" fill="white"/>
<path d="M48.2503 46.9939V47.9092H48.9543V48.4725H48.2503V50.3735C48.2503 50.7255 48.3383 50.8135 48.6551 50.8135H48.9367V51.3944H48.3735C47.6342 51.3944 47.4758 51.2007 47.4758 50.4791V48.4725H46.9653V47.9092H47.4758V46.9939H48.2503Z" fill="white"/>
<path d="M50.1863 47.4868H49.4119V46.7123H50.1863V47.4868ZM50.1863 51.3944H49.4119V47.9092H50.1863V51.3944Z" fill="white"/>
<path d="M52.1225 48.4197C51.7881 48.4197 51.4713 48.5605 51.4713 48.8069C51.4713 49.0533 51.6473 49.1589 51.9289 49.2293L52.4218 49.335C53.1258 49.4758 53.6539 49.687 53.6539 50.3735C53.6539 51.0951 52.9674 51.5 52.1753 51.5C51.3305 51.5 50.7496 51.0071 50.6792 50.3559H51.4361C51.5065 50.7079 51.7705 50.9191 52.2106 50.9191C52.6154 50.9191 52.9146 50.7431 52.9146 50.4615C52.9146 50.1798 52.6506 50.039 52.3162 49.9862L51.7881 49.8806C51.2073 49.7574 50.7496 49.4934 50.7496 48.8597C50.7496 48.2261 51.4009 47.8564 52.1577 47.8564C52.8442 47.8564 53.4603 48.1908 53.6011 48.8773H52.8794C52.7914 48.5429 52.5098 48.4197 52.1225 48.4197Z" fill="white"/>
<path d="M56.3118 49.2294V49.159C56.3118 48.5605 55.9773 48.3845 55.5901 48.3845C55.2028 48.3845 54.9036 48.5957 54.886 49.0181H54.1291C54.1819 48.3141 54.7628 47.8212 55.6077 47.8212C56.4526 47.8212 57.0862 48.2085 57.0686 49.3174C57.0686 49.4934 57.051 49.8982 57.051 50.2151C57.051 50.6551 57.0862 51.1128 57.1566 51.412H56.4526C56.435 51.2712 56.3998 51.1832 56.3822 50.9367C56.1709 51.3064 55.7485 51.5 55.2381 51.5C54.4812 51.5 53.9531 51.0952 53.9531 50.4615C53.9883 49.5638 55.0444 49.3526 56.3118 49.2294ZM54.798 50.4263C54.798 50.7255 55.0444 50.9191 55.4317 50.9191C55.9949 50.9191 56.3294 50.6199 56.3294 50.0391V49.7574C55.2381 49.863 54.798 50.0214 54.798 50.4263Z" fill="white"/>
<path d="M57.7375 51.3944V46.7123H58.512V51.3944H57.7375Z" fill="white"/>
<path d="M61.3459 49.2294V49.159C61.3459 48.5605 61.0115 48.3845 60.6243 48.3845C60.237 48.3845 59.9378 48.5957 59.9202 49.0181H59.1633C59.2161 48.3141 59.797 47.8212 60.6419 47.8212C61.4868 47.8212 62.1204 48.2085 62.1028 49.3174C62.1028 49.4934 62.0852 49.8982 62.0852 50.2151C62.0852 50.6551 62.1204 51.1128 62.1908 51.412H61.4868C61.4692 51.2712 61.4339 51.1832 61.4163 50.9367C61.2051 51.3064 60.7827 51.5 60.2722 51.5C59.5154 51.5 58.9873 51.0952 58.9873 50.4615C59.0049 49.5638 60.061 49.3526 61.3459 49.2294ZM59.8146 50.4263C59.8146 50.7255 60.061 50.9191 60.4482 50.9191C61.0115 50.9191 61.3459 50.6199 61.3459 50.0391V49.7574C60.2546 49.863 59.8146 50.0214 59.8146 50.4263Z" fill="white"/>
<path d="M63.6165 46.9939V47.9092H64.3205V48.4725H63.6165V50.3735C63.6165 50.7255 63.7045 50.8135 64.0213 50.8135H64.3029V51.3944H63.7397C63.0004 51.3944 62.842 51.2007 62.842 50.4791V48.4725H62.3315V47.9092H62.842V46.9939H63.6165Z" fill="white"/>
<path d="M68.4043 49.2294V49.159C68.4043 48.5605 68.0699 48.3845 67.6826 48.3845C67.2954 48.3845 66.9961 48.5957 66.9785 49.0181H66.2217C66.2745 48.3141 66.8553 47.8212 67.7002 47.8212C68.5451 47.8212 69.1788 48.2085 69.1612 49.3174C69.1612 49.4934 69.1436 49.8982 69.1436 50.2151C69.1436 50.6551 69.1788 51.1128 69.2492 51.412H68.5451C68.5275 51.2712 68.4923 51.1832 68.4747 50.9367C68.2635 51.3064 67.841 51.5 67.3306 51.5C66.5737 51.5 66.0457 51.0952 66.0457 50.4615C66.0633 49.5638 67.137 49.3526 68.4043 49.2294ZM66.8905 50.4263C66.8905 50.7255 67.137 50.9191 67.5242 50.9191C68.0875 50.9191 68.4219 50.6199 68.4219 50.0391V49.7574C67.3306 49.863 66.8905 50.0214 66.8905 50.4263Z" fill="white"/>
<path d="M71.6431 47.8388C72.4879 47.8388 72.8224 48.3845 72.8224 49.2118V51.3944H72.0655V49.4054C72.0655 48.9301 71.9951 48.4725 71.4142 48.4725C70.8334 48.4725 70.6046 48.9301 70.6046 49.5462V51.3944H69.8301V47.9092H70.6046V48.4021C70.7982 48.0325 71.1678 47.8388 71.6431 47.8388Z" fill="white"/>
<path d="M76.6068 46.7123V51.3944H75.8323V50.9367C75.6211 51.2712 75.269 51.4824 74.7938 51.4824C73.9665 51.4824 73.28 50.7783 73.28 49.6518C73.28 48.5253 73.9665 47.8388 74.7938 47.8388C75.2514 47.8388 75.6211 48.0324 75.8323 48.3845V46.7123H76.6068ZM74.0897 49.6518C74.0897 50.3911 74.4593 50.8487 74.9698 50.8487C75.4803 50.8487 75.8675 50.4615 75.8675 49.6518C75.8675 48.8421 75.4803 48.4549 74.9698 48.4549C74.4593 48.4725 74.0897 48.9301 74.0897 49.6518Z" fill="white"/>
</g>
<defs>
<clipPath id="clip0_205_433">
<rect width="33.9186" height="32" fill="white" transform="translate(42.741 19.5)"/>
</clipPath>
</defs>
</svg>
