<svg width="120" height="68" viewBox="0 0 120 68" fill="none" xmlns="http://www.w3.org/2000/svg">
<g clip-path="url(#clip0_205_425)">
<path d="M60.5151 17.8881C60.7728 17.6696 60.638 17.1772 61.0304 17.0935C61.3033 17.0185 61.4609 17.2718 61.5968 17.4566C61.5044 17.4925 61.413 17.5305 61.3228 17.5696C61.2728 17.5012 61.1739 17.3631 61.1239 17.2935C61.0369 17.4468 60.9804 17.6142 60.9467 17.787C61.1467 17.7892 61.3489 17.7925 61.55 17.7968C61.5489 17.861 61.5468 17.9892 61.5457 18.0534C61.2054 18.0534 60.8663 18.0534 60.526 18.0523C60.5238 18.011 60.5184 17.9295 60.5151 17.8881Z" fill="white"/>
<path d="M37.1239 18.1382C37.1391 17.899 37.1478 17.5544 37.45 17.5012C37.6935 17.4175 37.8946 17.5914 38.0012 17.7936C37.937 17.8653 37.8664 17.9317 37.7979 17.9991C37.7338 17.9219 37.6066 17.7697 37.5424 17.6925C37.475 17.8458 37.4153 18.0034 37.3631 18.1621C37.624 18.2023 38.0294 18.0621 38.0479 18.4524C37.6914 18.4719 37.3348 18.4698 36.9783 18.4719C36.963 18.4208 36.9337 18.3197 36.9196 18.2697C36.9706 18.2371 37.0728 18.1708 37.1239 18.1382Z" fill="white"/>
<path d="M32.8072 18.3523C32.9735 18.3501 33.1398 18.3501 33.3061 18.3501C33.3116 19.4655 33.3094 20.5808 33.3094 21.695C33.3453 22.1983 32.9365 22.6516 32.4615 22.7603C31.8451 22.9332 31.1375 22.4407 31.1038 21.7983C31.0842 21.333 31.1005 20.8667 31.1027 20.4014C31.2712 20.4025 31.4407 20.4047 31.6103 20.4079C31.6223 20.8602 31.5875 21.3156 31.6277 21.7678C31.6788 22.157 32.1865 22.4092 32.5148 22.1679C32.7594 22.0287 32.8181 21.7276 32.8072 21.4678C32.8072 20.4297 32.8017 19.3904 32.8072 18.3523Z" fill="white"/>
<path d="M38.4085 18.3458C38.5824 18.3479 38.7564 18.3501 38.9314 18.3534C38.9325 19.2785 38.9401 20.2036 38.9303 21.1286C38.9477 21.5363 38.6227 21.9124 38.2118 21.9385C37.6389 21.9722 37.0627 21.945 36.4888 21.945C36.4888 21.77 36.4888 21.5939 36.4899 21.4189C37.0236 21.4026 37.5595 21.4287 38.0933 21.408C38.252 21.4243 38.415 21.3026 38.3944 21.1341C38.4183 20.2046 38.3868 19.2752 38.4085 18.3458Z" fill="white"/>
<path d="M39.4306 18.3523C39.5991 18.3502 39.7687 18.3491 39.9372 18.3502C39.9948 19.547 39.9568 20.7471 39.9372 21.9451C39.7676 21.9462 39.598 21.9462 39.4285 21.9451C39.4306 20.7471 39.4263 19.5503 39.4306 18.3523Z" fill="white"/>
<path d="M51.2775 18.3664C51.4406 18.3458 51.6047 18.3436 51.7689 18.3371C51.7841 18.8719 51.7765 19.4068 51.7754 19.9427C52.1743 19.6774 52.6059 19.3633 53.1135 19.4165C53.5799 19.4242 53.9691 19.834 54.0332 20.2818C54.0767 20.6351 54.0821 20.9971 54.0278 21.3493C53.9571 21.7211 53.5799 21.957 53.2168 21.9483C52.6363 21.9614 52.0558 21.9451 51.4764 21.9516C51.0025 21.9451 50.5155 22.0038 50.0611 21.8342C49.8176 21.9222 49.561 21.9679 49.3023 21.9548C47.9924 21.9374 46.6803 21.9733 45.3715 21.9374C45.3378 21.9146 45.2715 21.869 45.2389 21.8461C45.1367 21.4831 45.216 21.0874 45.1976 20.7112C45.1769 20.4688 45.2693 20.1384 45.016 19.9894C44.8171 19.822 44.4888 20.0264 44.4932 20.2677C44.4616 20.9558 44.5138 21.645 44.4747 22.332C44.4768 22.594 44.1442 22.5386 43.9703 22.5647C43.4333 22.5603 42.8919 22.5973 42.3582 22.531C41.6972 22.4408 41.2526 21.6592 41.5157 21.045C41.6222 20.6754 41.9625 20.4656 42.2745 20.2862C42.3669 20.433 42.4582 20.5808 42.5506 20.7286C42.3484 20.8776 42.081 20.9895 42.0038 21.2515C41.8646 21.6015 42.1679 22.0005 42.5288 22.0201C43.0017 22.0483 43.4757 22.0233 43.9485 22.0298C43.9648 21.407 43.9235 20.783 43.967 20.1612C44.0192 19.5013 44.9171 19.1654 45.3976 19.61C45.9205 20.0557 45.6791 20.8178 45.727 21.4135C47.0695 21.4037 48.4131 21.4341 49.7545 21.3972C49.773 20.7754 49.735 20.1536 49.7719 19.534C49.9274 19.4763 50.0959 19.4839 50.2546 19.5274C50.3307 20.1492 50.2687 20.7786 50.2883 21.4037C50.6057 21.4135 50.9253 21.4146 51.2438 21.4146C51.2612 20.3993 51.1916 19.3763 51.2775 18.3664ZM51.7786 20.6025C51.7775 20.8732 51.7765 21.1428 51.7765 21.4135C52.2961 21.4026 52.8179 21.4396 53.3375 21.3961C53.5962 21.3298 53.5038 21.0069 53.5299 20.8112C53.5505 20.4819 53.5168 20.0112 53.107 19.9481C52.5907 19.9188 52.1645 20.3036 51.7786 20.6025Z" fill="white"/>
<path d="M60.7697 18.3458C60.936 18.3686 61.1469 18.2958 61.285 18.4012C61.3154 19.5818 61.2937 20.7634 61.2937 21.944C61.1208 21.9472 60.9469 21.9494 60.7752 21.9505C60.7491 20.7493 60.7599 19.547 60.7697 18.3458Z" fill="white"/>
<path d="M65.671 18.361C65.845 18.3523 66.0178 18.3447 66.1928 18.3382C66.2222 19.3611 66.1874 20.384 66.2124 21.4069C67.7234 21.4135 69.2355 21.4276 70.7465 21.3993C70.7607 20.7558 70.727 20.1112 70.7726 19.4687C70.9378 19.5046 71.1433 19.4513 71.2803 19.5785C71.3042 20.1862 71.2792 20.796 71.2879 21.4048C71.7249 21.4178 72.1619 21.4167 72.6 21.4059C72.613 20.7764 72.5978 20.147 72.6097 19.5176C72.7858 19.5209 72.9619 19.5263 73.1391 19.5318C73.1294 20.1449 73.1565 20.758 73.1294 21.37C73.112 21.707 72.7891 21.9657 72.4597 21.9483C71.9901 21.9581 71.5075 21.995 71.0585 21.8342C70.8422 21.9048 70.6193 21.9646 70.3911 21.9537C69.1572 21.9494 67.9245 21.9505 66.6918 21.9537C66.4483 21.9624 66.2124 21.9026 65.9819 21.8352C65.2993 22.0548 64.5688 21.9179 63.8654 21.9472C63.1556 21.9526 62.6207 21.1721 62.8425 20.5058C62.9425 20.1014 63.3023 19.8568 63.6513 19.6785C63.7317 19.8329 63.8122 19.9872 63.8926 20.1427C63.6828 20.2905 63.3773 20.4101 63.3469 20.7025C63.2545 21.0341 63.5241 21.408 63.8698 21.4069C64.4666 21.4265 65.0634 21.4113 65.6613 21.4069C65.683 20.3916 65.6645 19.3763 65.671 18.361Z" fill="white"/>
<path d="M52.583 18.4741C52.7406 18.4773 52.8993 18.4817 53.057 18.4882C53.0591 18.6589 53.0591 18.8306 53.0581 19.0024C52.8993 19.0067 52.7417 19.0089 52.5841 19.0111C52.5798 18.8317 52.5798 18.6523 52.583 18.4741Z" fill="white"/>
<path d="M70.7675 18.4991C70.9305 18.498 71.0936 18.4969 71.2577 18.4969C71.2512 18.6686 71.2447 18.8404 71.2382 19.0122C71.0827 19.0089 70.9294 19.0056 70.7751 19.0013C70.7707 18.8339 70.7685 18.6665 70.7675 18.4991Z" fill="white"/>
<path d="M37.2107 18.723C37.3803 18.7187 37.5499 18.7154 37.7205 18.7132C37.7477 19.5427 37.7347 20.3732 37.7282 21.2026C37.5542 21.2037 37.3814 21.2015 37.2085 21.1993C37.2096 20.3743 37.2064 19.5481 37.2107 18.723Z" fill="white"/>
<path d="M64.3101 19.8764C64.3014 19.6035 64.3862 19.2079 64.7362 19.2242C65.0167 19.1752 65.1341 19.4709 65.2275 19.6731C65.0308 19.6449 64.8449 19.5764 64.6547 19.5274C64.6144 19.6503 64.5862 19.7764 64.5579 19.9014C64.8101 19.946 65.2341 19.796 65.2275 20.1851C64.8677 20.1949 64.509 20.1927 64.1492 20.1949C64.1405 20.1438 64.1242 20.0438 64.1155 19.9938C64.1633 19.9644 64.2611 19.9057 64.3101 19.8764Z" fill="white"/>
<path d="M34.5496 19.4622C35.1507 19.2513 35.8791 19.6481 35.9758 20.2884C36.0193 20.8286 35.9932 21.3733 35.9932 21.9157C36.0106 22.3929 35.6301 22.8343 35.1659 22.918C34.8909 22.9528 34.6126 22.9365 34.3376 22.9365C34.3354 22.7636 34.3333 22.5886 34.3561 22.4168C34.6224 22.3864 34.892 22.4125 35.1573 22.3734C35.3279 22.2929 35.4084 22.1114 35.5138 21.9668C35.0442 21.9407 34.4876 22.0255 34.1343 21.6396C33.5593 21.0276 33.6832 19.7503 34.5496 19.4622ZM34.6616 19.9938C34.2593 20.1818 34.2952 20.7123 34.3822 21.0743C34.5583 21.5113 35.0844 21.407 35.4584 21.4178C35.4508 21.0504 35.4855 20.6797 35.4345 20.3145C35.3312 20.0166 34.9496 19.8329 34.6616 19.9938Z" fill="white"/>
<path d="M54.5874 20.1818C54.7788 19.4263 55.8419 19.148 56.3833 19.7024C56.8866 20.1253 56.6855 20.8406 56.7181 21.4124C57.7301 21.4091 58.7422 21.4244 59.7542 21.4037C59.7814 20.7808 59.739 20.1568 59.776 19.535C59.9325 19.4926 60.0967 19.4992 60.2586 19.4937C60.2695 20.1177 60.2771 20.7428 60.2619 21.3678C60.2738 21.6994 59.9521 21.9559 59.6347 21.9461C58.6759 21.9592 57.7149 21.9494 56.755 21.9483C56.6866 22.2396 56.5833 22.5408 56.3278 22.7223C55.9713 23.0343 55.4669 22.9234 55.0353 22.9234C55.0549 22.7473 55.0766 22.5734 55.0994 22.3984C55.356 22.3929 55.618 22.4201 55.8734 22.3755C56.0561 22.3081 56.1387 22.1114 56.2485 21.9646C55.7854 21.9385 55.2353 22.0309 54.8853 21.6494C54.4635 21.2863 54.5244 20.6765 54.5874 20.1818ZM55.3669 20.0101C54.9853 20.2166 55.0342 20.7395 55.1277 21.0939C55.3125 21.5157 55.8289 21.4026 56.1974 21.4178C56.193 21.0689 56.2148 20.7199 56.1822 20.3721C56.1169 20.0275 55.6669 19.8133 55.3669 20.0101Z" fill="white"/>
<path d="M49.7761 22.3712C49.9392 22.3722 50.1022 22.3755 50.2664 22.3799C50.262 22.5418 50.2609 22.7049 50.2435 22.8669C50.0892 22.8886 49.9326 22.8897 49.7772 22.8919C49.775 22.7179 49.775 22.544 49.7761 22.3712Z" fill="white"/>
<path d="M59.4577 22.3972C59.6175 22.3733 59.7805 22.3701 59.9436 22.3625C59.9414 22.531 59.9414 22.6994 59.9229 22.8669C59.811 22.8908 59.6968 22.9071 59.5827 22.894C59.3446 22.8712 59.474 22.557 59.4577 22.3972Z" fill="white"/>
<path d="M72.3087 22.3734C72.475 22.3755 72.6424 22.3788 72.8098 22.3853C72.8098 22.5462 72.8087 22.7071 72.8087 22.868C72.6424 22.8691 72.4761 22.8691 72.3108 22.8691C72.3087 22.7038 72.3076 22.5386 72.3087 22.3734Z" fill="white"/>
<path d="M42.5317 23.0158C42.6981 23.0158 42.8633 23.018 43.0296 23.0202C43.0296 23.1843 43.0296 23.3485 43.0285 23.5137C42.8633 23.5126 42.6981 23.5115 42.5328 23.5094C42.5317 23.3452 42.5317 23.18 42.5317 23.0158Z" fill="white"/>
<path d="M43.2799 23.0212C43.4484 23.0191 43.618 23.018 43.7876 23.018C43.7832 23.1778 43.7821 23.3376 43.7669 23.4974C43.606 23.5158 43.4441 23.5126 43.2832 23.5169C43.2799 23.3517 43.2799 23.1865 43.2799 23.0212Z" fill="white"/>
<path d="M31.0962 25.9661C34.8563 25.9704 38.6165 25.9639 42.3766 25.9693C42.3734 27.0879 42.3766 28.2065 42.3755 29.3251C39.9623 29.3273 37.5501 29.3229 35.1379 29.3273C35.1411 30.7426 35.1379 32.158 35.139 33.5733C37.2837 33.5744 39.4274 33.5733 41.5722 33.5733C41.5994 34.5973 41.5559 35.6203 41.5983 36.6443C39.4448 36.6519 37.2914 36.6464 35.139 36.6475C35.1411 39.2162 35.1357 41.7861 35.1411 44.3548C33.7932 44.358 32.4452 44.3537 31.0973 44.358C31.0984 38.227 31.0995 32.096 31.0962 25.9661Z" fill="white"/>
<path d="M47.4617 25.9694C48.9727 25.965 50.4848 25.9672 51.9958 25.9683C54.2395 32.0971 56.48 38.2271 58.7269 44.3559C57.2518 44.3548 55.7766 44.3581 54.3015 44.3537C53.9145 43.1297 53.5134 41.9089 53.122 40.686C50.7446 40.6849 48.3672 40.6871 45.9898 40.6849C45.5626 41.9057 45.1637 43.1362 44.7365 44.357C43.3418 44.3526 41.9471 44.3603 40.5513 44.3527C42.8656 38.2292 45.1582 32.0971 47.4617 25.9694ZM47.0454 37.4248C48.7162 37.4313 50.387 37.4259 52.0567 37.427C51.5273 35.8149 51.0088 34.1984 50.4816 32.5863C50.1707 31.6243 49.8456 30.6655 49.6054 29.6828C48.8118 32.283 47.9226 34.8517 47.0454 37.4248Z" fill="white"/>
<path d="M60.0194 25.9671C61.8087 25.9671 63.598 25.9671 65.3884 25.9671C66.7624 25.9769 68.1637 25.8824 69.5029 26.2596C70.8639 26.602 72.1804 27.4412 72.7641 28.7598C73.4664 30.3676 73.2457 32.4406 71.9901 33.7201C71.5118 34.2223 70.8857 34.5571 70.2258 34.756C71.2031 34.993 72.1651 35.4496 72.8065 36.2475C73.724 37.3487 73.8707 38.8988 73.5859 40.2587C73.3283 41.5349 72.5043 42.6687 71.389 43.3329C70.116 44.1091 68.5952 44.3428 67.1255 44.3548C64.7568 44.3569 62.3881 44.3559 60.0194 44.3548C60.0205 38.2259 60.0227 32.096 60.0194 25.9671ZM64.0622 29.1403C64.0654 30.5795 64.0633 32.0188 64.0633 33.4581C65.0242 33.4483 65.9874 33.4907 66.9462 33.432C67.7256 33.3776 68.5789 33.0233 68.8811 32.2471C69.1344 31.5514 69.1551 30.7078 68.7539 30.0621C68.3104 29.3881 67.4571 29.1609 66.694 29.1424C65.8167 29.1348 64.9394 29.1424 64.0622 29.1403ZM64.0644 36.2355C64.0633 37.8824 64.0633 39.5304 64.0633 41.1784C65.0873 41.1577 66.1146 41.224 67.1353 41.136C67.9495 41.0729 68.7974 40.6512 69.1214 39.862C69.4366 39.051 69.4138 38.0846 68.9974 37.3139C68.5833 36.579 67.7082 36.2834 66.9092 36.2518C65.9613 36.2127 65.0123 36.2453 64.0644 36.2355Z" fill="white"/>
<path d="M33.5767 47.2747C34.017 47.1279 34.2279 47.8573 33.7539 47.9486C33.3267 48.0682 33.1604 47.3681 33.5767 47.2747Z" fill="white"/>
<path d="M43.9932 47.3616C44.1812 47.3595 44.3682 47.3584 44.5563 47.3573C44.5563 47.7389 44.5573 48.1193 44.5487 48.5009C45.0193 48.2248 45.7335 48.253 46.0227 48.7727C46.3521 49.4086 46.3097 50.3598 45.6716 50.7924C45.1704 51.1261 44.5367 50.9913 43.9964 50.8424C43.9943 49.6825 43.9986 48.5215 43.9932 47.3616ZM44.5573 48.8846C44.5813 49.4271 44.4954 49.9912 44.5997 50.5228C44.9117 50.6043 45.3129 50.5739 45.49 50.2641C45.6955 49.8836 45.7064 49.3673 45.4694 48.9988C45.2574 48.6933 44.8541 48.7716 44.5573 48.8846Z" fill="white"/>
<path d="M53.4546 47.3595C53.6372 47.3595 53.8198 47.3584 54.0046 47.3595C54.0057 47.7443 54.0068 48.1302 54.0003 48.515C54.3177 48.3672 54.6764 48.2606 55.0254 48.3639C55.3395 48.4433 55.533 48.7672 55.533 49.0792C55.5526 49.7042 55.5309 50.3293 55.5406 50.9544C55.358 50.9533 55.1765 50.9533 54.9949 50.9544C54.9808 50.3304 55.0352 49.7021 54.9678 49.0814C54.8699 48.6498 54.3047 48.7324 54.0242 48.9248C53.9753 49.5988 54.0188 50.2782 54.0057 50.9544C53.8209 50.9533 53.6372 50.9533 53.4535 50.9533C53.4578 49.7553 53.4557 48.5574 53.4546 47.3595Z" fill="white"/>
<path d="M58.3486 47.3616C58.5356 47.3595 58.7237 47.3584 58.9128 47.3584C58.9117 47.7399 58.9139 48.1215 58.9052 48.5041C59.2705 48.3063 59.7509 48.2356 60.1108 48.4835C60.5064 48.7585 60.5978 49.2846 60.576 49.7358C60.5662 50.1967 60.3271 50.6739 59.8944 50.8707C59.4042 51.1055 58.8465 50.9739 58.3497 50.8381C58.3508 49.6792 58.3519 48.5204 58.3486 47.3616ZM58.9139 48.8824C58.9096 49.4325 58.9096 49.9825 58.915 50.5326C59.1933 50.5445 59.5281 50.6217 59.7444 50.3913C60.0684 50.0423 60.0597 49.4716 59.8705 49.0596C59.6792 48.702 59.2313 48.7542 58.9139 48.8824Z" fill="white"/>
<path d="M60.9686 47.3714C61.1382 47.1616 61.5448 47.2627 61.5644 47.5442C61.6318 47.8204 61.2904 48.0682 61.0545 47.9041C60.8556 47.8138 60.8002 47.5138 60.9686 47.3714Z" fill="white"/>
<path d="M71.0509 47.3584C71.2346 47.3595 71.4172 47.3605 71.602 47.3638C71.602 48.0617 71.5977 48.7607 71.6053 49.4597C71.902 49.0911 72.1956 48.7183 72.4999 48.3541C72.7043 48.3552 72.9087 48.3574 73.1141 48.3606C72.7847 48.7465 72.4684 49.1433 72.1369 49.5271C72.3912 49.8543 72.6456 50.1826 72.9043 50.5076C72.9641 50.5206 73.0837 50.5478 73.1435 50.5608C73.1413 50.6685 73.137 50.8826 73.1348 50.9892C72.9108 50.9598 72.6489 50.987 72.4804 50.8076C72.1542 50.4619 71.8977 50.0586 71.6031 49.6869C71.5988 50.1086 71.6009 50.5304 71.6031 50.9522C71.4172 50.9522 71.2324 50.9533 71.0487 50.9544C71.0563 49.7553 71.052 48.5563 71.0509 47.3584Z" fill="white"/>
<path d="M31.0981 47.641C31.7341 47.6443 32.37 47.6421 33.007 47.6432C33.0059 47.804 33.0059 47.966 33.007 48.128C32.5559 48.128 32.1058 48.128 31.6558 48.128C31.6569 48.4226 31.6569 48.7183 31.658 49.0139C32.0569 49.0139 32.457 49.0129 32.857 49.0129C32.857 49.1618 32.8581 49.3118 32.8581 49.4629C32.457 49.4618 32.0558 49.4618 31.6547 49.4618C31.658 49.9586 31.6558 50.4554 31.6591 50.9533C31.4721 50.9533 31.284 50.9533 31.097 50.9544C31.0992 49.8499 31.097 48.7454 31.0981 47.641Z" fill="white"/>
<path d="M41.8995 47.6366C42.1082 47.641 42.3191 47.6355 42.5278 47.6627C42.9615 48.7465 43.3181 49.8608 43.7312 50.9533C43.5192 50.9533 43.3083 50.9533 43.0974 50.9533C43.0159 50.7032 42.9332 50.4543 42.8506 50.2054C42.4038 50.2075 41.9571 50.2064 41.5103 50.2064C41.4255 50.4543 41.3418 50.7032 41.257 50.9522C41.0592 50.9532 40.8613 50.9532 40.6646 50.9543C41.0852 49.8521 41.4853 48.7411 41.8995 47.6366ZM41.6712 49.7107C42.0136 49.714 42.3571 49.714 42.6995 49.7118C42.5289 49.2085 42.3528 48.7063 42.2082 48.1943C42.0256 48.6987 41.8592 49.2085 41.6712 49.7107Z" fill="white"/>
<path d="M50.3609 47.6431C51.123 47.6725 52.0741 47.4844 52.6307 48.1443C53.1753 48.8498 53.1482 50.0162 52.4655 50.6239C51.8774 51.1152 51.0599 50.9141 50.3588 50.9532C50.3609 49.8499 50.3577 48.7465 50.3609 47.6431ZM50.9425 48.116C50.9425 48.902 50.9436 49.6868 50.9425 50.4728C51.373 50.4706 51.9154 50.5293 52.1915 50.1184C52.4818 49.6564 52.4655 49.0259 52.235 48.5432C51.9774 48.0823 51.3969 48.1106 50.9425 48.116Z" fill="white"/>
<path d="M63.3707 50.9533C63.3751 49.8499 63.3707 48.7466 63.3729 47.6432C63.9643 47.6704 64.5969 47.5508 65.1546 47.7976C65.7112 48.0791 65.6623 48.9542 65.1089 49.2183C65.7764 49.4423 65.8351 50.4282 65.2513 50.7761C64.6785 51.0924 63.9925 50.9044 63.3707 50.9533ZM63.936 48.1182C63.9371 48.4237 63.9371 48.7292 63.9371 49.0357C64.186 49.027 64.4393 49.0488 64.6861 48.9966C65.0426 48.8988 65.0937 48.3433 64.7643 48.1802C64.5002 48.0824 64.2099 48.1302 63.936 48.1182ZM63.9371 49.4379C63.9371 49.7934 63.9371 50.151 63.9382 50.5076C64.2241 50.4913 64.5274 50.5315 64.7991 50.4217C65.0578 50.2945 65.0752 49.9521 64.9894 49.7119C64.7774 49.339 64.2882 49.4651 63.9371 49.4379Z" fill="white"/>
<path d="M38.3314 47.6964C38.4825 47.691 38.6336 47.6866 38.7847 47.6823C38.7836 47.9062 38.7847 48.1323 38.7836 48.3573C38.9826 48.3563 39.1815 48.3552 39.3804 48.3563C39.3793 48.4617 39.3772 48.6726 39.3761 48.778C39.1782 48.7759 38.9804 48.7759 38.7836 48.7759C38.8097 49.3183 38.7293 49.8694 38.8315 50.4054C38.9608 50.6315 39.2391 50.501 39.4457 50.5173C39.4424 50.6641 39.4391 50.8098 39.4359 50.9576C39.1717 50.9761 38.8989 51.0261 38.638 50.9554C38.3988 50.8793 38.2455 50.6369 38.251 50.3912C38.2271 49.8531 38.2499 49.314 38.2434 48.7759C38.1586 48.777 37.9901 48.777 37.9064 48.778C37.902 48.6367 37.8988 48.4965 37.8955 48.3573C37.9836 48.3573 38.1597 48.3573 38.2477 48.3573C38.2738 48.1367 38.3021 47.916 38.3314 47.6964Z" fill="white"/>
<path d="M33.3954 48.3595C33.5813 48.3573 33.7682 48.3563 33.9541 48.3552C33.953 49.2205 33.952 50.0869 33.9552 50.9532C33.7693 50.9532 33.5834 50.9532 33.3986 50.9543C33.3965 50.089 33.4008 49.2248 33.3954 48.3595Z" fill="white"/>
<path d="M35.0139 48.5715C35.2661 48.378 35.5716 48.3063 35.8857 48.3215C35.8911 48.4889 35.8977 48.6563 35.9042 48.8248C35.5933 48.7998 35.2824 48.8368 35.0193 49.014C35.0291 49.6608 35.0204 50.3076 35.0258 50.9544C34.841 50.9533 34.6573 50.9533 34.4725 50.9544C34.4747 50.088 34.4736 49.2227 34.4725 48.3574C34.6562 48.3563 34.84 48.3552 35.0248 48.3552C35.0215 48.4095 35.0161 48.5172 35.0139 48.5715Z" fill="white"/>
<path d="M36.4616 48.4139C36.8388 48.2595 37.2562 48.3443 37.6454 48.4008C37.6476 48.5139 37.653 48.7411 37.6552 48.8541C37.3291 48.8215 36.891 48.6345 36.6203 48.8922C36.4551 49.3172 37.0388 49.352 37.2943 49.4901C37.8552 49.6357 37.9889 50.4586 37.5334 50.7956C37.1073 51.1152 36.5333 50.9902 36.0572 50.8761C36.0572 50.763 36.0572 50.538 36.0572 50.4249C36.3811 50.5075 36.7301 50.6347 37.0638 50.5249C37.2638 50.4597 37.3508 50.164 37.1682 50.0281C36.904 49.8716 36.5909 49.8173 36.3355 49.6455C35.9126 49.3596 35.9724 48.5954 36.4616 48.4139Z" fill="white"/>
<path d="M56.0974 48.4215C56.5779 48.3433 57.1573 48.1998 57.5714 48.5378C57.9215 48.8759 57.7932 49.4108 57.8139 49.8456C57.8356 50.1271 57.6997 50.5402 58.0845 50.6141C58.0856 50.7315 58.0878 50.85 58.0922 50.9685C57.8117 51.0142 57.5204 51.0022 57.3138 50.7815C56.9833 50.9946 56.5431 51.0881 56.1844 50.8881C55.7343 50.6457 55.7267 49.8912 56.1778 49.6466C56.5137 49.4434 56.9203 49.4608 57.2975 49.4499C57.229 49.2455 57.2747 48.952 57.0605 48.8303C56.7377 48.6944 56.3844 48.8194 56.067 48.9064C56.0757 48.7444 56.0865 48.5824 56.0974 48.4215ZM56.4453 50.038C56.3681 50.1967 56.3952 50.4272 56.5659 50.5174C56.792 50.6533 57.0518 50.525 57.2703 50.4359C57.2671 50.2239 57.2649 50.0119 57.2616 49.7999C56.9866 49.838 56.6322 49.7836 56.4453 50.038Z" fill="white"/>
<path d="M60.9469 48.3552C61.1339 48.3563 61.3219 48.3563 61.5089 48.3573C61.5067 49.2226 61.5078 50.089 61.5089 50.9543C61.3197 50.9532 61.1328 50.9532 60.9458 50.9532C60.9545 50.0869 60.9512 49.2216 60.9469 48.3552Z" fill="white"/>
<path d="M66.1962 48.4204C66.7223 48.3269 67.4876 48.1628 67.8072 48.7281C67.9833 49.2259 67.8583 49.7673 67.9017 50.2836C67.8528 50.4869 68.0496 50.5445 68.1909 50.6228C68.1887 50.713 68.1844 50.8935 68.1822 50.9837C67.9017 51.0098 67.6137 50.9978 67.4039 50.7859C67.0788 50.9913 66.6505 51.0815 66.2951 50.8978C65.82 50.675 65.8157 49.8793 66.2777 49.639C66.6125 49.4433 67.0136 49.464 67.3887 49.4488C67.3202 49.2444 67.3658 48.9596 67.1571 48.8313C66.8397 48.6965 66.4897 48.8161 66.1766 48.902C66.182 48.7411 66.1885 48.5802 66.1962 48.4204ZM66.5386 50.0238C66.4527 50.1967 66.4897 50.4293 66.6701 50.5293C66.8723 50.6174 67.1212 50.5761 67.3028 50.4565C67.381 50.2478 67.3528 50.0195 67.3702 49.8021C67.0897 49.8347 66.7451 49.7901 66.5386 50.0238Z" fill="white"/>
<path d="M68.4552 48.3443C68.665 48.3606 68.9052 48.3215 69.0694 48.4889C69.3933 48.3345 69.7759 48.2584 70.1205 48.3943C70.3804 48.515 70.5282 48.7976 70.5434 49.077C70.5793 49.702 70.5456 50.3282 70.5597 50.9543C70.3706 50.9532 70.1814 50.9532 69.9934 50.9532C69.9814 50.3293 70.0271 49.702 69.9727 49.0802C69.8694 48.6291 69.315 48.7726 69.0117 48.9117C69.0074 49.5922 69.0085 50.2727 69.0117 50.9543C68.8237 50.9532 68.6378 50.9532 68.4519 50.9543C68.4573 50.0836 68.453 49.214 68.4552 48.3443Z" fill="white"/>
<path d="M46.5593 48.3595C46.7431 48.3574 46.9268 48.3574 47.1105 48.3574C47.1116 48.8889 47.104 49.4205 47.1083 49.9521C47.1072 50.1608 47.1431 50.4119 47.354 50.5152C47.6018 50.613 47.8519 50.4869 48.0867 50.4141C48.0867 49.7281 48.0867 49.0433 48.0867 48.3584C48.2802 48.3574 48.4747 48.3574 48.6693 48.3584C48.6671 49.2281 48.6671 50.0967 48.6693 50.9663C48.4519 50.9533 48.2193 50.9685 48.0323 50.8369C47.6921 50.9837 47.2855 51.0815 46.9387 50.8978C46.6724 50.7685 46.5735 50.4521 46.5626 50.1771C46.5496 49.5716 46.5659 48.965 46.5593 48.3595Z" fill="white"/>
<path d="M72.7217 25.9813C78.1809 22.9843 83.6445 19.9938 89.1059 17C86.7111 20.8917 84.6272 24.991 83.1292 29.3142C81.7584 33.2635 80.8562 37.4009 80.7224 41.5882C80.6127 43.8287 80.8062 46.0734 81.1279 48.291C78.6049 44.6103 77.1928 40.1751 77.171 35.7105C77.133 32.3667 77.8602 29.0175 79.2767 25.9878C77.0917 25.978 74.9056 25.9933 72.7217 25.9813Z" fill="white"/>
</g>
<defs>
<clipPath id="clip0_205_425">
<rect width="58.0121" height="34" fill="white" transform="translate(31.094 17)"/>
</clipPath>
</defs>
</svg>
