<svg width="119" height="68" viewBox="0 0 119 68" fill="none" xmlns="http://www.w3.org/2000/svg">
<g clip-path="url(#clip0_205_437)">
<path fill-rule="evenodd" clip-rule="evenodd" d="M63.4191 15.0926C63.2379 15.2815 62.6004 16.2457 62.6004 17.4403C62.6004 17.7263 62.6055 24.5742 62.6004 24.8198C62.5905 25.3409 62.2722 26.0832 62.0098 26.3448C61.825 26.5296 60.6893 27.5623 60.5886 27.6707L61.2326 27.6809C61.4422 27.4804 63.6297 25.5414 63.8586 25.2805C64.1563 24.9421 64.8658 24.0848 64.8658 22.7385L64.8694 15.6479C64.8694 14.5839 65.3654 13.9938 65.6204 13.7089C65.8828 13.4163 66.7448 12.6973 66.8976 12.5347L66.2219 12.5146C66.0585 12.678 63.6439 14.8572 63.4191 15.0926ZM58.0029 41.9266L60.6817 44.2666H62.4756C64.2992 44.2666 65.9665 43.4861 67.0664 42.3865C68.1671 41.2855 68.5725 39.8071 68.5725 38.424V34.5882C68.5725 33.299 67.7622 32.5491 67.5376 32.3242C67.4147 32.2019 66.6345 31.4662 66.6345 31.4662V34.4091C66.6345 34.4091 67.4943 35.297 67.6643 35.4771C68.459 36.3212 68.4502 37.8582 65.9345 40.3107C65.4938 40.7397 64.2367 41.9266 62.5068 41.9266H58.0029Z" fill="white"/>
<path fill-rule="evenodd" clip-rule="evenodd" d="M65.4537 26.1836C65.1554 26.4994 64.869 27.2719 64.869 27.9527V29.4052H66.3423C66.9143 29.4052 67.6704 28.8838 67.8341 28.608C67.844 28.5876 67.8341 27.1675 67.8341 27.1675C67.8341 27.1675 68.2122 27.7089 68.6208 27.9949C68.7744 27.8009 70.1152 26.1748 71.2381 26.1657C73.1127 26.1505 72.6892 28.5159 71.9233 29.2728C71.6751 29.5162 70.5679 30.5321 70.2255 30.8578C69.3398 31.7008 67.824 31.2973 67.824 29.1189C67.824 29.1189 66.1971 30.6635 65.9533 30.868C65.7081 31.0725 64.869 31.9614 64.869 31.9614V35.7885C64.869 37.6238 64.265 38.2395 63.7647 38.7915C63.57 39.0058 61.5033 40.8913 61.2267 41.0958L60.5518 41.1111C60.5518 41.1111 61.7612 40.0115 62.0036 39.7597C62.2794 39.4734 62.6007 38.8919 62.6007 37.924C62.6007 37.6788 62.5701 31.9101 62.5701 31.9101H53.1686C49.8985 31.9101 49.1995 28.2809 49.1792 27.3101C49.1741 27.0241 49.1792 24.1255 49.1792 23.6758C49.1792 23.0794 48.7975 22.073 48.188 21.7626H49.1104C49.2166 21.8074 49.7963 22.041 49.7963 24.266C49.7963 24.266 49.757 26.8553 49.757 26.9932C49.757 28.1211 50.6539 29.4154 51.95 29.4154L62.5912 29.4052C62.601 29.1189 62.8867 28.0335 63.3979 27.4596C63.6886 27.1362 65.9704 25.0479 66.2313 24.8471L66.907 24.8394C66.804 24.9333 65.7004 25.9234 65.4537 26.1836ZM68.9476 28.3631C68.9476 28.3631 69.5636 29.1807 69.8572 29.4158C71.0034 30.3353 71.5474 29.3477 70.7782 28.2914C70.474 27.8752 69.2951 27.9952 68.9476 28.3631Z" fill="white"/>
<path fill-rule="evenodd" clip-rule="evenodd" d="M57.5378 35.2187C57.5378 35.7325 55.8964 37.0963 55.8004 37.1923C55.6818 36.6389 55.2677 36.0276 54.0444 34.8035L55.8404 33.0075C57.0437 34.2126 57.5378 34.4691 57.5378 35.2187ZM60.6525 14.6312C61.0127 14.9915 61.7881 15.9688 61.3228 16.4349C60.912 16.8461 60.2745 17.4981 60.2745 17.4981C60.2424 17.2631 59.6457 16.6973 59.6457 16.6973C59.6457 16.6973 59.6508 18.4318 59.6457 18.6465C59.6253 19.4295 59.3306 19.6529 59.3306 19.6529C59.3306 19.6529 60.7777 21.0887 60.7777 22.9332C60.7777 23.8276 60.7813 24.6503 60.7813 24.8278C60.7813 25.2059 60.686 25.4984 60.4226 25.7884C60.2927 25.9325 58.9511 27.2803 58.747 27.464C58.3583 27.8141 57.9497 27.8726 57.6434 27.8726H52.6551C51.8695 27.8726 51.061 27.2595 51.061 26.6464C51.061 26.4932 51.0712 24.7965 51.0712 24.7965C51.327 25.0931 51.5872 25.4395 52.2159 25.4304C52.7068 25.4227 53.2228 25.037 53.3607 24.8991C53.5037 24.7547 57.1339 20.9596 57.1339 20.9596C57.1339 20.9596 55.4336 19.3833 54.3136 18.6345C53.7671 18.2681 53.0412 18.7305 52.9317 19.2119C52.5882 20.7216 52.9317 22.9863 52.9317 22.9863L51.5544 21.6123C51.0003 21.0567 51.0203 19.7999 51.6811 19.1392C51.7859 19.034 52.7923 17.8962 54.0709 17.8962H56.0624C57.3985 17.8962 58.8598 19.2272 58.8598 19.2272C58.8598 19.2272 59.0744 18.9922 59.0744 18.7647C59.0744 18.0799 59.049 16.233 59.049 16.233C58.0436 15.228 57.9068 14.1906 58.3885 13.7088C59.288 12.8097 59.6148 12.4928 59.6148 12.4928C59.6148 12.4928 59.6039 13.5837 60.6525 14.6312ZM54.3944 24.6535C53.9028 25.1684 53.8173 25.2972 53.3574 25.573H58.9751C60.4975 25.573 60.1948 24.6277 59.9219 24.1514C59.3619 23.1741 57.5942 21.358 57.5942 21.358C57.5942 21.358 54.4966 24.5447 54.3944 24.6535Z" fill="white"/>
<path fill-rule="evenodd" clip-rule="evenodd" d="M47.9887 29.7669H47.0667C47.0667 29.7669 48.0575 30.3113 48.0575 31.715V36.1986C48.0575 39.1164 50.4641 41.8141 53.3881 41.8141H55.8303C57.2967 41.8141 57.8112 41.459 58.6976 40.6723C59.0225 40.3834 59.445 39.9093 59.5996 39.7372C60.1108 39.1652 60.6545 38.7027 60.6545 37.2003V35.7328C60.6545 34.4644 59.9202 33.9364 59.565 33.5817C59.3376 33.3543 58.7129 32.7571 58.7129 32.7571V35.763C58.7129 35.763 59.3285 36.4187 59.5996 36.6319C60.8677 37.6333 59.8583 39.3719 58.6823 39.3719C58.4473 39.3719 53.6457 39.3733 53.3186 39.3817C51.3435 39.4308 48.6738 37.669 48.6738 34.7067V32.2707C48.6742 29.7669 47.9887 29.7669 47.9887 29.7669Z" fill="white"/>
<path fill-rule="evenodd" clip-rule="evenodd" d="M53.8669 35.2267C53.8669 35.7387 52.2255 37.1043 52.1302 37.2003C52.0127 36.6469 51.5975 36.0356 50.3734 34.8115L52.1695 33.0155C53.3742 34.2199 53.8669 34.4753 53.8669 35.2267ZM35.0882 55.1665C34.7957 55.1665 32.5382 55.1629 32.2155 55.1629C31.3095 55.1629 31.3786 54.4108 31.2993 53.7678V49.6456C31.2993 49.6456 31.928 49.6303 32.6405 49.6303C33.4366 49.6303 34.4278 49.5128 35.392 50.0586C35.392 50.0586 34.6985 48.3863 32.6354 48.3863H31.2993V47.0654C31.2993 47.0654 31.2993 45.9145 31.0184 45.5747C31.0184 45.5747 32.7951 45.5812 32.9163 45.5812C34.5591 45.5823 35.829 45.5572 37.1495 46.437C37.1495 46.437 36.8966 44.2629 33.7237 44.2629H27.5256C27.5256 44.2629 28.6016 45.1839 28.5717 47.0589L28.6016 54.5705C28.6016 56.456 29.3562 56.5081 29.3562 56.5081H35.4648C36.8493 56.5081 37.3311 55.518 37.3311 54.9817L37.3518 54.2616C37.3518 54.2609 36.9123 55.1665 35.0882 55.1665ZM51.3493 54.5316V49.2777C51.3493 47.239 49.6836 46.6972 48.4431 46.6972C46.8007 46.6972 46.3091 48.0693 46.0995 48.5405C45.7331 47.2615 44.453 46.6823 43.4029 46.6823C41.4191 46.6823 40.9159 48.5711 40.9159 48.5711C40.9159 48.5711 40.8689 46.747 39.2759 46.747L37.7149 46.7507C37.7149 46.7507 38.6192 47.1225 38.6192 48.6988L38.6166 54.5327C38.6166 56.459 39.3935 56.4924 39.3935 56.4924H41.966C41.8994 56.459 40.9785 55.7643 40.9785 54.5163V49.3414C41.0101 49.1114 41.3987 48.3299 42.5085 48.3299C43.1373 48.3299 43.8282 48.9852 43.8126 49.722L43.8104 54.5301C43.8104 56.4844 44.5767 56.4899 44.5767 56.4899H47.1594C47.1594 56.4899 46.1719 55.7949 46.1719 54.5137L46.1643 49.3374C46.261 49.0488 46.6009 48.3459 47.5757 48.3459C48.3522 48.3459 49.0024 49.0012 48.9871 49.7384C48.9871 49.7384 48.982 54.1273 48.9846 54.5348C48.9962 56.5019 49.7512 56.4841 49.7512 56.4841C51.0961 56.4841 52.334 56.4895 52.334 56.4895C52.334 56.4895 51.3493 55.8091 51.3493 54.5316ZM55.8624 54.5294C55.8624 55.8244 56.8535 56.4903 56.8535 56.4903C56.8535 56.4903 55.6251 56.4848 54.281 56.4848C54.281 56.4848 53.4918 56.4964 53.4918 54.5443V54.5356L53.4943 48.6853C53.4943 47.1426 52.6003 46.7463 52.6003 46.7463H54.1613C54.7118 46.7463 55.8576 46.7463 55.8576 48.928L55.8536 54.5203L55.8624 54.5294ZM63.7888 47.4813C63.7888 47.4813 63.5406 46.7802 62.472 46.7802C60.856 46.7802 60.4623 48.7003 60.4623 48.7003C60.331 47.1826 59.9242 46.7339 58.7838 46.7339L57.2228 46.7379C57.2228 46.7379 58.1274 47.1087 58.1274 48.685L58.1245 54.5265C58.1245 56.4542 58.901 56.4859 58.901 56.4859H61.4735C61.4073 56.4542 60.4863 55.7592 60.4863 54.5108L60.4893 49.7282C60.5569 49.2945 60.7807 48.9608 61.1202 48.741C61.968 48.1919 63.1258 48.3222 63.7888 49.1318V47.4813ZM75.7941 47.8343C76.6656 47.8343 77.3158 48.2149 77.3158 48.2149L77.3235 46.7449H75.1596L75.161 44.5158C75.161 44.5158 74.5927 45.4993 73.429 46.4549C72.6984 47.0549 71.164 47.7961 71.164 47.7961L72.7977 47.8255L72.7948 54.6047C72.7948 56.4848 73.5808 56.4848 73.5808 56.4848C74.9922 56.4848 76.1504 56.4903 76.1504 56.4903C76.1504 56.4903 75.157 55.8244 75.157 54.588L75.1592 47.8306C75.8374 47.8328 75.3706 47.8343 75.7941 47.8343ZM83.6172 50.7776C82.1738 52.2872 81.0411 52.0507 80.1336 53.1569C80.1336 53.1583 80.2791 54.6567 81.4257 55.1854C81.8172 55.367 83.4062 55.9404 84.4359 54.1637L84.4287 55.736C84.4287 55.736 83.7679 56.5034 81.6706 56.5034C79.1428 56.5034 77.4115 54.5159 77.4115 51.8204C77.4115 49.17 78.823 46.7096 81.4879 46.6957C84.0997 46.6823 85.5141 48.7927 83.6172 50.7776ZM82.0373 50.159C82.4645 49.3698 82.8007 47.3652 81.3409 47.4751C79.6497 47.6021 79.9713 52.0995 79.9713 52.0995C80.5371 51.4849 81.3857 51.3598 82.0373 50.159ZM54.6667 45.9578C55.3297 45.9578 55.8674 45.4317 55.8674 44.7829C55.8674 44.1341 55.3297 43.6076 54.6667 43.6076C54.0037 43.6076 53.4659 44.1341 53.4659 44.7829C53.4659 45.4317 54.0037 45.9578 54.6667 45.9578ZM66.4694 55.3848C65.8825 55.3848 65.4629 54.7743 65.4629 54.1484C65.4629 51.7163 67.4544 51.3805 67.9867 50.7314L67.9911 54.8321C67.7556 55.041 67.5169 55.3848 66.4694 55.3848ZM67.9867 49.7926C67.3881 50.8413 62.7321 51.0636 63.446 54.6647C63.728 56.0929 64.6799 56.5092 65.8766 56.5092C67.0392 56.5092 67.7378 55.9022 68.0307 55.3375C68.2043 56.4218 68.7519 56.4844 68.7519 56.4844C70.0971 56.4844 71.3252 56.4899 71.3252 56.4899C71.3252 56.4899 70.3231 55.824 70.3231 54.5392V49.0645C70.3231 47.7549 68.8713 46.7358 67.3277 46.7358C65.8446 46.7358 64.912 47.45 64.912 47.45V49.1489C64.912 49.1489 65.4415 47.803 66.7834 47.803C68.0933 47.803 68.1897 48.4554 68.1821 48.781C68.1821 48.781 68.3145 49.2217 67.9867 49.7926ZM89.3132 53.8442C89.3274 54.533 88.7114 55.4376 87.4007 55.4376C86.0588 55.4376 85.5232 54.0644 85.5232 54.0644V55.8044C85.5232 55.8044 86.4911 56.4943 87.9742 56.4943C89.7345 56.4943 91.5142 55.1563 91.4742 53.2941C91.4614 52.6387 91.2275 52.0806 90.8702 51.5992C90.2745 50.8009 89.1902 50.2427 88.3508 49.7264C87.8719 49.4313 87.6172 48.904 87.6118 48.7185C87.5976 48.3924 87.7555 47.7338 89.0665 47.7338C90.3451 47.7338 90.8895 49.0798 90.8895 49.0798L90.8844 47.45C90.8844 47.45 89.9059 46.6732 88.4224 46.6732C86.8789 46.6732 85.478 47.6927 85.5042 49.0015C85.5283 50.1514 86.0129 50.8962 86.9532 51.5977C87.3247 51.8746 87.7682 52.1442 88.2813 52.4292C89.0305 52.8443 89.3034 53.3526 89.3132 53.8442Z" fill="white"/>
</g>
<defs>
<clipPath id="clip0_205_437">
<rect width="63.9651" height="45" fill="white" transform="translate(27.5176 11.5)"/>
</clipPath>
</defs>
</svg>
