<svg width="120" height="68" viewBox="0 0 120 68" fill="none" xmlns="http://www.w3.org/2000/svg">
<g clip-path="url(#clip0_205_448)">
<path d="M78.5442 34.0001C78.5442 36.4485 78.062 38.8729 77.125 41.135C76.188 43.397 74.8147 45.4523 73.0834 47.1836C71.3521 48.9149 69.2968 50.2882 67.0347 51.2252C64.7727 52.1622 62.3483 52.6444 59.8999 52.6444C54.9551 52.6444 50.2128 50.6801 46.7163 47.1836C43.2198 43.6871 41.2555 38.9449 41.2555 34.0001C41.2555 29.0553 43.2198 24.313 46.7163 20.8165C50.2128 17.32 54.9551 15.3557 59.8999 15.3557C62.3483 15.3557 64.7727 15.838 67.0347 16.7749C69.2968 17.7119 71.3521 19.0852 73.0834 20.8165C74.8147 22.5478 76.188 24.6031 77.125 26.8652C78.062 29.1272 78.5442 31.5517 78.5442 34.0001Z" fill="white"/>
<path d="M59.8998 15C49.4101 15 40.8998 23.5103 40.8998 34C40.8998 44.4897 49.4101 53 59.8998 53C70.3895 53 78.8998 44.4897 78.8998 34C78.8998 23.5103 70.3895 15 59.8998 15ZM59.8998 15.7131C62.3013 15.7124 64.6794 16.1848 66.8983 17.1035C69.1172 18.0221 71.1333 19.3689 72.8315 21.067C74.5297 22.765 75.8768 24.781 76.7956 26.9998C77.7145 29.2186 78.1872 31.5967 78.1867 33.9982C78.1879 36.4002 77.7157 38.7788 76.7972 40.9982C75.8786 43.2176 74.5317 45.2343 72.8334 46.9329C71.1351 48.6315 69.1188 49.9788 66.8995 50.8978C64.6803 51.8168 62.3018 52.2894 59.8998 52.2887C57.498 52.2894 55.1195 51.8168 52.9004 50.898C50.6813 49.9791 48.665 48.632 46.9668 46.9335C45.2685 45.2351 43.9216 43.2187 43.0029 40.9995C42.0843 38.7803 41.6119 36.4018 41.6129 34C41.6122 31.5985 42.0846 29.2204 43.0033 27.0015C43.9219 24.7826 45.2687 22.7665 46.9668 21.0683C48.6648 19.37 50.6808 18.023 52.8996 17.1042C55.1184 16.1853 57.4965 15.7126 59.898 15.7131H59.8998Z" fill="black"/>
<path d="M69.1 30.291C66.9321 30.291 65.7987 31.2088 65.7987 32.617C65.7987 33.0661 66.0771 33.7091 66.5459 34.0126C67.3667 34.5443 68.0547 34.6233 68.9977 34.8533C69.5383 34.9862 70.1257 35.1388 70.1257 35.4837C70.1257 35.7711 69.8347 35.9848 69.0659 35.9848C67.5428 35.9848 67.2428 35.182 67.2428 35.182L65.2921 35.8986C65.7053 37.2116 67.726 37.6625 69.0641 37.6625C70.4957 37.6625 71.3219 37.3571 71.8482 36.8542C72.4284 36.301 72.4858 35.7657 72.4858 35.2574C72.4858 34.8083 72.3098 34.212 71.4477 33.7127C70.819 33.3516 69.5509 33.1289 68.9977 33.0122C68.7893 32.9655 68.1193 32.8685 68.1193 32.4733C68.1193 32.1787 68.5378 32.0189 69.1 32.0189C70.2101 32.0189 70.3879 32.7697 70.3879 32.7697L72.3457 32.0494C72.0404 30.6753 70.431 30.291 69.1 30.291ZM75.5699 30.3251L73.2223 31.1872V37.3841H75.5717L75.5699 30.3251ZM44.1493 30.4544V37.3823H46.4987V36.0908C47.3971 35.7981 48.2813 35.463 49.1481 35.0868C50.7898 34.3395 50.8598 33.4037 50.8598 32.626C50.8598 31.6614 50.1414 30.4544 48.1386 30.4544H46.4987H44.1493ZM51.5316 30.4544V37.3823H57.6386V35.6759H53.881V34.7581H56.8321V33.0535H53.881V32.1554H57.5722V30.4526L51.5316 30.4544ZM58.657 30.4544V37.3823H61.0065V36.0908C61.9049 35.7981 62.789 35.463 63.6558 35.0868C65.2975 34.3395 65.3676 33.4037 65.3676 32.626C65.3676 31.6614 64.6491 30.4544 62.6464 30.4544H61.0065H58.657ZM46.4987 32.1572H47.6734C48.0686 32.1572 48.3973 32.4787 48.3973 32.8864C48.3973 33.3714 48.2105 33.6301 47.5046 33.9246L46.4987 34.3234V32.1572ZM61.0065 32.1572H62.1812C62.5763 32.1572 62.905 32.4787 62.905 32.8864C62.905 33.3714 62.72 33.6301 62.0123 33.9246L61.0065 34.3234V32.1572Z" fill="black"/>
<path d="M59.9001 16.983C56.5803 16.9857 53.3339 17.9593 50.5605 19.7839C47.7871 21.6084 45.6079 24.2043 44.2913 27.2517C44.3523 27.2733 47.6717 28.448 51.0233 28.448C56.2592 28.448 62.5369 26.3087 69.3013 26.3087C72.7266 26.3087 75.261 27.1565 75.5197 27.2463C74.2014 24.1982 72.0202 21.6024 69.2448 19.7787C66.4694 17.955 63.221 16.9832 59.9001 16.983Z" fill="#141414"/>
<path d="M59.9089 51.0207C63.2287 51.0184 66.4754 50.0453 69.2491 48.221C72.0228 46.3968 74.2024 43.8011 75.5195 40.7537C75.4584 40.7304 72.1373 39.5557 68.7874 39.5557C63.5515 39.5557 57.2739 41.6967 50.5077 41.6967C47.0842 41.6967 44.5498 40.8489 44.2893 40.7591C45.6078 43.8069 47.7891 46.4024 50.5645 48.2257C53.3399 50.0491 56.5881 51.0206 59.9089 51.0207Z" fill="#141414"/>
</g>
<defs>
<clipPath id="clip0_205_448">
<rect width="38.0009" height="38" fill="white" transform="translate(40.8994 15)"/>
</clipPath>
</defs>
</svg>
