<svg width="120" height="68" viewBox="0 0 120 68" fill="none" xmlns="http://www.w3.org/2000/svg">
<path d="M74.1322 25.2656C73.9499 24.6618 73.6282 24.1277 73.1671 23.6699C72.7057 23.2088 72.0754 22.8439 71.2728 22.5685C70.4699 22.2932 69.4446 22.1538 68.2071 22.1538H62.5343H61.5657V22.2467C61.5657 22.2467 62.5343 22.9168 62.5343 24.695V37.6332H65.268V24.4495H68.1608C68.8509 24.4495 69.4215 24.5125 69.8728 24.632C70.3238 24.7547 70.6855 24.9306 70.9507 25.1594C71.2194 25.3884 71.4055 25.677 71.5149 26.022C71.621 26.367 71.6775 26.7684 71.6775 27.2296C71.6775 27.6907 71.6278 28.0722 71.528 28.4239C71.4286 28.7755 71.2493 29.0774 70.9874 29.3329C70.7255 29.585 70.3701 29.7807 69.9191 29.9201C69.4678 30.0561 68.8905 30.1258 68.184 30.1258H67.1524L66.1836 32.4447H68.2539C69.4644 32.4447 70.4665 32.302 71.2627 32.02C72.0589 31.738 72.6893 31.3532 73.157 30.8722C73.6248 30.3911 73.9499 29.8272 74.1322 29.1836C74.3149 28.54 74.4076 27.8665 74.4076 27.1632C74.4076 26.5063 74.3149 25.8727 74.1322 25.269V25.2656Z" fill="white"/>
<path d="M76.5247 22.1541V22.247C76.5247 22.247 77.4931 22.9171 77.4931 24.6953V37.6335H80.2733V22.1442L77.4931 22.1541H76.5247Z" fill="white"/>
<path d="M94.0037 24.5424L94.9721 22.1538H83.53V22.2467C83.53 22.2467 84.4989 22.9168 84.4989 24.695V37.6332H87.2791V31.5954H92.7262L93.6951 29.2068H87.2791V24.5424H94.0067H94.0037Z" fill="white"/>
<path d="M80.2682 40.8547H62.5131V41.1135H80.2682V40.8547Z" fill="white"/>
<path d="M82.3725 40.9145C82.3725 41.3424 82.7043 41.6078 83.1157 41.6078H83.4707C83.3776 41.8533 83.1123 41.9727 82.8269 41.9727C82.4521 41.9727 82.0837 41.7836 82.0837 41.3889V41.077L81.666 41.1599V41.3391C81.666 41.9761 82.2201 42.2547 82.8037 42.2547C83.4243 42.2547 83.9452 41.9727 83.9452 41.3026V40.1879H83.2252C82.797 40.1879 82.3759 40.4168 82.3759 40.9145H82.3725ZM83.5237 41.2761C83.5237 41.2761 83.5237 41.3092 83.5237 41.3225H83.2054C82.973 41.3225 82.7906 41.1699 82.7906 40.9012C82.7906 40.6159 82.9894 40.4699 83.2151 40.4699H83.5237V41.2761Z" fill="white"/>
<path d="M83.0079 39.8528C83.114 39.8528 83.2036 39.7666 83.2036 39.6604C83.2036 39.5542 83.1173 39.468 83.0079 39.468C82.8984 39.468 82.8154 39.5542 82.8154 39.6604C82.8154 39.7666 82.9017 39.8528 83.0079 39.8528Z" fill="white"/>
<path d="M83.5308 39.8528C83.6373 39.8528 83.7232 39.7666 83.7232 39.6604C83.7232 39.5542 83.6373 39.468 83.5308 39.468C83.4247 39.468 83.3384 39.5542 83.3384 39.6604C83.3384 39.7666 83.4213 39.8528 83.5308 39.8528Z" fill="white"/>
<path d="M84.3073 40.9172C84.3073 41.3451 84.6391 41.6072 85.0505 41.6072H85.4551C85.4256 41.9024 85.2627 42.0152 84.941 42.0152H84.7023V42.2774H85.0075C85.5616 42.2774 85.8732 42.0683 85.8732 41.438V40.1906H85.1532C84.7288 40.1906 84.304 40.4195 84.304 40.9205L84.3073 40.9172ZM85.4585 41.3252H85.1368C84.9077 41.3252 84.7221 41.1759 84.7221 40.9072C84.7221 40.6219 84.9212 40.4726 85.1503 40.4726H85.4551V41.3286L85.4585 41.3252Z" fill="white"/>
<path d="M89.9574 39.9693C90.0732 39.9693 90.1696 39.8764 90.1696 39.757C90.1696 39.6376 90.0732 39.5447 89.9574 39.5447C89.8412 39.5447 89.7448 39.6408 89.7448 39.757C89.7448 39.8731 89.8378 39.9693 89.9574 39.9693Z" fill="white"/>
<path d="M93.6543 40.3672H92.7086L92.6223 40.5563V40.2445L92.2079 40.3241V41.3293H90.3999H90.1541V40.2942L89.7397 40.3772V41.3326H87.5002V40.8947C87.5002 40.407 87.2315 40.1947 86.7406 40.1947H86.3591V40.4734H86.6378C86.9397 40.4734 87.0854 40.5762 87.0854 40.8416V41.3326H86.1831V41.6146H89.7397C89.8791 41.6146 89.9949 41.5615 90.0682 41.4719L90.1675 41.6146H90.4029H94.4602V41.0738C94.4602 40.5729 94.0821 40.3772 93.661 40.3772L93.6543 40.3672ZM94.0357 41.326H92.6223V40.6459H93.6176C93.8732 40.6459 94.0357 40.7885 94.0357 41.0108V41.3227V41.326Z" fill="white"/>
<path d="M62.9966 44.0099C63.1028 44.0099 63.189 43.9237 63.189 43.8175C63.189 43.7113 63.1028 43.6218 62.9966 43.6218C62.8904 43.6218 62.8042 43.708 62.8042 43.8175C62.8042 43.9269 62.8904 44.0099 62.9966 44.0099Z" fill="white"/>
<path d="M63.513 44.0099C63.6192 44.0099 63.7054 43.9237 63.7054 43.8175C63.7054 43.7113 63.6192 43.6218 63.513 43.6218C63.4068 43.6218 63.3206 43.708 63.3206 43.8175C63.3206 43.9269 63.4035 44.0099 63.513 44.0099Z" fill="white"/>
<path d="M65.5082 44.3079H64.9774L64.7982 44.9681C64.7219 45.2699 64.639 45.4358 64.3603 45.4358H64.0485V44.2216L63.6338 44.3045V44.4007H63.1561C62.7646 44.4007 62.4694 44.6595 62.4694 45.0576C62.4694 45.4557 62.7646 45.7145 63.1561 45.7145H63.5641L63.7001 45.5088C63.7764 45.6382 63.9158 45.7145 64.0916 45.7145H64.3902C64.8646 45.7145 65.1101 45.4756 65.2229 45.0211L65.3257 44.5898H65.5181C65.7404 44.5898 65.9395 44.7425 65.9395 45.0178V45.4325H65.0504L65.2461 45.7145H66.3541V45.041C66.3541 44.5434 65.9395 44.3045 65.5115 44.3045L65.5082 44.3079ZM63.249 45.4358C63.0267 45.4358 62.8807 45.2865 62.8807 45.0609C62.8807 44.8353 63.0267 44.686 63.249 44.686H63.6305V45.2633C63.6305 45.3263 63.6404 45.3827 63.657 45.4358H63.249Z" fill="white"/>
<path d="M71.698 45.4371H70.447H69.9995C70.2083 45.2844 70.3245 45.0721 70.3245 44.8697C70.3245 44.5678 70.0622 44.2959 69.5515 44.2959C69.2761 44.2959 69.0007 44.3721 68.7818 44.4518L68.639 44.6508L68.6626 44.6674L68.639 44.674L68.7022 44.8167C68.8782 45.1153 68.9843 45.3044 69.1203 45.4371H68.231H67.1531V43.3802L66.7384 43.4631V45.301C66.7384 45.5498 66.9043 45.719 67.1561 45.719H68.231H69.0407C69.2331 45.719 69.3658 45.6593 69.5051 45.6162C69.6079 45.656 69.7174 45.719 69.8963 45.719H70.4441H72.1094V43.3802L71.6912 43.4598V45.4371H71.698ZM69.5712 45.384C69.3856 45.2678 69.2163 45.0091 69.0904 44.7935C69.0769 44.7735 69.034 44.7172 68.9973 44.6707C69.1435 44.6243 69.3224 44.5811 69.4651 44.5811C69.7275 44.5811 69.9098 44.7271 69.9098 44.9494C69.9098 45.1186 69.8037 45.301 69.5712 45.384Z" fill="white"/>
<path d="M72.6016 45.719H73.0197V43.3802L72.6016 43.4598V45.719Z" fill="white"/>
<path d="M75.6922 44.4973C75.7983 44.4973 75.8846 44.4111 75.8846 44.3049C75.8846 44.1988 75.8017 44.1125 75.6922 44.1125C75.5827 44.1125 75.4998 44.1988 75.4998 44.3049C75.4998 44.4111 75.5861 44.4973 75.6922 44.4973Z" fill="white"/>
<path d="M75.1692 44.4973C75.2753 44.4973 75.3616 44.4111 75.3616 44.3049C75.3616 44.1988 75.2753 44.1125 75.1692 44.1125C75.0631 44.1125 74.9768 44.1988 74.9768 44.3049C74.9768 44.4111 75.0631 44.4973 75.1692 44.4973Z" fill="white"/>
<path d="M76.2643 45.436H74.861C74.5692 45.436 74.4828 45.3299 74.4828 45.028V44.736L74.0681 44.819V44.945C74.0681 45.4957 74.33 45.718 74.8146 45.718H76.6824V44.4009L76.2677 44.4839V45.4393L76.2643 45.436Z" fill="white"/>
<path d="M77.1708 45.719H77.5855V43.3802L77.1708 43.4598V45.719Z" fill="white"/>
<path d="M78.0804 45.8279C78.0804 46.0933 77.9575 46.2094 77.7086 46.2492L77.8017 46.508C78.2893 46.445 78.4951 46.1796 78.4951 45.735V44.3981L78.0804 44.481V45.8279Z" fill="white"/>
<path d="M84.2959 44.0794C84.402 44.0794 84.4884 43.9931 84.4884 43.8869C84.4884 43.7808 84.402 43.6945 84.2959 43.6945C84.1898 43.6945 84.1035 43.7808 84.1035 43.8869C84.1035 43.9931 84.1898 44.0794 84.2959 44.0794Z" fill="white"/>
<path d="M84.5418 43.6383C84.6479 43.6383 84.7342 43.5521 84.7342 43.4459C84.7342 43.3398 84.6479 43.2535 84.5418 43.2535C84.4357 43.2535 84.3494 43.3398 84.3494 43.4459C84.3494 43.5521 84.4323 43.6383 84.5418 43.6383Z" fill="white"/>
<path d="M84.6223 43.8908C84.6223 43.9937 84.7053 44.0833 84.8147 44.0833C84.9242 44.0833 85.0072 43.997 85.0072 43.8908C85.0072 43.7847 84.9208 43.6984 84.8147 43.6984C84.7086 43.6984 84.6223 43.7847 84.6223 43.8908Z" fill="white"/>
<path d="M86.5506 44.0794C86.6567 44.0794 86.7464 43.9931 86.7464 43.8869C86.7464 43.7808 86.66 43.6945 86.5506 43.6945C86.4411 43.6945 86.3582 43.7808 86.3582 43.8869C86.3582 43.9931 86.4445 44.0794 86.5506 44.0794Z" fill="white"/>
<path d="M87.0732 44.0794C87.1793 44.0794 87.2656 43.9931 87.2656 43.8869C87.2656 43.7808 87.1826 43.6945 87.0732 43.6945C86.9637 43.6945 86.8807 43.7808 86.8807 43.8869C86.8807 43.9931 86.9637 44.0794 87.0732 44.0794Z" fill="white"/>
<path d="M91.0164 45.4357H90.4922C90.5056 45.3959 90.512 45.3495 90.512 45.2997V44.4935L90.0976 44.5765V45.4357H89.517V44.5002L89.0989 44.5798V45.4357H87.2644V44.4007L86.8496 44.4836V45.4391H85.0016V44.404L84.5869 44.4869V45.4423H82.6863V45.0509C82.6863 44.5533 82.2715 44.3144 81.8433 44.3144H81.3128L81.1334 44.9746C81.0572 45.2765 80.9743 45.4423 80.6955 45.4423H80.6261C80.6261 45.4423 80.6227 45.449 80.616 45.4523C80.6126 45.4523 80.616 45.4423 80.6092 45.4423H79.3456V43.3855L78.9309 43.4684V45.3063C78.9309 45.5551 79.0968 45.7244 79.3486 45.7244H80.6092C80.6092 45.7244 80.6126 45.7177 80.616 45.7144C80.6193 45.7144 80.6193 45.7244 80.6261 45.7244H80.7187C81.1966 45.7244 81.4387 45.4855 81.5515 45.031L81.6543 44.5997H81.8433C82.0656 44.5997 82.2648 44.7523 82.2648 45.0277V45.4423H81.376L81.5713 45.7244H84.5772C84.7166 45.7244 84.8324 45.6713 84.9056 45.5817L85.005 45.7244H86.8395C86.9789 45.7244 87.0951 45.6713 87.168 45.5817L87.2677 45.7244H90.0909C90.2336 45.7244 90.3494 45.6679 90.4261 45.5751L90.5288 45.7244H91.4311V44.4073L91.0164 44.4903V45.4457V45.4357Z" fill="white"/>
<path d="M93.1216 45.4371H92.5511V43.765L92.1364 43.848V45.4371H91.7351V45.719H93.5364V43.3802L93.1216 43.4598V45.4371Z" fill="white"/>
<path d="M94.0227 43.4598V45.719H94.4408V43.3802L94.0227 43.4598Z" fill="white"/>
<path d="M56.3106 34C56.3106 42.6056 49.3373 49.579 40.7317 49.579C32.1261 49.579 25.1527 42.6056 25.1527 34C25.1527 25.3945 32.1261 18.4211 40.7317 18.4211C49.3373 18.4211 56.3106 25.3945 56.3106 34ZM40.7317 19.5888C32.773 19.5888 26.3205 26.0414 26.3205 34C26.3205 41.9587 32.773 48.4112 40.7317 48.4112C48.6903 48.4112 55.1429 41.9587 55.1429 34C55.1429 26.0414 48.6903 19.5888 40.7317 19.5888Z" fill="white"/>
<path d="M40.732 23.1417C34.734 23.1417 29.8739 28.0018 29.8739 33.9999C29.8739 39.9979 34.734 44.858 40.732 44.858C46.7301 44.858 51.5902 39.9979 51.5902 33.9999C51.5902 28.0018 46.7301 23.1417 40.732 23.1417ZM40.732 44.3902C34.9928 44.3902 30.3416 39.7391 30.3416 33.9999C30.3416 28.2606 34.9928 23.6095 40.732 23.6095C46.4713 23.6095 51.1225 28.2606 51.1225 33.9999C51.1225 39.7391 46.4713 44.3902 40.732 44.3902Z" fill="white"/>
<path d="M54.0973 32.0059L52.4485 32.3144L52.3855 31.9396L54.0343 31.6277L54.1007 32.0059H54.0973Z" fill="white"/>
<path d="M54.0064 36.5409L52.3477 36.259L52.4173 35.8841L54.0728 36.1627L54.0097 36.5409H54.0064Z" fill="white"/>
<path d="M52.4744 35.5627L52.5142 35.1845L53.1213 35.2476L53.1578 34.9191C53.1876 34.6438 53.3833 34.4281 53.7251 34.4646C54.0435 34.4978 54.2625 34.7267 54.2194 35.1381C54.1729 35.5826 53.8743 35.712 53.5326 35.6755L52.4744 35.5627ZM53.6421 35.3039C53.8179 35.3238 53.944 35.2542 53.9606 35.1049C53.9739 34.9755 53.8909 34.8694 53.7018 34.8494C53.526 34.8295 53.4132 34.9125 53.3966 35.0385L53.3701 35.2741L53.6388 35.3039H53.6421Z" fill="white"/>
<path d="M53.6269 32.8715L53.6435 33.1502L54.2208 33.117L54.244 33.4985L53.6667 33.5317L53.6833 33.8004L54.2406 33.7672L54.2639 34.1454L53.4511 34.1919L53.3748 32.8848L52.5123 32.9345L52.489 32.553L54.1677 32.4568L54.1909 32.8383L53.6302 32.8715H53.6269Z" fill="white"/>
<path d="M28.9845 32.5133L27.3855 32.2712L27.4419 31.8963L28.4769 32.0522L28.5201 31.7636L28.7954 31.8067L28.7888 31.8498C28.7755 31.9361 28.7921 32.0091 28.8419 32.0721C28.8883 32.1318 28.9513 32.1783 29.0276 32.2048L28.9812 32.5167L28.9845 32.5133Z" fill="white"/>
<path d="M27.9291 32.9613C27.9756 32.8884 28.0386 32.8286 28.1215 32.7855C28.2045 32.7424 28.2974 32.7225 28.4068 32.7291C28.5362 32.7357 28.6424 32.7689 28.7253 32.8319C28.8083 32.8917 28.8647 32.968 28.9012 33.0575C28.9377 33.1471 28.9509 33.2367 28.9476 33.3329C28.9343 33.5485 28.8547 33.7011 28.7054 33.7874C28.5562 33.8736 28.3438 33.9101 28.0751 33.8969C27.7699 33.8803 27.5576 33.8139 27.4381 33.6978C27.3187 33.5817 27.2656 33.4291 27.2756 33.2433C27.2822 33.1007 27.3254 32.9846 27.405 32.895C27.4846 32.8021 27.5907 32.7457 27.7268 32.7225L27.7566 33.0807C27.6306 33.1007 27.5675 33.1604 27.5609 33.2566C27.5576 33.3462 27.5907 33.4092 27.6671 33.449C27.7434 33.4888 27.8429 33.5154 27.9656 33.522V33.5154C27.9258 33.4722 27.896 33.4225 27.8761 33.3694C27.8562 33.3163 27.8495 33.2566 27.8528 33.1935C27.8561 33.1139 27.8827 33.0376 27.9291 32.9647V32.9613ZM28.2045 33.1471C28.1547 33.1869 28.1315 33.2367 28.1282 33.2997C28.1249 33.3594 28.1448 33.4158 28.1912 33.4623C28.2377 33.5087 28.3007 33.5353 28.3803 33.5386C28.4633 33.5419 28.5296 33.5253 28.5794 33.4822C28.6291 33.4424 28.6557 33.3893 28.659 33.3263C28.6623 33.2632 28.6424 33.2101 28.5993 33.167C28.5562 33.1239 28.4931 33.0973 28.4068 33.0941C28.3239 33.0907 28.2542 33.1073 28.2078 33.1471H28.2045Z" fill="white"/>
<path d="M28.8827 34.0693L28.9457 35.2404L28.594 35.2603L27.2936 34.6698L27.2704 34.2286L28.5708 34.839L28.531 34.0892L28.8827 34.0693Z" fill="white"/>
<path d="M29.0762 36.0766L27.4772 36.3155L27.4208 35.9406L28.4558 35.7847L28.4127 35.496L28.6881 35.4562L28.6947 35.4994C28.708 35.5856 28.7445 35.652 28.8108 35.6951C28.8738 35.7382 28.9468 35.7647 29.0264 35.7681L29.0729 36.0799L29.0762 36.0766Z" fill="white"/>
<path d="M51.8306 26.6318C51.9168 26.5688 51.9401 26.4527 51.8771 26.3631C51.814 26.2768 51.6946 26.2536 51.6083 26.3167C51.5221 26.3797 51.4989 26.5024 51.5619 26.5887C51.6249 26.675 51.7443 26.6949 51.8306 26.6318Z" fill="white"/>
<path d="M52.2961 28.506L51.9677 27.8193L51.7686 27.8425L52.0108 27.6932L51.7984 27.3515L51.1117 27.7629C51.0255 27.6202 50.9392 27.4809 50.8463 27.3449L51.5098 26.8771L51.2709 26.542L50.6141 27.0065C50.5212 26.8771 50.4283 26.7477 50.3321 26.6217L50.5345 26.4558C50.8364 26.207 50.8596 25.925 50.5809 25.5833L50.3984 25.3643L50.1928 25.5468L50.3056 25.6795C50.4615 25.8686 50.4549 25.988 50.3189 26.1008L50.08 26.2999C49.9373 26.1273 49.7947 25.9582 49.6421 25.7956L49.4397 25.9814C49.7814 26.353 50.1032 26.7511 50.3952 27.1624C50.4748 27.2752 50.571 27.3416 50.6838 27.3515L50.6307 27.5174C51.052 28.1577 51.4136 28.8411 51.7056 29.5643L52.0904 29.3685C52.4752 29.1728 52.4487 28.8112 52.2928 28.5093L52.2961 28.506ZM51.961 28.9705L51.7885 29.0567C51.6458 28.7349 51.4866 28.4231 51.3174 28.1178L51.689 27.8856L52.034 28.5989C52.1169 28.7615 52.0837 28.9041 51.9577 28.9671L51.961 28.9705Z" fill="white"/>
<path d="M48.9596 23.9581L48.4354 24.6548C48.1037 25.096 47.6094 24.9964 47.2179 24.7012C46.8397 24.4159 46.5942 23.9581 46.916 23.5301L47.0454 23.3609L47.3738 23.6097L47.2179 23.8188C47.0354 24.0609 47.188 24.3329 47.4004 24.4922C47.5529 24.6083 47.7454 24.6614 47.9079 24.5785L47.7222 24.4391C47.4535 24.2367 47.3804 23.9083 47.5795 23.6462C47.8217 23.3244 48.2065 23.3841 48.4852 23.5965L48.9629 23.9581H48.9596ZM48.3127 23.8154C48.1899 23.7225 48.0273 23.7292 47.9145 23.8818C47.8084 24.0244 47.835 24.187 47.9643 24.2832L48.1136 24.396C48.1136 24.396 48.1302 24.3761 48.1335 24.3694L48.4653 23.9282L48.3127 23.8154ZM48.4785 23.2846C48.4023 23.2282 48.389 23.1188 48.4454 23.0425C48.5051 22.9662 48.6113 22.9496 48.6876 23.006C48.7639 23.0657 48.7804 23.1718 48.7207 23.2515C48.6643 23.3278 48.5548 23.3444 48.4752 23.2846H48.4785ZM48.8335 23.5534C48.7572 23.4969 48.7439 23.3875 48.8004 23.3112C48.8601 23.2349 48.9662 23.2183 49.0425 23.2747C49.1188 23.3344 49.1354 23.4406 49.0757 23.5202C49.0193 23.5965 48.9098 23.6131 48.8335 23.5534Z" fill="white"/>
<path d="M50.1305 25.0562L49.4571 25.7562C49.0822 26.1443 48.7737 26.0614 48.4485 25.7462L48.2893 25.5936L48.4685 25.4079L48.5813 25.5174C48.7471 25.6799 48.8832 25.7131 49.0491 25.5804L48.8467 25.388C48.6045 25.1524 48.5713 24.824 48.8002 24.5851C49.0789 24.2965 49.4504 24.406 49.7026 24.6481L50.1339 25.0628L50.1305 25.0562ZM49.2414 25.3846L49.6429 24.9666L49.5068 24.8339C49.3973 24.7278 49.2348 24.7145 49.1054 24.8472C48.9827 24.9766 48.9893 25.1391 49.1054 25.2519L49.2414 25.3813V25.3846Z" fill="white"/>
<path d="M35.0861 22.5314C35.1724 22.4882 35.2056 22.3821 35.1624 22.2991C35.1193 22.2129 35.0132 22.1797 34.9269 22.2228C34.8407 22.266 34.8075 22.3721 34.8539 22.4584C34.897 22.5413 35.0032 22.5778 35.0861 22.5314Z" fill="white"/>
<path d="M34.6948 22.7335C34.781 22.6903 34.8142 22.5841 34.7711 22.5012C34.7279 22.415 34.6218 22.3818 34.5355 22.4249C34.4526 22.468 34.4161 22.5742 34.4625 22.6604C34.5057 22.7434 34.6085 22.7799 34.6948 22.7335Z" fill="white"/>
<path d="M40.4497 20.6935C40.4497 20.7864 40.5293 20.8627 40.6255 20.8627C40.7217 20.8627 40.7981 20.7831 40.7981 20.6869C40.7981 20.5907 40.7184 20.5144 40.6189 20.5144C40.5227 20.5144 40.4464 20.594 40.4497 20.6935Z" fill="white"/>
<path d="M40.1807 20.8695C40.2769 20.8695 40.3532 20.7899 40.3532 20.6937C40.3532 20.5975 40.2736 20.5212 40.1773 20.5212C40.0811 20.5212 40.0048 20.6008 40.0082 20.697C40.0082 20.7932 40.0878 20.8695 40.184 20.8662L40.1807 20.8695Z" fill="white"/>
<path d="M40.3921 20.4911C40.4883 20.4911 40.5646 20.4115 40.5646 20.3153C40.5646 20.2191 40.485 20.1428 40.3855 20.1428C40.2893 20.1428 40.213 20.2224 40.2163 20.3219C40.2163 20.4148 40.2959 20.4944 40.3921 20.4911Z" fill="white"/>
<path d="M41.6259 20.8932C41.7221 20.8998 41.805 20.8268 41.8117 20.7306C41.8183 20.6344 41.7453 20.5515 41.6491 20.5449C41.5529 20.5382 41.4733 20.6112 41.4666 20.7107C41.46 20.8069 41.533 20.8866 41.6292 20.8932H41.6259Z" fill="white"/>
<path d="M41.1841 20.8665C41.2803 20.8732 41.3632 20.8002 41.3698 20.704C41.3765 20.6078 41.3035 20.5248 41.2073 20.5182C41.1111 20.5115 41.0315 20.5845 41.0248 20.6807C41.0182 20.7769 41.0912 20.8566 41.1874 20.8632L41.1841 20.8665Z" fill="white"/>
<path d="M36.2893 23.026L35.8813 22.0208L35.5595 22.1502L35.868 22.9166C35.45 23.099 35.0055 23.3345 34.7898 23.4606C34.6206 23.5568 34.5344 23.5303 34.4448 23.3611L34.322 23.1322L33.9604 23.3279L34.0401 23.4772C34.2524 23.8686 34.5211 23.8919 34.8661 23.716C35.3206 23.4573 35.795 23.2251 36.286 23.026H36.2893Z" fill="white"/>
<path d="M42.9763 22.3757C43.1156 22.4023 43.235 22.3757 43.3213 22.2961L43.3943 22.462C43.6265 22.5151 43.8521 22.5748 44.0777 22.6411L44.353 21.5928L43.9549 21.49L43.7526 22.2696C43.6398 22.2397 43.527 22.2132 43.4109 22.1866C43.4308 22.1501 43.4473 22.1037 43.4573 22.0572L43.5701 21.4999L43.1654 21.417L43.0227 22.107C42.8867 22.0805 42.7474 22.0572 42.6113 22.034L42.7076 21.3539L42.2995 21.2942L42.2 21.9743C42.0507 21.9577 41.8583 21.9378 41.7057 21.9245L41.7721 21.1184L41.364 21.0852L41.2976 21.9013C41.1284 21.8947 40.9593 21.8881 40.79 21.8881V21.0786H40.3853L40.3787 21.8947C40.2261 21.898 40.0768 21.908 39.9275 21.9179L39.8943 21.6426C39.8412 21.2378 39.4863 21.0919 39.1346 21.1383L38.6536 21.2113L38.6138 21.7487C38.5839 21.9644 38.5275 22.0971 38.355 22.1236L38.156 22.1667L37.7911 20.717L37.3929 20.8132L37.728 22.1335C37.7844 22.3724 37.9768 22.4852 38.2124 22.4354C38.282 22.4222 38.3517 22.4056 38.418 22.3923C38.6569 22.3459 38.8261 22.2464 38.9157 22.0771L39.1081 22.2762C39.5327 22.2165 39.964 22.1833 40.4019 22.17C40.538 22.17 40.6275 22.1103 40.7005 22.0241L40.8199 22.1634C40.9792 22.1634 41.1417 22.17 41.3009 22.18C41.4369 22.1866 41.5497 22.1402 41.6294 22.0572L41.719 22.2065C42.1436 22.243 42.5649 22.2994 42.9763 22.379V22.3757ZM38.9389 22.0208C38.9721 21.9411 39.0086 21.8449 39.0252 21.7454L39.0616 21.4236L39.1678 21.4103C39.3171 21.3904 39.4564 21.48 39.4796 21.6691L39.5161 21.9511C39.3237 21.971 39.1313 21.9942 38.9389 22.0241V22.0208Z" fill="white"/>
<path d="M46.324 21.5954L45.9458 21.4329L45.3718 22.8096C45.2524 22.7599 45.1296 22.7134 45.0102 22.667L45.4017 21.5158L45.0135 21.3765L44.6221 22.5276C44.5259 22.4945 44.4297 22.4613 44.3335 22.4314L44.2605 22.6968C44.7349 22.8461 45.1993 23.022 45.6472 23.2276L46.324 21.5954Z" fill="white"/>
<path d="M36.2811 21.1413L36.9081 22.7934L36.52 22.9328L35.8929 21.2807L36.2811 21.138V21.1413Z" fill="white"/>
<path d="M37.5648 22.5415C37.6676 22.8932 37.5582 23.1619 37.18 23.341L37.0141 23.1254C37.1767 23.0358 37.2529 22.9363 37.1966 22.7505L36.8748 21.6624L37.2696 21.5463L37.5648 22.5415Z" fill="white"/>
<path d="M47.0399 21.9444L46.2702 23.5335L45.902 23.3477L46.6716 21.762L47.0399 21.9477V21.9444Z" fill="white"/>
<path d="M28.5782 28.423C28.4886 28.3832 28.3857 28.423 28.3459 28.5093C28.3061 28.5955 28.3459 28.6984 28.4322 28.7382C28.5185 28.778 28.6213 28.7382 28.6611 28.6519C28.7009 28.5624 28.6611 28.4595 28.5782 28.4197V28.423Z" fill="white"/>
<path d="M28.7622 28.0186C28.6727 27.9788 28.5698 28.0186 28.53 28.1049C28.4902 28.1911 28.53 28.294 28.6163 28.3338C28.7025 28.3736 28.8054 28.3338 28.8452 28.2475C28.885 28.1579 28.8452 28.0551 28.7622 28.0153V28.0186Z" fill="white"/>
<path d="M31.1594 27.0365C31.1196 27.0133 30.9604 26.9204 30.6751 26.7379C30.3433 26.5256 29.9883 26.7014 29.7992 27.0033L29.5637 27.3749L29.9386 27.7962C30.0879 27.9554 30.1675 28.0848 30.0879 28.2407L30.0812 28.254L30.058 28.2971L29.9883 28.4298L29.1557 27.9986L28.9666 28.3635L29.1092 28.4365L28.9632 28.7218C28.8239 29.0005 28.8969 29.3123 29.1789 29.4549C29.4608 29.5976 29.7694 29.4749 29.912 29.1962L29.9286 29.163C29.9486 29.1199 29.9684 29.0734 29.9883 29.0303L30.0315 28.9341L29.9452 28.7649C30.0547 28.745 30.1443 28.6753 30.2139 28.5692C30.2438 28.5127 30.3367 28.3402 30.3367 28.3402C30.4528 28.1246 30.4727 27.9687 30.4097 27.7829L30.6917 27.7365C30.8409 27.4943 31.0002 27.2588 31.1661 27.0332L31.1594 27.0365ZM29.713 28.9938C29.6499 29.1265 29.5206 29.173 29.3879 29.1099C29.2486 29.0469 29.2021 28.9175 29.2651 28.7815L29.3646 28.5692L29.6732 28.7317C29.7196 28.7549 29.7661 28.7715 29.8092 28.7815L29.7097 28.9938H29.713ZM30.3997 27.7033L30.3798 27.7332C30.3433 27.6535 30.2604 27.5441 30.204 27.4843C30.1476 27.4246 29.9784 27.2355 29.9784 27.2355L30.0348 27.146C30.1144 27.0199 30.2736 26.9668 30.4329 27.0697L30.6983 27.2355C30.5955 27.3881 30.4959 27.5441 30.3964 27.7033H30.3997Z" fill="white"/>
<path d="M31.9549 26.0541C32.071 25.9248 32.1208 25.8053 32.1705 25.6892C32.2667 25.6594 32.3762 25.6196 32.4856 25.5034C32.7444 25.2314 33.0397 24.9892 33.3316 24.7537L32.2336 23.3703L31.9151 23.6324L32.8539 24.8167C32.6847 24.9627 32.5189 25.1153 32.3563 25.2679C32.3795 25.0722 32.3198 24.8897 32.2136 24.7868C32.0445 24.6243 31.7492 24.6276 31.4606 24.9328C31.308 25.0921 31.1985 25.2878 31.1189 25.457C31.1189 25.457 31.162 25.6527 31.1653 25.6693C31.172 25.6959 31.2217 25.7158 31.2582 25.7257C31.298 25.7356 31.6762 25.8053 31.8155 25.8186C31.6364 26.0143 31.4639 26.2134 31.298 26.4191H31.2947L30.1203 25.4769L29.8682 25.802L30.9198 26.6513C31.1122 26.8039 31.3445 26.7807 31.4937 26.5883C31.6397 26.4058 31.7923 26.2267 31.9515 26.0541H31.9549ZM31.4373 25.4271C31.4838 25.3409 31.5402 25.2447 31.5999 25.1816C31.7226 25.0523 31.8752 25.0257 31.988 25.1352C32.0677 25.2115 32.1042 25.3343 32.0577 25.4769C31.8985 25.4935 31.4904 25.4338 31.4373 25.4271Z" fill="white"/>
<path d="M32.8505 22.9133L33.8724 24.3531L33.5406 24.5986L32.5188 23.1588L32.8505 22.9166V22.9133Z" fill="white"/>
<path d="M30.0285 39.3851C29.9788 39.5111 29.8726 39.6074 29.7133 39.6804C29.5541 39.7533 29.4114 39.7666 29.2854 39.7201C29.1593 39.677 29.0598 39.5775 28.9901 39.4282L28.8441 39.1097L28.3532 39.332L28.2006 38.9936L29.7034 38.3135L30.002 38.9737C30.0716 39.1263 30.0783 39.2623 30.0285 39.3884V39.3851ZM29.2688 39.2292C29.2987 39.2922 29.3385 39.332 29.3882 39.3519C29.438 39.3685 29.4944 39.3652 29.5574 39.3353C29.6204 39.3055 29.6603 39.269 29.6802 39.2192C29.7001 39.1695 29.6967 39.1131 29.6669 39.05L29.5508 38.7913L29.1527 38.9737L29.2688 39.2325V39.2292Z" fill="white"/>
<path d="M29.7469 41.3762C29.6374 41.3762 29.5346 41.3497 29.4417 41.2933C29.3488 41.2336 29.2692 41.1506 29.2061 41.0411C29.1033 40.8753 29.0701 40.7127 29.1 40.5535C29.1298 40.3942 29.236 40.2615 29.4152 40.1521L30.3042 39.608L30.5 39.9265L29.6474 40.4473C29.4549 40.5634 29.4085 40.7027 29.5047 40.8587C29.6009 41.0179 29.7469 41.0378 29.936 40.9217L30.7886 40.4009L30.9843 40.7193L30.0952 41.2634C29.9758 41.3364 29.8597 41.3762 29.7469 41.3795V41.3762Z" fill="white"/>
<path d="M31.7388 41.8766C31.7288 41.9894 31.6691 42.0888 31.5663 42.1718C31.5066 42.2216 31.4435 42.2481 31.3838 42.2581C31.3208 42.268 31.2611 42.2581 31.2013 42.2348L31.1947 42.2415C31.2113 42.3178 31.208 42.3908 31.1848 42.4604C31.1616 42.5334 31.1118 42.5965 31.0388 42.6562C30.9194 42.7524 30.7966 42.7988 30.6805 42.7855C30.5611 42.7756 30.4549 42.7126 30.3621 42.5964L29.8379 41.9462L31.1217 40.9145L31.626 41.5415C31.7156 41.651 31.7521 41.7638 31.7421 41.8766H31.7388ZM30.5578 42.3211C30.5943 42.3675 30.6341 42.3907 30.6805 42.3941C30.7236 42.3974 30.7701 42.3808 30.8132 42.3476C30.8597 42.3111 30.8829 42.2713 30.8895 42.2249C30.8962 42.1784 30.8796 42.1353 30.8431 42.0888L30.6109 41.7969L30.3256 42.0259L30.5578 42.3178V42.3211ZM31.0521 41.8931C31.0853 41.9363 31.125 41.9595 31.1649 41.9628C31.2047 41.9661 31.2478 41.9528 31.2909 41.9163C31.3341 41.8832 31.3573 41.8434 31.3606 41.8036C31.3672 41.7604 31.3506 41.7206 31.3175 41.6775L31.0985 41.4055L30.8298 41.6211L31.0488 41.8931H31.0521Z" fill="white"/>
<path d="M30.9266 43.2532L32.0778 42.0755L32.3432 42.3376L31.4442 43.2565L31.9783 43.7807L31.7261 44.0395L30.9266 43.2565V43.2532Z" fill="white"/>
<path d="M31.9357 44.2052L32.9939 42.9412L33.2792 43.18L32.221 44.444L31.9357 44.2052Z" fill="white"/>
<path d="M33.7397 45.2174C33.6369 45.2605 33.5274 45.2771 33.4113 45.2672C33.2985 45.2572 33.189 45.2141 33.0829 45.1411C32.9635 45.0582 32.8772 44.9553 32.8208 44.8359C32.7644 44.7164 32.7478 44.5838 32.7677 44.4378C32.7876 44.2951 32.8473 44.1491 32.9502 43.9999C33.053 43.8539 33.1658 43.7444 33.2952 43.6747C33.4246 43.6051 33.554 43.5752 33.6867 43.5852C33.8194 43.5951 33.9454 43.6416 34.0649 43.7245C34.1677 43.7975 34.244 43.8838 34.2971 43.9833C34.3468 44.0828 34.3734 44.189 34.3734 44.2951C34.3734 44.4013 34.3502 44.5041 34.3071 44.597L33.9687 44.4312C34.0018 44.3548 34.0118 44.2752 33.9952 44.1989C33.9786 44.1226 33.9355 44.0596 33.8658 44.0098C33.8127 43.9733 33.7497 43.9534 33.6833 43.9501C33.6137 43.9501 33.544 43.97 33.471 44.0131C33.398 44.0563 33.3284 44.1259 33.2653 44.2188C33.199 44.3117 33.1592 44.4013 33.1459 44.4842C33.1293 44.5672 33.136 44.6401 33.1625 44.7065C33.189 44.7695 33.2289 44.8193 33.2819 44.8558C33.3549 44.9056 33.4279 44.9222 33.5075 44.9056C33.5871 44.889 33.6601 44.8458 33.7298 44.7728L34.0184 45.0183C33.9355 45.1046 33.8426 45.171 33.7397 45.2174Z" fill="white"/>
<path d="M34.4349 45.9145L35.188 44.4482L35.5197 44.6174L34.7667 46.0837L34.4349 45.9145Z" fill="white"/>
<path d="M36.3605 46.766L35.9724 46.6101L35.8563 45.4091H35.8496L35.4515 46.4044L35.1364 46.2783L35.7468 44.749L36.1416 44.9082L36.2577 46.0859H36.2643L36.6524 45.1139L36.9676 45.24L36.3572 46.7693L36.3605 46.766Z" fill="white"/>
<path d="M38.5315 45.6457L37.6358 47.1187L37.1979 47.0059L37.115 45.2841L37.5031 45.3837L37.5264 46.631H37.533L38.1467 45.5495L38.5315 45.6457Z" fill="white"/>
<path d="M38.9833 46.3492L39.6767 46.4354L39.6369 46.7572L38.9435 46.6676L38.9004 47.0027L39.6302 47.0956L39.5871 47.4406L38.489 47.3013L38.698 45.6658L39.7961 45.8051L39.753 46.1368L39.0231 46.044L38.9833 46.3492Z" fill="white"/>
<path d="M40.7172 46.1667C40.6741 46.1268 40.6144 46.107 40.5413 46.107C40.475 46.107 40.4252 46.1202 40.3854 46.1501C40.3456 46.1799 40.3257 46.2164 40.3257 46.2629C40.3257 46.3027 40.339 46.3325 40.3688 46.3558C40.3987 46.379 40.4419 46.3955 40.5016 46.4121L40.7271 46.4818C40.8267 46.5117 40.9096 46.5448 40.9693 46.5747C41.029 46.6046 41.0821 46.6576 41.1252 46.7273C41.1684 46.797 41.1883 46.8932 41.185 47.0126C41.185 47.1818 41.1219 47.3112 41.0025 47.3941C40.8831 47.4771 40.7371 47.5168 40.5546 47.5136C40.3722 47.5136 40.2229 47.4605 40.1035 47.3643C39.984 47.268 39.9177 47.132 39.9044 46.9562L40.2726 46.9197C40.2793 47.0093 40.3091 47.079 40.3622 47.1254C40.4153 47.1718 40.4816 47.1951 40.5646 47.1951C40.6342 47.1951 40.6907 47.1818 40.7338 47.152C40.7769 47.1221 40.8001 47.0823 40.8001 47.0259C40.8001 46.9761 40.7869 46.9363 40.7537 46.9131C40.7205 46.8899 40.6674 46.8633 40.5878 46.8401L40.3821 46.7738C40.2925 46.7439 40.2163 46.714 40.1565 46.6842C40.0968 46.6543 40.0504 46.6046 40.0106 46.5415C39.9707 46.4785 39.9541 46.3923 39.9541 46.2861C39.9541 46.1235 40.0139 46.0008 40.1234 45.9145C40.2361 45.8283 40.3788 45.7885 40.5546 45.7918C40.7172 45.7918 40.8499 45.8415 40.956 45.9311C41.0622 46.0207 41.1252 46.1467 41.1451 46.3126L40.7869 46.3358C40.7802 46.2662 40.7537 46.2098 40.7106 46.17L40.7172 46.1667Z" fill="white"/>
<path d="M42.5487 46.073L42.0942 46.1161L42.217 47.3967L41.8454 47.4332L41.7226 46.1526L41.2682 46.1958L41.235 45.8342L42.5122 45.7114L42.5454 46.073H42.5487Z" fill="white"/>
<path d="M44.1845 45.3436L44.5594 46.9493L44.221 47.0289L43.9589 45.9042H43.9523L43.9291 47.0952L43.6736 47.1549L43.1262 46.0967H43.1196L43.3817 47.2212L43.05 47.2976L42.675 45.6919L43.2092 45.5692L43.6537 46.4881H43.6604L43.6537 45.4663L44.1845 45.3436Z" fill="white"/>
<path d="M45.0055 45.7217L45.659 45.4729L45.7751 45.7748L45.1216 46.0236L45.241 46.3388L45.9277 46.0767L46.0505 46.4018L45.0154 46.7966L44.4282 45.2573L45.4633 44.8625L45.5827 45.1744L44.896 45.4364L45.0055 45.7217Z" fill="white"/>
<path d="M47.6272 45.6024L47.259 45.7981L46.2671 45.1081H46.2604L46.7647 46.0602L46.4661 46.2194L45.6931 44.763L46.068 44.564L47.0433 45.2375H47.05L46.559 44.3052L46.8576 44.146L47.6305 45.6024H47.6272Z" fill="white"/>
<path d="M48.263 43.6148L47.8914 43.8768L48.6312 44.9285L48.326 45.1441L47.5862 44.0925L47.2146 44.3546L47.0056 44.0593L48.0573 43.3228L48.2662 43.6181L48.263 43.6148Z" fill="white"/>
<path d="M49.0287 42.9019L49.2775 43.1607L49.7817 42.6763L50.004 42.9085L49.4998 43.3929L49.9376 43.8507L49.6689 44.1095L48.5277 42.9185L49.3272 42.1522L49.5595 42.3943L49.0287 42.9019Z" fill="white"/>
<path d="M51.3181 41.9597C51.3579 42.0626 51.3645 42.1687 51.3379 42.2749C51.3114 42.3811 51.2584 42.4839 51.1787 42.5801C51.056 42.7294 50.9133 42.8156 50.7541 42.8389C50.5948 42.8621 50.4323 42.8057 50.2697 42.673L49.4669 42.0128L49.7025 41.7242L50.4754 42.3578C50.6479 42.5005 50.7939 42.5005 50.91 42.3578C51.0294 42.2152 50.9996 42.0725 50.8271 41.9299L50.0541 41.2962L50.2897 41.0076L51.0925 41.6678C51.2019 41.7574 51.2749 41.8536 51.3147 41.9597H51.3181Z" fill="white"/>
<path d="M52.5242 40.5662L52.3019 40.9212L51.0976 40.8217V40.8283L52.0033 41.3956L51.8242 41.6842L50.4275 40.8117L50.6531 40.4501L51.8341 40.543V40.5363L50.9484 39.979L51.1275 39.6904L52.5242 40.5629V40.5662Z" fill="white"/>
<path d="M51.9158 38.4859C52.095 38.4229 52.3107 38.4462 52.5628 38.5623C52.8149 38.6751 52.9775 38.821 53.0471 38.9968C53.1168 39.1727 53.1068 39.3651 53.0139 39.5708L52.7485 40.1613L51.2457 39.4845L51.5111 38.894C51.604 38.6883 51.74 38.5523 51.9192 38.4893L51.9158 38.4859ZM52.6822 39.4845C52.7386 39.3584 52.7485 39.249 52.7087 39.1561C52.6723 39.0632 52.5694 38.9803 52.4069 38.904C52.2443 38.831 52.1116 38.8078 52.0187 38.8409C51.9225 38.8741 51.8462 38.9537 51.7898 39.0798L51.7002 39.2755L52.5926 39.6769L52.6822 39.4812V39.4845Z" fill="white"/>
<path fill-rule="evenodd" clip-rule="evenodd" d="M49.9484 34.1104V34.0905C46.5645 33.6194 43.4826 34.7872 40.7291 37.2653C37.9755 34.7872 34.8936 33.6194 31.5098 34.0905V34.1104C35.0396 34.263 37.9954 36.0876 40.3608 38.307C40.8253 38.7416 41.5518 39.4747 41.9034 39.9027L41.7243 40.0553C41.5651 40.188 41.5452 40.4269 41.6812 40.5861C41.8139 40.7453 42.0528 40.7653 42.212 40.6293L42.3912 40.4766C42.5072 40.6193 42.6134 40.752 42.6599 40.8117C42.6599 40.8117 43.0347 41.3724 43.4162 41.9098C44.3518 43.2202 45.556 42.7126 45.6688 42.0624C45.7849 41.3823 45.1645 41.097 44.6603 41.1733C44.6603 41.1733 44.5608 41.1733 44.448 41.1401C44.0864 40.9909 43.5125 40.3373 43.1243 39.8596L43.476 39.561C43.6352 39.4283 43.6551 39.1894 43.5191 39.0302C43.3864 38.871 43.1475 38.8511 42.9883 38.9871L42.6532 39.2724C42.265 38.808 41.8703 38.3733 41.4656 37.9686C43.5058 36.144 46.4186 34.2696 49.9484 34.117V34.1104Z" fill="white"/>
<path d="M42.581 27.3622L44.681 27.5646C44.4753 26.7651 43.563 26.4466 42.6407 26.5627C42.9194 26.284 43.6492 26.0817 44.3061 26.1281C43.6857 25.4314 42.9028 25.4049 41.9573 25.8295L42.7867 24.9902C42.1099 24.7182 41.4398 25.093 41.1146 25.5608C41.1146 25.3485 40.9223 24.4495 40.7298 24.2969C40.5374 24.4495 40.345 25.3485 40.345 25.5608C40.0199 25.0898 39.3498 24.7149 38.673 24.9902L39.5024 25.8295C38.5569 25.4049 37.7773 25.4348 37.1536 26.1281C37.8104 26.0817 38.5403 26.284 38.819 26.5627C37.8967 26.4466 36.9844 26.7684 36.7787 27.5646L38.8787 27.3622C38.0991 27.5978 37.4522 27.8167 37.2266 29.1603L39.3763 28.0556C38.7261 28.5101 38.4375 29.8769 38.9151 30.4309C39.0777 30.0726 39.8773 28.6959 40.2024 28.4205C40.4545 30.4077 40.2786 33.6389 40.1393 34.3024L39.9569 34.5479C39.5521 34.5579 38.8123 34.5844 38.3976 34.6607C38.6564 34.8067 38.9152 34.9659 39.1607 35.1252C39.9834 35.029 41.0583 35.0124 41.5459 35.2147C40.9587 35.2081 40.282 35.3309 39.6815 35.4768C40.0199 35.7157 40.292 35.9247 40.4346 36.0408C40.5175 36.1071 40.6237 36.137 40.7232 36.137C40.8227 36.137 40.9289 36.1071 41.0118 36.0408C41.3104 35.7986 42.1896 35.1318 43.0488 34.664C42.6341 34.5844 41.8943 34.5546 41.4895 34.5479L41.3071 34.3024C41.1677 33.6389 40.9919 30.411 41.244 28.4205C41.5692 28.6992 42.3687 30.0726 42.5312 30.4309C43.009 29.8769 42.7203 28.5101 42.0701 28.0556L44.2199 29.1603C43.9943 27.8167 43.3473 27.5978 42.5677 27.3622H42.581Z" fill="white"/>
<path fill-rule="evenodd" clip-rule="evenodd" d="M39.5548 39.9022C39.7439 39.67 40.0491 39.3449 40.361 39.0264C40.2316 38.9004 40.1088 38.7809 40.0027 38.6814C39.8799 38.5653 39.7539 38.4492 39.6245 38.3364C39.3458 38.6316 39.0705 38.9435 38.8018 39.2653L38.4667 38.98C38.3075 38.8473 38.0719 38.8672 37.9359 39.0231C37.8032 39.1823 37.8231 39.4179 37.979 39.5539L38.3307 39.8525C37.9392 40.3335 37.3653 40.9837 37.007 41.133C36.8942 41.1695 36.798 41.1662 36.7947 41.1662C36.2904 41.0899 35.67 41.3752 35.7862 42.0553C35.899 42.7088 37.1032 43.2131 38.0387 41.9027C38.4202 41.3652 38.7951 40.8046 38.7951 40.8046C38.8416 40.7449 38.9477 40.6122 39.0638 40.4695L39.243 40.6221C39.4022 40.7548 39.6378 40.7349 39.7738 40.579C39.9065 40.4198 39.8866 40.1842 39.7307 40.0482L39.5515 39.8956L39.5548 39.9022Z" fill="white"/>
</svg>
