<svg width="120" height="68" viewBox="0 0 120 68" fill="none" xmlns="http://www.w3.org/2000/svg">
<g clip-path="url(#clip0_205_444)">
<path d="M56.1802 43.7115H51.1742L54.3053 24.351H59.3111L56.1802 43.7115Z" fill="white"/>
<path d="M74.3275 24.8243C73.3401 24.4325 71.774 24 69.8375 24C64.8939 24 61.4126 26.6362 61.3913 30.4051C61.3502 33.1859 63.8837 34.7304 65.7786 35.6575C67.7154 36.605 68.3738 37.2234 68.3738 38.0679C68.354 39.3649 66.8087 39.9628 65.3675 39.9628C63.3688 39.9628 62.2979 39.6545 60.6705 38.9329L60.0113 38.6236L59.3108 42.9696C60.4849 43.5045 62.648 43.9792 64.8939 44C70.1465 44 73.5662 41.4046 73.6067 37.3882C73.6267 35.1842 72.2889 33.4955 69.4047 32.1155C67.6538 31.2297 66.5815 30.6324 66.5815 29.726C66.6021 28.902 67.4885 28.058 69.4649 28.058C71.0923 28.0167 72.2881 28.4079 73.1939 28.7993L73.6467 29.0049L74.3275 24.8243Z" fill="white"/>
<path d="M80.9809 36.8527C81.3931 35.7405 82.9795 31.4358 82.9795 31.4358C82.9587 31.4772 83.3909 30.303 83.6381 29.5823L83.988 31.2505C83.988 31.2505 84.936 35.8848 85.1418 36.8527C84.3595 36.8527 81.9696 36.8527 80.9809 36.8527ZM87.1602 24.351H83.288C82.0939 24.351 81.1867 24.7008 80.6715 25.9573L73.2357 43.7112H78.4884C78.4884 43.7112 79.3532 41.3217 79.539 40.807C80.1153 40.807 85.225 40.807 85.9664 40.807C86.1101 41.4867 86.5637 43.7112 86.5637 43.7112H91.1988L87.1602 24.351Z" fill="white"/>
<path d="M46.993 24.351L42.0904 37.553L41.5547 34.8755C40.6483 31.7859 37.8057 28.4292 34.6335 26.7602L39.1241 43.691H44.4178L52.2864 24.351H46.993Z" fill="white"/>
<path d="M37.538 24.351H29.4838L29.4014 24.7421C35.6841 26.3488 39.8451 30.2215 41.5547 34.8763L39.8038 25.9784C39.5155 24.7419 38.6297 24.3917 37.538 24.351Z" fill="white"/>
</g>
<defs>
<clipPath id="clip0_205_444">
<rect width="61.7974" height="20" fill="white" transform="translate(29.4014 24)"/>
</clipPath>
</defs>
</svg>
