<svg width="119" height="68" viewBox="0 0 119 68" fill="none" xmlns="http://www.w3.org/2000/svg">
<path d="M81.643 33.9383C81.4291 33.7991 81.1875 33.6688 80.9357 33.5688L80.9306 33.5663C80.9306 33.5663 80.9193 33.5688 80.9142 33.5701C80.9003 33.5726 80.8864 33.5752 80.8724 33.5789C80.8332 33.5878 80.794 33.5967 80.756 33.6068C80.7231 33.6156 80.6915 33.6245 80.6586 33.6346C80.6219 33.646 80.5865 33.6587 80.5511 33.6713C80.5093 33.6865 80.4676 33.7029 80.4271 33.7194C80.3815 33.7384 80.3372 33.7586 80.293 33.7789C80.2639 33.7928 80.2335 33.808 80.2044 33.8231C80.1664 33.8434 80.1297 33.8636 80.093 33.8839C80.0576 33.9041 80.0222 33.9256 79.9868 33.9484C79.9437 33.975 79.902 34.0028 79.8615 34.0306C79.8349 34.0496 79.8084 34.0673 79.7831 34.0863C79.7451 34.1141 79.7071 34.1432 79.6705 34.1723C79.63 34.204 79.5907 34.2369 79.5528 34.2698C79.5287 34.2913 79.5047 34.3115 79.4807 34.333C79.4541 34.3571 79.4288 34.3798 79.4035 34.4039C79.3757 34.4305 79.3478 34.457 79.3213 34.4836C79.2972 34.5076 79.2732 34.5317 79.2504 34.5545C79.2048 34.6013 79.1618 34.6481 79.1213 34.6936C79.0897 34.7291 79.0593 34.7645 79.0315 34.7974C78.9771 34.8632 78.9278 34.9252 78.886 34.9808C78.8607 35.0137 78.8379 35.0454 78.8177 35.0745C78.7848 35.12 78.7582 35.1592 78.738 35.1896C78.7063 35.2377 78.6886 35.2655 78.6874 35.2693C78.6772 35.287 78.6659 35.3047 78.6557 35.3212C78.6304 35.3617 78.6064 35.4034 78.5811 35.4439C78.5672 35.4654 78.5545 35.4882 78.5406 35.5097C78.514 35.5527 78.4875 35.5957 78.4622 35.64C78.447 35.6653 78.4318 35.6906 78.4166 35.7172C78.4002 35.745 78.3837 35.7729 78.3685 35.8007C78.3584 35.8197 78.347 35.8387 78.3369 35.8577C78.328 35.8728 78.3204 35.8893 78.3116 35.9057C78.3078 35.9133 78.3027 35.9222 78.2989 35.9298L78.2939 35.9399L78.2875 35.9538C78.6836 36.112 79.0454 36.3739 79.2415 36.6244C79.3858 36.8091 79.5123 37.0103 79.6705 37.1824C79.7565 37.2747 79.7919 37.3747 79.8349 37.486C79.9349 37.7441 79.8425 38.0162 79.8957 38.2781C79.9146 38.3704 79.9235 38.4628 79.926 38.5552C80.0045 38.5944 80.0564 38.7045 79.9804 38.793C80.0323 38.8968 80.1816 39.8027 80.2892 40.2531L80.293 40.2468C80.298 40.2367 80.3043 40.2253 80.3094 40.2152L80.3233 40.1886C80.3284 40.1785 80.3334 40.1696 80.3385 40.1595C80.3537 40.1304 80.3689 40.1 80.3841 40.0696C80.4106 40.0165 80.4372 39.9634 80.4638 39.909C80.4827 39.8697 80.5017 39.8305 80.5207 39.79C80.5536 39.7204 80.5865 39.6496 80.6181 39.5775C80.6409 39.5269 80.6637 39.475 80.6864 39.4218C80.7118 39.3636 80.7371 39.3042 80.7624 39.2434C80.7915 39.1726 80.8218 39.1005 80.8509 39.0271C80.8699 38.9803 80.8889 38.9322 80.9079 38.8841C80.9509 38.774 80.9926 38.664 81.0319 38.5539C81.0357 38.5425 81.0407 38.5298 81.0445 38.5172C81.0508 38.4982 81.0584 38.4792 81.0648 38.4603C81.1078 38.3401 81.1495 38.2186 81.1913 38.0959L81.2039 38.0579C81.2368 37.9592 81.2685 37.8593 81.3001 37.7593C81.3064 37.7391 81.3127 37.7201 81.3191 37.6998C81.3254 37.6809 81.3305 37.6632 81.3368 37.6442C81.3785 37.5088 81.419 37.3721 81.457 37.2368C81.462 37.2191 81.4671 37.2013 81.4722 37.1836C81.4785 37.1596 81.4861 37.1355 81.4924 37.1115C81.4987 37.0887 81.5051 37.066 81.5114 37.0432C81.538 36.9483 81.5633 36.8521 81.5886 36.756C81.5936 36.737 81.5987 36.7168 81.6037 36.6978C81.6088 36.6788 81.6139 36.6586 81.6189 36.6396C81.6227 36.6231 81.6278 36.6067 81.6316 36.5902C81.6379 36.5649 81.6442 36.5396 81.6506 36.5156C81.6809 36.3929 81.7113 36.2676 81.7404 36.1436C81.7606 36.0563 81.7809 35.969 81.7999 35.8804C81.8049 35.8589 81.81 35.8361 81.815 35.8134C81.8492 35.6552 81.8846 35.4895 81.9188 35.3161C81.9251 35.282 81.9327 35.2478 81.939 35.2124C81.9428 35.1921 81.9466 35.1719 81.9504 35.1516C81.958 35.1124 81.9656 35.0732 81.9732 35.034C81.996 34.9113 82.0188 34.7885 82.0403 34.6671C82.0453 34.6354 82.0516 34.6038 82.0567 34.5722C82.0643 34.5317 82.0706 34.4899 82.0782 34.4494C82.0807 34.4317 82.0845 34.414 82.0871 34.395L82.0896 34.3798V34.3723C81.9783 34.2027 81.8315 34.0547 81.6455 33.9332L81.643 33.9383ZM70.9668 40.057C70.9631 40.0216 70.9593 39.9836 70.9542 39.9469C70.9491 39.9014 70.9441 39.8546 70.939 39.8065C70.9339 39.7584 70.9289 39.7103 70.9226 39.661C70.9188 39.6319 70.9162 39.6015 70.9124 39.5711C70.9086 39.5294 70.9036 39.4889 70.8998 39.4459C70.896 39.4105 70.8922 39.3738 70.8884 39.3371C70.8859 39.3118 70.8833 39.2852 70.8808 39.2599C70.877 39.2181 70.872 39.1751 70.8682 39.1321C70.8644 39.1005 70.8618 39.0688 70.858 39.0359C70.8542 38.9967 70.8504 38.9562 70.8454 38.917C70.8416 38.8841 70.8391 38.85 70.8353 38.8158C70.8327 38.7918 70.8302 38.769 70.8277 38.7449C70.8239 38.707 70.8201 38.669 70.8163 38.6311C70.8125 38.5944 70.8087 38.5577 70.8049 38.5223C70.8024 38.497 70.7998 38.4729 70.7973 38.4476C70.7935 38.4134 70.791 38.3793 70.7872 38.3451C70.7834 38.3021 70.7783 38.2591 70.7745 38.2161C70.772 38.192 70.7695 38.1693 70.7682 38.1452C70.7644 38.1085 70.7606 38.0718 70.7581 38.0351C70.7556 38.0086 70.753 37.982 70.7505 37.9554C70.748 37.9327 70.7467 37.9099 70.7442 37.8884C70.7416 37.8656 70.7404 37.8428 70.7378 37.82C70.7353 37.7922 70.7328 37.7631 70.7302 37.7353C70.7277 37.7074 70.7252 37.6809 70.7227 37.653C70.7214 37.6341 70.7189 37.6138 70.7176 37.5948C70.7138 37.5556 70.71 37.5164 70.7075 37.4772C70.7037 37.4291 70.6986 37.381 70.6948 37.3342C70.6898 37.2697 70.6834 37.2064 70.6784 37.1444C70.6758 37.1166 70.6733 37.0887 70.672 37.0609C70.6695 37.028 70.667 36.9964 70.6645 36.966C70.6594 36.9091 70.6556 36.8547 70.6518 36.8015C70.6455 36.7218 70.6404 36.6472 70.6366 36.5801C70.6354 36.551 70.6328 36.5232 70.6316 36.4966C70.6278 36.4384 70.6265 36.3878 70.624 36.3435C70.6214 36.26 70.6227 36.2043 70.6278 36.1841C70.6341 36.1562 70.6391 36.1246 70.6429 36.0879C70.6467 36.0474 70.648 36.0032 70.6467 35.9551C70.6467 35.8905 70.6417 35.8184 70.6366 35.745C70.6316 35.6805 70.6252 35.6135 70.6164 35.5477C70.6126 35.5097 70.6075 35.4718 70.6025 35.4338C70.5987 35.406 70.5949 35.3794 70.5911 35.3528C70.5847 35.3085 70.5784 35.2643 70.5721 35.2238C70.5683 35.201 70.5658 35.1795 70.562 35.158C70.5569 35.1251 70.5518 35.0934 70.5481 35.0643C70.5392 35.0074 70.5329 34.9593 70.5278 34.9226C70.5253 34.9087 70.524 34.8961 70.5227 34.8847C70.5215 34.8708 70.5202 34.8594 70.5202 34.853C70.4 35.3237 70.3481 37.2671 70.1735 37.7429C70.0116 38.1844 70.042 38.4033 69.8699 38.8411C69.8509 38.8892 69.9534 39.5446 69.6004 40.5024C69.4296 41.345 69.2284 41.8777 68.9399 42.3281H68.9437L68.9501 42.3319C68.9501 42.3319 68.9602 42.3357 68.9652 42.337C68.9703 42.3382 68.9753 42.3395 68.9804 42.342C68.9855 42.3433 68.9893 42.3446 68.9943 42.3458C69.0032 42.3484 69.012 42.3509 69.0209 42.3521C69.0285 42.3534 69.0348 42.3547 69.0424 42.3559C69.05 42.3572 69.0576 42.3585 69.0652 42.3597C69.0715 42.3597 69.0778 42.361 69.0854 42.3623C69.093 42.3623 69.1006 42.3623 69.1082 42.3635C69.1209 42.3635 69.1335 42.3635 69.1462 42.3635C69.1538 42.3635 69.1601 42.3635 69.1677 42.3635C69.1803 42.3635 69.193 42.3623 69.2056 42.361C69.2158 42.361 69.2271 42.3585 69.2373 42.3572C69.2474 42.3559 69.2588 42.3534 69.2702 42.3509C69.2765 42.3509 69.2815 42.3484 69.2879 42.3471C69.3031 42.3433 69.317 42.3408 69.3334 42.3357C69.3397 42.3344 69.3461 42.3319 69.3511 42.3306C69.3587 42.3281 69.3676 42.3256 69.3752 42.323C69.3828 42.3205 69.3904 42.318 69.3979 42.3155C69.4055 42.3129 69.4119 42.3104 69.4195 42.3079C69.4245 42.3066 69.4296 42.3041 69.4346 42.3028C69.4397 42.3015 69.4448 42.299 69.4498 42.2965C69.4574 42.2939 69.4637 42.2914 69.4713 42.2876C69.4764 42.2851 69.4814 42.2838 69.4865 42.2813C69.4928 42.2788 69.4992 42.2762 69.5055 42.2737L69.5156 42.2686L69.5245 42.2648H69.5283V42.2623C69.6143 42.1687 69.6965 42.0649 69.775 41.9485C70.4025 41.0249 70.3646 41.2919 70.9808 40.1861C70.9795 40.1747 70.9782 40.1633 70.977 40.1519C70.9732 40.1203 70.9694 40.0874 70.9656 40.0545L70.9668 40.057ZM62.0406 32.7983C61.6331 32.5326 61.1928 32.3694 60.7007 32.3226C60.6146 32.315 60.1971 32.2783 60.1111 32.2669C60.0908 32.2884 60.0706 32.3099 60.0491 32.3314C60.0275 32.3542 60.006 32.377 59.9845 32.3997C59.9529 32.4339 59.92 32.4681 59.8884 32.5035C59.8707 32.5237 59.8517 32.544 59.834 32.563C59.8074 32.5921 59.7808 32.6224 59.7543 32.6515C59.7226 32.687 59.691 32.7236 59.6594 32.7591C59.6277 32.7945 59.5974 32.8312 59.5657 32.8666C59.529 32.9096 59.4923 32.9527 59.4557 32.9969C59.4316 33.0248 59.4088 33.0539 59.3848 33.0817C59.3557 33.1159 59.3279 33.15 59.3 33.1855C59.2684 33.2234 59.238 33.2614 59.2077 33.2993C59.1748 33.3398 59.1431 33.3803 59.1102 33.4208C59.0786 33.4613 59.047 33.5005 59.0154 33.541C58.9875 33.5764 58.9609 33.6118 58.9331 33.6473C58.9091 33.6776 58.885 33.7093 58.8623 33.7409C58.8192 33.7966 58.7762 33.8535 58.7345 33.9092C58.7104 33.9421 58.6864 33.9737 58.6623 34.0066C58.6244 34.0585 58.5864 34.1091 58.5485 34.161C58.4991 34.2268 58.4511 34.2938 58.403 34.3596C58.3713 34.4039 58.3397 34.4469 58.3081 34.4912C58.2777 34.5329 58.2486 34.5734 58.2183 34.6152C58.2081 34.6291 58.198 34.6443 58.1879 34.6582C58.1828 34.6658 58.1778 34.6734 58.1727 34.6797C58.7459 34.748 59.362 35.1276 59.6417 35.4857C59.7859 35.6704 59.9124 35.8716 60.0706 36.0436C60.1566 36.136 60.192 36.236 60.2351 36.3473C60.335 36.6054 60.2426 36.8774 60.2945 37.1393C60.3135 37.2317 60.3223 37.3241 60.3249 37.4164C60.4033 37.4557 60.4552 37.5657 60.3793 37.6543C60.4501 37.7947 60.5273 37.8479 60.6121 37.815C60.6576 37.7821 60.7032 37.7492 60.75 37.7176C60.8069 37.6796 60.8626 37.6404 60.917 37.5999C61.0246 37.5227 61.1283 37.443 61.2384 37.3696C61.6648 37.0849 62.1177 36.8445 62.558 36.5814C62.5618 36.5712 62.5682 36.5624 62.5732 36.5523C62.5669 36.4068 62.577 36.26 62.6011 36.112C62.6694 35.7033 62.7048 35.2908 62.787 34.8847C62.863 34.5076 62.8174 34.142 62.7288 33.7902C62.6276 33.3866 62.4138 33.0374 62.0431 32.7958L62.0406 32.7983ZM65.42 40.6441C65.4162 40.6112 65.4124 40.5757 65.4074 40.5378C65.3972 40.4454 65.3846 40.3417 65.3719 40.2291C65.3593 40.1165 65.3441 39.9937 65.3302 39.8647C65.3175 39.7584 65.3049 39.6471 65.2922 39.5332C65.2846 39.4636 65.2758 39.3915 65.2682 39.3194C65.2555 39.2068 65.2416 39.0904 65.229 38.9739C65.2201 38.8955 65.2113 38.8158 65.2024 38.7361C65.191 38.6387 65.1809 38.5412 65.1708 38.4438C65.1581 38.3236 65.1442 38.2034 65.1328 38.0845C65.1164 37.9276 65.0999 37.7745 65.086 37.6265C65.0721 37.4923 65.0607 37.3633 65.0493 37.2406C65.0379 37.1128 65.0265 36.9926 65.0177 36.8812C65.0113 36.7965 65.005 36.718 65 36.6459C64.9911 36.5168 64.9873 36.4093 64.986 36.3283C64.986 36.303 64.986 36.2802 64.986 36.2613C64.986 36.2473 64.986 36.2334 64.9886 36.222C64.9886 36.2132 64.9898 36.2056 64.9911 36.1993C64.9911 36.1942 64.9924 36.1891 64.9936 36.1853C64.8975 36.5599 64.857 37.3873 64.8026 37.9845C64.7659 38.3869 64.7659 38.7336 64.6267 39.1131C64.4977 39.4649 64.5217 39.6395 64.3838 39.9887C64.3686 40.0266 64.2712 40.5504 63.9903 41.3134C63.7828 41.9637 63.5057 42.4951 63.2109 42.9H63.221C63.2337 42.9 63.2463 42.9 63.259 42.9C63.2716 42.9 63.283 42.9 63.2957 42.9C63.3109 42.9 63.3273 42.9 63.3438 42.8975C63.3589 42.8975 63.3741 42.8962 63.388 42.8949C63.407 42.8937 63.426 42.8924 63.445 42.8899C63.4602 42.8886 63.4766 42.8861 63.4918 42.8848C63.5044 42.8835 63.5184 42.881 63.531 42.8798C63.5487 42.8772 63.5677 42.8747 63.5854 42.8722C63.5981 42.8709 63.6095 42.8684 63.6221 42.8658C63.6386 42.8633 63.655 42.8608 63.6702 42.857C63.6854 42.8545 63.7006 42.8519 63.7145 42.8481C63.7284 42.8456 63.7436 42.8418 63.7575 42.8393C63.7727 42.8355 63.7866 42.8329 63.8018 42.8291C63.817 42.8253 63.8309 42.8216 63.8461 42.819C63.8663 42.814 63.8853 42.8089 63.9043 42.8038C63.9169 42.8 63.9283 42.7975 63.9397 42.7937C63.9498 42.7912 63.9599 42.7874 63.97 42.7849C63.9814 42.7811 63.9916 42.7785 64.0029 42.7747C64.0156 42.7709 64.027 42.7671 64.0384 42.7634C64.0447 42.7608 64.051 42.7583 64.0574 42.7558C64.0624 42.7545 64.0662 42.752 64.0713 42.7507C64.1586 42.6647 64.2383 42.5698 64.3066 42.4686C64.7254 41.8435 65.0379 41.4437 65.4339 40.7807L65.4301 40.7491C65.4263 40.7162 65.4225 40.682 65.4188 40.6441H65.42ZM53.0345 35.0125C52.9245 34.9619 52.8549 34.8239 52.765 34.7354C52.6537 34.624 52.5525 34.4747 52.5057 34.2419C52.3678 34.2698 52.3703 34.2609 52.2387 34.1622C52.1476 34.0939 52.0919 33.9864 52.097 33.7675C52.0224 33.9395 51.9591 33.9294 51.8971 33.8788C51.6554 33.6789 51.4163 33.4739 51.1746 33.2778C51.0266 33.1589 50.8786 33.0374 50.7217 32.9451C50.4433 32.7806 50.1447 32.6794 49.8816 32.4731C49.6323 32.2783 49.3324 32.2973 49.0895 32.091C49.0655 32.0708 49.03 32.086 49.0009 32.0758C48.9364 32.0531 48.8732 32.0252 48.8099 31.9999C48.739 31.9721 48.6669 31.9493 48.5961 31.9164C48.4518 31.8494 48.2937 31.843 48.1545 31.7519C48.1026 31.7178 48.0381 31.719 47.9786 31.7102C47.8597 31.6925 47.7306 31.7102 47.6218 31.6532C47.4751 31.5761 47.3258 31.533 47.1701 31.4989C46.7488 31.4078 46.3351 31.2813 45.9049 31.2395C45.8302 31.2319 45.7619 31.1952 45.6772 31.28C45.6518 31.3053 45.5911 31.28 45.5823 31.2408C45.5468 31.0814 45.4646 31.0902 45.3798 31.0877C45.2128 31.0839 45.042 31.0915 44.8826 31.0459C44.7662 31.013 44.6485 31.0016 44.5296 30.9852C44.2297 30.9434 43.9324 30.8878 43.6363 30.8232C43.6287 30.822 43.3896 30.7815 43.1745 30.7435C43.1163 30.7688 43.0568 30.7954 42.9961 30.822C42.9164 30.8574 42.8354 30.8928 42.7532 30.9295C42.638 30.9801 42.5229 31.032 42.409 31.0839C42.2762 31.1434 42.1471 31.2003 42.0257 31.2547C41.9244 31.299 41.8283 31.342 41.7422 31.3787C41.6651 31.4116 41.5955 31.442 41.536 31.466C41.4892 31.485 41.4411 31.5052 41.3943 31.5242C41.1109 31.6419 40.8338 31.7633 40.558 31.8898C40.4568 31.9367 40.3555 31.9835 40.2543 32.0316C40.0152 32.1442 39.7786 32.2606 39.5407 32.382C39.4686 32.4187 39.3965 32.4554 39.3244 32.4921C39.2598 32.525 39.1839 32.563 39.0979 32.6047C38.9777 32.6629 38.8372 32.7287 38.6842 32.7996C38.5133 32.878 38.3248 32.964 38.1274 33.0526C37.9908 33.1146 37.8504 33.1766 37.7086 33.2411C37.5745 33.3006 37.4392 33.3613 37.305 33.4208C37.181 33.4765 37.0596 33.5309 36.9394 33.5853C36.7597 33.6663 36.5876 33.7434 36.4257 33.8181C36.2941 33.8775 36.1714 33.9345 36.0588 33.9876C35.9563 34.0357 35.8639 34.08 35.7817 34.1205C35.7083 34.1559 35.6438 34.1888 35.5906 34.2179C35.5843 34.2217 35.578 34.2242 35.5729 34.228C35.5679 34.2305 35.5704 34.2381 35.5691 34.2445C35.5451 34.2546 35.521 34.2596 35.4957 34.2622C36.1132 34.1913 37.4075 34.0028 37.5568 34.023C37.7124 34.0446 37.8655 34.0597 38.0275 34.0281C38.1047 34.0129 38.1844 34.0129 38.254 34.0395C38.4526 34.1141 38.6867 33.9838 38.8727 34.1319C38.8828 34.1407 38.9043 34.1319 38.9182 34.1167C39.0334 34.0015 39.1371 34.0344 39.232 34.0863C39.4559 34.2078 39.7014 34.1825 39.9494 34.1357C40.0291 34.1205 40.1025 34.1141 40.1746 34.1496C40.2708 34.1977 40.377 34.2078 40.4846 34.1673C40.5681 34.1357 40.6377 34.1357 40.7047 34.1926C40.7364 34.2192 40.7731 34.2356 40.811 34.2356C40.9325 34.2356 41.0565 34.2204 41.1779 34.2255C41.3045 34.2305 41.4259 34.2786 41.5537 34.2596C41.7119 34.2369 41.8549 34.2786 41.9978 34.3368C42.0978 34.3786 42.199 34.3988 42.3154 34.3216C42.4103 34.2584 42.4989 34.285 42.5874 34.3128C42.7102 34.3507 42.8405 34.352 42.967 34.3672C43.0037 34.371 43.048 34.3495 43.0796 34.3672C43.1947 34.4317 43.3162 34.4039 43.4389 34.3191C43.5477 34.3976 43.6376 34.5266 43.7755 34.4634C43.902 34.5823 44.0652 34.5342 44.2069 34.5861C44.4031 34.6582 44.627 34.6114 44.8345 34.643C45.0939 34.6822 45.3735 34.6304 45.605 34.8024C45.7189 34.8872 45.848 34.8834 45.9656 34.9416C46.0188 34.9682 46.0922 34.9214 46.1453 34.9492C46.2415 34.9998 46.3262 35.12 46.4388 35.0745C46.5628 35.0251 46.6274 35.1744 46.7311 35.1959C46.9601 35.2427 47.1714 35.3781 47.4143 35.3541C47.4662 35.349 47.5244 35.3667 47.5624 35.4136C47.6611 35.5312 47.7838 35.5654 47.9002 35.6185C47.9774 35.6539 48.0571 35.6843 48.1393 35.6906C48.2823 35.7033 48.4303 35.7008 48.5493 35.8134C48.6669 35.9247 48.8124 35.9361 48.9276 36.0576C49.0705 36.2081 49.2262 36.3271 49.3767 36.4599C49.4058 36.4852 49.4349 36.508 49.4754 36.5421C49.4906 36.4561 49.4957 36.3966 49.5134 36.3473C49.5286 36.3005 49.5577 36.2398 49.5804 36.2309C49.6057 36.2208 49.6475 36.2473 49.6525 36.2828C49.669 36.3903 49.6715 36.5105 49.6791 36.6269C49.8107 36.7914 49.9246 36.9989 50.0777 37.133C50.1662 37.0482 50.2497 36.9002 50.3598 36.9521C50.3813 37.0217 50.4066 37.1064 50.4345 37.1975C50.3902 37.2342 50.3624 37.257 50.3333 37.2811C50.356 37.4076 50.3978 37.4974 50.461 37.5619C50.5901 37.6935 50.6761 37.9036 50.7558 38.1237C50.8545 38.3945 50.9444 38.6779 51.0582 38.9259C51.1114 39.041 51.1278 39.1713 51.1341 39.3143C51.1417 39.4737 51.1392 39.642 51.124 39.8077C51.1088 39.9849 50.9709 40.4948 50.8634 40.8263C50.8862 40.8048 50.9102 40.782 50.9342 40.7592C50.9823 40.7137 51.0317 40.6681 51.0797 40.6213C51.1835 40.5239 51.286 40.4239 51.3821 40.3303C51.5163 40.1987 51.6365 40.076 51.7276 39.9748C51.7604 39.9381 51.7933 39.9026 51.8262 39.8672C51.9237 39.7622 52.0236 39.6584 52.1236 39.5547C52.1615 39.5167 52.1982 39.4775 52.2362 39.4396C52.2703 39.4041 52.3058 39.3687 52.3399 39.332C52.5626 38.8171 53.1067 37.4974 53.2054 36.9065C53.3028 36.3207 53.3015 35.783 53.1826 35.3047C53.1522 35.1833 53.1003 35.0454 53.032 35.0137L53.0345 35.0125ZM89.051 40.2152L89.0434 40.1873C89.0383 40.1696 89.0333 40.1519 89.0282 40.1354C89.0206 40.1076 89.013 40.0785 89.0042 40.0507C88.994 40.014 88.9839 39.9773 88.9738 39.9393C88.9649 39.909 88.9573 39.8773 88.9498 39.847C88.9396 39.809 88.9308 39.7723 88.9207 39.7344C88.9093 39.6913 88.8991 39.6496 88.889 39.6066C88.8789 39.5648 88.8688 39.5231 88.8587 39.4826C88.8485 39.4408 88.8384 39.3978 88.8296 39.3561C88.8194 39.3118 88.8093 39.2662 88.7992 39.2207C88.7916 39.184 88.7827 39.146 88.7752 39.1093C88.7676 39.0739 88.76 39.0385 88.7536 39.003C88.7448 38.96 88.7372 38.917 88.7283 38.874C88.722 38.8398 88.7157 38.8057 88.7094 38.7715C88.7018 38.731 88.6942 38.6893 88.6879 38.6488C88.6803 38.607 88.6739 38.564 88.6663 38.5223C88.6613 38.4868 88.655 38.4514 88.6499 38.4172C88.6448 38.3843 88.6398 38.3514 88.6347 38.3186C88.6296 38.2831 88.6246 38.2464 88.6195 38.211C88.6157 38.1819 88.6119 38.1528 88.6081 38.125C88.6031 38.087 88.5993 38.0503 88.5942 38.0124C88.5879 37.9592 88.5828 37.9073 88.5765 37.8542C88.5727 37.8125 88.5676 37.7707 88.5639 37.7289C88.5601 37.6859 88.5563 37.6442 88.5525 37.6012C88.5499 37.5708 88.5474 37.5392 88.5449 37.5088C88.5436 37.4911 88.5424 37.4734 88.5411 37.4544C88.5411 37.4455 88.5411 37.4354 88.5398 37.4266C88.5398 37.4177 88.5398 37.4088 88.5386 37.4C88.5386 37.4025 88.5386 37.4063 88.5373 37.4088C88.512 37.5341 88.2868 37.8782 88.3121 37.9352C88.2602 38.1351 88.2071 38.3363 88.1552 38.5362C88.1084 38.7158 88.0603 38.8942 88.0173 39.0739C87.9768 39.2409 87.9439 39.4092 87.9072 39.5775H87.9224C87.9224 39.5775 87.9161 39.5838 87.9135 39.5876C87.8199 39.9469 87.706 40.3025 87.6377 40.6668C87.5922 40.9085 87.5517 41.0325 87.5086 41.2666C87.4935 41.3501 87.4163 41.674 87.2341 42.0877H87.2379L87.2429 42.0902C87.2429 42.0902 87.2543 42.0928 87.2594 42.094C87.2657 42.094 87.272 42.0966 87.2784 42.0978C87.2847 42.0978 87.2898 42.1004 87.2961 42.1004L87.3087 42.1029C87.3176 42.1042 87.3264 42.1054 87.3353 42.1067C87.3467 42.108 87.3581 42.1092 87.3695 42.1118C87.3809 42.113 87.3922 42.1143 87.4036 42.1155C87.4163 42.1155 87.4289 42.1181 87.4416 42.1181C87.453 42.1181 87.4656 42.1193 87.477 42.1206C87.4871 42.1206 87.4985 42.1206 87.5086 42.1206C87.5302 42.1206 87.5504 42.1206 87.5719 42.1206C87.5896 42.1206 87.6073 42.1206 87.6263 42.1181C87.6453 42.1181 87.6655 42.1155 87.6845 42.113C87.7098 42.1105 87.7351 42.1067 87.7604 42.1029C87.7794 42.1004 87.7971 42.0966 87.8161 42.0928C87.83 42.0902 87.8452 42.0864 87.8591 42.0827C87.8705 42.0801 87.8819 42.0763 87.8933 42.0738C87.8983 42.0738 87.9021 42.0713 87.9072 42.07L87.9186 42.0662H87.9236L87.9287 42.0624H87.9325L87.9363 42.0586L87.9414 42.0548C88.0995 41.9194 88.2425 41.7663 88.3893 41.6196C88.4348 41.574 88.4664 41.5348 88.4677 41.4564C88.4677 41.4019 88.5221 41.3425 88.5588 41.2919C88.6284 41.1995 89.0067 40.1544 89.051 40.2253L89.0484 40.2164L89.051 40.2152ZM88.1096 40.9237V40.8959L88.2488 40.9009C88.2475 40.9136 88.245 40.9262 88.2438 40.9389C88.1995 40.9338 88.1539 40.9287 88.1096 40.9237ZM88.2513 41.6284L88.226 41.6208L88.2324 41.5955C88.2412 41.5981 88.2513 41.5968 88.2564 41.6031C88.2589 41.6069 88.2539 41.6196 88.2513 41.6284ZM88.4905 41.1464L88.4626 41.1325L88.493 41.1185L88.4905 41.1464Z" fill="white"/>
<path d="M64.0561 42.757C64.0498 42.7596 64.0434 42.7621 64.0371 42.7646C64.0257 42.7684 64.0143 42.7722 64.0017 42.776C63.9916 42.7798 63.9802 42.7823 63.9688 42.7861C63.9587 42.7887 63.9485 42.7925 63.9384 42.795C63.927 42.7988 63.9144 42.8013 63.903 42.8051C63.884 42.8102 63.865 42.8152 63.8448 42.8203C63.8309 42.8241 63.8157 42.8279 63.8005 42.8304C63.7866 42.8342 63.7714 42.8367 63.7562 42.8405C63.7423 42.8431 63.7271 42.8469 63.7132 42.8494C63.698 42.8519 63.6841 42.8557 63.6689 42.8582C63.6525 42.8608 63.636 42.8646 63.6208 42.8671C63.6082 42.8696 63.5968 42.8709 63.5841 42.8734C63.5664 42.876 63.5475 42.8785 63.5297 42.881C63.5171 42.8823 63.5032 42.8848 63.4905 42.8861C63.4741 42.8886 63.4589 42.8899 63.4437 42.8911C63.4247 42.8937 63.4058 42.8949 63.3868 42.8962C63.3716 42.8962 63.3564 42.8987 63.3425 42.8987C63.326 42.8987 63.3109 42.9 63.2944 42.9013C63.2818 42.9013 63.2704 42.9013 63.2577 42.9013C63.2451 42.9013 63.2324 42.9013 63.2198 42.9013H63.197C63.0806 42.8949 62.9844 42.8734 62.9313 42.8291C62.7086 42.6419 62.558 42.1687 62.5251 41.8625C62.5062 41.6879 62.391 40.8883 62.3885 40.8769C62.3682 40.7529 62.3556 40.5163 62.3493 40.2759C62.4138 39.6762 62.3885 39.2725 62.4783 38.6678C62.5024 38.502 62.5201 37.8972 62.5251 37.7302C62.491 37.7264 62.4568 37.7327 62.4239 37.7517C62.1671 37.8998 61.9064 38.0415 61.661 38.2085C61.3915 38.3932 61.127 38.5918 60.8791 38.8082C60.5425 39.1005 60.1844 39.37 59.8922 39.7179C59.7973 39.8305 59.6999 39.9393 59.5986 40.0469L59.5936 40.0519C58.6586 40.9212 57.9968 41.4981 57.1251 41.7461C56.6962 41.8676 57.1289 41.9156 56.6835 41.8979C56.4456 41.8878 56.2546 41.9941 56.0939 41.86C55.9699 41.7562 55.851 41.6196 55.7953 41.4728C55.6789 41.1666 55.5524 40.849 55.5258 40.5239C55.4815 39.9646 55.5283 39.3965 55.7169 38.8462C55.9307 38.2173 56.1559 37.5986 56.4912 37.009C56.8391 36.3979 57.2579 35.8412 57.6805 35.287C57.783 35.1542 57.8969 35.0289 58.0107 34.9037C58.0626 34.8303 58.1158 34.7556 58.1689 34.6822C58.174 34.6746 58.179 34.6671 58.1841 34.6607C58.1942 34.6468 58.2043 34.6316 58.2145 34.6177C58.2436 34.576 58.2739 34.5355 58.3043 34.4937C58.3359 34.4494 58.3675 34.4064 58.3992 34.3621C58.4473 34.2951 58.4966 34.2293 58.5447 34.1635C58.5826 34.1116 58.6206 34.061 58.6586 34.0091C58.6826 33.9762 58.7066 33.9446 58.7307 33.9117C58.7737 33.8548 58.8154 33.7991 58.8585 33.7434C58.8825 33.7118 58.9065 33.6814 58.9293 33.6498C58.9572 33.6144 58.9837 33.5789 59.0116 33.5435C59.0432 33.503 59.0748 33.4625 59.1064 33.4233C59.1393 33.3828 59.171 33.3423 59.2039 33.3019C59.2342 33.2639 59.2659 33.2259 59.2962 33.188C59.3241 33.1538 59.3532 33.1184 59.381 33.0842C59.405 33.0564 59.4278 33.0273 59.4519 32.9995C59.4886 32.9564 59.5252 32.9122 59.5619 32.8691C59.5923 32.8337 59.6239 32.797 59.6556 32.7616C59.6872 32.7262 59.7188 32.6895 59.7505 32.6541C59.777 32.6237 59.8036 32.5946 59.8302 32.5655C59.8479 32.5452 59.8669 32.525 59.8846 32.506C59.9162 32.4719 59.9478 32.4364 59.9807 32.4023C60.0022 32.3795 60.0238 32.3567 60.0453 32.3339C60.0655 32.3124 60.0858 32.2909 60.1073 32.2694C59.9327 32.272 59.7606 32.3086 59.5936 32.4276C58.9318 32.5794 58.3815 32.9602 57.8577 33.3575C57.1415 33.9028 56.4292 34.4659 55.7763 35.0998C54.9666 35.8855 54.2846 36.756 53.8671 37.7998C53.8152 37.9289 53.7443 38.0528 53.6849 38.1794C53.4622 38.6589 53.1965 39.1245 53.0738 39.6395C53.027 39.833 53.0105 40.0317 52.9675 40.2265C52.9017 40.5289 52.8283 40.8301 52.7537 41.1312C52.7094 41.3109 52.736 41.469 52.8751 41.5917C52.9586 41.6651 53.0029 41.7461 53.0206 41.86C53.1016 42.3977 53.3129 42.7735 53.719 43.1366C53.7646 43.1771 53.8342 43.1999 53.862 43.2479C53.9911 43.4719 54.2011 43.4719 54.4326 43.4225C54.4529 43.296 54.4731 43.1708 54.4946 43.0341C54.7173 43.0404 54.9096 43.0291 55.0931 43.0544C55.3297 43.0873 55.5524 43.1227 55.7725 42.9595C55.8257 42.9202 55.9244 42.9354 56.0028 42.9304C56.5583 42.8937 57.0719 42.4989 57.5945 42.3357C57.697 42.3041 57.7881 42.2307 57.8842 42.1763C58.1828 42.0067 58.4485 41.6057 58.7585 41.4538C58.9394 41.3653 59.1077 41.2413 59.2608 41.1097C59.3481 41.035 59.4329 40.9604 59.5189 40.8857C59.6644 40.8073 59.8226 40.7567 59.9921 40.7301C60.0136 40.7149 60.0351 40.701 60.0566 40.6846L60.0617 40.6808L60.0693 40.6744C60.1351 41.0414 60.2376 41.574 60.2338 41.8068C60.2528 41.7942 60.2717 41.7828 60.2907 41.7714C60.3211 41.9726 60.3578 42.1788 60.3806 42.3142C60.4008 42.4344 60.4425 42.5343 60.5387 42.6115C60.7222 42.7596 60.8272 42.9696 60.9018 43.1847C60.9626 43.3593 61.1612 43.5668 61.4699 43.5668C61.79 43.6642 62.1101 43.6604 62.5568 43.5756H62.5606C62.7402 43.5402 63.6158 43.3365 64.0687 42.7507C64.0687 42.7507 64.0599 42.7545 64.0548 42.7558L64.0561 42.757ZM69.5156 42.2712L69.5055 42.2762C69.4992 42.2788 69.4928 42.2813 69.4865 42.2838C69.4814 42.2864 69.4764 42.2876 69.4713 42.2901C69.4637 42.2927 69.4574 42.2952 69.4498 42.299C69.4448 42.3015 69.4397 42.3028 69.4346 42.3053C69.4296 42.3079 69.4245 42.3091 69.4195 42.3104C69.4119 42.3129 69.4055 42.3155 69.3979 42.318C69.3904 42.3205 69.3828 42.323 69.3752 42.3256C69.3676 42.3281 69.3587 42.3306 69.3511 42.3332C69.3448 42.3344 69.3385 42.337 69.3334 42.3382C69.3182 42.342 69.3031 42.3458 69.2879 42.3496C69.2815 42.3509 69.2765 42.3521 69.2702 42.3534C69.2588 42.3559 69.2486 42.3572 69.2373 42.3597C69.2259 42.361 69.2158 42.3623 69.2056 42.3635C69.193 42.3648 69.1791 42.3661 69.1677 42.3661C69.1601 42.3661 69.1525 42.3661 69.1462 42.3661C69.1335 42.3661 69.1209 42.3661 69.1082 42.3661C69.1006 42.3661 69.093 42.3661 69.0854 42.3648C69.0791 42.3648 69.0715 42.3635 69.0652 42.3623C69.0576 42.3623 69.05 42.3597 69.0424 42.3585C69.0348 42.3585 69.0285 42.3559 69.0209 42.3547C69.012 42.3521 69.0032 42.3509 68.9943 42.3484C68.9893 42.3471 68.9855 42.3458 68.9804 42.3446C68.9753 42.3433 68.9703 42.342 68.9652 42.3395C68.9602 42.3382 68.9551 42.3357 68.9501 42.3344L68.9437 42.3319H68.9399L68.9361 42.3294C68.8336 42.2901 68.74 42.2231 68.6337 42.1472C68.6173 42.1105 68.1491 41.9485 68.1289 40.7972C68.0922 40.6466 68.0644 40.4935 68.0289 40.3429C67.9227 39.8925 67.8151 39.4408 67.7038 38.9904C67.6747 38.8715 67.5988 38.7551 67.6038 38.6387C67.6355 37.9769 67.4975 37.3342 67.4469 36.6826C67.4128 36.2284 67.3862 36.2005 67.3887 35.7438C67.3913 35.4173 67.3824 35.0896 67.3786 34.7417C67.304 34.7442 67.2318 34.7291 67.1724 34.7518C66.9864 34.8202 66.8042 34.9024 66.6195 34.9796C66.1804 35.1643 66.4297 35.1137 66.0235 35.3591C65.9021 35.4325 65.0278 36.0107 64.9886 36.1904C64.9886 36.1904 64.9873 36.1993 64.986 36.2043C64.986 36.2107 64.9848 36.2195 64.9835 36.2271C64.9835 36.2385 64.9822 36.2511 64.981 36.2663C64.981 36.2866 64.981 36.3081 64.981 36.3334C64.981 36.4144 64.986 36.5219 64.9949 36.651C65 36.7231 65.005 36.8015 65.0126 36.8863C65.0215 36.9976 65.0316 37.1178 65.0442 37.2456C65.0556 37.3684 65.0683 37.4974 65.0809 37.6315C65.0961 37.7796 65.1113 37.9327 65.1277 38.0895C65.1404 38.2085 65.153 38.3287 65.1657 38.4489C65.1758 38.5463 65.1872 38.6437 65.1973 38.7411C65.2062 38.8209 65.215 38.9006 65.2239 38.979C65.2366 39.0954 65.2505 39.2105 65.2631 39.3244C65.272 39.3965 65.2796 39.4687 65.2872 39.5382C65.2998 39.6521 65.3137 39.7635 65.3251 39.8697C65.3403 39.9988 65.3542 40.1203 65.3669 40.2341C65.3795 40.3467 65.3922 40.4505 65.4023 40.5429C65.4061 40.5795 65.4112 40.615 65.415 40.6491C65.4188 40.6871 65.4225 40.7212 65.4263 40.7541L65.4301 40.7858L65.4327 40.806C65.4453 40.9186 65.4529 40.9895 65.4529 41.0085C65.458 41.2564 65.5427 41.4766 65.6541 41.6955C65.8122 42.0042 66.0185 42.2914 66.0729 42.652C66.0906 42.7634 66.1083 42.8772 66.1425 42.9835C66.1703 43.0695 66.2348 43.1239 66.3411 43.0847C66.3525 43.0809 66.3727 43.105 66.3841 43.1126C66.3525 43.1632 66.3247 43.21 66.2968 43.2543C66.4651 43.4997 66.6663 43.5934 66.9585 43.4858C67.0775 43.4415 67.2129 43.4504 67.3381 43.4276C67.4216 43.4124 67.5013 43.3757 67.5823 43.3542C68.1454 43.1986 69.074 42.8696 69.5232 42.2737L69.5257 42.2712H69.5219L69.5131 42.2762L69.5156 42.2712ZM76.0582 42.089C75.6786 41.9966 75.3421 42.0611 74.9638 41.908C74.7487 41.8207 74.469 41.6942 74.3261 41.5209C74.0793 41.2248 73.8782 40.9351 73.8098 40.6175C73.6897 40.0519 73.4986 39.6395 73.4164 39.0777C73.3506 38.6247 73.3253 38.3666 73.2519 37.9137C73.2152 37.6847 73.1924 37.6239 73.1507 37.3127C73.1064 36.9837 73.0697 36.8078 72.9874 36.2638C72.9811 36.2246 72.9292 35.8956 72.9229 35.8577C72.8774 35.5692 72.8052 35.2794 72.8027 34.9884C72.8002 34.6493 72.8204 34.1357 72.7799 33.8155C72.5269 33.6979 72.2005 33.9699 72.0031 34.0888C71.578 34.3444 71.4325 34.4077 70.9833 34.6202C70.9112 34.6544 70.5835 34.8075 70.519 34.853C70.519 34.8594 70.5189 34.8708 70.5215 34.8847C70.5215 34.8948 70.524 34.9075 70.5265 34.9226C70.5316 34.9593 70.5392 35.0074 70.5468 35.0643C70.5506 35.0934 70.5556 35.1251 70.5607 35.158C70.5645 35.1795 70.567 35.201 70.5708 35.2238C70.5772 35.2655 70.5835 35.3085 70.5898 35.3528C70.5936 35.3794 70.5974 35.406 70.6012 35.4338C70.6063 35.4718 70.6113 35.5097 70.6151 35.5477C70.6227 35.6147 70.629 35.6805 70.6353 35.745C70.6417 35.8184 70.6455 35.8905 70.6455 35.9551C70.6455 36.0032 70.6455 36.0474 70.6417 36.0879C70.6391 36.1246 70.6341 36.1562 70.6265 36.1841C70.6214 36.2043 70.6202 36.26 70.6227 36.3435C70.624 36.3865 70.6265 36.4384 70.6303 36.4966C70.6316 36.5232 70.6328 36.551 70.6353 36.5801C70.6391 36.6472 70.6442 36.7218 70.6505 36.8015C70.6543 36.8534 70.6581 36.9091 70.6632 36.966C70.6657 36.9976 70.6682 37.0293 70.6708 37.0609C70.6733 37.0887 70.6758 37.1153 70.6771 37.1444C70.6822 37.2051 70.6872 37.2684 70.6936 37.3342C70.6973 37.381 70.7011 37.4291 70.7062 37.4772C70.71 37.5164 70.7125 37.5556 70.7163 37.5948C70.7176 37.6138 70.7201 37.6341 70.7214 37.653C70.7239 37.6809 70.7265 37.7074 70.729 37.7353C70.7315 37.7631 70.734 37.7922 70.7366 37.82C70.7391 37.8428 70.7404 37.8656 70.7429 37.8884C70.7454 37.9111 70.7467 37.9327 70.7492 37.9554C70.7518 37.982 70.7543 38.0086 70.7568 38.0351C70.7606 38.0718 70.7644 38.1085 70.7669 38.1452C70.7695 38.1693 70.772 38.192 70.7733 38.2161C70.7771 38.2591 70.7821 38.3021 70.7859 38.3451C70.7897 38.3793 70.7922 38.4134 70.796 38.4476C70.7986 38.4729 70.8011 38.4969 70.8036 38.5223C70.8074 38.5589 70.8112 38.5956 70.815 38.6311C70.8188 38.669 70.8226 38.707 70.8264 38.7449C70.8289 38.769 70.8315 38.7918 70.834 38.8158C70.8378 38.85 70.8403 38.8829 70.8441 38.917C70.8479 38.9562 70.8517 38.9967 70.8568 39.0359C70.8606 39.0676 70.8631 39.1005 70.8669 39.1321C70.872 39.1751 70.8758 39.2169 70.8795 39.2599C70.8821 39.2865 70.8846 39.3118 70.8871 39.3371C70.8909 39.3738 70.8947 39.4105 70.8985 39.4459C70.9036 39.4876 70.9074 39.5294 70.9112 39.5711C70.915 39.6015 70.9175 39.6319 70.9213 39.661C70.9264 39.7103 70.9314 39.7597 70.9377 39.8065C70.9428 39.8546 70.9479 39.9014 70.9529 39.9469C70.9567 39.9849 70.9618 40.0216 70.9656 40.057C70.9694 40.0899 70.9732 40.1228 70.977 40.1544C70.9782 40.1658 70.9795 40.1772 70.9808 40.1886L70.9833 40.2101C71.0288 40.6023 71.063 40.8642 71.0744 40.8781C71.1414 40.9642 71.1908 41.0641 71.2465 41.159C71.3641 41.3627 71.4831 41.5614 71.7247 41.636C71.769 41.6499 71.8108 41.6993 71.8361 41.7436C71.9816 42.0067 72.1233 42.2724 72.2637 42.5369C72.4206 42.8329 72.6446 43.062 72.9027 43.2568C72.9432 43.2872 73.0001 43.3074 73.0507 43.3087C73.1557 43.3112 73.2671 43.2783 73.367 43.2985C73.4632 43.3175 73.5479 43.4251 73.639 43.4213C73.9174 43.4124 74.1882 43.4782 74.4741 43.4162C74.774 43.3517 75.0549 43.2366 75.2649 43.0278C75.485 42.8089 75.7393 42.6621 75.9747 42.4787C76.0822 42.3952 76.2062 42.337 76.315 42.256C76.3618 42.2206 76.3884 42.1535 76.4454 42.0713C76.3403 42.0396 76.1328 42.1054 76.0595 42.0877L76.0582 42.089ZM72.8154 42.7115C72.7964 42.7115 72.7774 42.6634 72.7584 42.6368C72.7939 42.6216 72.828 42.6027 72.8647 42.5951C72.8761 42.5925 72.8925 42.6254 72.9141 42.652C72.8786 42.6761 72.847 42.7102 72.8154 42.7127V42.7115ZM52.1236 39.5547C52.0236 39.6572 51.9237 39.7609 51.8262 39.8672C51.7933 39.9026 51.7604 39.9393 51.7276 39.9748C51.6365 40.076 51.515 40.1987 51.3821 40.3303C51.286 40.4252 51.1835 40.5239 51.0797 40.6213C51.0304 40.6681 50.9823 40.7137 50.9342 40.7592C50.9102 40.782 50.8874 40.8035 50.8634 40.8263C50.5319 41.1375 50.2434 41.4032 50.2194 41.4437C50.208 41.4639 50.1903 41.4753 50.1751 41.4893C50.0157 41.6284 49.8575 41.7777 49.6968 41.9055C49.4438 42.1067 49.1895 42.3066 48.9339 42.4799C48.8428 42.5419 48.7618 42.6533 48.6631 42.6912C48.524 42.7444 48.3848 42.8595 48.2443 42.9493C47.9483 43.1404 47.6522 43.3365 47.3561 43.5225C47.2853 43.5668 47.2132 43.6022 47.155 43.706C47.0816 43.8363 46.9993 43.8856 46.9095 43.916C46.8399 43.9388 46.7615 43.9717 46.7033 44.0476C46.6362 44.1349 46.5767 44.1703 46.5034 44.2045C46.2693 44.3145 46.0365 44.4562 45.8037 44.5764C45.7341 44.6119 45.6632 44.6169 45.5936 44.6334C45.5557 44.6422 45.5127 44.6233 45.4798 44.6562C45.3545 44.7814 45.2293 44.7776 45.1053 44.8282C45.0268 44.8599 44.9547 44.9054 44.8775 44.9573C44.6941 45.0825 44.4979 45.2091 44.3195 45.2205C44.1374 45.2318 43.9653 45.39 43.7869 45.4318C43.6173 45.471 43.4402 45.6152 43.2707 45.6494C43.0126 45.7025 42.7557 45.7835 42.4976 45.905C42.3736 45.9632 42.2496 45.891 42.1269 46.0669C42.1243 46.072 42.1117 46.0631 42.1079 46.0555C42.0472 45.9277 41.9586 46.0378 41.8915 46.0922C41.8194 46.1491 41.7549 46.1922 41.6866 46.1707C41.6651 46.1643 41.6423 46.1567 41.6195 46.1643C41.4474 46.2238 41.2766 46.2858 41.1046 46.3478C40.9641 46.3984 40.8174 46.4971 40.6858 46.4895C40.4859 46.4781 40.2784 46.6451 40.081 46.6072C40.0202 46.5958 39.9608 46.6654 39.9304 46.8083C39.9114 46.8982 39.8709 46.9817 39.8343 47.0829C39.752 47.0209 39.6837 46.9703 39.6065 46.9121L39.542 47.2676C39.6774 47.2385 39.8001 47.2094 39.9216 47.1854C39.9962 47.1702 40.0582 47.1031 40.1189 46.9728C40.1873 47.1398 40.291 47.1525 40.4163 47.1145C40.5251 47.0804 40.6326 47.0753 40.7427 47.0019C40.7655 46.9867 40.792 47.0146 40.8275 47.026C40.6339 47.4625 40.3846 47.6485 40.1468 47.899C40.0089 47.7914 39.852 47.856 39.6938 47.942C39.4926 48.0508 39.2927 48.2052 39.0992 48.1001C39.0435 48.0698 38.9612 48.133 38.8917 48.152C38.798 48.1786 38.7031 48.2204 38.612 48.2279C38.4741 48.2393 38.3387 48.2558 38.197 48.3039C37.9313 48.3937 37.6656 48.5367 37.4012 48.5809C37.3012 48.5974 37.1988 48.6505 37.0975 48.6796C37.0444 48.6948 36.9849 48.7227 36.9394 48.6986C36.8495 48.6518 36.7648 48.6935 36.6699 48.7771C36.532 48.8985 36.4004 48.9441 36.265 48.8618C36.0929 48.7568 35.9006 48.7846 35.6969 48.8973C35.5919 48.9555 35.4818 48.9365 35.3755 48.9466C35.33 48.9517 35.2844 48.92 35.2389 48.9428C35.058 49.0339 34.8973 48.9846 34.7429 48.92C34.6075 48.8644 34.4797 48.8682 34.3684 48.9921C34.2849 48.9618 34.2305 48.9213 34.1723 48.9264C34.0964 48.9327 34.0154 48.9593 33.9382 49.0061C33.7421 49.125 33.565 49.0984 33.3904 49.0415C33.3157 49.0175 33.2461 49.0124 33.1626 49.087C33.1209 49.1237 33.0601 49.1503 33.0298 49.1225C32.9539 49.0567 32.8678 49.0896 32.7843 49.0946C32.6616 49.1035 32.5376 49.1225 32.4174 49.1161C32.1061 49.0997 31.7974 49.0693 31.4862 49.0503C31.2913 49.0377 31.1104 48.9301 30.9029 48.9959C30.8118 48.901 30.6992 48.9529 30.5917 48.9605C30.5233 48.9656 30.4575 48.9415 30.3917 48.9289C30.2007 48.8935 30.0362 48.7227 29.8249 48.7846C29.7971 48.7935 29.7718 48.7518 29.7427 48.7429C29.606 48.6999 29.4732 48.61 29.3302 48.629C29.1113 48.6581 28.9494 48.4759 28.7533 48.4304C28.6609 48.2925 28.5293 48.2811 28.4142 48.2178C28.3395 48.1761 28.2535 48.171 28.1788 48.128C28.0093 48.0306 27.8486 47.9028 27.6753 47.8193C27.5778 47.7725 27.4779 47.737 27.3906 47.6548C27.1806 47.4587 26.9693 47.2676 26.7567 47.0778C26.6947 47.0222 26.6327 46.9387 26.5631 46.9412C26.4594 46.945 26.4012 46.8488 26.3379 46.7565C26.2278 46.5932 26.1456 46.368 25.9849 46.3174C25.9647 46.3111 25.9507 46.2769 25.9356 46.2529C25.8533 46.1226 25.7685 45.9973 25.6888 45.8607C25.6142 45.7329 25.5332 45.6102 25.4788 45.4545C25.3434 45.0648 25.2182 44.66 25.0942 44.2538C25.0613 44.145 25.0486 44.0121 25.0258 43.8907C24.9778 43.6338 24.9765 43.3403 24.9373 43.0809C24.8841 42.7343 24.8816 42.3724 24.9006 41.9966C24.9158 41.6904 24.9436 41.3804 24.9765 41.0705C24.9942 40.9034 25.0284 40.7352 25.06 40.5682C25.084 40.4416 25.1144 40.3176 25.1435 40.1924C25.1929 39.9861 25.2308 39.7673 25.2979 39.5749C25.4725 39.079 25.6749 38.6146 25.9393 38.2439C26.033 38.1136 26.0937 37.9491 26.1532 37.7821C26.1987 37.653 26.2354 37.5139 26.2721 37.3772C26.2848 37.3304 26.2848 37.2785 26.2961 37.1862C26.0444 37.424 25.847 37.7087 25.6888 38.0895C25.6572 38.1642 25.6357 38.2528 25.599 38.3173C25.3624 38.7437 25.2017 39.2612 24.9942 39.7242C24.8386 40.0722 24.7298 40.4758 24.5969 40.8528C24.5147 41.0844 24.4603 41.3412 24.4033 41.5917C24.3527 41.8132 24.2983 42.0409 24.2806 42.261C24.2414 42.7241 24.2224 43.1834 24.2009 43.644C24.1731 44.2487 24.2085 44.8244 24.3009 45.3508C24.4173 46.0112 24.5893 46.616 24.831 47.1284C25.041 47.5751 25.3523 47.8167 25.5939 48.1988C25.599 48.2064 25.6079 48.2077 25.6129 48.214C25.8052 48.4152 25.9976 48.6164 26.1899 48.8163C26.2076 48.8353 26.2266 48.8504 26.2481 48.8606C26.3075 48.8897 26.367 48.915 26.4771 48.963C26.41 48.8416 26.3835 48.7707 26.3442 48.7264C26.2696 48.6404 26.1886 48.5658 26.1089 48.4898C25.9912 48.3798 25.89 48.2317 25.7711 48.1229C25.6585 48.0204 25.5901 47.8129 25.4624 47.7206C25.3599 47.6472 25.2915 47.4739 25.1979 47.3676C25.141 47.3018 25.1144 47.2069 25.0967 47.0943C25.0878 47.0361 25.1005 46.9893 25.1511 46.95C25.1967 47.026 25.246 47.1095 25.2966 47.1917C25.4851 47.5004 25.6686 47.8193 25.909 48.0141C26.095 48.1647 26.286 48.3039 26.4758 48.4418C26.5947 48.5265 26.7263 48.5734 26.8364 48.6822C27.1274 48.9694 27.469 49.0757 27.7904 49.2528C27.9625 49.3477 28.1523 49.3705 28.3281 49.4413C28.7064 49.5919 29.086 49.7285 29.482 49.7918C29.8553 49.8512 30.2159 49.993 30.6119 49.912C30.6574 49.9031 30.6992 49.9335 30.7447 49.9411C30.8789 49.9626 31.0104 50.0157 31.1496 49.9955C31.5153 49.9449 31.8721 49.9563 32.2301 49.9626C32.3959 49.9651 32.554 50.0322 32.7299 49.9626C32.7451 49.9563 32.759 49.9702 32.7742 49.9689C33.0918 49.9373 33.4081 49.9057 33.7257 49.8728C33.7408 49.8715 33.7573 49.8728 33.7725 49.8614C33.8471 49.8019 33.9079 49.8437 33.9762 49.8487C34.1723 49.8652 34.3671 49.8955 34.5734 49.8348C34.7227 49.7918 34.8745 49.7197 35.0187 49.7171C35.2338 49.7133 35.4502 49.6728 35.6678 49.6286C35.7829 49.6058 35.9006 49.5754 36.017 49.5261C36.2131 49.4426 36.408 49.3325 36.5902 49.4249C36.6104 49.435 36.6357 49.4287 36.6585 49.4249C36.9368 49.3768 37.219 49.2844 37.491 49.3021C37.5201 49.3047 37.5543 49.2794 37.5847 49.2718C37.6694 49.2515 37.7555 49.23 37.8402 49.2148C37.8858 49.206 37.9313 49.2136 37.9769 49.2022C38.1793 49.1554 38.383 49.0137 38.5867 48.9782C38.6272 48.9706 38.693 48.9188 38.7133 48.8606C38.7575 48.734 38.8069 48.6973 38.8739 48.6708C38.9941 48.624 39.108 48.5873 39.1978 48.7201C39.2497 48.796 39.3282 48.7657 39.3977 48.7239C39.4281 48.7062 39.4559 48.6303 39.485 48.5797C39.5534 48.6113 39.5913 48.7366 39.6837 48.6961C39.7748 48.6569 39.8545 48.6025 39.9165 48.4456C39.9228 48.4278 39.9443 48.4253 39.9595 48.4165C40.0114 48.4759 40.062 48.5354 40.0911 48.5683C40.2859 48.5202 40.4492 48.4886 40.6136 48.438C40.8793 48.3557 41.1463 48.2419 41.4108 48.1811C41.5752 48.1432 41.7372 47.9977 41.9004 47.9875C41.9763 47.9825 42.056 47.9407 42.1345 47.9218C42.1939 47.9066 42.2534 47.9015 42.3167 47.8914C42.3065 47.9888 42.299 48.0559 42.2914 48.1293C42.3154 48.1318 42.3369 48.1381 42.3597 48.1343C42.5697 48.0938 42.7785 47.918 42.991 47.8522C43.3592 47.7396 43.7287 47.5599 44.0981 47.4005C44.3411 47.2942 44.5852 47.1791 44.8282 47.0576C45.0395 46.9526 45.2508 46.8134 45.4621 46.7286C45.6721 46.6439 45.8783 46.4338 46.0909 46.4148C46.1213 46.4123 46.1567 46.3959 46.1845 46.3655C46.3452 46.1896 46.5135 46.2339 46.6754 46.0985C46.8602 46.12 47.0322 45.9062 47.2094 45.7873C47.2448 45.7632 47.2739 45.6709 47.3232 45.5773C47.3738 45.5773 47.4422 45.619 47.4915 45.5709C47.5763 45.49 47.6611 45.4558 47.7446 45.3963C48.4607 44.8814 49.1515 44.2222 49.8234 43.463C50.0929 43.1594 50.351 42.8152 50.5952 42.4382C50.938 41.9093 51.2999 41.4159 51.5909 40.7782C51.6959 40.5492 51.8085 40.3303 51.9262 40.119C52.0679 39.8634 52.2058 39.6015 52.3387 39.3333C52.3045 39.3687 52.2691 39.4054 52.2349 39.4408C52.197 39.4788 52.1603 39.518 52.1223 39.556L52.1236 39.5547ZM33.6067 34.3128C33.632 34.3318 33.6624 34.3419 33.6928 34.3457C33.8281 34.3596 33.9623 34.4052 34.1002 34.3761C34.4696 34.2963 34.8277 34.3153 35.1908 34.2862H35.1933C35.2313 34.2824 35.2693 34.2799 35.3072 34.2748C35.3287 34.2723 35.3515 34.2698 35.3743 34.266C35.4148 34.2609 35.4552 34.2634 35.4957 34.2584C35.5198 34.2559 35.5438 34.2508 35.5691 34.2407C35.5704 34.2356 35.5679 34.228 35.5729 34.2242C35.5792 34.2204 35.5843 34.2179 35.5906 34.2141C35.6438 34.1863 35.7083 34.1534 35.7817 34.1167C35.8639 34.0762 35.9563 34.0319 36.0588 33.9838C36.1714 33.9307 36.2941 33.8737 36.4257 33.8143C36.5876 33.7409 36.761 33.6625 36.9394 33.5815C37.0596 33.5271 37.1823 33.4727 37.305 33.417C37.4392 33.3575 37.5745 33.2968 37.7086 33.2373C37.8504 33.1741 37.9908 33.1108 38.1274 33.0488C38.3248 32.9602 38.5121 32.8742 38.6842 32.7958C38.8372 32.7249 38.9777 32.6591 39.0979 32.6009C39.1839 32.5592 39.2598 32.5212 39.3244 32.4883C39.3965 32.4516 39.4686 32.4137 39.5407 32.3782C39.7786 32.258 40.0165 32.1404 40.2543 32.0278C40.3555 31.9797 40.4568 31.9329 40.558 31.8861C40.8325 31.7595 41.1109 31.6381 41.3943 31.5204C41.4411 31.5014 41.4879 31.4812 41.536 31.4622C41.5955 31.4382 41.6651 31.4091 41.7422 31.3749C41.8283 31.3382 41.9232 31.2964 42.0257 31.2509C42.1471 31.1978 42.2762 31.1396 42.409 31.0801C42.5229 31.0295 42.6393 30.9776 42.7532 30.9257C42.8354 30.889 42.9164 30.8523 42.9961 30.8182C43.0568 30.7916 43.1163 30.765 43.1745 30.7397C43.5781 30.5639 43.8894 30.4361 43.9008 30.4639C44.0146 30.4399 44.1298 30.4044 44.2449 30.3791C44.398 30.3462 44.5511 30.3311 44.7067 30.2425C44.9889 30.0831 45.2672 30.0843 45.5506 29.9566C45.9745 29.7642 46.3996 29.5896 46.8235 29.4441C47.1524 29.3315 48.3747 28.7217 48.7011 28.7166C48.7315 28.7166 48.7644 28.6976 48.7947 28.6787C48.8934 28.6205 48.9174 28.7609 48.9959 28.8381C49.0693 28.9089 49.0908 29.4517 49.1895 29.4176C49.3071 29.1329 49.521 28.9102 49.6892 28.8229C49.7816 28.7748 49.9157 28.1017 49.9929 27.998C50.2029 27.7196 50.3649 26.739 50.5926 26.5024C50.6129 26.4809 50.6318 26.4392 50.6458 26.4025C50.7963 26.0065 50.9482 25.6117 51.0494 25.1765C51.0823 25.0322 51.243 24.8159 51.2012 24.7235C51.1455 24.5982 51.372 23.977 51.2721 24.0086C51.1936 24.0352 50.7533 24.3768 50.6774 24.4376C50.5458 24.5426 50.4294 24.6919 50.3206 24.6286C50.2333 24.5767 50.0157 24.845 49.9233 24.8728C49.7348 24.9297 49.5463 24.9968 49.3577 25.0639C49.2641 25.098 49.1667 25.1157 49.0781 25.1904C48.9681 25.284 48.863 25.3397 48.7517 25.3587C48.6517 25.3764 47.6585 25.785 47.5586 25.8053C47.3194 25.8546 47.0803 25.9141 46.8424 25.9546C46.6362 25.9887 46.4224 25.9774 46.2237 26.2734C46.1744 26.2481 46.1326 26.1937 46.0922 26.2127C45.9365 26.2848 45.7936 26.1368 45.6316 26.3253C45.619 26.3405 45.6 26.3405 45.5848 26.3392C45.3874 26.3228 45.1812 26.4948 44.9825 26.4999C44.9471 26.4999 44.9028 26.5328 44.8674 26.5708C44.8105 26.6315 44.7586 26.6517 44.708 26.6239C44.5713 26.5455 44.4258 26.6214 44.2753 26.6884C44.1348 26.7517 43.9944 26.8415 43.8527 26.8365C43.7717 26.8339 43.6806 26.9023 43.5946 26.9465C43.5085 26.9896 43.4225 27.0376 43.3377 27.0908C43.2099 27.1718 43.0821 27.2995 42.9556 27.2439C42.7937 27.3906 42.6456 27.3324 42.4951 27.3337C42.3888 27.3337 42.2914 27.2616 42.1826 27.4488C42.1674 27.4741 42.137 27.4729 42.1142 27.4767C42.0295 27.4881 41.9459 27.4817 41.8612 27.507C41.7764 27.5323 41.6765 27.545 41.6107 27.6374C41.517 27.7689 41.4424 27.6614 41.3614 27.7449C41.2817 27.8271 41.2083 27.8221 41.1349 27.7968C41.0755 27.7765 41.0097 27.793 40.9565 27.8993C40.8996 28.0144 40.8389 27.9967 40.7781 28.003C40.577 28.0233 40.377 28.0397 40.1759 28.065C40.1303 28.0701 40.0797 28.0928 40.0354 28.1321C39.9696 28.1915 39.9076 28.2991 39.8418 28.337C39.7659 28.3813 39.6875 28.3636 39.6103 28.3889C39.5736 28.4003 39.5369 28.456 39.5002 28.48C39.3851 28.5534 39.2687 28.6458 39.1536 28.685C39.0498 28.7204 38.9511 28.7786 38.8499 28.8558C38.798 28.8963 38.7272 28.957 38.6917 28.9304C38.4855 28.7748 38.2287 29.0127 38.0161 28.9165C37.9921 28.9051 37.9541 28.938 37.9225 28.9608C37.8541 29.0102 37.7744 29.1202 37.7213 29.105C37.6441 29.0823 37.5669 29.1278 37.4923 29.1367C37.3847 29.1493 37.2734 29.1923 37.1646 29.2177C37.0166 29.2518 36.866 29.3012 36.7218 29.3037C36.637 29.3062 36.5585 29.3151 36.47 29.353C36.3068 29.4214 36.1423 29.4517 35.9791 29.4783C35.8475 29.4998 35.7184 29.4922 35.621 29.4973C35.5084 29.6251 35.4287 29.7124 35.349 29.8047C35.2477 29.9224 35.1364 30.6094 35.0693 30.8093C35.0276 30.9359 34.9529 31.0383 34.8922 31.1497C34.8555 31.2155 34.81 31.2699 34.7783 31.3407C34.5354 31.9063 34.2153 32.3643 33.9952 32.964C33.9774 33.0109 33.942 33.0425 33.9154 33.0817C33.7611 33.3019 33.6573 33.5891 33.5523 33.8712C33.4815 34.0623 33.5093 34.2356 33.608 34.3077L33.6067 34.3128ZM44.9066 21.964C43.6869 22.4258 39.5066 23.8973 37.9933 24.4047L37.8769 24.9437C39.4572 24.4312 43.3934 23.0167 44.6017 22.5359L44.9066 21.964ZM89.2015 34.1015C89.4508 34.2812 89.7089 34.4203 89.9885 34.5228C90.053 34.5469 90.1125 34.5911 90.1657 34.638C90.3883 34.8315 90.4389 34.8239 90.6224 34.5848C90.6996 34.4836 90.7009 34.3748 90.7059 34.2559C90.716 33.9686 90.7831 33.8953 91.0399 33.8636C91.3272 33.8269 91.417 33.6966 91.398 33.3423C91.3967 33.3057 91.3955 33.2538 91.4145 33.2348C91.5486 33.107 91.4764 33.0184 91.3892 32.9109C91.3132 32.816 91.2576 32.7009 91.193 32.5921C91.1019 32.5427 90.983 32.5161 90.921 32.4364C90.8008 32.2808 90.6465 32.1986 90.4896 32.1125C90.3947 32.0607 90.3162 32.0062 90.2808 31.8709C90.2542 31.7684 90.1732 31.6672 90.0923 31.6039C89.843 31.4116 89.6254 31.1661 89.3382 31.0333C89.2838 31.008 89.2231 30.9801 89.1864 30.9333C89.1459 30.8814 89.1294 30.8055 89.1029 30.741C88.9143 30.822 88.7853 30.9536 88.6651 31.1041C88.3551 31.4938 88.1691 31.9734 87.8844 32.3846C87.7895 32.5212 87.725 32.6832 87.6276 32.816C87.5314 32.9476 87.534 33.1361 87.3745 33.2386C87.2961 33.2892 87.2695 33.4398 87.3087 33.5574C87.5373 33.6156 87.722 33.573 87.8629 33.4296C88.0097 33.4094 88.1451 33.4524 88.2729 33.5296C88.5841 33.7169 88.9055 33.8864 89.2003 34.099L89.2015 34.1015ZM70.4873 31.6823L70.3519 31.6634L70.3924 31.533C70.4291 31.4141 70.4481 31.2838 70.4481 31.1459C70.4481 30.1818 70.0457 29.8389 69.7029 29.8389C69.1259 29.8389 68.4553 30.388 68.4553 31.0953C68.4553 31.595 68.7894 31.8658 69.5725 32.0037L69.837 32.0505L69.6219 32.2112C69.0551 32.6363 68.1327 33.0083 67.2951 33.3373C67.4975 33.3841 67.8569 33.4221 68.0378 33.4246C68.4199 33.2854 69.4966 32.8831 70.0622 32.1657L70.1128 32.1011L70.19 32.1264C70.2469 32.1454 70.3051 32.1657 70.3608 32.1935L70.6936 31.7342C70.6341 31.7102 70.5658 31.6925 70.4873 31.6811V31.6823ZM70.1735 31.5432L70.1406 31.6406L70.0394 31.6203C68.926 31.3977 68.6932 31.0269 68.6932 30.7549C68.6932 30.4829 69.0386 30.2273 69.3904 30.2273C69.7649 30.2273 70.1938 30.6955 70.2077 31.3255C70.2077 31.3977 70.195 31.4711 70.171 31.5432H70.1735ZM77.0387 46.7539C78.3837 46.3174 81.7315 45.1142 82.7602 44.7055L83.0196 44.2184C81.9821 44.6119 78.4255 45.8632 77.1387 46.2946L77.0387 46.7527V46.7539ZM87.9249 42.0649H87.9198L87.9085 42.07C87.9085 42.07 87.8996 42.0725 87.8945 42.0738C87.8832 42.0776 87.8718 42.0801 87.8604 42.0827C87.8465 42.0864 87.8313 42.089 87.8174 42.0928C87.7984 42.0966 87.7807 42.1004 87.7617 42.1029C87.7364 42.1067 87.7111 42.1105 87.6858 42.113C87.6655 42.1155 87.6466 42.1168 87.6276 42.1181C87.6099 42.1181 87.5922 42.1193 87.5732 42.1206C87.5517 42.1206 87.5314 42.1206 87.5099 42.1206C87.4998 42.1206 87.4884 42.1206 87.4783 42.1206C87.4669 42.1206 87.4542 42.1206 87.4429 42.1181C87.4302 42.1181 87.4175 42.1155 87.4049 42.1155C87.3935 42.1155 87.3821 42.113 87.3707 42.1118C87.3593 42.1105 87.348 42.1092 87.3366 42.1067C87.3277 42.1054 87.3189 42.1042 87.31 42.1029L87.2973 42.1004C87.2973 42.1004 87.286 42.0978 87.2796 42.0978C87.2733 42.0978 87.267 42.0953 87.2607 42.094C87.2556 42.094 87.2493 42.0915 87.2442 42.0902H87.2353V42.0877H87.2316C86.9937 42.0358 86.8001 41.9334 86.7191 41.8271C86.6495 41.736 86.6331 41.612 86.5977 41.4994C86.4851 41.14 86.3535 40.7858 86.2674 40.4163C86.1498 39.9077 86.0701 39.3864 85.9714 38.8715C85.8398 38.1844 85.7006 37.4999 85.6386 36.7965C85.631 36.7041 85.6272 36.6016 85.588 36.5244C85.521 36.3916 85.507 36.2499 85.4881 36.1044C85.4476 35.7881 85.383 35.4743 85.359 35.1554C85.3337 34.8252 85.1363 33.6182 85.1097 33.3752C85.0971 33.2601 85.0895 33.0804 85.0439 32.9881C84.9807 32.8616 84.9592 32.5996 84.9491 32.4617C84.9174 31.9822 84.9048 31.5027 84.8605 31.0232C84.8225 30.6132 84.9579 28.3535 84.9503 27.9398C84.9478 27.8069 84.9351 27.6715 84.9111 27.5412C84.8984 27.4704 84.8542 27.4058 84.8251 27.3426C84.5378 27.3653 84.0166 27.8562 83.7762 27.9689C83.5016 28.0966 82.7969 28.6306 82.5109 28.7267C82.287 28.8027 82.7387 29.0026 82.7134 29.2227C82.6881 29.4467 82.6792 29.849 82.6729 30.2817C82.6855 30.5209 82.702 30.779 82.721 31.0497C82.5603 31.8848 82.2212 33.5245 82.1314 34.0888C82.1162 34.1825 82.101 34.2761 82.0858 34.3672V34.3748H82.0845V34.3824L82.0807 34.3976C82.0782 34.4153 82.0744 34.433 82.0719 34.452C82.0643 34.4937 82.058 34.5342 82.0504 34.5747C82.0453 34.6063 82.039 34.638 82.0339 34.6696C82.0124 34.7911 81.9897 34.9138 81.9669 35.0365C81.9593 35.0757 81.9517 35.115 81.9441 35.1542C81.9403 35.1744 81.9365 35.1947 81.9327 35.2149C81.9264 35.2491 81.9188 35.2845 81.9125 35.3187C81.8783 35.492 81.8429 35.6577 81.8087 35.8159C81.8037 35.8387 81.7986 35.8602 81.7935 35.883C81.7733 35.9715 81.7543 36.0588 81.7341 36.1461C81.705 36.2714 81.6746 36.3954 81.6442 36.5181C81.6379 36.5434 81.6316 36.5687 81.6253 36.5928C81.6215 36.6092 81.6164 36.6257 81.6126 36.6421C81.6075 36.6611 81.6025 36.6813 81.5974 36.7003C81.5924 36.7205 81.5873 36.7395 81.5822 36.7585C81.5569 36.8547 81.5316 36.9508 81.5051 37.0457C81.4987 37.0685 81.4924 37.0913 81.4861 37.114C81.4798 37.1381 81.4722 37.1621 81.4658 37.1862C81.4608 37.2039 81.4557 37.2216 81.4507 37.2393C81.4127 37.3747 81.3722 37.5101 81.3305 37.6467C81.3254 37.6657 81.3191 37.6834 81.3127 37.7024C81.3064 37.7226 81.3001 37.7416 81.2938 37.7618C81.2621 37.8631 81.2305 37.9618 81.1976 38.0604L81.185 38.0984C81.1432 38.2211 81.1014 38.3426 81.0584 38.4628C81.0521 38.4818 81.0445 38.5007 81.0382 38.5197C81.0344 38.5324 81.0293 38.5438 81.0255 38.5564C80.985 38.6665 80.9433 38.7766 80.9015 38.8866C80.8826 38.9347 80.8636 38.9828 80.8446 39.0296C80.8155 39.103 80.7851 39.1751 80.756 39.246C80.7307 39.3067 80.7054 39.3662 80.6801 39.4244C80.6573 39.4775 80.6346 39.5294 80.6118 39.58C80.5789 39.6521 80.5473 39.723 80.5144 39.7926C80.4954 39.833 80.4764 39.8723 80.4574 39.9115C80.4309 39.9659 80.4043 40.0203 80.3777 40.0722C80.3625 40.1025 80.3474 40.1316 80.3322 40.162C80.3271 40.1721 80.3221 40.181 80.317 40.1911L80.3031 40.2177C80.298 40.2278 80.2917 40.2392 80.2866 40.2493L80.2828 40.2556L80.2803 40.2607C79.7363 41.2982 79.215 41.9093 78.8607 42.2459H78.8594C78.8518 42.2547 78.8443 42.261 78.8367 42.2686C78.8253 42.2788 78.8139 42.2901 78.8038 42.3003C78.2622 42.7747 77.87 42.1016 77.6676 41.8574C77.5448 41.7398 77.4449 41.5892 77.374 41.4019C77.1944 40.9262 77.1121 40.4277 77.1425 39.9102C77.1944 39.0182 77.3905 38.1528 77.7093 37.319C77.8725 36.8926 78.0421 36.4688 78.2331 36.0576C78.2471 36.0285 78.261 35.9994 78.2749 35.9715L78.2825 35.9589L78.2888 35.945L78.2939 35.9348C78.2977 35.9272 78.3027 35.9184 78.3065 35.9108C78.3154 35.8943 78.323 35.8792 78.3318 35.8627C78.342 35.8437 78.3521 35.8248 78.3635 35.8058C78.3786 35.7779 78.3951 35.7501 78.4115 35.7223C78.4267 35.697 78.4419 35.6717 78.4571 35.6451C78.4837 35.6021 78.509 35.5591 78.5355 35.5148C78.5494 35.4933 78.5621 35.4705 78.576 35.449C78.6013 35.4085 78.6266 35.3667 78.6507 35.3263C78.6608 35.3085 78.6722 35.2908 78.6823 35.2744C78.6848 35.2706 78.7013 35.2427 78.7329 35.1947C78.7532 35.1643 78.7797 35.1251 78.8126 35.0795C78.8329 35.0504 78.8556 35.0201 78.8809 34.9859C78.9227 34.9302 78.972 34.8682 79.0264 34.8024C79.0543 34.7683 79.0846 34.7341 79.1163 34.6987C79.1568 34.6531 79.1998 34.6063 79.2453 34.5595C79.2681 34.5355 79.2922 34.5114 79.3162 34.4887C79.3428 34.4621 79.3706 34.4355 79.3984 34.4089C79.4237 34.3849 79.449 34.3621 79.4756 34.3381C79.4996 34.3166 79.5237 34.2951 79.5477 34.2748C79.5857 34.2419 79.6249 34.2103 79.6654 34.1774C79.7021 34.1483 79.74 34.1192 79.778 34.0914C79.8033 34.0724 79.8299 34.0534 79.8564 34.0357C79.8969 34.0079 79.9387 33.98 79.9817 33.9535C80.0159 33.9319 80.0513 33.9104 80.088 33.8889C80.1247 33.8674 80.1614 33.8472 80.1993 33.8282C80.2284 33.813 80.2575 33.7978 80.2879 33.7839C80.3322 33.7624 80.3765 33.7434 80.422 33.7245C80.4625 33.7067 80.5043 33.6916 80.546 33.6764C80.5814 33.6637 80.6181 33.6511 80.6536 33.6397C80.6852 33.6296 80.7181 33.6207 80.751 33.6118C80.7889 33.6017 80.8282 33.5916 80.8674 33.584C80.8813 33.5815 80.8952 33.5777 80.9091 33.5752C80.9142 33.5752 80.9205 33.5726 80.9256 33.5714C80.8079 33.4904 80.3727 33.3993 80.231 33.398C80.0285 33.3955 79.8248 33.4246 79.6262 33.5182C79.2466 33.6966 78.4596 33.7207 78.1054 33.9636C77.7865 34.1837 77.4512 34.3798 77.1185 34.5798C76.7439 34.805 76.4352 35.1187 76.2075 35.4907C76.0076 35.8184 75.8292 36.1828 75.8697 36.6054C75.8836 36.7509 75.8431 36.9103 75.8013 37.0546C75.666 37.524 75.5129 37.9896 75.3788 38.4615C75.3345 38.6197 75.3281 38.7867 75.3041 38.9512C75.4635 39.1966 75.3421 39.4484 75.2889 39.6989C75.2661 39.809 75.2383 39.9191 75.3066 40.0216C75.3193 40.0393 75.3231 40.0861 75.3117 40.0975C75.1308 40.2696 75.2383 40.4189 75.3218 40.5719L75.3357 40.5922C75.3281 40.5897 75.3218 40.5884 75.3142 40.5859C75.3927 40.8174 75.3585 41.0743 75.4407 41.3109C75.4964 41.4703 75.5483 41.5702 75.7178 41.6006C75.7988 41.6145 75.8747 41.6854 75.938 41.7474C76.1075 41.9093 76.7389 42.1788 76.8135 42.4103C76.8717 42.5913 76.9907 42.6735 77.1159 42.7494C77.2703 42.8418 77.4449 42.9025 77.617 42.9595C77.6853 42.9822 78.3027 42.9936 78.3647 42.9506L78.4305 42.9367C78.7481 42.8987 79.1049 42.7203 79.1087 42.7165H79.1074C79.9336 42.3623 80.565 41.5829 80.8724 41.326C80.923 41.2843 80.9673 41.2324 81.0103 41.1805C81.4519 40.6656 81.8758 40.1354 82.2123 39.542C82.3338 39.3282 82.4945 39.1169 82.4793 38.8424C82.5717 38.8411 82.6425 38.8107 82.6564 38.7133C82.6767 38.5665 82.683 38.4185 82.7032 38.2717C82.7032 38.2641 83.1777 36.7876 83.1967 36.756C83.2018 36.6636 83.2055 36.57 83.2093 36.4776C83.2271 36.6459 83.2372 36.7471 83.2384 36.756C83.2612 36.9673 83.4067 37.2848 83.4346 37.3557C83.4637 37.4278 83.4839 37.5139 83.475 37.591C83.4599 37.7353 83.5396 37.8466 83.5573 37.9757C83.5763 38.1186 83.5737 38.2654 83.5813 38.4248C83.6965 38.435 83.7863 38.4438 83.8787 38.4527C83.9445 38.6703 83.9255 38.9094 84.0229 39.103C84.0381 39.1334 84.0558 39.1612 84.0748 39.1852V39.189C84.157 39.3573 84.1406 39.5876 84.3278 39.6926C84.3291 39.6926 84.3177 39.7318 84.3063 39.7445C84.2468 39.8077 84.2823 39.8659 84.3 39.9279C84.3885 40.2291 84.4759 40.5302 84.5619 40.8313C84.6252 41.054 84.715 41.2729 84.7403 41.5019C84.8036 42.0763 85.0503 42.5533 85.3122 43.024C85.335 43.0632 85.3868 43.1126 85.421 43.1088C85.8512 43.3707 86.2143 43.1138 86.318 43.0948C86.3535 43.0898 86.8153 42.8734 86.8482 42.8595C87.2341 42.5647 87.5909 42.4394 87.9274 42.0649H87.9236L87.9186 42.0675L87.9249 42.0649ZM75.6508 38.855C75.6483 38.8626 75.6343 38.8664 75.6255 38.8727C75.6191 38.8639 75.6141 38.855 75.6078 38.8462C75.6217 38.8373 75.6343 38.8297 75.6483 38.8209C75.6495 38.8322 75.6558 38.8449 75.652 38.855H75.6508ZM76.5289 41.3311C76.52 41.3222 76.5036 41.3121 76.5048 41.3045C76.5086 41.2805 76.52 41.2577 76.5289 41.2324C76.5415 41.2476 76.5643 41.2628 76.563 41.2754C76.5605 41.2944 76.5415 41.3121 76.5289 41.3311ZM82.4768 35.6299C82.4527 35.6236 82.4325 35.5806 82.4249 35.5502C82.4198 35.5325 82.4413 35.5059 82.4515 35.4831C82.4869 35.5034 82.5223 35.5236 82.5843 35.5578C82.5286 35.597 82.497 35.6362 82.4768 35.6299ZM83.7167 37.1431L83.8508 37.0647L83.8546 37.2064L83.7167 37.1431ZM84.1988 38.8753C84.1836 38.8689 84.1773 38.8411 84.1671 38.8221C84.1874 38.8145 84.2102 38.7993 84.2279 38.8031C84.2393 38.8057 84.2456 38.836 84.2532 38.8538C84.2342 38.8613 84.2114 38.8803 84.1975 38.8753H84.1988ZM84.7061 40.3619C84.6998 40.3645 84.6821 40.3467 84.6821 40.3366C84.6821 40.3265 84.6985 40.3075 84.7049 40.3088C84.7264 40.3126 84.7479 40.3227 84.7694 40.3316C84.7479 40.3429 84.7276 40.3556 84.7061 40.3619ZM84.8782 37.8011C84.8706 37.7922 84.8529 37.7808 84.8554 37.7758C84.863 37.7555 84.8757 37.7378 84.8871 37.7188C84.8972 37.7264 84.9149 37.7378 84.9136 37.7391C84.9035 37.7606 84.8909 37.7808 84.8782 37.8011ZM85.2375 42.2737L85.1983 42.2408C85.2059 42.2332 85.2148 42.218 85.2223 42.2193C85.2312 42.2193 85.2375 42.2345 85.2451 42.2433L85.2363 42.2737H85.2375ZM85.5349 39.4914L85.5374 39.4661L85.5652 39.48L85.5336 39.4914H85.5349ZM85.7765 42.4369C85.7424 42.4141 85.7095 42.3901 85.6766 42.3635C85.6715 42.3585 85.674 42.3433 85.6728 42.3319C85.693 42.3243 85.7234 42.3053 85.7297 42.3117C85.7588 42.3408 85.7791 42.3787 85.8018 42.4141C85.8018 42.4141 85.7791 42.4382 85.7753 42.4357L85.7765 42.4369ZM85.9499 39.4762C85.9385 39.4598 85.9233 39.4434 85.9157 39.4244C85.9119 39.4155 85.9233 39.4003 85.9284 39.3877L85.9828 39.4206C85.9726 39.4396 85.9613 39.4573 85.9511 39.4762H85.9499ZM86.3307 42.9772C86.2953 42.9114 86.2573 42.8469 86.232 42.776C86.227 42.7608 86.2864 42.7127 86.3168 42.6798C86.3332 42.6988 86.3636 42.7191 86.3623 42.738C86.356 42.8178 86.3434 42.8962 86.3307 42.9759V42.9772ZM94.7673 42.1826C94.6914 42.2104 94.6079 42.256 94.5219 42.2712C94.2752 42.3129 94.0626 42.4369 93.8551 42.5938C93.7286 42.69 93.5919 42.7684 93.4566 42.8469C93.2326 42.9772 93.1731 42.9683 92.9935 42.7899C92.9517 42.7482 92.9112 42.7039 92.8745 42.6545C92.8239 42.5875 92.7872 42.5027 92.7278 42.4483C92.6633 42.3888 92.5798 42.3559 92.5393 42.3319C92.538 42.218 92.562 42.1269 92.5317 42.0801C92.3798 41.8385 92.2913 41.5614 92.1761 41.2982C92.1508 41.2413 92.1382 41.1628 92.0977 41.1312C91.9332 41.0072 91.894 40.7984 91.8168 40.615C91.7295 40.4062 91.6523 40.1911 91.5562 39.9887C91.4916 39.8546 91.3727 39.7521 91.3259 39.6129C91.2449 39.3725 91.0235 39.2321 90.9906 38.9588C90.983 38.8955 90.9071 38.8373 90.8514 38.793C90.7502 38.712 90.7021 38.6007 90.6781 38.4691C90.6376 38.2528 90.5933 38.0377 90.5541 37.8213C90.4908 37.4772 90.4048 37.1355 90.377 36.7863C90.3453 36.3789 90.2163 36.0032 90.1441 35.6084C90.1404 35.5882 90.1391 35.2921 90.1011 35.2567C90.0151 35.2655 89.4255 35.7071 89.3306 35.7488C88.8776 35.9475 88.6448 36.136 88.2184 36.3764C88.1134 36.7446 88.4095 36.5055 88.4475 36.7889C88.4879 36.8066 88.5196 36.842 88.5196 36.8989C88.5221 37.0609 88.5272 37.2241 88.5373 37.3848V37.3987C88.5373 37.4076 88.5373 37.4177 88.5386 37.4266C88.5386 37.4354 88.5386 37.4455 88.5398 37.4544C88.5398 37.4721 88.5423 37.4898 88.5436 37.5088C88.5461 37.5392 88.5487 37.5708 88.5512 37.6012C88.555 37.6442 88.5588 37.6859 88.5626 37.7289C88.5664 37.7707 88.5702 37.8125 88.5752 37.8542C88.5803 37.9073 88.5866 37.9592 88.593 38.0124C88.598 38.0503 88.6018 38.0883 88.6069 38.125C88.6107 38.1541 88.6145 38.1832 88.6183 38.211C88.6233 38.2464 88.6284 38.2831 88.6334 38.3186C88.6385 38.3514 88.6436 38.3843 88.6486 38.4172C88.6537 38.4527 88.66 38.4881 88.6651 38.5223C88.6714 38.564 88.679 38.607 88.6866 38.6488C88.6942 38.6893 88.7005 38.731 88.7081 38.7715C88.7144 38.8057 88.7207 38.8398 88.7271 38.874C88.7347 38.917 88.7435 38.96 88.7524 39.003C88.76 39.0385 88.7663 39.0739 88.7739 39.1093C88.7815 39.146 88.7891 39.184 88.7979 39.2207C88.8081 39.2662 88.8182 39.3105 88.8283 39.356C88.8384 39.3978 88.8473 39.4408 88.8574 39.4826C88.8675 39.5243 88.8776 39.5661 88.8878 39.6066C88.8979 39.6496 88.9093 39.6913 88.9194 39.7344C88.9282 39.7723 88.9384 39.809 88.9485 39.847C88.9561 39.8773 88.9649 39.909 88.9725 39.9393C88.9827 39.976 88.9928 40.0127 89.0029 40.0507C89.0105 40.0785 89.0181 40.1076 89.0269 40.1354C89.032 40.1532 89.0371 40.1709 89.0421 40.1873L89.0497 40.2152L89.0522 40.224L89.0548 40.2316C89.3989 41.4361 89.8709 42.6166 90.3529 43.7755C90.3681 43.7983 90.382 43.8224 90.3896 43.8477C90.4238 43.9464 90.4491 44.0425 90.5642 44.0855C90.6325 43.9868 90.7274 43.9527 90.835 43.9843C90.7502 44.1564 90.8299 44.3082 90.8451 44.4676C90.94 44.5119 91.0286 44.5423 91.1057 44.5916C91.2145 44.6612 91.317 44.6625 91.4385 44.6106C91.5941 44.5436 91.7687 44.5271 91.9092 44.4347C92.0635 44.3335 92.2394 44.3601 92.39 44.2462C92.5266 44.145 92.6924 44.0994 92.8417 44.021C92.9593 43.959 93.082 43.8995 93.1845 43.8122C93.4654 43.5693 93.7716 43.3757 94.0689 43.1695C94.3448 42.9772 94.5523 42.7216 94.7458 42.4445C94.7876 42.3838 94.8509 42.2939 94.7673 42.1813V42.1826ZM90.8375 43.978C90.8299 43.9476 90.8211 43.9185 90.8135 43.8882C90.8324 43.8818 90.8502 43.873 90.8691 43.8704C90.878 43.8704 90.8881 43.8806 90.897 43.8856C90.8856 43.8995 90.8742 43.9135 90.8641 43.9286C90.854 43.9438 90.8464 43.9603 90.8388 43.9767L90.8375 43.978ZM91.007 44.4056C90.9197 44.3626 90.9046 44.3133 90.8704 44.04C91.0172 44.169 91.1108 44.2513 91.1994 44.3297C91.1424 44.4512 91.069 44.4373 91.007 44.4056ZM91.3436 44.4613C91.336 44.4562 91.3221 44.4512 91.3234 44.4461C91.3246 44.4221 91.3297 44.398 91.3335 44.374C91.3411 44.3791 91.3537 44.3854 91.3537 44.3905C91.3537 44.4145 91.3474 44.4373 91.3449 44.4613H91.3436ZM91.6789 43.5478C91.6789 43.5478 91.6662 43.5326 91.6599 43.5238C91.6764 43.5149 91.6928 43.5035 91.7105 43.4972C91.7156 43.4959 91.7244 43.5111 91.7308 43.5187C91.7156 43.5276 91.6979 43.5402 91.6789 43.5465V43.5478ZM92.0344 41.6284C92.0192 41.6183 92.0066 41.6057 91.9927 41.5943C91.9977 41.5841 92.0041 41.5728 92.0091 41.5626L92.0534 41.6057C92.0471 41.6132 92.0357 41.6297 92.0344 41.6284Z" fill="white"/>
<path d="M63.7005 20.4369H62.677V25.9685H63.7005V20.4369Z" fill="white"/>
<path d="M62.4505 19.1071L63.1881 19.6575L63.927 19.0312L63.1894 18.4909L62.4505 19.1071Z" fill="white"/>
<path d="M58.279 24.6931L58.2575 24.6425L55.3854 18L54.4213 18.6744L57.6755 26.1583L58.6269 25.4763L61.4952 18.2113H60.7981L58.279 24.6931Z" fill="white"/>
<path d="M71.5704 19.1071L72.308 19.6575L73.0456 19.0312L72.3093 18.4909L71.5704 19.1071Z" fill="white"/>
<path d="M78.0535 25.4687C77.1602 25.4687 76.5845 24.6818 76.5845 23.4646V21.0492H77.913L78.7734 20.4369H76.5833V19.7119L74.6841 21.0379H75.5597V24.0997C75.5597 25.2233 76.3517 26.1039 77.3627 26.1039C78.3027 26.1039 78.7607 25.494 78.8999 25.2638C78.5988 25.4004 78.3141 25.47 78.0522 25.47L78.0535 25.4687Z" fill="white"/>
<path d="M72.8204 20.4369H71.7968V25.9685H72.8204V20.4369Z" fill="white"/>
<path d="M67.991 22.6181C67.1256 22.3499 66.307 22.0969 66.3348 21.4604C66.3424 21.2694 66.4006 21.1365 66.4423 21.0644C66.5992 20.9974 66.789 20.967 66.9902 20.967C67.5848 20.967 68.2833 21.2276 68.549 21.5591L69.4359 20.929C69.1082 20.5558 68.5021 20.3521 67.8493 20.3964C67.2356 20.4381 66.7169 20.6861 66.4411 21.0632C66.2298 21.153 65.6009 21.4731 65.6009 22.0943C65.6009 22.9307 66.5651 23.2305 67.4975 23.5203C68.2782 23.7632 69.0158 23.9922 69.074 24.5299C69.1171 24.9234 68.9058 25.2359 68.8007 25.3637C68.01 25.575 66.9535 25.141 66.4942 24.5818L65.563 25.2347C65.9514 25.6939 66.5802 25.971 67.2508 25.9748C67.2559 25.9748 67.2609 25.9748 67.266 25.9748C67.8759 25.9748 68.4414 25.7484 68.8007 25.3637C69.074 25.2688 69.9774 24.8842 69.9319 23.9985C69.8927 23.2039 68.9273 22.9054 67.9923 22.6169L67.991 22.6181Z" fill="white"/>
</svg>
